<svg id="Layer_1" data-name="Layer 1" xmlns="http://www.w3.org/2000/svg" viewBox="0 0 328.02 289.77"><title>ic-already-member</title><ellipse cx="90.87" cy="94.81" rx="84.97" ry="85.02" fill="#068675"/><path d="M82.7,12.8a16.41,16.41,0,0,0-8-.54,9.78,9.78,0,0,0-6.49,4.48c-1.53,2.69-1.38,6-1.19,9.06L68.41,49a14.19,14.19,0,0,1-.59,6.37c-.83,2-2.92,3.61-5,3.17a17.79,17.79,0,0,1-3-1.33c-1-.41-2.37-.43-3,.46a2.77,2.77,0,0,0-.33,1.89,9.22,9.22,0,0,0,4.6,6.91c-1.47-.71-3.33.78-3.35,2.43a4.2,4.2,0,0,0,2.82,3.67,12.33,12.33,0,0,0,4.86.56A2.55,2.55,0,0,0,63.14,76a3.86,3.86,0,0,0,2.44,3,8.35,8.35,0,0,0,4,.43,15.12,15.12,0,0,0,8-3c3.94-3.11,5.53-8.43,5.59-13.46S81.94,53,81.24,48c-1.62-11.55-.3-23.28,1-34.86l-1-.29" transform="translate(0.02 0)"/><path d="M67.29,185.42c3.13,3,4.32,7.7,1.33,11.32a8.76,8.76,0,0,1-11.77,1.41c-8.49-6.56.36-18.65,9.52-16.15a1.53,1.53,0,0,1-.4,3c-2.68.15-5.55.26-7.68,2.13a5.57,5.57,0,0,0-.47,7.75c5,6.14,13.66-2.9,8.42-8.39a.74.74,0,0,1,0-1.05.73.73,0,0,1,1,0Z" transform="translate(0.02 0)" fill="#e6c125"/><path d="M226.63,68.44c1.19-1.26,2.5-2.22,3.1-3.91,1.18-3.36-1.09-5-3.74-6.27s-4.9-2.76-5.7-5.82c-1.26-4.79,2.81-10.69,8-9.27,1.68.46,1.18,2.61,0,3.28-1.61.93-3.77,1.46-4,3.68-.36,3,2.56,3.82,4.61,4.89a8.73,8.73,0,0,1,4.58,5.35c1.21,4.19-1.3,9.87-6.19,9.63a1,1,0,0,1-.85-1.1,1.23,1.23,0,0,1,.18-.46Z" transform="translate(0.02 0)" fill="#e6c125"/><path d="M202.07,174.82c-.43,2.77-3.31,8.64-6.34,9.46-1.62.43-2.82-.64-4.07-1.5-2.28-1.57-4.53-3.18-6.78-4.79a2,2,0,0,1-.7-2.65l6-9.21a2,2,0,0,1,2.65-.69,69.32,69.32,0,0,1,7.42,5.45c1.55,1.42-.42,3.75-2.17,2.82a67.86,67.86,0,0,1-7.2-4.93l2.64-.69-6,9.21-.69-2.65,4.06,2.89c.76.55,3.32,2.94,4.17,2.85s2.36-2.8,2.83-3.36A15.35,15.35,0,0,1,201,174c.6-.41,1.19.26,1.1.83Z" transform="translate(0.02 0)" fill="#edc483"/><path d="M42.66,77.2c-.43,2.77-3.31,8.64-6.34,9.45-1.61.43-2.81-.63-4.07-1.49C30,83.59,27.72,82,25.47,80.37a2,2,0,0,1-.69-2.65l6-9.21a2,2,0,0,1,2.64-.69,70.46,70.46,0,0,1,7.43,5.45c1.54,1.42-.42,3.75-2.18,2.82a70.47,70.47,0,0,1-7.2-4.93l2.65-.69-6,9.21c-.23-.89-.46-1.77-.7-2.65l4.06,2.89c.76.55,3.32,2.94,4.17,2.85S38,80,38.48,79.41a15.66,15.66,0,0,1,3.08-3.06c.6-.4,1.18.27,1.1.84Z" transform="translate(0.02 0)" fill="#e6c125"/><path d="M17.08,133.57c5.18,2.41,10.28,5,15.37,7.57a1.72,1.72,0,0,1,.94,2.24,1.74,1.74,0,0,1-.47.66c-3.73,3.86-7.41,7.73-11.42,11.3a1.58,1.58,0,0,1-2.22-.27,1.73,1.73,0,0,1-.2-.32c-2.48-5.43-6.26-12.84-5.23-19,.27-1.57,2.66-2.28,3.3-.53,1,2.73,1,5.8,1.64,8.64A45.2,45.2,0,0,0,22,153.48l-2.71-.29c3.65-4.13,7.6-7.94,11.55-11.79,0,.9.05,1.8.07,2.69-5-2.8-9.93-5.64-14.8-8.64-1-.63-.1-2.4,1-1.88Z" transform="translate(0.02 0)" fill="#71ab3c"/><path d="M32.09,16.14A96.48,96.48,0,0,1,43.3,29.23c1,1.47-1.19,3.32-2.43,2A95.89,95.89,0,0,1,30.46,17.49a1.07,1.07,0,0,1,1.63-1.34Z" transform="translate(0.02 0)" fill="#71ab3c"/><path d="M.93,55.13l.29-.26a3.23,3.23,0,1,1,4.6,4.53l0,0-.25.28a3.25,3.25,0,1,1-4.6-4.6Z" transform="translate(0.02 0)" fill="#068675"/><path d="M194.08,103.4l.29-.26a3.23,3.23,0,0,1,4.6,4.53l0,0-.25.28a3.26,3.26,0,0,1-4.61-4.6Z" transform="translate(0.02 0)" fill="#068675"/><path d="M105.58,68.32,162,89.47l-5.38-22.78L171.23,63S187,107.49,176,108.68c-19.17,2.09-48.17-5.51-48.17-5.51Z" transform="translate(0.02 0)" fill="#ff8b7b"/><path d="M107.55,68.13c-4.91-1.95,32.82,12.07,32.82,12.07L136.55,106l-14.35-4.71Z" transform="translate(0.02 0)" fill="#d9b51d"/><path d="M125.15,119.39,125,164c-14.67,18.05-65.78-5.29-65.78-5.29l-.6-18.25L57.46,97C58.63,79.7,74.7,71.21,74.7,71.21c6.64-3.31,16.76-5.19,25.89-4.74,9.52.47,11.87,5,15.8,13.73C119.56,87.22,125.15,93.82,125.15,119.39Z" transform="translate(0.02 0)" fill="#e6c125"/><path d="M77,24.44l.68,8.92s-7.58,1-5.42,7.94,7.35,3.89,7.35,3.89S80.88,62.92,99,57.3c14.45-4.47,13.56-23.19,11.73-39.15A10.68,10.68,0,0,0,98.9,8.79q-.41,0-.81.12L87.18,11A12.67,12.67,0,0,0,77,24.44Z" transform="translate(0.02 0)" fill="#ff8b7b"/><path d="M77.65,40.77l4.89,26.09a10.46,10.46,0,0,0,12.21,8.36l.5-.11h0a10.46,10.46,0,0,0,7.87-12l-2.66-15Z" transform="translate(0.02 0)" fill="#ff8b7b"/><path d="M77.65,33.36c5.06-4.94,6.55-13.17,7.93-20.12a17.7,17.7,0,0,0,16.55,2.16,26.66,26.66,0,0,0,5.9,5.16,2.63,2.63,0,0,0,2.09.57c.85-.25,1.23-1.23,1.43-2.1a14.92,14.92,0,0,0-.3-8.4,10.19,10.19,0,0,0-5.64-6.06c-2.84-1.1-6-.62-9,.15A49.81,49.81,0,0,0,84,9.94c-3.88,2.28-7.6,5.28-9.25,9.47s-1.64,12.31,2.33,14.42" transform="translate(0.02 0)"/><path d="M157.63,68.13s-9.85-13.77-8.09-13.76,2.67,2.6,6.08,4.37c0,0-5.44-17.22-3.76-16.86s5.7,11.42,6,11.4-3.47-12.4-2.07-12.55,4.82,11.37,4.82,11.37-2.35-11-.87-11.2,3.67,9.84,3.67,9.84-1.75-8.47-.4-8.68c.82-.12,8.25,20.89,8.25,20.89-.2,0-13.6,5.17-13.6,5.17" transform="translate(0.02 0)" fill="#ff8b7b"/><path d="M67.92,77.35a18.79,18.79,0,0,1,9.15.52,10.93,10.93,0,0,1,6.66,6c1.07,2.69.78,5.7.46,8.58q-1.35,12.38-2.71,24.74" transform="translate(0.02 0)" fill="none" stroke="#251a51" stroke-miterlimit="10" stroke-width="0.05"/><path d="M52.25,118.8l30.57-3.24" transform="translate(0.02 0)" fill="none" stroke="#251a51" stroke-miterlimit="10" stroke-width="0.05"/><path d="M127.44,2.18V31.73h19.73l.63,11.21,11.6-11.85h43.44L199,0Z" transform="translate(0.02 0)" fill="#71ab3c"/><path d="M80.47,11.62c-1.3,2.34-2.55,4.72-3.73,7.13-.4.82-.76,1.92-.11,2.56" transform="translate(0.02 0)" fill="none" stroke="#6338a1" stroke-miterlimit="10" stroke-width="0.05"/><path d="M120.68,106.66l3.34,44.5-1.91,15.5a24.67,24.67,0,0,1-6.53,3.27c-3.58,1.1-11.23.88-11.23.88L77.68,157.37,80.82,106Z" transform="translate(0.02 0)" fill="#71ab3c"/><path d="M117,76.51V111.8l-5.41-2V69.55L117,71.2" transform="translate(0.02 0)" fill="#71ab3c"/><path d="M74.05,71.58s20.92,2.7,14.74,36.9l-5.24.56s5.91-32.13-13.76-34.43Z" transform="translate(0.02 0)" fill="#71ab3c"/><path d="M80.21,111.28s-7.14,42.12,2.93,41.08C116.28,149,136,148.49,136,148.49l5.49,11.41c.13,1.94-62.75,20-72.85,14-7.14-4.2-18.5-15.53-13.34-49.37l1.22-11.34Z" transform="translate(0.02 0)" fill="#ff8b7b"/><path d="M61.84,83.34s-7.73,7.42-9.46,35.53l29.91-3.32S87.28,67.7,61.84,83.34Z" transform="translate(0.02 0)" fill="#d9b51d"/><path d="M132.53,148.49s16.21-5.09,15.65-3.41-3.31,1.73-6.07,4.43c0,0,18.12.2,17.25,1.69s-12.67,1.87-12.74,2.13,12.91.57,12.61,1.95-12.35,1.05-12.35,1.05,11.18,1.19,11,2.68-10.53.41-10.53.41,8.62,1,8.4,2.34c-.14.82-25.26,1-25.3,1.61,0,.32,2.13-14.88,2.13-14.88" transform="translate(0.02 0)" fill="#ff8b7b"/><circle cx="149.19" cy="15.76" r="3.34" fill="#fff"/><circle cx="164.23" cy="15.76" r="3.34" fill="#fff"/><ellipse cx="180.11" cy="15.76" rx="2.51" ry="3.35" fill="#fff"/><ellipse cx="242.65" cy="205.44" rx="84.33" ry="84.28" transform="translate(36.51 447.47) rotate(-89.83)" fill="#71ab3c"/><path d="M229.85,177l-55.91,21,5.33-22.6-14.54-3.7S149.09,215.84,160,217c19,2.07,47.79-5.46,47.79-5.46Z" transform="translate(0.02 0)" fill="#ff8b7b"/><path d="M227.89,176.8c4.87-1.93-32.55,12-32.55,12l3.79,25.61,14.23-4.67Z" transform="translate(0.02 0)" fill="#047969"/><path d="M210.43,227.65l.13,44.24c14.56,17.91,65.25-5.25,65.25-5.25l.59-18.09,1.18-43.1c-1.17-17.17-17.1-25.59-17.1-25.59-6.59-3.29-16.63-5.15-25.68-4.7-9.45.46-11.79,5-15.68,13.62C216,195.74,210.43,202.28,210.43,227.65Z" transform="translate(0.02 0)" fill="#068675"/><path d="M255,219.6s7.08,41.77-2.9,40.75c-32.87-3.38-52.44-3.84-52.44-3.84l-5.45,11.32c-.12,1.92,62.24,19.79,72.26,13.88,7.08-4.17,18.35-15.4,13.23-49l-1.21-11.25Z" transform="translate(0.02 0)" fill="#ff8b7b"/><path d="M273.08,191.88s7.67,7.37,9.38,35.24l-29.67-3.28S247.85,176.37,273.08,191.88Z" transform="translate(0.02 0)" fill="#047969"/><path d="M258.22,133.47l-.67,8.85s7.52,1,5.38,7.87-7.29,3.86-7.29,3.86-1.28,17.59-19.29,12c-14.32-4.44-13.45-23-11.63-38.83a10.61,10.61,0,0,1,11.75-9.29c.27,0,.54.08.81.13l10.82,2.11A12.55,12.55,0,0,1,258.22,133.47Z" transform="translate(0.02 0)" fill="#ff8b7b"/><path d="M257.55,149.66l-4.85,25.88a10.36,10.36,0,0,1-12.1,8.29l-.5-.1h0a10.39,10.39,0,0,1-7.81-11.92L234.92,157Z" transform="translate(0.02 0)" fill="#ff8b7b"/><path d="M257.55,142.32c-5-4.9-6.5-13.07-7.87-20a17.56,17.56,0,0,1-16.41,2.14,26.41,26.41,0,0,1-5.85,5.11,2.63,2.63,0,0,1-2.07.58c-.84-.26-1.22-1.23-1.42-2.08a14.8,14.8,0,0,1,.29-8.34,10,10,0,0,1,5.59-6c2.82-1.09,6-.62,8.9.14a49.14,49.14,0,0,1,12.54,5.19c3.85,2.25,7.54,5.23,9.17,9.38s1.63,12.21-2.31,14.31" transform="translate(0.02 0)"/><path d="M203.12,256.51s-16.08-5-15.53-3.38,3.29,1.72,6,4.4c0,0-18,.2-17.12,1.67s12.57,1.86,12.64,2.11-12.8.57-12.51,1.94,12.25,1,12.25,1-11.09,1.18-10.86,2.66,10.45.42,10.45.42-8.55,1-8.33,2.31c.13.82,25.05,1,25.1,1.6,0,.32-2.11-14.76-2.11-14.76" transform="translate(0.02 0)" fill="#ff8b7b"/><path d="M178.22,176.8s9.77-13.66,8-13.65-2.65,2.58-6,4.34c0,0,5.4-17.08,3.72-16.72s-5.65,11.32-5.91,11.31,3.44-12.3,2.05-12.45-4.78,11.28-4.78,11.28,2.32-10.87.86-11.11-3.64,9.76-3.64,9.76,1.73-8.4.4-8.6c-.81-.13-8.18,20.72-8.18,20.72.19,0,13.48,5.12,13.48,5.12" transform="translate(0.02 0)" fill="#ff8b7b"/><path d="M282.74,227.06l-30.31-3.21" transform="translate(0.02 0)" fill="none" stroke="#251a51" stroke-miterlimit="10" stroke-width="0.05"/><path d="M178,250.12c-.26-1.7-.21-3.31-1.16-4.81-1.89-3-4.58-2.23-7.18-.92s-5.15,2.14-8,.89c-4.5-1.95-6.61-8.74-2.32-11.93,1.4-1,2.76.67,2.58,2-.26,1.82-1.17,3.83.4,5.4,2.09,2.1,4.54.34,6.63-.6a8.66,8.66,0,0,1,7-.3c4,1.62,6.91,7,3.73,10.72a1,1,0,0,1-1.39,0,1.1,1.1,0,0,1-.24-.42Z" transform="translate(0.02 0)" fill="#e6c125"/><path d="M146.38,180.56c3.11,3,4.29,7.63,1.32,11.22a8.69,8.69,0,0,1-11.68,1.4c-8.41-6.5.36-18.49,9.44-16a1.51,1.51,0,0,1-.4,3c-2.65.15-5.5.25-7.62,2.12a5.54,5.54,0,0,0-.46,7.68c5,6.09,13.55-2.88,8.35-8.32a.74.74,0,0,1,1-1Z" transform="translate(0.02 0)" fill="#068675"/><path d="M291.49,128.71c3.11,3,4.29,7.64,1.33,11.22a8.69,8.69,0,0,1-11.68,1.4c-8.42-6.5.35-18.49,9.44-16a1.51,1.51,0,0,1-.4,3c-2.66.16-5.5.26-7.62,2.12a5.52,5.52,0,0,0-.46,7.68c4.95,6.09,13.55-2.87,8.35-8.32a.74.74,0,0,1,0-1,.73.73,0,0,1,1,0Z" transform="translate(0.02 0)" fill="#068675"/><path d="M325.38,240.47c-2.14,7.95-4.5,15.81-6.94,23.67a2.48,2.48,0,0,1-3,1.89,2.42,2.42,0,0,1-1-.51c-6.39-4.34-12.78-8.6-18.83-13.41a2.28,2.28,0,0,1-.16-3.22,2,2,0,0,1,.4-.36c7.09-4.86,16.66-12.05,25.64-12.1,2.29,0,3.89,3.21,1.57,4.55-3.63,2.09-8,2.84-11.85,4.45a65,65,0,0,0-12.85,6.86c-.09-1.3-.18-2.61-.26-3.91,6.76,4.16,13.13,8.83,19.56,13.49l-3.8.76c2.74-7.77,5.55-15.48,8.6-23.13.64-1.61,3.38-.73,2.92,1Z" transform="translate(0.02 0)" fill="#e6c125"/><path d="M131.81,233.5a98.31,98.31,0,0,1-16.74,3.19,1.57,1.57,0,0,1-.39-3.12,95.65,95.65,0,0,1,16.6-2.09c1.1-.06,1.75,1.69.53,2Z" transform="translate(0.02 0)" fill="#71ab3c"/><path d="M327.24,207a97.85,97.85,0,0,1-17,1.12,1.57,1.57,0,0,1,0-3.14A96.36,96.36,0,0,1,327,205c1.1.08,1.53,1.9.28,2.08Z" transform="translate(0.02 0)" fill="#068675"/><path d="M287,178.56l.29-.26a3.2,3.2,0,0,1,4.52,4.53h0l-.25.29a3.22,3.22,0,0,1-4.57-4.55Z" transform="translate(0.02 0)" fill="#e6c125"/><path d="M178.59,178.27l-14.7-4.13L163,176.8l14.83,4.6Z" transform="translate(0.02 0)" fill="#251a51"/><path d="M169.21,177.65a1.83,1.83,0,1,0,1.83-1.83,1.83,1.83,0,0,0-1.83,1.83Z" transform="translate(0.02 0)" fill="#e4e1ea"/></svg>