<svg id="Layer_1" data-name="Layer 1" xmlns="http://www.w3.org/2000/svg" viewBox="0 0 159.91 194.53"><title>ic-login</title><rect x="139.02" y="178.84" width="4.29" height="9.54" transform="translate(-56.58 63.04) rotate(-21.07)" fill="#ff8b7b"/><path d="M158.68,189.16h-4.2l-1.54-9.73h4.2Z" transform="translate(0 0)" fill="#ff8b7b"/><path d="M154.22,188.67h4.72a.34.34,0,0,1,.34.29l.61,3.73a.67.67,0,0,1-.57.75h-.09c-1.65,0-2.44-.12-4.52-.12-1.27,0-3.91.13-5.68.13s-1.89-1.74-1.16-1.9a11.17,11.17,0,0,0,5.65-2.62A1.1,1.1,0,0,1,154.22,188.67Z" transform="translate(0 0)"/><path d="M140.22,187.2l4.48-1.3a.36.36,0,0,1,.42.17l1.65,3.35a.64.64,0,0,1-.31.85l-.11,0c-1.62.44-2.71.71-4.74,1.31-1.4.4-2.83,1.07-4.21,1.51a20.75,20.75,0,0,1-4.38.32c-1.73,0-2.11-1.82-1.37-1.9,1.87-.21,2.12-.12,3.15-.63a14.36,14.36,0,0,0,4.51-3.12A2,2,0,0,1,140.22,187.2Z" transform="translate(0 0)"/><path d="M134.23,51.83l-5.53-2.24s-7.31,13.32-9.4,14c-2.85.91-8.74,3.46-12.24,3.94a6.3,6.3,0,0,0-1.18,2.92c4.7,1.57,15-.51,17.22-2.15C128.14,64.56,134.23,51.83,134.23,51.83Z" transform="translate(0 0)" fill="#ff8b7b"/><path d="M135.94,48.81c1,3.82-4.56,11.49-4.56,11.49L124,56.17s1.37-3.15,3-6.36C129.79,44.63,134.77,44.45,135.94,48.81Z" transform="translate(0 0)" fill="#068675"/><path d="M127,57.81l2.89,1.62.5-8.85C128.68,51.87,127.49,55.75,127,57.81Z" transform="translate(0 0)" fill="#046256"/><path d="M107.77,67.48l-4.62-1.94-1.9,5.12a18.85,18.85,0,0,0,5.71,0Z" transform="translate(0 0)" fill="#ff8b7b"/><path d="M99.71,65.41l-.12,3.41,1.65,1.84,1.9-5.12Z" transform="translate(0 0)" fill="#ff8b7b"/><rect x="138.19" y="178.99" width="4.29" height="4.92" transform="translate(-55.92 62.7) rotate(-21.1)" fill="#ea7063"/><path d="M157.15,179.43H153l.8,5H158Z" transform="translate(0 0)" fill="#ea7063"/><path d="M131.12,45.93s-5.7,12.7-2.38,36.33h22.48c.36-3.45-.82-20.28,3.46-36.54a56.92,56.92,0,0,0-7.47-.95,80.24,80.24,0,0,0-9.56,0A43.78,43.78,0,0,0,131.12,45.93Z" transform="translate(0 0)" fill="#068675"/><path d="M128,75.87c.08,1,.18,2,.3,3.1L145,73.54a12,12,0,0,0,6.43-4.66c.07-1.49.15-3.06.28-4.69.06-.8.12-1.62.2-2.44s.17-1.74.27-2.62Z" transform="translate(0 0)" fill="#046256"/><path d="M146.89,34c-.78,3.07-1.71,8.71.32,10.76,0,0-1.42,3.12-7.13,3.12-5.22,0-2.43-3.12-2.43-3.12,3.48-.82,3.54-3.36,3.08-5.75Z" transform="translate(0 0)" fill="#ff8b7b"/><path d="M144.38,36.05l-3.64,3a10.8,10.8,0,0,1,.2,1.7c1.06,1.06,3.2-1.62,3.42-3A4.41,4.41,0,0,0,144.38,36.05Z" transform="translate(0 0)" fill="#ea7063"/><path d="M134.47,34a3.67,3.67,0,0,0,2.37,1.75c1.34.3,2-.94,1.64-2.18s-1.43-2.61-2.77-2.36a1.87,1.87,0,0,0-1.47,2.19A1.91,1.91,0,0,0,134.47,34Z" transform="translate(0 0)" fill="#ea7063"/><path d="M136.68,24.13c-2.09,1-2.82,9.25-.2,10.48S140.64,22.32,136.68,24.13Z" transform="translate(0 0)"/><path d="M147.53,29.38c-.5,4.16-.58,6.61-2.81,8.75a5.37,5.37,0,0,1-9.13-2.85c-.67-3.74.26-9.92,4.43-11.58a5.38,5.38,0,0,1,7.51,5.68Z" transform="translate(0 0)" fill="#ff8b7b"/><path d="M140.67,26.29c3.09-.79,5.36-1.33,4.55,1.25-1.08,3.43-2.37,6.76-.64,6.91,1.06.1,5.75-1.9,5.15-3.9-.51-1.76,1.67-2.23,2.07-3.12,1.44-3.22-2.69-2.8-2-4.75s-3.33-5.1-5.57-3.54c-3.63,2.54-9.87,2.5-6.59-1.66,2.35-3-1.84-2.36-1.84-2.36s2.53,1.5-1.73,3.82C129.59,21.4,133.73,28.06,140.67,26.29Z" transform="translate(0 0)"/><path d="M149.14,34a4.32,4.32,0,0,1-2.57,1.75c-1.38.3-1.9-.94-1.39-2.18s1.74-2.61,3-2.36a1.72,1.72,0,0,1,1.28,2.06A1.69,1.69,0,0,1,149.14,34Z" transform="translate(0 0)" fill="#ff8b7b"/><path d="M128.74,82.26S125,116,124.68,128.84c-.31,13.33,12.78,54.92,12.78,54.92l6.7-2.81s-7.8-38-6.72-51.09c1.18-14.27,6.07-47.6,6.07-47.6Z" transform="translate(0 0)" fill="#e6c125"/><path d="M138.12,91.53c-3,6.24-1,18.58.65,25.89.62-5.16,1.35-10.76,2-16C140.75,93.5,140.13,87.34,138.12,91.53Z" transform="translate(0 0)" fill="#b99c21"/><path d="M143.86,178.76s.8,2.14.8,2.14l-7.73,3.24-1.22-2.26Z" transform="translate(0 0)" fill="#b19522"/><path d="M136.72,82.26s2.88,32.12,4.8,44.15c2.09,13.17,10.32,57.06,10.32,57.06h7.7s-4.61-42.82-5.48-55.87c-.95-14.16-2.84-45.34-2.84-45.34Z" transform="translate(0 0)" fill="#e6c125"/><path d="M159.65,181.47s.26,2.15.26,2.15h-8.46l-.6-2.47Z" transform="translate(0 0)" fill="#b19522"/><path d="M156.71,178.93a.08.08,0,0,1-.08-.07c0-.39-4.2-39.05-5-50.77-.85-12.72-2.56-40.92-2.57-41.2a.06.06,0,0,1,.06-.08h0a.08.08,0,0,1,.08.07c0,.28,1.72,28.48,2.57,41.2.78,11.72,4.94,50.38,5,50.77,0,0,0,.07-.06.08Z" transform="translate(0 0)" fill="#9f820c"/><path d="M156.84,51.21,151,49.67s-5.69,14-7.7,14.93a120.31,120.31,0,0,0-12.61,7.62,5.76,5.76,0,0,0,.33,3c5-.91,14.64-4.61,16.65-6.5C152.28,64.49,156.84,51.21,156.84,51.21Z" transform="translate(0 0)" fill="#ff8b7b"/><path d="M158.35,49.61c1.53,5-4.44,11.71-4.44,11.71l-8.29-3.38A84.88,84.88,0,0,1,149,49.53C151.53,44,156.8,44.61,158.35,49.61Z" transform="translate(0 0)" fill="#068675"/><path d="M152.79,189.41a1.25,1.25,0,0,1-.8-.22.54.54,0,0,1-.18-.52.37.37,0,0,1,.19-.29c.47-.23,1.78.6,1.93.69a.11.11,0,0,1,0,.1.11.11,0,0,1-.08.08A4.57,4.57,0,0,1,152.79,189.41Zm-.58-.87a.2.2,0,0,0-.13,0,.14.14,0,0,0-.07.12.38.38,0,0,0,.12.36,2,2,0,0,0,1.48.07,3.73,3.73,0,0,0-1.4-.57Z" transform="translate(0 0)"/><path d="M153.86,189.26h0c-.42-.24-1.21-1.16-1.1-1.63a.35.35,0,0,1,.34-.26.51.51,0,0,1,.41.13c.47.4.5,1.61.5,1.66a.11.11,0,0,1-.05.09Zm-.74-1.7h-.05c-.13,0-.15.07-.15.1-.07.27.42,1,.84,1.3a2.32,2.32,0,0,0-.42-1.32.43.43,0,0,0-.22-.09Z" transform="translate(0 0)"/><path d="M138,188.71a1.52,1.52,0,0,1-1.05,0,.49.49,0,0,1-.27-.42.31.31,0,0,1,.11-.3c.45-.4,2.27,0,2.48.08a.08.08,0,0,1,.07.08.11.11,0,0,1-.06.1A7.27,7.27,0,0,1,138,188.71Zm-.91-.66a.38.38,0,0,0-.17.08.11.11,0,0,0,0,.12.34.34,0,0,0,.17.28,2.77,2.77,0,0,0,1.87-.34,5.34,5.34,0,0,0-1.83-.14Z" transform="translate(0 0)"/><path d="M139.22,188.26h0c-.55-.1-1.7-.75-1.71-1.23,0-.11.05-.26.31-.35a.73.73,0,0,1,.58,0c.6.3.92,1.37.94,1.42a.1.1,0,0,1,0,.1Zm-1.32-1.41h-.06c-.17.06-.17.14-.17.16,0,.29.81.82,1.37,1a2.14,2.14,0,0,0-.78-1.13A.5.5,0,0,0,137.9,186.85Z" transform="translate(0 0)"/><path d="M131.18,71.89l-5.82,2.68-.67,1.65,2.15,1.44s4-.43,5.16-3Z" transform="translate(0 0)" fill="#ff8b7b"/><path d="M131.43,75.37a7.93,7.93,0,0,0-1.08-3.16l.92-.69a8.89,8.89,0,0,1,1.3,3.66Z" transform="translate(0 0)" fill="#0f264c"/><path d="M132.42,72.69a1.1,1.1,0,0,1-.33,1.54,1.12,1.12,0,1,1-1.21-1.88l.18-.1A1,1,0,0,1,132.42,72.69Z" transform="translate(0 0)" fill="#0f264c"/><path d="M121.43,76.74l.77.78,5.22-2.23-2.06-.72Z" transform="translate(0 0)" fill="#ff8b7b"/><rect x="72.41" width="3.57" height="0.57" fill="#407bff"/><path d="M121,2.58H55.18L49.05,139.74h65.86Z" transform="translate(0 0)" fill="#068675"/><path d="M119.08,4.46H53.21L47.08,141.62H113Z" transform="translate(0 0)" fill="#fff" opacity="0.7" style="isolation:isolate"/><path d="M117.11,6.35H51.25L45.12,143.5H111Z" transform="translate(0 0)" fill="#e7f7f5" opacity="0.66" style="isolation:isolate"/><path d="M109.62,66.16H53.4l-.47,10.5h56.22Z" transform="translate(0 0)" fill="#fff"/><path d="M84.32,58.51H53.74l-.21,4.7H84.11Z" transform="translate(0 0)" fill="#068675"/><path d="M108.35,94.49H52.13L51.66,105h56.22Z" transform="translate(0 0)" fill="#fff"/><path d="M98,119.15H60.24l-.56,12.58h37.8Z" transform="translate(0 0)" fill="#068675" opacity="0.42" style="isolation:isolate"/><path d="M95.51,133.68H57.71l-.05,0a.08.08,0,0,1,0,0L58.2,121s0-.07.07-.07h37.8s0,0,.05,0a.08.08,0,0,1,0,0l-.57,12.59A.06.06,0,0,1,95.51,133.68Zm-37.73-.13H95.45L96,121.1H58.33Z" transform="translate(0 0)" fill="#fff"/><path d="M77.71,86.83H52.48l-.21,4.7H77.5Z" transform="translate(0 0)" fill="#068675"/><path d="M97.32,32.27a14.77,14.77,0,0,1-3.11,8.4,15,15,0,0,1-11.83,5.9A13.56,13.56,0,0,1,68.71,33.12a8,8,0,0,1,0-.85A15.09,15.09,0,0,1,83.66,18,13.56,13.56,0,0,1,97.34,31.4C97.34,31.69,97.33,32,97.32,32.27Z" transform="translate(0 0)" fill="#fff"/><path d="M98.67,21a4,4,0,0,1-4,3.8,3.6,3.6,0,0,1-3.64-3.56,1.93,1.93,0,0,1,0-.24,4,4,0,0,1,4-3.8,3.6,3.6,0,0,1,3.63,3.57Z" transform="translate(0 0)" fill="#068675"/><ellipse cx="83.24" cy="27.49" rx="5.91" ry="5.66" transform="translate(4.5 66.02) rotate(-44.36)" fill="#068675" opacity="0.73" style="isolation:isolate"/><path d="M94.21,40.67a15,15,0,0,1-11.83,5.9,13.54,13.54,0,0,1-11.3-5.9,16.82,16.82,0,0,1,11.76-4.46C87.6,36.21,91.74,38,94.21,40.67Z" transform="translate(0 0)" fill="#068675" opacity="0.73" style="isolation:isolate"/><path d="M59.45,71.41a1.78,1.78,0,0,1-1.76,1.69,1.61,1.61,0,0,1-1.61-1.59s0-.07,0-.1a1.78,1.78,0,0,1,1.76-1.68,1.58,1.58,0,0,1,1.6,1.58Z" transform="translate(0 0)" fill="#00554a"/><path d="M67,71.41a1.78,1.78,0,0,1-1.76,1.69,1.6,1.6,0,0,1-1.61-1.58.41.41,0,0,1,0-.11,1.78,1.78,0,0,1,1.75-1.68A1.6,1.6,0,0,1,67,71.31Z" transform="translate(0 0)" fill="#00554a"/><path d="M74.51,71.41a1.78,1.78,0,0,1-1.76,1.69,1.6,1.6,0,0,1-1.61-1.58.41.41,0,0,1,0-.11,1.77,1.77,0,0,1,1.75-1.68,1.6,1.6,0,0,1,1.61,1.59Z" transform="translate(0 0)" fill="#00554a"/><path d="M58.19,99.74a1.78,1.78,0,0,1-1.76,1.68,1.6,1.6,0,0,1-1.61-1.59v-.09a1.78,1.78,0,0,1,1.76-1.69,1.61,1.61,0,0,1,1.61,1.6Z" transform="translate(0 0)" fill="#00554a"/><path d="M65.71,99.74A1.78,1.78,0,0,1,64,101.42a1.6,1.6,0,0,1-1.61-1.59v-.09a1.78,1.78,0,0,1,1.76-1.69,1.6,1.6,0,0,1,1.61,1.58A.41.41,0,0,1,65.71,99.74Z" transform="translate(0 0)" fill="#00554a"/><path d="M73.24,99.74a1.78,1.78,0,0,1-1.75,1.68,1.6,1.6,0,0,1-1.61-1.59v-.09a1.78,1.78,0,0,1,1.76-1.69,1.59,1.59,0,0,1,1.6,1.58Z" transform="translate(0 0)" fill="#00554a"/><path d="M80.77,99.74A1.78,1.78,0,0,1,79,101.42a1.6,1.6,0,0,1-1.61-1.58s0-.07,0-.1a1.78,1.78,0,0,1,1.75-1.69,1.6,1.6,0,0,1,1.61,1.6Z" transform="translate(0 0)" fill="#00554a"/><path d="M88.3,99.74a1.78,1.78,0,0,1-1.76,1.68,1.61,1.61,0,0,1-1.61-1.59.28.28,0,0,1,0-.09,1.77,1.77,0,0,1,1.75-1.69,1.6,1.6,0,0,1,1.61,1.6Z" transform="translate(0 0)" fill="#00554a"/><path d="M12.09,79.19c-.53,1.16-1.09,2.44-1.58,3.68s-1,2.51-1.41,3.79a48.39,48.39,0,0,0-2,7.7L7,95.18a1.2,1.2,0,0,0,0,.42,4.37,4.37,0,0,0,.61,1.29,16.39,16.39,0,0,0,2.48,2.78,40,40,0,0,0,3.08,2.58c1.07.82,2.2,1.63,3.31,2.38l-1,2a39.77,39.77,0,0,1-7.53-4.29,18.4,18.4,0,0,1-3.37-3.17,7.86,7.86,0,0,1-1.33-2.38A5.14,5.14,0,0,1,3,95.1c0-.14,0-.33,0-.42l0-.28.05-.55a43.08,43.08,0,0,1,1.83-8.56c.43-1.38.9-2.75,1.43-4.08s1.07-2.64,1.75-4Z" transform="translate(0 0)" fill="#ff8b7b"/><path d="M9.59,72.47c-1.82.43-3.55,7-3.55,7l7.07,4.72s2.36-5.2,1.54-7.48S11.88,71.93,9.59,72.47Z" transform="translate(0 0)" fill="#e6c125"/><path d="M11,76.71l-.49,5.73,2.63,1.76a23.8,23.8,0,0,0,1.6-5.1Z" transform="translate(0 0)" fill="#bc9b0e"/><path d="M15.72,104.3l3.94-2-1,4.34s-2.71.75-4-.56Z" transform="translate(0 0)" fill="#ff8b7b"/><path d="M23.27,103l-1.05,3.59-3.58,0,1-4.34Z" transform="translate(0 0)" fill="#ff8b7b"/><path d="M28.85,58.29a10.84,10.84,0,0,0,.88,2.21.89.89,0,0,1-.88.28Z" transform="translate(0 0)" fill="#ff5652"/><path d="M17.94,62.38c.51,2.6,1,7.36-.8,9.1,0,0,.71,2.63,5.54,2.63,5.31,0,2.54-2.63,2.54-2.63-2.9-.69-2.83-2.84-2.32-4.86Z" transform="translate(0 0)" fill="#ff8b7b"/><path d="M15.6,71.77h0a1,1,0,0,1,.81-1.13h0c2-.32,6.43-1,8.68-.67,1.67.23,2.11,1.21,2.18,2a1,1,0,0,1-.9,1.06h-.13l-9.71-.44A1,1,0,0,1,15.6,71.77Z" transform="translate(0 0)" fill="#a5870a"/><path d="M16.53,56.47c.27,4.34.29,6.18,2.48,8.41,3.3,3.35,8.57,2.07,9.6-2.26.93-3.9.34-10.34-3.91-12.06A5.93,5.93,0,0,0,17,53.78,6,6,0,0,0,16.53,56.47Z" transform="translate(0 0)" fill="#ff8b7b"/><path d="M21.21,169.29l3.6,2.5,6-8.16-3.6-2.5Z" transform="translate(0 0)" fill="#ff8b7b"/><path d="M12.82,169.13l3.8,2.16L22,162.66l-3.8-2.17Z" transform="translate(0 0)" fill="#ff8b7b"/><path d="M30.83,163.63l-3.1,4.2-3.6-2.5,3.1-4.2Z" transform="translate(0 0)" fill="#ea7063"/><path d="M18.15,160.49l3.8,2.17-2.75,4.45-3.8-2.17Z" transform="translate(0 0)" fill="#ea7063"/><path d="M32.62,72.6s2.09.73-2.09,26.43H12.74c.3-7.24.31-11.7-3.15-26.56a53.26,53.26,0,0,1,7.55-1,57.34,57.34,0,0,1,8.08,0C28.68,71.8,32.62,72.6,32.62,72.6Z" transform="translate(0 0)" fill="#e6c125"/><path d="M34.43,76.68c.4,1.11.82,2.32,1.27,3.48s.87,2.34,1.32,3.51l1.37,3.5.35.88.17.44.09.22s0,0,0,0a1.35,1.35,0,0,0-.4-.35,1.54,1.54,0,0,0-.72-.21,1.5,1.5,0,0,0-.63.11c-.25.12-.25.17-.25.16a.49.49,0,0,0,.13-.12,7.57,7.57,0,0,0,.8-1.3c.26-.51.51-1.06.76-1.62.5-1.11.94-2.27,1.4-3.43s.88-2.35,1.3-3.54l1.27-3.56,2.15.54c-.42,2.55-1,5-1.63,7.55q-.48,1.88-1.11,3.75c-.22.63-.45,1.26-.72,1.9a11.42,11.42,0,0,1-1.06,2,4.13,4.13,0,0,1-.49.6,3.05,3.05,0,0,1-1,.72,2.36,2.36,0,0,1-1.08.2,2.57,2.57,0,0,1-1.18-.35,2.93,2.93,0,0,1-1-1.06,4,4,0,0,1-.21-.39l-.11-.22L35,89.71l-.42-.87c-.55-1.16-1.09-2.33-1.6-3.51S32,83,31.49,81.76s-.91-2.4-1.32-3.69Z" transform="translate(0 0)" fill="#ff8b7b"/><path d="M32.62,72.6c2.14.51,4.54,6.82,4.54,6.82l-6.35,5.41S26.69,78,27.52,75.67,29.83,71.93,32.62,72.6Z" transform="translate(0 0)" fill="#e6c125"/><path d="M43.66,72.91,45.89,71l1.55,2.42-1.14,2s-1.82,1.66-3.43.82h0A2.9,2.9,0,0,1,43.66,72.91Z" transform="translate(0 0)" fill="#ff8b7b"/><path d="M49.94,71.05l-.17.61-3.53.59L45.89,71Z" transform="translate(0 0)" fill="#ff8b7b"/><path d="M24.25,99s14,17.71,11.42,34.65c-2.13,13.69-14.47,32.21-14.47,32.21L15.4,163a188.66,188.66,0,0,0,10.44-25.37,18.7,18.7,0,0,0-2.25-16.24C16.47,111,5.07,117.19,12.74,99Z" transform="translate(0 0)" fill="#066256"/><path d="M22,166.26l-7.29-3.62.75-2,7.78,3.81Z" transform="translate(0 0)" fill="#0a534a"/><path d="M31.14,110.41l-2-2c0,.16,4,24.59,5.07,31.46a40.68,40.68,0,0,0,1.5-6.16C37,125.39,34.25,116.91,31.14,110.41Z" transform="translate(0 0)" fill="#044a40"/><path d="M30.53,99s16.92,22.26,17.4,35.61c.4,11.18-18.44,32.79-18.44,32.79L24,163.89S35,148.53,37.81,136C36.75,123.55,14.06,99,14.06,99Z" transform="translate(0 0)" fill="#066256"/><path d="M30,167.72l-6.38-4.12,1.14-2,7.17,4.4Z" transform="translate(0 0)" fill="#0a534a"/><path d="M19.11,171a3.86,3.86,0,0,1-1.58-.54.11.11,0,0,1-.06-.1.11.11,0,0,1,.08-.09c.17-.06,1.68-.52,2.11-.16a.36.36,0,0,1,.12.34.6.6,0,0,1-.32.48A.71.71,0,0,1,19.11,171Zm-1.26-.61c.69.36,1.25.49,1.52.35a.39.39,0,0,0,.2-.32.14.14,0,0,0-.05-.15c-.22-.19-1.06-.05-1.67.12Z" transform="translate(0 0)"/><path d="M17.58,170.47a.11.11,0,0,1-.11-.1.08.08,0,0,1,0,0c0-.05.36-1.26.93-1.53a.53.53,0,0,1,.46,0,.36.36,0,0,1,.26.37c0,.5-1.06,1.2-1.53,1.31Zm1.08-1.53-.16,0a2.41,2.41,0,0,0-.76,1.22c.49-.21,1.16-.76,1.18-1.06,0,0,0-.12-.13-.17l-.13,0Z" transform="translate(0 0)"/><path d="M27.08,173.41c-.63,0-1.5-.81-2-1.3a.09.09,0,0,1,0-.12.1.1,0,0,1,.1-.05c.22,0,2.17.29,2.44.84a.33.33,0,0,1,0,.32.59.59,0,0,1-.45.31Zm-1.62-1.23c.71.69,1.32,1.07,1.68,1a.38.38,0,0,0,.29-.2.15.15,0,0,0,0-.13C27.28,172.57,26.25,172.31,25.46,172.18Z" transform="translate(0 0)"/><path d="M25.52,172.17a2.31,2.31,0,0,1-.37,0,.12.12,0,0,1-.09-.11l0-.06s.79-.95,1.5-1a.73.73,0,0,1,.57.18.39.39,0,0,1,.16.46C27.14,172,26.18,172.17,25.52,172.17Zm-.14-.21c.62,0,1.62-.17,1.75-.45,0,0,0-.09-.1-.21a.54.54,0,0,0-.42-.13,2.39,2.39,0,0,0-1.23.79Z" transform="translate(0 0)"/><path d="M12.47,98l-.62,1.59c-.06.12.09.25.29.25H30.61c.16,0,.29-.08.3-.18l.16-1.59c0-.11-.13-.2-.3-.2h-18A.33.33,0,0,0,12.47,98Z" transform="translate(0 0)" fill="#0da591"/><path d="M15.38,100H14.9c-.1,0-.17,0-.16-.11L15,97.82c0-.06.09-.11.18-.11h.48c.1,0,.17.05.17.11l-.23,2.07C15.56,100,15.47,100,15.38,100Z" transform="translate(0 0)" fill="#177e71"/><path d="M26.77,100h-.49c-.1,0-.16,0-.16-.11l.23-2.07c0-.06.09-.11.19-.11H27c.1,0,.17.05.16.11L27,99.89C27,100,26.87,100,26.77,100Z" transform="translate(0 0)" fill="#177e71"/><path d="M17,51.56c-2.18.8-5.08.2-3.94,6.92,1.21,7.11-.65,9.45-.65,9.45a44.4,44.4,0,0,0,16.69-.1s-2.58-4.5-1.85-7.79c.92-4.18.19-5.73.19-5.73S20,50.45,17,51.56Z" transform="translate(0 0)"/><path d="M26.17,58.73a4.37,4.37,0,0,0,.68,2.33c.59.9,1.29.53,1.46-.4s0-2.34-.71-2.91S26.18,57.75,26.17,58.73Z" transform="translate(0 0)" fill="#ff8b7b"/><path d="M15.07,52.32c-.63-1.75,2.35-4.45,8.66-3.33s6.58,6.37,6.58,6.37L29,53.84l.05,1.6-6.48,1.24Z" transform="translate(0 0)"/><path d="M17.73,169.88,13,168.54a.35.35,0,0,0-.42.19l-1.6,3.6a.69.69,0,0,0,.38.91l.08,0c1.66.44,2.48.56,4.57,1.15,1.28.36,3.11,1,4.88,1.53s2.36-1.23,1.67-1.59a8.55,8.55,0,0,1-4.2-4A1.13,1.13,0,0,0,17.73,169.88Z" transform="translate(0 0)"/><path d="M25.22,171.46l-4-2.81a.34.34,0,0,0-.45,0l-2.68,2.87a.7.7,0,0,0,.06,1,.18.18,0,0,0,.07.05c1.42,1,2.16,1.35,3.94,2.58,1.09.76,3.27,2.44,4.78,3.49s2.63-.39,2.09-1a11.91,11.91,0,0,1-3.32-5.63A1.14,1.14,0,0,0,25.22,171.46Z" transform="translate(0 0)"/><ellipse cx="14.95" cy="193.45" rx="14.95" ry="1.09" fill="#e7edf2"/><path d="M24.07,191.91a35.82,35.82,0,0,1-7.36-2.81l-.16-.07v-12h5.33a1.6,1.6,0,0,0,0-3.19H16.56v-54.6H13.37v54.6H8.05a1.6,1.6,0,1,0,0,3.19h5.32v12l-.16.08a36.4,36.4,0,0,1-7.36,2.81.78.78,0,0,0-.53,1,.79.79,0,0,0,.75.56H23.85a.78.78,0,0,0,.8-.77A.81.81,0,0,0,24.07,191.91Z" transform="translate(0 0)" fill="#aff8ef"/><rect x="2.14" y="113.72" width="25.63" height="11.69" rx="5.18" fill="#198678"/><path d="M4.85,125.41v1c0,.83.91,1.52,2,1.52H23c1.12,0,2-.69,2-1.52v-1Z" transform="translate(0 0)" fill="#2ea092"/></svg>