<svg xmlns="http://www.w3.org/2000/svg" width="36" height="36" viewBox="0 0 36 36">
    <defs>
        <style>
            .cls-1{fill:none}.cls-2{fill:#fff}
        </style>
    </defs>
    <g id="ic_loan_student" transform="translate(-2535 760)">
        <path id="Rectangle_5015" d="M0 0h36v36H0z" class="cls-1" data-name="Rectangle 5015" transform="translate(2535 -760)"/>
        <path id="graduated-student" d="M28.139 0a.656.656 0 0 0-.2.041l-10.455 3.92a.658.658 0 0 0-.5.748V6.7a1.969 1.969 0 0 0 0 3.715V12.5a.658.658 0 0 0 1.316.019v-2.108a1.969 1.969 0 0 0 0-3.715v-1.14l2.632.987v4.643a.658.658 0 0 0 1.123.465 4.623 4.623 0 0 1 2.825-.794 4.623 4.623 0 0 1 2.825.794.658.658 0 0 0 .93 0 4.623 4.623 0 0 1 2.825-.794 4.623 4.623 0 0 1 2.825.794.658.658 0 0 0 1.123-.465V6.542l3.521-1.32a.658.658 0 0 0 0-1.232L28.4.042A.66.66 0 0 0 28.139 0zm.027 1.36l8.654 3.246-8.654 3.245-8.654-3.245zm0 2.587a.658.658 0 1 0 .658.658.658.658 0 0 0-.658-.657zm-5.922 3.089l5.691 2.134a.658.658 0 0 0 .462 0l5.691-2.134v2.981a6.838 6.838 0 0 0-2.632-.476 5.959 5.959 0 0 0-3.29.806 5.959 5.959 0 0 0-3.29-.806 6.841 6.841 0 0 0-2.632.476zm-4.606.86a.658.658 0 1 1-.658.658.648.648 0 0 1 .658-.654zM34.53 12.46a.658.658 0 0 0-.626.689c0 .022 0 .043.006.065a6.353 6.353 0 0 1-2.626 6.086 5.481 5.481 0 0 1-6.235 0 6.353 6.353 0 0 1-2.627-6.086.658.658 0 0 0-1.3-.173 7.656 7.656 0 0 0 3.188 7.349 6.983 6.983 0 0 0 .823.479 2.1 2.1 0 0 1-.791 2.459 7.091 7.091 0 0 1-4.034 1.242 6.464 6.464 0 0 0-4.45 1.769 5.43 5.43 0 0 0-1.51 3.72v4.621h-1.974a.658.658 0 0 0-.019 1.316h18.688l.011.006v-.006h2.618l.011.006v-.006h10.275a.658.658 0 0 0 .019-1.316h-1.993v-4.622a5.43 5.43 0 0 0-1.509-3.72 6.464 6.464 0 0 0-4.45-1.769 7.09 7.09 0 0 1-4.034-1.242 2.1 2.1 0 0 1-.791-2.459 6.991 6.991 0 0 0 .824-.48 7.656 7.656 0 0 0 3.191-7.349.658.658 0 0 0-.685-.58zm-8 8.922a6.8 6.8 0 0 0 3.271 0 3.606 3.606 0 0 0 1.355 2.963 7.264 7.264 0 0 0 3.544 1.417l-4.458 8.916h-1.45a.657.657 0 0 0-1.255 0H15.664v-4.594a4.091 4.091 0 0 1 1.136-2.825 5.1 5.1 0 0 1 3.568-1.376 8.167 8.167 0 0 0 4.811-1.538 3.606 3.606 0 0 0 1.355-2.964zm9.578 4.511a7.192 7.192 0 0 1 1.088.146l-4.32 8.64h-1.161zm-7.942.427a.658.658 0 1 0 .658.658.658.658 0 0 0-.658-.658zm10.283.154a3.971 3.971 0 0 1 2.219 3.613v4.591h-6.321zm-10.283 2.478a.658.658 0 1 0 .658.658.658.658 0 0 0-.658-.658zm0 2.632a.658.658 0 0 0-.658.658.658.658 0 1 0 .658-.658z" class="cls-2" transform="translate(2525.293 -760)"/>
    </g>
</svg>
