<svg id="Layer_1" data-name="Layer 1" xmlns="http://www.w3.org/2000/svg" viewBox="0 0 225.39 247.12"><title>ic-no-product-01</title><path d="M221.94,187v-.08h0v-.16a82.26,82.26,0,0,0,3.29-23.13c0-21.73-8.74-45.8-37.59-52.8-29.78-7.23-53.36-18.37-78.54-38.42-54-43-164.7,43.14-75.54,127.06a143.1,143.1,0,0,0,98,39.26C174.76,238.59,212.35,218.34,221.94,187Z" transform="translate(0 0)" fill="#71ab3c"/><path d="M146.29,67.13s8.94,29.53,30.49,64.09c0,0,3.26,5.85-2.53,9.73-6.16,4.1-9.72-1.43-9.72-1.43l-.29-.36c-22.57-31-33-61.74-30.27-69.18S143.68,62,146.29,67.13Z" transform="translate(0 0)" fill="#ff8b7b"/><path d="M150.87,68.77c4.32,16.88,16.58,42,20.46,49.53,0,0-3.27,7.52-9.09,11.24-9.29,5.94-13.58,2.57-13.58,2.57-7.23-20.35-20.49-47.09-20.08-61.48S148.18,58.29,150.87,68.77Z" transform="translate(0 0)" fill="#05796a"/><path d="M101.72,224c-8.76-41.86-9.57-48.13-4.58-69.91,2.45-10.63,38.19-6.05,40.5,14.13.77,6.78,2.4,28.51,4.71,53.45A133.61,133.61,0,0,1,101.72,224Z" transform="translate(0 0)" fill="#303233"/><path d="M94.58,184.72a73.58,73.58,0,0,1-.23-14.54c6.66-.76,27.3-.14,29.66-.14,1.48,0,8.12,1.33,14.09,2.6.88,9.48,2.33,28.13,4.27,49-3.29.71-6.66,1.3-10.09,1.76-.15-6.56-.2-15-.31-23.9-.15-11.51,2.8-11.8-4.57-10.63a163.33,163.33,0,0,1-18.88,1.33S100.42,187.2,94.58,184.72Z" transform="translate(0 0)" fill="#c9c9c9" opacity="0.08" style="isolation:isolate"/><path d="M73.11,218.35c-2.17-38.07-1.73-44.7,6.08-64.63,4-10.16,38.66-.36,38,20-.22,6.57-1.71,27-3.06,50.94a141.92,141.92,0,0,1-41-6.31Z" transform="translate(0 0)" fill="#303233"/><path d="M88.29,188.58c-8.18-.3-13.25-1.22-16.27-2.07a77.41,77.41,0,0,1,2.27-18.31c11-.13,25.69-.22,26.78.18s9,.92,15.76,1.34a17.92,17.92,0,0,1,.33,4c-.23,6.58-1.72,27-3.07,50.94-3.7,0-7.44-.16-11.21-.5.81-6.65,1.58-15.31,1.93-23.14C105.4,187.79,104.58,189.17,88.29,188.58Z" transform="translate(0 0)" fill="#c9c9c9" opacity="0.05" style="isolation:isolate"/><path d="M122.58,55c-13-2.3-22.08,3.11-27.56,13.74C75,107.62,71,138.4,70.44,179.65c3.42,4.88,10.16,3.85,25.06,4.76,19.72,1.2,38.47.69,45.16-5.42-4.78-36-2.49-47.26,9.34-94.61,1.7-6.8.46-15.45-.32-18.6-.86-3.47-5.82-6.35-13.26-8.71C136.4,57,124.73,55.07,122.58,55Z" transform="translate(0 0)" fill="#068675"/><path d="M153.43,38.36C166.15,40,183,6.24,157,5.24c-20.87-.8-28.5-13.18-39.9,3.24-11.92,17.14,4.65,31.61,6.6,41.91,1.7,9,9.71,11.43,16.89-4.24S149.7,37.89,153.43,38.36Z" transform="translate(0 0)"/><path d="M157,5.24c26,1,9.19,34.72-3.53,33.12-1.5-.19-2.72-1.5-4.11-2a30.41,30.41,0,0,1,4.17-3.93s9.29-1.95,9-11.24S160.13,9.83,148,6.59s-25.07-8-30.09,6.64S129,43.23,125.46,55h0a11.93,11.93,0,0,1-1.8-4.64c-2-10.3-18.52-24.77-6.6-41.91C128.47-8,136.09,4.45,157,5.24Z" transform="translate(0 0)"/><path d="M155.49,25.58s1.37,23.3-4.06,27.85-14-.27-14-.27-1.06,2.4-1.64,3.89c.35,1.63,5.25,8.3-3.37,8.69-8.94.4-10.58-10.95-10.58-10.95s1.5-1.93,6.37-19.33c-.33-2.49-6-6-2.79-10.48s6.78,2.38,6.78,2.38V14.64S147.64,26.51,155.49,25.58Z" transform="translate(0 0)" fill="#ff8b7b"/><path d="M159.58,123.22a.91.91,0,0,0,.3,1.24.88.88,0,0,0,.59.12h19.37a2.44,2.44,0,0,0,2-1.36l3.13-7.36a.88.88,0,0,0-.3-1.22h0a.88.88,0,0,0-.59-.12H164.79a2.4,2.4,0,0,0-2,1.35Z" transform="translate(0 0)" fill="#d32e41"/><path d="M131.72,167a.9.9,0,0,0,.3,1.23h0a.84.84,0,0,0,.58.12h37a2.41,2.41,0,0,0,2-1.35L191.4,120.9a.91.91,0,0,0-.31-1.24,1,1,0,0,0-.59-.12h-37a2.45,2.45,0,0,0-2.06,1.36Z" transform="translate(0 0)" fill="#f85063"/><rect x="143.11" y="142.5" width="3" height="3.75"/><path d="M113.09,74.88s-22,21.67-42.51,56.83c0,0-3.66,5.61-9.79,2.29-6.5-3.54-3.26-9.27-3.26-9.27l.2-.42c17-34.43,39.26-58,47.12-59S116.4,70.2,113.09,74.88Z" transform="translate(0 0)" fill="#05796a"/><path d="M109.68,82.89C98.31,96.7,86.27,114,81.43,120.89a46.85,46.85,0,0,1-13.6-4.67c-9.58-5.47-7.67-11.2-7.67-11.2,14.64-15.87,27-31.75,41-44.62C108.65,53.51,121.83,68.11,109.68,82.89Z" transform="translate(0 0)" fill="#05796a"/><path d="M64.91,120c38.36,14.17,68.82,19.24,68.82,19.24l2.93,6.86a329.76,329.76,0,0,1-76.75-12.18s-4.72-1.62-2.66-8.79c1.94-6.77,7.27-5.28,7.27-5.28Z" transform="translate(0 0)" fill="#ff8b7b"/><path d="M126.88,137.88c7.42,1,12.27-3.28,17.53-3.78,4.13-.39,16.12,1.67,14.29,9.86-.79,3.52-4.53,8.83-15.19,6.1-3.58-.92-6-3.84-10.79-5.36S123.13,137.37,126.88,137.88Z" transform="translate(0 0)" fill="#ff8b7b"/><path d="M132.64,137.66a12.57,12.57,0,0,1,5.28-5.11c4-2.12,8.29-2,9-1a19.43,19.43,0,0,0-1,2.41c-.21.6-1.25.27-1.79.46a2.92,2.92,0,0,0-1.6,2s-3.16.91-3.44.92a4.1,4.1,0,0,1-2.24.6,20.47,20.47,0,0,1-4.21-.28Z" transform="translate(0 0)" fill="#ff8b7b"/><path d="M186.16,154.16c-4.94-2.8-2-4.22-4.9-7-2.26-2.18-10.46-6.42-13.53-.24-1.32,2.65-1.8,7.86,6,11C180.72,160.7,188.66,155.58,186.16,154.16Z" transform="translate(0 0)" fill="#ff8b7b"/><path d="M186.47,155a10.07,10.07,0,0,0-.55-5.79c-1.31-3.24-3.92-5.18-4.85-4.81a16.1,16.1,0,0,1-.61,2.05c-.19.49.6.76.83,1.14a2.38,2.38,0,0,1-.07,2s1.41,2.07,1.58,2.21a2.9,2.9,0,0,0,1,1.43,14.47,14.47,0,0,0,2.67,1.72Z" transform="translate(0 0)" fill="#ff8b7b"/><path d="M208.1,143.43c.21-1.4.17-2.73,1-4,1.56-2.45,3.77-1.83,5.91-.75s4.23,1.75,6.6.73c3.7-1.6,5.44-7.19,1.9-9.82-1.14-.85-2.27.56-2.12,1.63.22,1.5,1,3.16-.32,4.45-1.72,1.73-3.74.28-5.46-.5a7.17,7.17,0,0,0-5.74-.25c-3.29,1.34-5.68,5.8-3.07,8.82a.81.81,0,0,0,1.15,0,.72.72,0,0,0,.19-.34Z" transform="translate(0 0)" fill="#e6c125"/><path d="M7.17,178c.21-1.4.17-2.73.95-4,1.56-2.45,3.77-1.83,5.91-.75s4.23,1.75,6.6.73c3.7-1.6,5.44-7.19,1.91-9.82-1.15-.85-2.27.56-2.12,1.63.21,1.5,1,3.16-.33,4.45-1.72,1.73-3.74.28-5.45-.5a7.17,7.17,0,0,0-5.74-.25c-3.3,1.33-5.69,5.8-3.07,8.82a.8.8,0,0,0,1.14,0,.83.83,0,0,0,.2-.34Z" transform="translate(0 0)" fill="#e6c125"/><path d="M50.46,174.23c2.56,2.45,3.53,6.28,1.09,9.23a7.13,7.13,0,0,1-9.61,1.15c-6.92-5.35.3-15.21,7.77-13.16a1.24,1.24,0,0,1-.28,2.44c-2.18.13-4.52.21-6.27,1.74a4.55,4.55,0,0,0-.38,6.32c4.08,5,11.15-2.37,6.87-6.84a.6.6,0,1,1,.83-.86Z" transform="translate(0 0)" fill="#068675"/><path d="M220,193.47c2.56,2.45,3.53,6.27,1.09,9.22a7.13,7.13,0,0,1-9.61,1.16c-6.92-5.35.3-15.21,7.77-13.17a1.24,1.24,0,0,1,.84,1.54,1.23,1.23,0,0,1-1.17.89c-2.18.12-4.52.21-6.27,1.74a4.55,4.55,0,0,0-.38,6.32c4.08,5,11.15-2.37,6.87-6.85a.6.6,0,0,1,.86-.85Z" transform="translate(0 0)" fill="#068675"/><path d="M158.83,226c-1.76,6.53-3.7,13-5.71,19.46a2,2,0,0,1-2.33,1.61,2,2,0,0,1-1-.48c-5.25-3.56-10.51-7.07-15.48-11a1.88,1.88,0,0,1-.14-2.65,2.43,2.43,0,0,1,.34-.3c5.83-4,13.7-9.9,21.09-9.94,1.88,0,3.2,2.64,1.29,3.73-3,1.73-6.56,2.34-9.75,3.66a53.55,53.55,0,0,0-10.59,5.58c-.08-1.07-.15-2.15-.22-3.22,5.56,3.42,10.8,7.26,16.09,11.09l-3.12.63c2.25-6.39,4.57-12.73,7.07-19a1.29,1.29,0,0,1,1.75-.51,1.28,1.28,0,0,1,.66,1.31Z" transform="translate(0 0)" fill="#e6c125"/><path d="M43.32,60.88c1.76,6.54,3.7,13,5.71,19.47A2,2,0,0,0,51.36,82a2,2,0,0,0,1-.48c5.25-3.57,10.51-7.07,15.48-11A1.88,1.88,0,0,0,68,67.83a2.37,2.37,0,0,0-.34-.29c-5.83-4-13.7-9.9-21.09-9.94-1.88,0-3.2,2.63-1.29,3.73,3,1.72,6.56,2.34,9.75,3.66a53.8,53.8,0,0,1,10.6,5.62c.08-1.08.15-2.15.22-3.22C60.24,70.81,55,74.65,49.71,78.48l3.12.62c-2.25-6.38-4.57-12.72-7.07-19a1.29,1.29,0,0,0-2.41.79Z" transform="translate(0 0)" fill="#e6c125"/><path d="M35.5,111.8l1.36-1.35L35.5,109.1a1.62,1.62,0,0,1,2.27-2.32h0l1.36,1.35,1.35-1.35a1.61,1.61,0,0,1,2.28,0h0a1.64,1.64,0,0,1,0,2.27l-1.36,1.35,1.36,1.35A1.62,1.62,0,0,1,40.48,114l-1.35-1.35L37.78,114A1.62,1.62,0,1,1,35.29,112l.15-.16v-.06Z" transform="translate(0 0)" fill="#e6c125"/><path d="M185.77,166l1-1-1-1a1.19,1.19,0,0,1,1.68-1.68l1,1,1-1a1.19,1.19,0,0,1,1.68,1.68l-1,1,1,1a1.19,1.19,0,0,1-1.68,1.68l-1-1-1,1a1.19,1.19,0,0,1-1.68-1.68Z" transform="translate(0 0)" fill="#096d5c"/><path d="M142.69,203.19l1-1-1-1a1.19,1.19,0,0,1,1.58-1.78l.1.1,1,1,1-1a1.19,1.19,0,0,1,1.68,1.68l-1,1,1,1a1.19,1.19,0,0,1-1.68,1.68l-1-1-1,1a1.19,1.19,0,0,1-1.68-1.68Z" transform="translate(0 0)" fill="#e6c125"/><path d="M181.89,196.27a3.29,3.29,0,1,1,3.29,3.29h0A3.29,3.29,0,0,1,181.89,196.27Z" transform="translate(0 0)" fill="#096d5c"/><path d="M51.2,146.3a2.29,2.29,0,1,1,2.29,2.29h0A2.3,2.3,0,0,1,51.2,146.3Z" transform="translate(0 0)" fill="#096d5c"/></svg>