<svg id="Layer_1" data-name="Layer 1" xmlns="http://www.w3.org/2000/svg" viewBox="0 0 328 273"><title>ic-onboard-3</title><ellipse cx="162.66" cy="139.45" rx="124.12" ry="123.7" fill="#71ab3c"/><path d="M162.11,40.79H82.83A12.15,12.15,0,0,1,70.69,28.65h0A12.15,12.15,0,0,1,82.83,16.51h79.28a12.15,12.15,0,0,1,12.14,12.14h0a12.15,12.15,0,0,1-12.14,12.14Z" transform="translate(0 0)" fill="#71ab3c"/><path d="M63,211h50.95a9.52,9.52,0,0,1,9.51,9.51h0a9.51,9.51,0,0,1-9.51,9.51H63a9.51,9.51,0,0,1-9.51-9.51h0A9.51,9.51,0,0,1,63,211Z" transform="translate(0 0)" fill="#71ab3c"/><path d="M52.92,248.14H128.4a6.16,6.16,0,0,1,6.17,6.16h0a6.16,6.16,0,0,1-6.16,6.16H52.92a6.16,6.16,0,0,1-6.16-6.16h0a6.18,6.18,0,0,1,6.16-6.17Z" transform="translate(0 0)" fill="#71ab3c"/><rect x="211.48" y="260.68" width="23.84" height="12.33" rx="3.15" fill="#71ab3c"/><path d="M154.35,224.21H268a10.11,10.11,0,0,1,10.11,10.11h0A10.11,10.11,0,0,1,268,244.43H154.35a10.11,10.11,0,0,1-10.11-10.11h0A10.11,10.11,0,0,1,154.35,224.21Z" transform="translate(0 0)" fill="#71ab3c"/><path d="M73.83,229.73h35.5a9.59,9.59,0,0,0-6.73,2.86A8.69,8.69,0,0,0,99.81,239a9.23,9.23,0,0,0,9.29,9.17H73.83a8.88,8.88,0,0,0,9.48-8.25,6.43,6.43,0,0,0,0-.76,9.4,9.4,0,0,0-9.4-9.4Z" transform="translate(0 0)" fill="#71ab3c"/><path d="M219.42,121.57h91.5A17.07,17.07,0,0,1,328,138.64h0a17.08,17.08,0,0,1-17.08,17.08h-91.5a17.08,17.08,0,0,1-17.08-17.07h0A17.07,17.07,0,0,1,219.42,121.57Z" transform="translate(0 0)" fill="#71ab3c"/><path d="M180.39,188.7H316A11.07,11.07,0,0,1,327,199.77h0A11.07,11.07,0,0,1,316,210.84H180.39a11.07,11.07,0,0,1-11.07-11.07h0A11.07,11.07,0,0,1,180.39,188.7Z" transform="translate(0 0)" fill="#71ab3c"/><path d="M240,155.73h63.75a16.94,16.94,0,0,0-12.07,4.94,15.6,15.6,0,0,0-5,11.47c0,9.43,7.66,16.45,17.09,16.45H240c4.71,0,9-1.33,12.07-4.4a16.18,16.18,0,0,0,5-11.73,16.76,16.76,0,0,0-16.8-16.73Z" transform="translate(0 0)" fill="#71ab3c"/><path d="M136.49,106.89H29.27A18.13,18.13,0,0,1,11.14,88.76h0A18.13,18.13,0,0,1,29.27,70.63H136.49a18.12,18.12,0,0,1,18.14,18.13h0a18.13,18.13,0,0,1-18.14,18.13Z" transform="translate(0 0)" fill="#71ab3c"/><path d="M181.15,208.77H26.21A26.2,26.2,0,0,1,0,182.57H0a26.21,26.21,0,0,1,26.21-26.21H181.15a26.21,26.21,0,0,1,26.2,26.21h0a26.18,26.18,0,0,1-26.19,26.2Z" transform="translate(0 0)" fill="#71ab3c"/><path d="M268.82,65.81H183.28a14.46,14.46,0,0,1-14.46-14.47h0a14.46,14.46,0,0,1,14.46-14.47h85.54a14.47,14.47,0,0,1,14.47,14.47h0a14.47,14.47,0,0,1-14.47,14.47Z" transform="translate(0 0)" fill="#71ab3c"/><path d="M242.51,15.74H222.2a7.87,7.87,0,0,1-7.88-7.87h0A7.87,7.87,0,0,1,222.2,0h20.31a7.87,7.87,0,0,1,7.88,7.87h0A7.87,7.87,0,0,1,242.51,15.74Z" transform="translate(0 0)" fill="#71ab3c"/><path d="M216,108.55a1.59,1.59,0,0,1-1.58-1.59,1.48,1.48,0,0,1,.16-.68l10.48-21.76a5.89,5.89,0,0,0-2.76-7.85h0L183.89,58.19A5.88,5.88,0,0,0,176,60.94L158.74,96.4A1.58,1.58,0,0,1,155.9,95l17.3-35.45a9,9,0,0,1,12.07-4.22l38.42,18.48a9.05,9.05,0,0,1,4.23,12.07l-10.48,21.76A1.58,1.58,0,0,1,216,108.55Z" transform="translate(0 0)" fill="#fff"/><path d="M176.36,180.71a8.94,8.94,0,0,1-3.9-.89l-19.29-9.28a1.58,1.58,0,0,1,1.37-2.85L173.83,177a5.89,5.89,0,0,0,7.85-2.75l9.14-18.95a1.58,1.58,0,0,1,2.88,1.32l0,0-9.14,19A9,9,0,0,1,176.36,180.71Z" transform="translate(0 0)" fill="#fff"/><path d="M186.35,168.27a1.66,1.66,0,0,1-.69-.16l-28.13-13.53a1.58,1.58,0,1,1,1.32-2.87l.05,0L187,165.26a1.58,1.58,0,0,1-.68,3Z" transform="translate(0 0)" fill="#fff"/><path d="M225.16,88.09a1.83,1.83,0,0,1-.69-.16l-49.8-24A1.58,1.58,0,0,1,176,61.1l0,0,49.8,24a1.58,1.58,0,0,1-.68,3Z" transform="translate(0 0)" fill="#fff"/><path d="M162.43,165a1.65,1.65,0,0,1-.69-.15l-5.32-2.56a1.59,1.59,0,0,1,1.37-2.86l5.32,2.57a1.57,1.57,0,0,1-.68,3Z" transform="translate(0 0)" fill="#fff"/><path d="M100.48,196.57A1.58,1.58,0,0,1,98.9,195a1.65,1.65,0,0,1,.15-.69l15-31.27,6-33.65A18.47,18.47,0,0,1,128,114.72l32-22.16a9.16,9.16,0,0,1,10.72,14.86l-23.07,17.24a48.66,48.66,0,0,1,8.89,14.59,36.7,36.7,0,0,1,2.37,17c-.74,7-3.64,13.77-8.62,20.16a1.58,1.58,0,0,1-2.53-1.9l0-.05c4.6-5.9,7.28-12.11,8-18.47a33.41,33.41,0,0,0-2.13-15.49,45.14,45.14,0,0,0-9.43-14.89,1.58,1.58,0,0,1,0-2.24.93.93,0,0,1,.18-.16l24.49-18.3a6,6,0,0,0-7-9.72L129.8,117.32a15.29,15.29,0,0,0-6.5,12.25,2.3,2.3,0,0,1,0,.26l-6.1,34a1.7,1.7,0,0,1-.13.4l-15.13,31.47A1.58,1.58,0,0,1,100.48,196.57Z" transform="translate(0 0)" fill="#fff"/><path d="M207.61,126a8.52,8.52,0,0,1-8.2-6.23h0a8.52,8.52,0,0,1,5.92-10.47l14-3.88a8.5,8.5,0,0,1,4.56,16.38l-14,3.89A8.29,8.29,0,0,1,207.61,126Zm14-17.73a5.44,5.44,0,0,0-1.44.2l-14,3.88a5.36,5.36,0,0,0-3.72,6.58h0a5.35,5.35,0,0,0,6.58,3.71l14-3.88a5.34,5.34,0,0,0-1.42-10.49Z" transform="translate(0 0)" fill="#fff"/><path d="M204.51,141.43a8.52,8.52,0,0,1-8.2-6.23h0a8.5,8.5,0,0,1,5.91-10.47h0l14-3.89a8.5,8.5,0,1,1,4.55,16.39l-14,3.89A8.69,8.69,0,0,1,204.51,141.43Zm-5.15-7.08a5.35,5.35,0,0,0,6.58,3.72l14-3.89a5.34,5.34,0,1,0-2.86-10.29h0l-14,3.89a5.35,5.35,0,0,0-3.72,6.57Z" transform="translate(0 0)" fill="#fff"/><path d="M196.49,158.11a8.51,8.51,0,0,1-8.2-6.23h0a8.5,8.5,0,0,1,5.9-10.47h0l14-3.89a8.5,8.5,0,1,1,4.55,16.39h0l-14,3.89A8.75,8.75,0,0,1,196.49,158.11ZM191.34,151a5.35,5.35,0,0,0,6.57,3.72l14-3.89a5.34,5.34,0,0,0-2.84-10.3h0l-14,3.89a5.33,5.33,0,0,0-3.71,6.57Z" transform="translate(0 0)" fill="#fff"/><path d="M135.77,220.13a1.59,1.59,0,0,1-1.58-1.59,1.62,1.62,0,0,1,.16-.68l14.18-29.49a1.59,1.59,0,0,1,1.46-.9c14.92.34,21.74-9.91,21.81-10a1.58,1.58,0,1,1,2.66,1.72h0a24.85,24.85,0,0,1-6,5.93A30,30,0,0,1,151,190.65L137.2,219.23A1.58,1.58,0,0,1,135.77,220.13Z" transform="translate(0 0)" fill="#fff"/><path d="M163.25,226.44a83,83,0,0,1,0-166h0a1.58,1.58,0,1,1,0,3.16,79.82,79.82,0,1,0,64.58,32.88,1.58,1.58,0,0,1,2.56-1.86,83,83,0,0,1-67.14,131.82Z" transform="translate(0 0)" fill="#fff"/><path d="M62,178.36H58.58a1.58,1.58,0,1,1,0-3.16H62a1.58,1.58,0,0,1,0,3.16Z" transform="translate(0 0)" fill="#fff"/><path d="M75,178.36h-3.8a1.58,1.58,0,0,1,0-3.16H75a1.58,1.58,0,1,1,0,3.16Z" transform="translate(0 0)" fill="#fff"/><path d="M66.7,186.69a1.58,1.58,0,0,1-1.58-1.58h0v-3.38a1.58,1.58,0,0,1,3.16,0v3.38a1.58,1.58,0,0,1-1.58,1.58Z" transform="translate(0 0)" fill="#fff"/><path d="M66.7,174a1.59,1.59,0,0,1-1.58-1.59h0v-3.8a1.58,1.58,0,1,1,3.16,0v3.8A1.58,1.58,0,0,1,66.7,174Z" transform="translate(0 0)" fill="#fff"/><path d="M195.47,196.5h-3.38a1.59,1.59,0,0,1,0-3.17h3.38a1.59,1.59,0,0,1,0,3.17Z" transform="translate(0 0)" fill="#fff"/><path d="M208.55,196.5h-3.8a1.59,1.59,0,1,1,0-3.17h3.82a1.59,1.59,0,0,1,0,3.17Z" transform="translate(0 0)" fill="#fff"/><path d="M200.21,204.83a1.58,1.58,0,0,1-1.58-1.58h0v-3.38a1.59,1.59,0,0,1,3.17,0v3.38A1.59,1.59,0,0,1,200.21,204.83Z" transform="translate(0 0)" fill="#fff"/><path d="M200.21,192.17a1.58,1.58,0,0,1-1.58-1.58h0v-3.8a1.59,1.59,0,0,1,3.17,0v3.8A1.58,1.58,0,0,1,200.21,192.17Z" transform="translate(0 0)" fill="#fff"/><path d="M244.82,71.63h-3.37a1.58,1.58,0,1,1,0-3.16h3.37a1.58,1.58,0,1,1,0,3.16Z" transform="translate(0 0)" fill="#fff"/><path d="M257.9,71.63h-3.8a1.58,1.58,0,1,1,0-3.16h3.8a1.58,1.58,0,1,1,0,3.16Z" transform="translate(0 0)" fill="#fff"/><path d="M249.57,80A1.58,1.58,0,0,1,248,78.39h0V75a1.58,1.58,0,0,1,3.16,0v3.38A1.58,1.58,0,0,1,249.57,80Z" transform="translate(0 0)" fill="#fff"/><path d="M249.57,67.31A1.58,1.58,0,0,1,248,65.73h0v-3.8a1.58,1.58,0,1,1,3.16,0v3.82A1.58,1.58,0,0,1,249.57,67.31Z" transform="translate(0 0)" fill="#fff"/><path d="M85.38,214.85a5.13,5.13,0,1,1,5.13-5.13h0A5.15,5.15,0,0,1,85.38,214.85Zm0-7.09a2,2,0,1,0,2,2,2,2,0,0,0-2-2Z" transform="translate(0 0)" fill="#fff"/><path d="M254.1,115.64a5.13,5.13,0,1,1,5.13-5.13h0A5.13,5.13,0,0,1,254.1,115.64Zm0-7.09a2,2,0,1,0,2,2A2,2,0,0,0,254.1,108.55Z" transform="translate(0 0)" fill="#fff"/><path d="M174.75,129a1.62,1.62,0,0,1-1.12-.46L165.14,120a1.58,1.58,0,0,1,2.24-2.24l7.37,7.37,26.48-26.49a1.59,1.59,0,0,1,2.28,2.21l0,0-27.6,27.6A1.58,1.58,0,0,1,174.75,129Z" transform="translate(0 0)" fill="#fff"/><path d="M221.14,65.41a1.54,1.54,0,0,1-.93-.3,98.15,98.15,0,0,0-9.49-6.1,1.58,1.58,0,1,1,1.5-2.78l.05,0a99,99,0,0,1,9.81,6.3,1.58,1.58,0,0,1-.94,2.86Z" transform="translate(0 0)" fill="#fff"/><path d="M134,51a1.57,1.57,0,0,1-1.58-1.58,1.59,1.59,0,0,1,1.11-1.51,100.73,100.73,0,0,1,53.2-1.73,1.58,1.58,0,0,1-.7,3.09h0A97.54,97.54,0,0,0,134.46,51,1.49,1.49,0,0,1,134,51Z" transform="translate(0 0)" fill="#fff"/><path d="M95.7,73.44a1.58,1.58,0,0,1-1.08-2.73c1.56-1.48,3.2-2.92,4.85-4.3a1.58,1.58,0,0,1,2,2.44c-1.6,1.32-3.19,2.72-4.7,4.16A1.56,1.56,0,0,1,95.7,73.44Z" transform="translate(0 0)" fill="#fff"/><path d="M65.62,157.53a1.58,1.58,0,0,1-1.56-1.38,101.12,101.12,0,0,1,0-25.37,98.82,98.82,0,0,1,12.16-36.6A1.58,1.58,0,1,1,79,95.72v0a95.82,95.82,0,0,0-11.77,35.44,97.68,97.68,0,0,0,0,24.58,1.59,1.59,0,0,1-1.37,1.77h-.21Z" transform="translate(0 0)" fill="#fff"/><path d="M114.1,230.3a1.56,1.56,0,0,1-.79-.21,101.48,101.48,0,0,1-11.08-7.43,1.58,1.58,0,0,1,1.93-2.5,98.88,98.88,0,0,0,10.73,7.19,1.58,1.58,0,0,1-.79,3Z" transform="translate(0 0)" fill="#fff"/><path d="M163.26,243.43A99.77,99.77,0,0,1,137,239.94a1.58,1.58,0,1,1,.78-3.06h.05A97.7,97.7,0,0,0,184,238.05a1.58,1.58,0,0,1,.67,3.09A99.83,99.83,0,0,1,163.26,243.43Z" transform="translate(0 0)" fill="#fff"/><path d="M211.5,230.82a1.58,1.58,0,0,1-.78-3c2.37-1.33,4.7-2.78,6.95-4.31a1.58,1.58,0,1,1,1.78,2.61c-2.32,1.58-4.73,3.08-7.18,4.46A1.58,1.58,0,0,1,211.5,230.82Z" transform="translate(0 0)" fill="#fff"/><path d="M236.28,211a1.58,1.58,0,0,1-1.59-1.58,1.6,1.6,0,0,1,.41-1.06,96.8,96.8,0,0,0,22.27-42.05,1.59,1.59,0,0,1,3.08.75,100.05,100.05,0,0,1-23,43.42A1.56,1.56,0,0,1,236.28,211Z" transform="translate(0 0)" fill="#fff"/><path d="M261.67,145a1.58,1.58,0,0,1-1.58-1.58h0c0-2.92-.13-5.86-.39-8.74-.21-2.36-.51-4.74-.9-7.08a1.58,1.58,0,0,1,3.12-.51c.4,2.41.71,4.87.93,7.3.26,3,.4,6,.4,9A1.59,1.59,0,0,1,261.67,145Z" transform="translate(0 0)" fill="#fff"/></svg>