<svg id="Layer_1" data-name="Layer 1" xmlns="http://www.w3.org/2000/svg" viewBox="0 0 20 18.33"><title>ic-privacy</title><path d="M17.71,18.33H2.29A2.29,2.29,0,0,1,0,16V2.29A2.3,2.3,0,0,1,2.29,0H17.71A2.3,2.3,0,0,1,20,2.29V16A2.29,2.29,0,0,1,17.71,18.33ZM2.29,1.25a1,1,0,0,0-1,1V16a1,1,0,0,0,1,1H17.71a1,1,0,0,0,1-1V2.29a1,1,0,0,0-1-1Z" transform="translate(0 0)"/><path d="M19.38,4.58H.62a.63.63,0,0,1,0-1.25H19.38a.63.63,0,0,1,0,1.25Z" transform="translate(0 0)"/><path d="M16.59,8H3.41C3.17,8,3,7.66,3,7.26s.2-.74.44-.74H16.59c.24,0,.44.33.44.74S16.83,8,16.59,8Z" transform="translate(0 0)" fill="#27a08b"/><path d="M16.59,11H3.41c-.24,0-.44-.33-.44-.73s.2-.74.44-.74H16.59c.24,0,.44.33.44.74S16.83,11,16.59,11Z" transform="translate(0 0)" fill="#27a08b"/><path d="M16.59,14H3.41c-.24,0-.44-.33-.44-.73s.2-.74.44-.74H16.59c.24,0,.44.33.44.74S16.83,14,16.59,14Z" transform="translate(0 0)" fill="#27a08b"/></svg>