<svg id="Layer_1" data-name="Layer 1" xmlns="http://www.w3.org/2000/svg" viewBox="0 0 20 9.55"><title>ic-pin</title><path d="M3,6.63A.63.63,0,0,1,2.33,6h0V.63A.63.63,0,0,1,3.58.58V6A.62.62,0,0,1,3,6.63Z" transform="translate(0 0.02)" fill="#27a08b"/><path d="M10,6.63A.62.62,0,0,1,9.38,6V.63A.63.63,0,0,1,10,0a.61.61,0,0,1,.59.6V6A.62.62,0,0,1,10,6.63Z" transform="translate(0 0.02)" fill="#27a08b"/><path d="M7.67,5.28a.62.62,0,0,1-.62-.62.64.64,0,0,1,.31-.54L12,1.43a.62.62,0,1,1,.62,1.08L8,5.2A.65.65,0,0,1,7.67,5.28Z" transform="translate(0 0.02)" fill="#27a08b"/><path d="M12.33,5.28A.58.58,0,0,1,12,5.2L7.36,2.51A.62.62,0,1,1,8,1.43l4.66,2.69a.63.63,0,0,1,.23.85A.61.61,0,0,1,12.33,5.28Z" transform="translate(0 0.02)" fill="#27a08b"/><path d="M.62,5.28A.62.62,0,0,1,0,4.66a.64.64,0,0,1,.31-.54L5,1.43A.62.62,0,0,1,5.6,2.51h0L.93,5.2A.65.65,0,0,1,.62,5.28Z" transform="translate(0 0.02)" fill="#27a08b"/><path d="M5.29,5.28A.55.55,0,0,1,5,5.2L.31,2.51A.62.62,0,0,1,.93,1.43h0L5.6,4.12A.62.62,0,0,1,5.83,5a.59.59,0,0,1-.54.31Z" transform="translate(0 0.02)" fill="#27a08b"/><path d="M17.05,6.63A.63.63,0,0,1,16.42,6h0V.63a.63.63,0,0,1,1.25,0V6A.62.62,0,0,1,17.05,6.63Z" transform="translate(0 0.02)" fill="#27a08b"/><path d="M14.71,5.28a.61.61,0,0,1-.62-.61.65.65,0,0,1,.31-.55l4.67-2.69a.62.62,0,1,1,.62,1.08h0L15,5.2A.65.65,0,0,1,14.71,5.28Z" transform="translate(0 0.02)" fill="#27a08b"/><path d="M19.38,5.28a.55.55,0,0,1-.31-.08L14.4,2.51A.62.62,0,0,1,15,1.43l4.67,2.69a.62.62,0,0,1-.31,1.16Z" transform="translate(0 0.02)" fill="#27a08b"/><path d="M5.24,9.53H.68a.62.62,0,0,1,0-1.24H5.24a.62.62,0,0,1,0,1.24Z" transform="translate(0 0.02)"/><path d="M12.28,9.53H7.72a.62.62,0,0,1,0-1.24h4.56a.62.62,0,0,1,0,1.24Z" transform="translate(0 0.02)"/><path d="M19.32,9.53H14.77a.62.62,0,0,1,0-1.24h4.55a.62.62,0,0,1,.65.6.61.61,0,0,1-.6.64Z" transform="translate(0 0.02)"/></svg>