<?xml version="1.0" encoding="utf-8"?>
<!-- Generator: Adobe Illustrator 24.0.1, SVG Export Plug-In . SVG Version: 6.00 Build 0)  -->
<svg version="1.1" id="Layer_1" xmlns="http://www.w3.org/2000/svg" xmlns:xlink="http://www.w3.org/1999/xlink" x="0px" y="0px"
	 viewBox="0 0 285 155" enable-background="new 0 0 285 155" xml:space="preserve">
<g id="ic-refer" transform="translate(-12.055 -0.001)">
	<g id="Group_9782" transform="translate(24.752 8.278)">
		<g id="Group_9777">
			<g id="Group_9776">
				<path id="Path_20533" fill="#6EA84B" d="M252.9,64.5c-1.4-12.5-7.7-24-17.5-31.9c-16.1-13.1-40.4-16.4-61.8-13.4
					c-8.9,1.3-17.8,3.5-26.9,2.8c-13.3-1-25.1-8.1-37.2-13.3C92.9,1.8,73.9-2,56.3,1.1C36.4,4.5,20,17.7,18.1,35.1
					c-0.9,7.9,8.1,21.8,5.3,29.3C20.5,72-0.5,95.2,0,112.9c0.5,17.6,5.3,23.1,12.2,32h223.1c4.3-9.1,7.6-16.3,2.6-28.2
					c-4-9.5,6.8-17.4,11-26.2C252.5,82.3,253.9,73.4,252.9,64.5z"/>
			</g>
		</g>
	</g>
	<ellipse id="Ellipse_5164" fill="#078071" cx="283.7" cy="89.6" rx="2" ry="2"/>
	<ellipse id="Ellipse_5165" fill="#71AB3C" cx="269.8" cy="143.9" rx="1.5" ry="1.5"/>
	<ellipse id="Ellipse_5166" fill="#068675" cx="34.5" cy="21.9" rx="2" ry="2"/>
	<path id="Path_20540" fill="#068675" d="M16.2,138.2c0,1.1-0.9,2.1-2.1,2.1c-1.1,0-2.1-0.9-2.1-2.1c0-1.1,0.9-2.1,2.1-2.1
		C15.3,136.1,16.2,137,16.2,138.2C16.2,138.2,16.2,138.2,16.2,138.2z"/>
	<ellipse id="Ellipse_5167" fill="#6AA555" cx="22" cy="31.5" rx="0.6" ry="0.7"/>
	<path id="Path_20541" fill="#008576" d="M188.1,6.3c-0.6,2.8-3.4,4.6-6.2,4s-4.6-3.4-4-6.2c0.6-2.8,3.4-4.6,6.2-4
		C187,0.7,188.7,3.5,188.1,6.3C188.1,6.3,188.1,6.3,188.1,6.3z"/>
	<path id="Path_20542" fill="#6EA84B" d="M270.3,14.1c-0.2,0.9-1,1.4-1.9,1.2s-1.4-1-1.2-1.9c0.2-0.9,1-1.4,1.9-1.2
		C269.9,12.4,270.4,13.3,270.3,14.1C270.3,14.1,270.3,14.1,270.3,14.1z"/>
	<path id="Path_20543" fill="#FFB54A" d="M66.7,4c-0.2,0.9-1,1.4-1.9,1.2c-0.9-0.2-1.4-1-1.2-1.9c0.2-0.9,1-1.4,1.9-1.2
		C66.3,2.3,66.9,3.2,66.7,4C66.7,4,66.7,4,66.7,4z"/>
	<path id="Path_20544" fill="#E6C125" d="M283.3,49.8c-0.2,0.9-1,1.4-1.9,1.2c-0.9-0.2-1.4-1-1.2-1.9c0.2-0.9,1-1.4,1.9-1.2
		C282.9,48.1,283.5,48.9,283.3,49.8C283.3,49.8,283.3,49.8,283.3,49.8z"/>
	<path id="Path_20545" fill="#71AA3C" d="M169.5,11.3c-0.1,0.7-0.8,1.1-1.5,1c-0.7-0.1-1.1-0.8-1-1.5c0.1-0.7,0.8-1.1,1.5-1
		C169.2,9.9,169.6,10.6,169.5,11.3C169.5,11.3,169.5,11.3,169.5,11.3z"/>
	<g id="Group_9792" transform="translate(108.345 9.147)">
		<g id="Group_9785" transform="translate(18.713)">
			<ellipse id="Ellipse_5168" fill="#1B1B25" cx="27.5" cy="27.6" rx="24.9" ry="24.9"/>
			<ellipse id="Ellipse_5169" fill="#FFB54A" cx="24.9" cy="24.9" rx="24.9" ry="24.9"/>
			<path id="Path_20546" fill="#FCF0E3" d="M24.9,45.1c-11.1,0-20.1-9-20.1-20.1c0-11.1,9-20.1,20.1-20.1c11.1,0,20.1,9,20.1,20.1
				c0,0,0,0,0,0C45,36.1,36,45,24.9,45.1z M24.9,6.2C14.5,6.2,6.1,14.6,6.1,25c0,10.4,8.4,18.8,18.8,18.8c10.4,0,18.8-8.4,18.8-18.8
				c0,0,0,0,0,0C43.7,14.6,35.3,6.2,24.9,6.2z"/>
			<g id="Group_9784" transform="translate(16.625 12.17)">
				<g id="Group_9783">
					<path id="Path_20547" fill="#1B1B25" d="M6.8,21.8c-1.2-0.2-2.5-0.5-3.6-0.9C2.1,20.4,1,19.8,0,19.1l2.3-3.3
						c0.7,0.6,1.5,1.1,2.3,1.5C5.3,17.7,6.1,18,7,18.1v-4.6c-0.9-0.3-1.8-0.6-2.7-1c-0.7-0.3-1.4-0.7-1.9-1.2
						c-0.5-0.5-0.9-1.1-1.2-1.7C0.9,8.9,0.7,8.2,0.8,7.4V7.3c0-0.8,0.1-1.5,0.4-2.2c0.3-0.6,0.7-1.2,1.2-1.7C3,2.9,3.6,2.5,4.3,2.3
						C5.1,2,6,1.8,6.8,1.7V0h3v1.7c1,0.1,1.9,0.4,2.9,0.8c0.9,0.4,1.7,0.8,2.5,1.4l-1.9,3.4c-0.6-0.4-1.2-0.7-1.8-1
						c-0.6-0.3-1.2-0.5-1.8-0.7v4.4c1.8,0.4,3.4,1.2,4.8,2.3c1,1,1.6,2.4,1.5,3.9v0.1c0,0.8-0.1,1.5-0.4,2.2
						c-0.3,0.6-0.7,1.2-1.2,1.7c-0.6,0.5-1.2,0.9-1.9,1.2c-0.8,0.3-1.6,0.5-2.5,0.6v2.9h-3L6.8,21.8L6.8,21.8z M7,5.3
						c-0.6,0-1.1,0.3-1.5,0.6C5.1,6.2,4.9,6.6,5,7.1v0.1c0,0.4,0.1,0.8,0.4,1.1c0.4,0.4,1,0.7,1.6,0.9L7,5.3L7,5.3z M9.7,18.3
						c1.4-0.2,2-0.8,2-1.8v-0.1c0-0.4-0.1-0.9-0.4-1.2c-0.5-0.4-1-0.7-1.6-0.9V18.3z"/>
				</g>
			</g>
		</g>
		<g id="Group_9788" transform="translate(18.713)">
			<ellipse id="Ellipse_5170" fill="#1B1B25" cx="27.5" cy="27.6" rx="24.9" ry="24.9"/>
			<ellipse id="Ellipse_5171" fill="#E6C125" cx="24.9" cy="24.9" rx="24.9" ry="24.9"/>
			<path id="Path_20548" fill="#FCF0E3" d="M24.9,45.1c-11.1,0-20.1-9-20.1-20.1c0-11.1,9-20.1,20.1-20.1c11.1,0,20.1,9,20.1,20.1
				c0,0,0,0,0,0C45,36.1,36,45,24.9,45.1z M24.9,6.2C14.5,6.2,6.1,14.6,6.1,25c0,10.4,8.4,18.8,18.8,18.8c10.4,0,18.8-8.4,18.8-18.8
				c0,0,0,0,0,0C43.7,14.6,35.3,6.2,24.9,6.2z"/>
			<path id="Path_19539_1_" d="M24.4,30.6c0,0.1-0.1,0.2-0.1,0.2h-2.7c-0.1,0-0.2,0-0.2-0.1c-0.1-0.1-0.1-0.2-0.1-0.3L18,24.9h-1.3
				l-0.9-0.1v5.6c0,0.2-0.2,0.4-0.4,0.4h-2.2c-0.2,0-0.4-0.2-0.4-0.4V16.1c0-0.2,0-0.4,0.1-0.5c0.1-0.1,0.3-0.2,0.5-0.1
				c0.5-0.1,1.2-0.1,1.9-0.1c0.7,0,1.5-0.1,2.3-0.1c0.8,0,1.6,0.1,2.4,0.2c0.7,0.1,1.4,0.4,2,0.8c0.6,0.4,1,0.9,1.4,1.4
				c0.4,0.7,0.5,1.5,0.5,2.3v0.1c0.1,1.9-1.1,3.7-2.9,4.2L24.4,30.6L24.4,30.6z M20.9,19.9c0-0.7-0.3-1.3-0.8-1.7
				c-0.7-0.4-1.6-0.6-2.4-0.5h-1.9v4.7h1.9c0.8,0,1.7-0.1,2.4-0.5C20.7,21.4,21,20.7,20.9,19.9L20.9,19.9z M36.6,25.8
				c0.1,1.4-0.4,2.8-1.2,3.9c-1,1-2.5,1.5-3.9,1.4h-0.9c-0.3,0-0.7-0.1-1.1-0.1v3.7c0,0.2-0.2,0.4-0.4,0.4H27
				c-0.2,0-0.4-0.2-0.4-0.4V20.2c0-0.1,0-0.2,0.1-0.3c0.2-0.1,0.3-0.2,0.5-0.2c0.7-0.3,1.4-0.5,2.1-0.5c0.7-0.1,1.4-0.1,2.1-0.1
				c1.4-0.1,2.9,0.4,3.9,1.4c0.9,1.1,1.4,2.5,1.2,3.9L36.6,25.8z M33.8,24.2c0-0.4,0-0.8-0.1-1.1c-0.1-0.3-0.2-0.7-0.3-1
				c-0.2-0.3-0.4-0.5-0.7-0.6c-0.4-0.2-0.7-0.2-1.1-0.2c-0.4,0-0.8,0-1.2,0.1c-0.3,0-0.6,0-0.9,0.1v7.3c0.3,0.1,0.7,0.1,1.1,0.1
				c0.3,0.1,0.7,0.1,1,0.1c0.4,0,0.8-0.1,1.1-0.2c0.3-0.1,0.5-0.4,0.7-0.7c0.2-0.3,0.3-0.6,0.3-1c0.1-0.4,0.1-0.8,0.1-1.2L33.8,24.2
				L33.8,24.2z"/>
		</g>
		<g id="Group_9791" transform="translate(6.352 0.924)">
			<ellipse id="Ellipse_5172" fill="#1B1B25" cx="12.5" cy="12.5" rx="11.3" ry="11.3"/>
			<ellipse id="Ellipse_5173" fill="#E6C125" cx="11.3" cy="11.3" rx="11.3" ry="11.3"/>
			<path id="Path_20550" fill="#FCF0E3" d="M11.3,20.4c-5,0-9.1-4.1-9.1-9.1c0-5,4.1-9.1,9.1-9.1c5,0,9.1,4.1,9.1,9.1c0,0,0,0,0,0
				C20.3,16.3,16.3,20.4,11.3,20.4z M11.3,2.8c-4.7,0-8.5,3.8-8.5,8.5s3.8,8.5,8.5,8.5c4.7,0,8.5-3.8,8.5-8.5c0,0,0,0,0,0
				C19.8,6.6,16,2.8,11.3,2.8L11.3,2.8z"/>
			<path id="Path_19539_1_2" d="M11.2,13.3C11.2,13.3,11.2,13.4,11.2,13.3l-1.1,0.1c0,0-0.1,0-0.1,0c0,0,0-0.1-0.1-0.1l-1.2-2.1H8.3
				l-0.3,0v2.1c0,0.1-0.1,0.2-0.1,0.2H7c-0.1,0-0.2-0.1-0.2-0.1V7.8c0-0.1,0-0.1,0.1-0.2c0.1,0,0.1-0.1,0.2,0c0.2,0,0.5,0,0.7-0.1
				s0.6,0,0.9,0c0.3,0,0.6,0,0.9,0.1c0.3,0,0.5,0.1,0.8,0.3c0.2,0.1,0.4,0.3,0.5,0.6C11,8.7,11,9,11,9.3v0.1c0,0.7-0.4,1.4-1.1,1.6
				L11.2,13.3L11.2,13.3z M9.9,9.2c0-0.3-0.1-0.5-0.3-0.7C9.4,8.4,9,8.3,8.7,8.4H8v1.8h0.7c0.3,0,0.6-0.1,0.9-0.2
				C9.8,9.8,9.9,9.5,9.9,9.2L9.9,9.2z M15.9,11.5c0,0.5-0.1,1.1-0.5,1.5c-0.4,0.4-0.9,0.6-1.5,0.5h-0.4c-0.1,0-0.3,0-0.4,0v1.4
				c0,0.1-0.1,0.2-0.1,0.2h-0.8c-0.1,0-0.1-0.1-0.1-0.2c0,0,0,0,0,0V9.4c0,0,0-0.1,0-0.1c0.1,0,0.1-0.1,0.2-0.1
				C12.6,9,12.8,9,13.1,9c0.3,0,0.5-0.1,0.8,0c0.5,0,1.1,0.1,1.5,0.5c0.4,0.4,0.5,1,0.5,1.5L15.9,11.5z M14.8,10.9
				c0-0.1,0-0.3,0-0.4c0-0.1-0.1-0.3-0.1-0.4c-0.1-0.1-0.2-0.2-0.3-0.2c-0.1-0.1-0.3-0.1-0.4-0.1c-0.2,0-0.3,0-0.5,0
				c-0.1,0-0.2,0-0.3,0v2.8c0.1,0,0.3,0,0.4,0c0.1,0,0.3,0,0.4,0c0.1,0,0.3,0,0.4-0.1c0.1-0.1,0.2-0.1,0.3-0.3
				c0.1-0.1,0.1-0.2,0.1-0.4c0-0.2,0-0.3,0-0.5L14.8,10.9L14.8,10.9z"/>
		</g>
		<path id="Path_20552" fill="#FFFFFF" d="M4.9,32.5L4.9,32.5c0-2.7-2.2-4.9-4.9-4.9l0,0c2.7,0,4.9-2.2,4.9-4.9l0,0
			c0,2.7,2.2,4.9,4.9,4.9l0,0C7.1,27.6,4.9,29.8,4.9,32.5C4.9,32.5,4.9,32.5,4.9,32.5z"/>
		<path id="Path_20553" fill="#FFFFFF" d="M62.4,57.1L62.4,57.1c0-2-1.6-3.6-3.6-3.6c0,0,0,0,0,0l0,0c2,0,3.6-1.6,3.6-3.6
			c0,0,0,0,0,0l0,0c0,2,1.6,3.6,3.6,3.6c0,0,0,0,0,0l0,0C64,53.5,62.4,55.1,62.4,57.1C62.4,57.1,62.4,57.1,62.4,57.1z"/>
		<path id="Path_20554" fill="#FFFFFF" d="M38.9,74.4L38.9,74.4c0-3.7-3-6.6-6.6-6.6l0,0c3.7,0,6.6-3,6.6-6.6l0,0
			c0,3.7,3,6.6,6.6,6.6l0,0C41.8,67.8,38.9,70.8,38.9,74.4z"/>
		<path id="Path_20555" fill="#FCF0E3" d="M61.7,23.4L61.7,23.4c0-3.4-2.8-6.2-6.2-6.2l0,0c3.4,0,6.2-2.8,6.2-6.2l0,0
			c0,3.4,2.8,6.2,6.2,6.2l0,0C64.5,17.2,61.7,20,61.7,23.4C61.7,23.4,61.7,23.4,61.7,23.4z"/>
		<path id="Path_20556" fill="#FFFFFF" d="M82.4,27.6L82.4,27.6c0-1.9-1.5-3.4-3.4-3.4l0,0c1.9,0,3.4-1.5,3.4-3.4l0,0
			c0,1.9,1.5,3.4,3.4,3.4l0,0C83.9,24.1,82.4,25.7,82.4,27.6z"/>
	</g>
	<g id="Group_9804" transform="translate(15.014 20.289)">
		<path id="Path_20557" fill="#008576" d="M66.1,5H28c-3.9,0-7.1,3.2-7.1,7.1s3.2,7.1,7.1,7.1h31.4l4.3,3.9v-3.9h2.4
			c3.9,0,7.1-3.2,7.1-7.1S70,5,66.1,5L66.1,5z"/>
		<path id="Path_20558" fill="#FFB54A" d="M31.5,11.1c1-0.8,1.1-2.2,0.3-3.2c-0.8-1-2.2-1.1-3.2-0.3s-1.1,2.2-0.3,3.2
			c0.1,0.1,0.2,0.2,0.3,0.3c-1.6,0.6-2.7,2.2-2.7,3.9c0,2.3,8.3,2.3,8.3,0C34.2,13.3,33.1,11.7,31.5,11.1z"/>
		<g id="Group_9793" transform="translate(39.073 8.391)">
			<path id="Path_20559" fill="#FFFFFF" d="M27.5,0.4H0.2C0.1,0.4,0,0.3,0,0.2C0,0.1,0.1,0,0.2,0h27.3c0.1,0,0.2,0.1,0.2,0.2
				c0,0,0,0,0,0C27.7,0.3,27.6,0.4,27.5,0.4z"/>
			<path id="Path_20560" fill="#FFFFFF" d="M23.2,6.8h-23C0.1,6.8,0,6.7,0,6.6c0-0.1,0.1-0.2,0.2-0.2h23c0.1,0,0.2,0.1,0.2,0.2
				c0,0,0,0,0,0C23.5,6.7,23.4,6.8,23.2,6.8C23.2,6.8,23.2,6.8,23.2,6.8z"/>
			<path id="Path_20561" fill="#FFFFFF" d="M17,3.8H0.2C0.1,3.8,0,3.7,0,3.6c0-0.1,0.1-0.2,0.2-0.2H17c0.1,0,0.2,0.1,0.2,0.2
				C17.2,3.7,17.1,3.8,17,3.8L17,3.8z"/>
			<path id="Path_20562" fill="#FFFFFF" d="M27.5,3.8h-8.4c-0.1,0-0.2-0.1-0.2-0.2c0-0.1,0.1-0.2,0.2-0.2h8.4c0.1,0,0.2,0.1,0.2,0.2
				c0,0,0,0,0,0C27.7,3.7,27.6,3.8,27.5,3.8z"/>
		</g>
		<path id="Path_20563" fill="#FFFFFF" d="M32.7,14.4c-0.2,0-0.3-0.1-0.5-0.2l-1.6-1.6c-0.3-0.3-0.3-0.7,0-0.9
			c0.3-0.3,0.7-0.3,0.9,0l1.2,1.2l3.2-3.2c0.3-0.3,0.7-0.3,0.9,0c0.3,0.3,0.3,0.7,0,0.9l-3.6,3.6C33.1,14.3,32.9,14.4,32.7,14.4z"/>
		<g id="Group_9799" transform="translate(228.471 41.956)">
			<path id="Path_20564" fill="#008576" d="M7.3,0h39c4,0,7.3,3.3,7.3,7.3s-3.3,7.3-7.3,7.3H14.1l-4.4,4v-4H7.3
				c-4,0-7.3-3.3-7.3-7.3S3.2,0,7.3,0z"/>
			<g id="Group_9797" transform="translate(39.827 2.23)">
				<g id="Group_9796">
					<g id="Group_9795">
						<path id="Path_20565" fill="#ECBD43" d="M5.6,4c1-0.8,1.1-2.2,0.3-3.2c-0.8-1-2.2-1.1-3.2-0.3c-1,0.8-1.1,2.2-0.3,3.2
							C2.5,3.8,2.6,3.9,2.7,4C1.1,4.6,0,6.1,0,7.9c0,2.3,8.3,2.3,8.3,0C8.3,6.1,7.2,4.6,5.6,4z"/>
						<g id="Group_9794" transform="translate(5.251 3.944)">
							<path id="Path_20566" fill="#FFFFFF" d="M3.8,1.3H2.7V0.2C2.7,0.1,2.6,0,2.5,0h-1C1.4,0,1.3,0.1,1.3,0.2v1.1H0.2
								C0.1,1.3,0,1.4,0,1.5v1c0,0.1,0.1,0.2,0.2,0.2h1.1v1.1C1.3,3.9,1.4,4,1.5,4h1c0.1,0,0.2-0.1,0.2-0.2V2.7h1.1
								C3.9,2.7,4,2.6,4,2.5v-1C4,1.4,3.9,1.3,3.8,1.3z"/>
						</g>
					</g>
				</g>
			</g>
			<g id="Group_9798" transform="translate(8.943 3.909)">
				<path id="Path_20567" fill="#FFFFFF" d="M27.5,0.4H0.2C0.1,0.4,0,0.3,0,0.2C0,0.1,0.1,0,0.2,0h27.3c0.1,0,0.2,0.1,0.2,0.2
					C27.7,0.3,27.6,0.4,27.5,0.4L27.5,0.4z"/>
				<path id="Path_20568" fill="#FFFFFF" d="M23.2,6.8h-23C0.1,6.8,0,6.7,0,6.6c0-0.1,0.1-0.2,0.2-0.2h23c0.1,0,0.2,0.1,0.2,0.2
					c0,0,0,0,0,0C23.5,6.7,23.4,6.8,23.2,6.8z"/>
				<path id="Path_20569" fill="#FFFFFF" d="M17,3.8H0.2C0.1,3.8,0,3.7,0,3.6c0-0.1,0.1-0.2,0.2-0.2H17c0.1,0,0.2,0.1,0.2,0.2
					C17.2,3.7,17.1,3.8,17,3.8z"/>
				<path id="Path_20570" fill="#FFFFFF" d="M27.5,3.8h-8.4c-0.1,0-0.2-0.1-0.2-0.2c0-0.1,0.1-0.2,0.2-0.2h8.4
					c0.1,0,0.2,0.1,0.2,0.2C27.7,3.7,27.6,3.8,27.5,3.8z"/>
			</g>
		</g>
		<g id="Group_9801" transform="translate(181.668)">
			<path id="Path_20571" fill="#DBB825" d="M5,0h26.9c2.8,0,5,2.3,4.9,5.1c0,2.7-2.2,4.9-4.9,4.9H5c-2.8,0-5-2.3-4.9-5.1
				C0.1,2.2,2.3,0,5,0z"/>
			<g id="Group_9800" transform="translate(7.803 2.929)">
				<path id="Path_20572" fill="#FFFFFF" d="M21.1,0.4H0.2C0.1,0.4,0,0.3,0,0.2C0,0.1,0.1,0,0.2,0h20.8c0.1,0,0.2,0.1,0.2,0.2
					c0,0,0,0,0,0C21.3,0.3,21.2,0.4,21.1,0.4L21.1,0.4z"/>
				<path id="Path_20573" fill="#FFFFFF" d="M17.8,4.2H0.2C0.1,4.2,0,4.1,0,4c0-0.1,0.1-0.2,0.2-0.2h17.6C17.9,3.8,18,3.9,18,4
					c0,0,0,0,0,0C18,4.1,17.9,4.2,17.8,4.2z"/>
				<path id="Path_20574" fill="#FFFFFF" d="M13,2.5H0.2C0.1,2.5,0,2.4,0,2.2C0,2.1,0.1,2,0.2,2H13c0.1,0,0.2,0.1,0.2,0.2
					c0,0,0,0,0,0C13.2,2.4,13.1,2.5,13,2.5z"/>
				<path id="Path_20575" fill="#FFFFFF" d="M21.1,2.5h-6.4c-0.1,0-0.2-0.1-0.2-0.2c0-0.1,0.1-0.2,0.2-0.2h6.4
					c0.1,0,0.2,0.1,0.2,0.2c0,0,0,0,0,0C21.3,2.4,21.2,2.5,21.1,2.5L21.1,2.5z"/>
			</g>
		</g>
		<g id="Group_9803" transform="translate(0 71.082)">
			<path id="Path_20576" fill="#ECBD43" d="M4.5,0h23.9c2.5,0,4.5,2,4.5,4.5c0,2.5-2,4.5-4.5,4.5H4.5C2,8.9,0,6.9,0,4.5
				C0,2,2,0,4.5,0z"/>
			<g id="Group_9802" transform="translate(6.911 2.582)">
				<path id="Path_20577" fill="#FFFFFF" d="M18.8,0.4H0.2C0.1,0.4,0,0.3,0,0.2C0,0.1,0.1,0,0.2,0h18.5C18.9,0,19,0.1,19,0.2
					c0,0,0,0,0,0C19,0.3,18.9,0.4,18.8,0.4z"/>
				<path id="Path_20578" fill="#FFFFFF" d="M15.9,3.8H0.2C0.1,3.8,0,3.7,0,3.6c0-0.1,0.1-0.2,0.2-0.2h15.7c0.1,0,0.2,0.1,0.2,0.2
					C16.1,3.7,16,3.8,15.9,3.8z"/>
				<path id="Path_20579" fill="#FFFFFF" d="M11.6,2.2H0.2C0.1,2.2,0,2.1,0,2c0-0.1,0.1-0.2,0.2-0.2h11.4c0.1,0,0.2,0.1,0.2,0.2
					c0,0,0,0,0,0C11.8,2.1,11.7,2.2,11.6,2.2C11.6,2.2,11.6,2.2,11.6,2.2z"/>
				<path id="Path_20580" fill="#FFFFFF" d="M18.8,2.2H13c-0.1,0-0.2-0.1-0.2-0.2c0-0.1,0.1-0.2,0.2-0.2h5.7C18.9,1.8,19,1.9,19,2
					c0,0,0,0,0,0C19,2.1,18.9,2.2,18.8,2.2C18.8,2.2,18.8,2.2,18.8,2.2z"/>
			</g>
		</g>
	</g>
	<g id="Group_9807" transform="translate(105.43 115.042)">
		<g id="Group_9805" transform="translate(48.042)">
			<path id="Path_20581" fill="#FFFFFF" d="M42.7,0.4H0.2C0.1,0.4,0,0.3,0,0.2C0,0.1,0.1,0,0.2,0h42.5c0.1,0,0.2,0.1,0.2,0.2
				c0,0,0,0,0,0C42.9,0.3,42.8,0.4,42.7,0.4z"/>
			<path id="Path_20582" fill="#FFFFFF" d="M42.7,10.4H6.8c-0.1,0-0.2-0.1-0.2-0.2c0-0.1,0.1-0.2,0.2-0.2h35.9
				c0.1,0,0.2,0.1,0.2,0.2c0,0,0,0,0,0C42.9,10.3,42.8,10.4,42.7,10.4z"/>
			<path id="Path_20583" fill="#FFFFFF" d="M42.7,5.7H16.6c-0.1,0-0.2-0.1-0.2-0.2c0-0.1,0.1-0.2,0.2-0.2h26.1
				c0.1,0,0.2,0.1,0.2,0.2c0,0,0,0,0,0C42.9,5.6,42.8,5.7,42.7,5.7z"/>
			<path id="Path_20584" fill="#FFFFFF" d="M13.3,5.7H0.2C0.1,5.7,0,5.6,0,5.5c0-0.1,0.1-0.2,0.2-0.2h13.1c0.1,0,0.2,0.1,0.2,0.2
				C13.5,5.6,13.4,5.7,13.3,5.7L13.3,5.7z"/>
		</g>
		<g id="Group_9806" transform="translate(0 15.832)">
			<path id="Path_20585" fill="#FFFFFF" d="M42.7,0.4H0.2C0.1,0.4,0,0.3,0,0.2C0,0.1,0.1,0,0.2,0h42.5c0.1,0,0.2,0.1,0.2,0.2
				C42.9,0.3,42.8,0.4,42.7,0.4L42.7,0.4z"/>
			<path id="Path_20586" fill="#FFFFFF" d="M36.1,10.4H0.2c-0.1,0-0.2-0.1-0.2-0.2C0,10.1,0.1,10,0.2,10h35.9c0.1,0,0.2,0.1,0.2,0.2
				C36.3,10.3,36.2,10.4,36.1,10.4L36.1,10.4z"/>
			<path id="Path_20587" fill="#FFFFFF" d="M26.3,5.7H0.2C0.1,5.7,0,5.6,0,5.5c0-0.1,0.1-0.2,0.2-0.2h26.1c0.1,0,0.2,0.1,0.2,0.2
				C26.5,5.6,26.4,5.7,26.3,5.7z"/>
			<path id="Path_20588" fill="#FFFFFF" d="M42.7,5.7H29.6c-0.1,0-0.2-0.1-0.2-0.2c0-0.1,0.1-0.2,0.2-0.2h13.1
				c0.1,0,0.2,0.1,0.2,0.2C42.9,5.6,42.8,5.7,42.7,5.7L42.7,5.7z"/>
		</g>
	</g>
	<g id="Group_9829" transform="translate(158.84 37.896)">
		<g id="Group_9813" transform="translate(0 6.809)">
			<g id="Group_9812">
				<g id="Group_9811">
					<g id="Group_9809">
						<path id="Path_20589" fill="#FF8783" d="M21.3,46.3L21.3,46.3l6.3-21.9l0,0c0.6-1.1,1.5-2.1,2.5-2.8c1.6-1.1,2.6-2.9,2.9-4.8
							c1.4-1.3,2.9-2.5,4.3-3.8c0.2-0.1,0.3-0.3,0.3-0.5c0-0.2,0-0.5-0.2-0.6c-0.7-1-2.1-1.3-3.2-0.7c-0.6,0.3-1.2,0.7-1.8,1.2
							c-0.5,0.4-1,0.8-1.4,1.2l5-10.7c0.5-0.8,0.2-1.9-0.6-2.4l0,0c-0.4-0.2-0.9-0.2-1.3,0c-0.3,0.1-0.5,0.3-0.7,0.6
							c0-0.1,0-0.1,0-0.1C27.7-4,20.5,12.7,20.5,12.7l-2,4.8L1.1,49.8C-1.3,54.4,0.4,60,5,62.5c0.1,0,0.2,0.1,0.2,0.1l0,0
							c0.1,0,0.1,0.1,0.2,0.1c1.4,0.8,3.1,1.3,4.7,1.3h34.2l7.4-17.5L21.3,46.3z"/>
						<g id="Group_9808" transform="translate(14.855 46.245)">
							<path id="Path_20590" fill="none" d="M5.5,3.5l-0.9,3C4.9,5.5,5.2,4.4,5.5,3.5z"/>
							<path id="Path_20591" opacity="0.17" fill="#FF887C" enable-background="new    " d="M0.6,17.7C-0.5,17.6,0.2,17.7,0.6,17.7z
								"/>
							<path id="Path_20592" opacity="0.17" fill="#FF887C" enable-background="new    " d="M0.6,17.7l0.3,0
								C0.8,17.7,0.7,17.7,0.6,17.7z"/>
							<path id="Path_20593" opacity="0.17" fill="#FF887C" enable-background="new    " d="M6.5,0l-1,3.5c-0.3,1-0.6,2-0.9,3
								l-1.2,4.2c-0.2,0.5-0.4,1-0.6,1.5c-1,3.1-1.9,5.5-1.9,5.5L13.2,0.1C10.1,0.1,9.4,0,6.5,0z"/>
							<path id="Path_20594" opacity="0.17" fill="#FF887C" enable-background="new    " d="M0.6,17.7L0.6,17.7z"/>
						</g>
						<path id="Path_20595" fill="#FA706B" d="M26.3,14.6c0,0-0.1,0-0.1,0c-0.1-0.1-0.1-0.2,0-0.3c1.1-1.7,3.3-2.3,5.1-1.3
							c0.1,0.1,0.1,0.2,0.1,0.3c-0.1,0.1-0.2,0.1-0.3,0.1c-1.6-0.9-3.6-0.3-4.6,1.2C26.4,14.6,26.3,14.6,26.3,14.6z"/>
						<path id="Path_20596" fill="#FA706B" d="M33.6,1c-0.9,1.1-1.7,2.3-2.5,3.6c-0.4,0.6-0.7,1.3-1,1.9c-0.3,0.6-0.5,1.3-0.5,2v0
							c0,0.1-0.1,0.2-0.2,0.2c-0.1,0-0.2-0.1-0.2-0.2c0,0,0,0,0,0l0,0c0-0.8,0.2-1.5,0.5-2.2c0.3-0.7,0.7-1.3,1-1.9
							c0.8-1.2,1.6-2.4,2.6-3.6c0-0.1,0.1-0.1,0.2,0C33.7,0.9,33.7,0.9,33.6,1C33.6,1,33.6,1,33.6,1L33.6,1z"/>
						<path id="Path_20597" fill="#FA706B" d="M32.1,0.4c-0.6,0.4-1.1,0.9-1.5,1.5c-0.5,0.6-0.9,1.1-1.2,1.8
							c-0.4,0.6-0.7,1.3-0.9,1.9c-0.1,0.3-0.2,0.7-0.4,1l-0.3,1v0c0,0.1-0.2,0.2-0.3,0.1c-0.1,0-0.2-0.2-0.1-0.3l0,0l0.3-1
							c0.1-0.3,0.3-0.7,0.4-1c0.3-0.7,0.6-1.3,1-2c0.4-0.6,0.8-1.2,1.3-1.8c0.5-0.6,1-1.1,1.6-1.5c0.1,0,0.1,0,0.2,0c0,0,0,0,0,0
							C32.2,0.2,32.2,0.3,32.1,0.4L32.1,0.4z"/>
						<path id="Path_20598" fill="#FA706B" d="M29.8,0.5c-0.8,0.9-1.6,1.8-2.3,2.8c-0.3,0.5-0.6,1-0.9,1.6c-0.3,0.5-0.4,1.1-0.5,1.7
							l0,0c0,0.1-0.1,0.2-0.2,0.2c-0.1,0-0.2-0.1-0.2-0.2c0,0,0,0,0,0l0,0c0.1-0.6,0.3-1.2,0.6-1.8c0.3-0.5,0.6-1.1,1-1.6
							c0.7-1,1.5-1.9,2.4-2.8c0,0,0.1,0,0.2,0C29.8,0.4,29.8,0.5,29.8,0.5L29.8,0.5z"/>
					</g>
					<g id="Group_9810" transform="translate(30.49 46.227)">
						<path id="Path_20599" fill="#068675" d="M69.7,31.9L61.3,9c-1-5-5.8-8.8-11.5-8.8L26.4,0L0,0.1v17.6h8.2L4,63.6L62,63.9
							l-0.3-31.1L69.7,31.9z"/>
						<path id="Path_20600" fill="none" stroke="#FB8E77" stroke-linecap="round" stroke-miterlimit="10" d="M12,30.7"/>
					</g>
					<path id="Path_20601" opacity="5.000000e-02" fill="#1B1B25" enable-background="new    " d="M56.8,46.4l0-0.2l-26.4,0.1v17.6
						h8.2l0-0.5C38.7,54.2,46.8,46.6,56.8,46.4z"/>
					<path id="Path_20602" opacity="0.18" fill="#FF887C" enable-background="new    " d="M23.5,21c0,0,1.5,12.6,1.6,12.3
						s2.5-8.8,2.5-8.8L23.5,21z"/>
				</g>
			</g>
		</g>
		<g id="Group_9816" transform="translate(41.846 70.161)">
			<g id="Group_9814">
				<path id="Path_20603" fill="#1B1B25" d="M16.2,21.3L14,10.1l-1.7-8.6c-0.2-1-1.2-1.7-2.2-1.5L1.5,1.7C0.5,1.9-0.2,2.9,0,4
					l1.7,8.7l1.4,6.9L4,23.8c0.2,1,1.2,1.7,2.2,1.5l5.1-1l3.5-0.7C15.8,23.3,16.4,22.3,16.2,21.3z"/>
			</g>
			<g id="Group_9815" transform="translate(0.36 10.149)">
				<path id="Path_20604" fill="#FF8783" d="M61.4,21.5L57.6,4.7L40,6.8l1,4.3l-0.1,0L21.8,6.3l0,0c-1-0.5-1.8-1.3-2.4-2.2
					c-1-1.4-2.6-2.3-4.3-2.5c-0.5-0.5-1-1.1-1.5-1.7l0.4,2.3L14,2.3c-1.2,0.6-2.6,0.9-4,0.8C7.5,2.9,3.3,2.6,1.6,2.5
					c-0.5,0-1,0.2-1.3,0.7c-2.5,5.2,8.1,9.9,10.5,10.9l0,0l0.1,0c0,0,0.1,0,0.1,0s0.1,0,0.1,0s0.1,0,0.1,0l0.1,0c0,0,0,0,0,0l0,0
					l4.1,1.5l32.7,16.1c0.3,0.1,0.6,0.3,0.9,0.4c1.6,0.8,3.5,0.9,5.2,0.5l0,0C59.4,31.7,62.6,26.6,61.4,21.5z"/>
			</g>
			<path id="Path_20606" opacity="0.35" fill="#1B1B25" enable-background="new    " d="M38.7,17.2c-0.1,0-0.2-0.1-0.2-0.2L36,4.8
				c0-0.1,0-0.2,0.2-0.3c0.1,0,0.2,0,0.3,0.2c0,0,0,0,0,0l2.5,12l8.5-1.1c0.1,0,0.2,0.1,0.2,0.2c0,0.1-0.1,0.2-0.2,0.2L38.7,17.2
				C38.8,17.2,38.7,17.2,38.7,17.2z"/>
		</g>
		<g id="Group_9817" transform="translate(102.375 96.372)">
			<path id="Path_20607" opacity="0.17" fill="#FF887C" enable-background="new    " d="M0.1,0.7c0,0.1,0,0.1,0,0.2
				C0.2,0.9,0.2,0.8,0.1,0.7z"/>
			<path id="Path_20608" opacity="0.17" fill="#FF887C" enable-background="new    " d="M0.2,0.9"/>
			<path id="Path_20609" opacity="0.17" fill="#FF887C" enable-background="new    " d="M0,0c0,0,0,0.2,0.1,0.5C0.1,0.3,0,0.2,0,0z"
				/>
			<path id="Path_20610" opacity="0.17" fill="#FF887C" enable-background="new    " d="M0.1,0.5c0,0.1,0,0.2,0,0.2
				C0.1,0.6,0.1,0.5,0.1,0.5z"/>
		</g>
		<g id="Group_9828" transform="translate(47.228)">
			<g id="Group_9819">
				<path id="Path_20611" fill="#1B1B25" d="M31.4,7.9c-0.5-3.8-4-6.4-7.8-5.9c-0.9,0.1-1.7,0.4-2.5,0.9c-1.7-2.9-5.5-3.8-8.3-2.1
					c-0.4,0.2-0.8,0.5-1.1,0.8c-4-2-8.8-0.4-10.8,3.6c-1.6,3.3-0.9,7.2,1.9,9.6l-1.6,8.7c-0.5,2.5,1.2,4.9,3.7,5.4c0,0,0,0,0,0
					l19.3,3.6c2.5,0.5,4.9-1.2,5.4-3.7c0,0,0,0,0,0L32.6,12C32.9,10.5,32.5,9,31.4,7.9z"/>
				<g id="Group_9818" transform="translate(1.746 3.53)">
					<path id="Path_20612" fill="#FCF0E3" d="M1.4,9.2c-0.1,0-0.1,0-0.2-0.1c-2.1-2.9-1.5-6.9,1.4-9c0.1-0.1,0.2,0,0.3,0
						c0.1,0.1,0,0.2,0,0.3C2.7,0.5-1.6,3.7,1.6,8.8c0.1,0.1,0,0.2-0.1,0.3c0,0,0,0,0,0C1.5,9.1,1.5,9.2,1.4,9.2z"/>
				</g>
			</g>
			<g id="Group_9821" transform="translate(0.512 14.638)">
				<g id="Group_9820">
					<path id="Path_20613" fill="#FF8881" d="M27.7,10.4l-0.4-0.1L23,1.1C22,1,21,0.6,20.1,0c-1.9,2.1-5.2,2.2-7.3,0.3
						C10.1,2.7,6.1,3,3.1,1l-3,15.9c-0.4,2.1,0,4.3,1.1,6.1c1.1,2.7,3.4,4.7,6.3,5.3v10.5c0,3.7,3,6.6,6.6,6.6h2.1
						c3.7,0,6.6-3,6.6-6.6V27c1.1-1.2,1.9-2.7,2.2-4.3l0.5-2.9l0.4,0.1c2.5,0.5,4.9-1.2,5.4-3.7l0-0.3
						C31.9,13.3,30.2,10.9,27.7,10.4z"/>
				</g>
				<path id="Path_20614" opacity="0.32" fill="#FF887C" enable-background="new    " d="M24.6,19.3l-0.4,2.1
					c-0.9,4.8-5.5,7.9-10.3,7c0,0,0,0,0,0l-6.7-1.3c-2.5-0.5-4.6-2-5.9-4.1c1.1,2.8,3.6,4.9,6.6,5.4l0.3,0.1c1.1,2.3,3.4,3.8,6,3.8
					h2.1c3.1,0,5.7-2.1,6.4-5.1c1.2-1.3,2-2.8,2.3-4.6l0.5-2.9L24.6,19.3z"/>
			</g>
		</g>
	</g>
	<g id="Group_9848" transform="translate(45.041 48.492)">
		<g id="Group_9833" transform="translate(3.357)">
			<g id="Group_9832">
				<g id="Group_9830" transform="translate(58.298)">
					<path id="Path_20625" fill="#FF897F" d="M36.6,49.8L19.2,17.6l-2-4.8c0,0-7.2-16.8-13.1-11.8c0,0,0,0,0,0.1
						C4,0.8,3.7,0.6,3.5,0.5c-0.4-0.2-0.9-0.2-1.3,0l0,0C1.4,1,1.1,2,1.6,2.9l5,10.7c-0.4-0.5-0.9-0.9-1.4-1.2
						c-0.5-0.5-1.1-0.9-1.8-1.2c-1.1-0.6-2.4-0.3-3.2,0.7C0,12.1,0,12.3,0,12.5c0.1,0.2,0.2,0.4,0.3,0.5c1.4,1.3,3,2.5,4.3,3.8
						C5,18.7,6,20.5,7.6,21.6c1,0.7,1.9,1.7,2.5,2.8l0,0l6.3,21.9l-9.4,0.1V64l20.6,0c1.7,0,3.3-0.4,4.7-1.3l0.2-0.1l0,0
						c4.7-2.3,6.6-7.9,4.3-12.5C36.7,50,36.6,49.9,36.6,49.8z"/>
					<path id="Path_20626" opacity="0.17" fill="#FF887C" enable-background="new    " d="M21.9,64L21.9,64c0,0-4.7-12.7-5.5-17.7
						c-3.1,0-3.6,0.1-6.7,0.1L21.9,64z"/>
					<path id="Path_20627" fill="#FA706B" d="M11.4,14.7c-0.1,0-0.1,0-0.2-0.1c-1-1.5-3-2.1-4.6-1.2c-0.1,0-0.2,0-0.3-0.1
						c0-0.1,0-0.2,0.1-0.3c1.8-0.9,4-0.4,5.1,1.3c0.1,0.1,0.1,0.2,0,0.3C11.5,14.6,11.4,14.7,11.4,14.7L11.4,14.7z"/>
					<path id="Path_20628" fill="#FA706B" d="M4.2,0.8c1,1.1,2,2.2,2.7,3.5c0.4,0.6,0.7,1.3,1,2c0.3,0.7,0.4,1.4,0.5,2.2
						c0,0.1-0.1,0.2-0.2,0.2S8,8.7,8,8.6l0,0v0c0-0.7-0.2-1.4-0.4-2.1C7.3,5.8,7,5.1,6.6,4.5C5.9,3.3,5,2.1,4,1l0,0C4,1,4,0.9,4,0.8
						C4.1,0.8,4.2,0.8,4.2,0.8z"/>
					<path id="Path_20629" fill="#FA706B" d="M5.7,0c0.7,0.4,1.2,0.9,1.7,1.5c0.5,0.6,0.9,1.2,1.2,1.9c0.4,0.7,0.7,1.3,1,2l0.4,1
						l0.4,1.1c0,0.1,0,0.2-0.1,0.3c-0.1,0-0.2,0-0.3-0.1c0,0,0,0,0,0l0,0v0l-0.3-1l-0.4-1C9,4.8,8.7,4.2,8.3,3.5
						C8,2.9,7.6,2.3,7.2,1.7c-0.4-0.6-1-1.1-1.6-1.4l0,0c-0.1,0-0.1-0.1-0.1-0.2c0,0,0,0,0,0C5.6,0,5.6,0,5.7,0z"/>
					<path id="Path_20630" fill="#FA706B" d="M8.1,0.4C8.5,0.8,9,1.2,9.4,1.7c0.4,0.5,0.8,1,1.1,1.5c0.3,0.5,0.6,1.1,0.9,1.6
						c0.3,0.6,0.5,1.1,0.6,1.7c0,0.1,0,0.2-0.1,0.3c-0.1,0-0.2,0-0.3-0.1l0,0l0,0v0c-0.1-0.6-0.3-1.1-0.6-1.7
						c-0.2-0.6-0.5-1.1-0.8-1.6c-0.3-0.5-0.7-1-1-1.5C8.8,1.4,8.4,1,7.9,0.6l0,0c-0.1,0-0.1-0.1,0-0.2c0,0,0,0,0,0
						C7.9,0.4,8,0.3,8.1,0.4C8.1,0.4,8.1,0.4,8.1,0.4z"/>
					<path id="Path_20631" opacity="0.18" fill="#FF887C" enable-background="new    " d="M9.3,23.2l6.7-0.8l-4.1,8.3
						C11.9,30.6,10.6,24.5,9.3,23.2z"/>
				</g>
				<g id="Group_9831" transform="translate(0 46.362)">
					<path id="Path_20632" fill="#E6C125" d="M40.6,0.1L40.6,0.1c-0.1,0-0.2,0-0.3,0H19.1c-4.5,0-8.5,2.8-10.1,7l0,0l0,0.1
						c0,0,0,0,0,0L0,31.8l8.4,1v27.3h45.5l3.4-42.5h7.9V0L40.6,0.1z"/>
					<path id="Path_20633" opacity="5.000000e-02" fill="#1B1B25" enable-background="new    " d="M65.5,0L41.3,0.1l0,0
						c9.1,0.4,16.3,7.9,16.3,17l0,0.5h7.9L65.5,0L65.5,0z"/>
					<path id="Path_20634" fill="none" stroke="#FB8E77" stroke-linecap="round" stroke-miterlimit="10" d="M57.9,30.6"/>
				</g>
			</g>
		</g>
		<g id="Group_9836" transform="translate(0 63.387)">
			<path id="Path_20635" fill="#1B1B25" d="M60.4,1.7L51.8,0c-1-0.2-2,0.5-2.2,1.5l-1.7,8.6l-2.2,11.2c-0.2,1,0.5,2,1.5,2.2l3.5,0.7
				l5.1,1c1,0.2,2-0.5,2.2-1.5l0.8-4.2l1.4-6.9l1.7-8.7C62.1,2.9,61.4,1.9,60.4,1.7z"/>
			<g id="Group_9835" transform="translate(0 3.63)">
				<path id="Path_20636" fill="#FF897F" d="M61.3,9.6c-0.1-0.2-0.3-0.4-0.5-0.5c0-0.1-0.1-0.1-0.1-0.2c0,0-0.1,0-0.2,0
					c-0.2,0-0.3-0.1-0.5-0.1c-1.7,0.1-5.9,0.5-8.4,0.7c-1.4,0.1-2.7-0.2-4-0.8l-0.2-0.1l0.4-2.1c-0.5,0.6-0.9,1.1-1.4,1.6
					c-1.1,0.1-2.1,0.5-3,1.1c-0.5,0.4-1,0.9-1.4,1.4c-0.4,0.6-0.9,1.2-1.6,1.7c-0.2,0.2-0.5,0.3-0.7,0.4l0,0l-19.1,4.7l-0.1,0l1-4.3
					L4.1,11.1L0.2,27.9c-1.2,5.1,2,10.2,7.1,11.4l0,0c1.8,0.4,3.6,0.2,5.2-0.5c0.3-0.1,0.6-0.2,0.9-0.4l32.3-15.9l4.4-1.6
					c0,0,0.2-0.1,0.5-0.2l-0.1,0C52.6,19.8,63.8,14.9,61.3,9.6z"/>
				<path id="Path_20642" opacity="0.35" fill="#1B1B25" enable-background="new    " d="M23.2,13.5L23.2,13.5L19.3,13
					c-0.1,0-0.2-0.1-0.2-0.2c0,0,0,0,0,0c0-0.1,0.1-0.2,0.2-0.2c0,0,0,0,0,0l3.6,0.4l2-12.9C25,0.1,25.1,0,25.2,0
					c0.1,0,0.2,0.1,0.2,0.2c0,0,0,0,0,0l-2,13.1C23.4,13.4,23.3,13.5,23.2,13.5z"/>
			</g>
			<path id="Path_20643" opacity="8.000000e-02" fill="#FF887C" enable-background="new    " d="M27.6,19.4l8.6-0.2
				c1.6,0.2,4.2-1.2,3.9-2.8l0,0L27.6,19.4z"/>
		</g>
		<g id="Group_9847" transform="translate(13.027 1.451)">
			<g id="Group_9837">
				<path id="Path_20644" fill="#1B1B25" d="M41.9,39.5l-2.9-20c-0.3-2.1-0.9-4.2-1.9-6.2l1.6-0.3c0,0-1.1-16.3-19.3-12.4
					c-1.8-0.2-3.7-0.2-5.5,0.1l0,0C5,2-1.1,10.3,0.2,19.1l1.7,11.7c1.3,8.9,9.5,15,18.4,13.7c0,0,0,0,0,0l20.1-3
					C41.3,41.4,42,40.5,41.9,39.5z"/>
			</g>
			<g id="Group_9839" transform="translate(7.491 10.318)">
				<g id="Group_9838">
					<path id="Path_20646" fill="#FF8A7D" d="M28,3.2l-16,2.6L8,0c0.4,4-1.1,7.9-4,10.6c0,0,0-0.1-0.1-0.2l-0.1,0
						c-2.5,0.5-4.2,2.9-3.7,5.4l0,0C0.6,18.4,3,20,5.5,19.6l0.3-0.1c0.5,2.3,1.7,4.4,3.5,6.1v10.3c0,3.7,3,6.6,6.6,6.6l0,0
						c3.7,0,6.6-3,6.6-6.6v-8.1c2.6-1.2,4.7-3.3,5.9-5.9c0,0,0,0,0,0c1.5-2.5,2-5.4,1.5-8.3L28,3.2z"/>
				</g>
			</g>
		</g>
	</g>
	<path id="Path_20539" fill="#00463D" d="M294.4,154.6H12.7c-0.4,0-0.7-0.3-0.7-0.7l0,0c0-0.4,0.3-0.7,0.7-0.7h281.7
		c0.4,0,0.7,0.3,0.7,0.7l0,0C295.1,154.2,294.8,154.6,294.4,154.6C294.4,154.6,294.4,154.6,294.4,154.6z"/>
</g>
</svg>
