<svg version="1.1" id="Layer_1" xmlns="http://www.w3.org/2000/svg" xmlns:xlink="http://www.w3.org/1999/xlink" x="0px" y="0px"
	 viewBox="0 0 280 243.6" enable-background="new 0 0 280 243.6" xml:space="preserve">
<g transform="translate(20209 15293.292)">
	<path fill="#D6D8D8" d="M-20013.7-15277c0,1.6,1.3,2.9,2.9,2.9h61.8c1.6,0,2.9-1.3,2.9-2.9c0-0.8-0.3-1.5-0.8-2
		c-0.5-0.5-1.3-0.9-2-0.9h-2.9c-1.6-3.8-6.1-5.6-9.9-3.9c-0.9,0.4-1.7,0.9-2.4,1.6c-2.4-4.2-7.4-6.1-12.1-4.7
		c-3.1-5.8-10.3-8.1-16.2-5c-2.9,1.5-5,4.2-5.9,7.4c-3.7-1.9-8.2-0.4-10.1,3.4c-0.2,0.4-0.4,0.8-0.5,1.3h-1.9
		C-20012.4-15279.9-20013.7-15278.6-20013.7-15277z"/>
	<path fill="#D6D8D8" d="M-20181.6-15269.4c0,1.1,0.9,2,2,2h43.4c1.1,0,2-0.9,2-2c0-0.5-0.2-1.1-0.6-1.4c-0.4-0.4-0.9-0.6-1.4-0.6
		h-2.1c-1.2-2.7-4.3-3.9-7-2.8c-0.6,0.3-1.2,0.7-1.7,1.1c-1.7-2.9-5.2-4.3-8.5-3.3c-2.2-4.1-7.3-5.7-11.4-3.5c-2,1.1-3.6,3-4.2,5.2
		c-2.6-1.3-5.8-0.2-7.1,2.4c-0.1,0.3-0.3,0.6-0.3,0.9h-1.3C-20180.7-15271.4-20181.6-15270.5-20181.6-15269.4z"/>
	<path fill="#D6D8D8" d="M-19929-15237.7c-3.8-2.6-9.1-1.6-11.7,2.2c-0.5,0.8-0.9,1.6-1.1,2.5c-2.6-1.3-5.8-0.3-7.1,2.4
		c-0.1,0.3-0.3,0.6-0.3,0.9h-1.3c-1.1,0-2,0.9-2,2c0,0.5,0.2,1.1,0.6,1.4c0.4,0.4,0.9,0.6,1.4,0.6h21.6V-15237.7z"/>
	<path fill="#D6D8D8" d="M-20183.2-15181.4c-0.4-0.4-0.9-0.6-1.4-0.6h-2.1c-1.2-2.7-4.3-3.9-7-2.8c-0.6,0.3-1.2,0.6-1.7,1.1
		c-1.7-2.9-5.2-4.3-8.5-3.3c-1.1-2-3-3.6-5.2-4.2v13.2h24.4c1.1,0,2-0.9,2-2C-20182.6-15180.5-20182.8-15181-20183.2-15181.4
		L-20183.2-15181.4z"/>
	<path fill="#D6D8D8" d="M-20195.8-15233.9c0,0.7,0.5,1.2,1.2,1.2h26.1c0.7,0,1.2-0.5,1.2-1.2c0-0.7-0.5-1.2-1.2-1.2h-1.2
		c-0.7-1.6-2.6-2.4-4.2-1.7c-0.4,0.2-0.7,0.4-1,0.7c-1-1.8-3.1-2.6-5.1-2c-1.3-2.5-4.4-3.4-6.8-2.1c-1.2,0.7-2.1,1.8-2.5,3.1
		c-1.6-0.8-3.5-0.2-4.3,1.4c-0.1,0.2-0.2,0.3-0.2,0.5h-0.8C-20195.3-15235.1-20195.8-15234.5-20195.8-15233.9z"/>
	<path fill="#D6D8D8" d="M-20087.1-15279.5c0,0.7,0.5,1.2,1.2,1.2h26.1c0.7,0,1.2-0.5,1.2-1.2c0-0.7-0.5-1.2-1.2-1.2h-1.2
		c-0.7-1.6-2.6-2.4-4.2-1.7c-0.4,0.2-0.7,0.4-1,0.7c-1-1.8-3.1-2.6-5.1-2c-1.3-2.5-4.4-3.4-6.8-2.1c-1.2,0.7-2.1,1.8-2.5,3.1
		c-1.6-0.8-3.5-0.1-4.3,1.4c-0.1,0.2-0.2,0.3-0.2,0.5h-0.8C-20086.6-15280.7-20087.1-15280.2-20087.1-15279.5z"/>
	<path fill="#D6D8D8" d="M-19929-15166.4c-0.9-0.4-2-0.4-3-0.1c-1.3-2.5-4.4-3.4-6.8-2.1c-1.2,0.7-2.1,1.8-2.5,3.1
		c-1.6-0.8-3.5-0.1-4.3,1.4c-0.1,0.2-0.2,0.3-0.2,0.5h-0.8c-0.7,0-1.2,0.5-1.2,1.2c0,0.7,0.5,1.2,1.2,1.2h17.6V-15166.4z"/>
	<circle fill="#D6D8D8" cx="-20069.1" cy="-15172.4" r="88.5"/>
	<path fill="#D6D8D8" d="M-20071.3-15076.4c0-1,0.8-1.8,1.8-1.8l0,0c1,0,1.8,0.8,1.8,1.8c0,0,0,0,0,0l0,0c0,1-0.8,1.8-1.8,1.8
		c0,0,0,0,0,0h0C-20070.6-15074.6-20071.3-15075.4-20071.3-15076.4z M-20077.5-15075c-1-0.1-1.7-0.9-1.6-1.9c0,0,0,0,0,0l0,0
		c0.1-1,0.9-1.7,1.9-1.6c0,0,0,0,0,0l0,0c1,0.1,1.7,0.9,1.6,1.9c0,0,0,0,0,0l0,0c-0.1,0.9-0.9,1.6-1.8,1.6l0,0
		C-20077.4-15075-20077.5-15075-20077.5-15075L-20077.5-15075z M-20063.5-15076.5c-0.1-1,0.7-1.8,1.6-1.9c0,0,0,0,0,0l0,0
		c1-0.1,1.8,0.7,1.9,1.6l0,0c0.1,1-0.7,1.8-1.6,1.9l0,0c-0.1,0-0.1,0-0.2,0l0,0C-20062.7-15074.9-20063.4-15075.6-20063.5-15076.5
		L-20063.5-15076.5z M-20085.4-15076L-20085.4-15076c-1-0.2-1.6-1.1-1.5-2l0,0c0.2-1,1.1-1.6,2.1-1.5l0,0c1,0.2,1.6,1.1,1.5,2
		c0,0,0,0,0,0l0,0c-0.1,0.9-0.9,1.5-1.8,1.5l0,0C-20085.2-15075.9-20085.3-15075.9-20085.4-15076L-20085.4-15076z M-20055.7-15077.3
		c-0.2-1,0.5-1.9,1.5-2l0,0c1-0.2,1.9,0.5,2,1.5l0,0c0.2,1-0.5,1.9-1.5,2l0,0v0l0,0c-0.1,0-0.2,0-0.3,0l0,0
		C-20054.9-15075.8-20055.6-15076.4-20055.7-15077.3L-20055.7-15077.3z M-20093.2-15077.6c-0.9-0.2-1.5-1.2-1.3-2.2c0,0,0,0,0,0l0,0
		c0.2-0.9,1.2-1.5,2.2-1.3c0,0,0,0,0,0l0,0c0.9,0.2,1.5,1.2,1.3,2.2c0,0,0,0,0,0l0,0c-0.2,0.8-0.9,1.4-1.8,1.3l0,0
		C-20092.9-15077.6-20093.1-15077.6-20093.2-15077.6L-20093.2-15077.6z M-20048-15078.7c-0.2-1,0.3-1.9,1.3-2.2h0
		c0.9-0.2,1.9,0.3,2.1,1.3c0,0,0,0,0,0l0,0c0.2,1-0.3,1.9-1.3,2.1c0,0,0,0,0,0l0,0c-0.2,0-0.3,0.1-0.5,0l0,0
		C-20047.1-15077.3-20047.8-15077.9-20048-15078.7L-20048-15078.7z M-20100.8-15079.9L-20100.8-15079.9c-0.9-0.3-1.4-1.3-1.1-2.3
		l0,0c0.3-0.9,1.3-1.4,2.3-1.1c0,0,0,0,0,0l0,0c0.9,0.3,1.4,1.3,1.1,2.3l0,0c-0.3,0.7-0.9,1.2-1.7,1.2l0,0
		C-20100.5-15079.8-20100.7-15079.8-20100.8-15079.9L-20100.8-15079.9z M-20040.5-15080.7c-0.3-0.9,0.2-1.9,1.1-2.3c0,0,0,0,0,0l0,0
		c0.9-0.3,1.9,0.2,2.3,1.1l0,0c0.3,0.9-0.2,1.9-1.1,2.2l0,0c-0.2,0.1-0.4,0.1-0.6,0.1l0,0
		C-20039.6-15079.5-20040.2-15080-20040.5-15080.7L-20040.5-15080.7z M-20108.2-15082.8c-0.9-0.4-1.3-1.4-0.9-2.3c0,0,0,0,0,0l0,0
		c0.4-0.9,1.4-1.3,2.3-0.9l0,0c0.9,0.4,1.3,1.4,0.9,2.3c0,0,0,0,0,0l0,0c-0.3,0.7-0.9,1.1-1.7,1.1l0,0
		C-20107.8-15082.7-20108-15082.7-20108.2-15082.8L-20108.2-15082.8z M-20033.1-15083.3c-0.4-0.9,0-1.9,0.9-2.3c0,0,0,0,0,0l0,0
		c0.9-0.4,1.9,0,2.3,0.9l0,0c0.4,0.9,0,1.9-0.9,2.3l0,0c-0.2,0.1-0.5,0.1-0.7,0.1l0,0
		C-20032.2-15082.3-20032.8-15082.7-20033.1-15083.3L-20033.1-15083.3z M-20115.4-15086.3c-0.9-0.5-1.2-1.5-0.7-2.4c0,0,0,0,0,0l0,0
		c0.5-0.9,1.5-1.2,2.4-0.7c0,0,0,0,0,0l0,0c0.9,0.5,1.2,1.5,0.7,2.4c0,0,0,0,0,0l0,0c-0.3,0.6-0.9,0.9-1.6,0.9l0,0
		C-20114.9-15086.1-20115.2-15086.2-20115.4-15086.3L-20115.4-15086.3z M-20026-15086.6c-0.5-0.9-0.1-1.9,0.7-2.4l0,0
		c0.9-0.5,1.9-0.1,2.4,0.7l0,0c0.5,0.9,0.1,1.9-0.7,2.4l0,0c-0.3,0.1-0.6,0.2-0.9,0.2l0,0
		C-20025.1-15085.7-20025.7-15086-20026-15086.6L-20026-15086.6z M-20122.3-15090.4L-20122.3-15090.4c-0.8-0.5-1.1-1.6-0.5-2.5l0,0
		c0.5-0.8,1.6-1.1,2.5-0.5l0,0c0.8,0.5,1,1.6,0.5,2.5l0,0c-0.3,0.5-0.9,0.8-1.5,0.8l0,0
		C-20121.7-15090.1-20122-15090.2-20122.3-15090.4z M-20019.2-15090.4c-0.5-0.8-0.3-1.9,0.5-2.5l0,0c0.8-0.5,1.9-0.3,2.5,0.5
		c0,0,0,0,0,0l0,0c0.5,0.8,0.3,1.9-0.5,2.4c0,0,0,0,0,0l0,0c-0.3,0.2-0.6,0.3-1,0.3l0,0
		C-20018.3-15089.6-20018.9-15089.9-20019.2-15090.4z M-20128.7-15095c-0.8-0.6-0.9-1.7-0.3-2.5c0,0,0,0,0,0l0,0
		c0.6-0.8,1.7-0.9,2.5-0.3c0,0,0,0,0,0l0,0c0.8,0.6,0.9,1.7,0.3,2.5c0,0,0,0,0,0l0,0c-0.3,0.4-0.9,0.7-1.4,0.7l0,0
		C-20128.1-15094.7-20128.4-15094.8-20128.7-15095L-20128.7-15095z M-20012.7-15094.8c-0.6-0.8-0.4-1.9,0.3-2.5c0,0,0,0,0,0l0,0
		c0.8-0.6,1.9-0.4,2.5,0.3c0,0,0,0,0,0l0,0c0.6,0.8,0.4,1.9-0.3,2.5l0,0c-0.3,0.2-0.7,0.4-1.1,0.4l0,0
		C-20011.8-15094.1-20012.4-15094.3-20012.7-15094.8L-20012.7-15094.8z M-20134.8-15100.2c-0.7-0.7-0.8-1.8-0.1-2.5l0,0
		c0.7-0.7,1.8-0.8,2.5-0.1c0,0,0,0,0,0l0,0c0.7,0.7,0.8,1.8,0.1,2.5c0,0,0,0,0,0l0,0c-0.3,0.4-0.8,0.6-1.3,0.6l0,0
		C-20134.1-15099.7-20134.5-15099.9-20134.8-15100.2L-20134.8-15100.2z M-20006.6-15099.6c-0.7-0.7-0.6-1.9,0.1-2.5c0,0,0,0,0,0l0,0
		c0.7-0.7,1.9-0.6,2.5,0.1l0,0c0.7,0.7,0.6,1.9-0.1,2.5c0,0,0,0,0,0l0,0c-0.3,0.3-0.8,0.5-1.2,0.5l0,0
		C-20005.8-15099.1-20006.2-15099.3-20006.6-15099.6L-20006.6-15099.6z M-20140.5-15105.8c-0.7-0.7-0.6-1.8,0.1-2.5c0,0,0,0,0,0l0,0
		c0.7-0.7,1.8-0.6,2.5,0.1l0,0c0.7,0.7,0.6,1.8-0.1,2.5l0,0c-0.3,0.3-0.8,0.5-1.2,0.5l0,0
		C-20139.7-15105.2-20140.1-15105.4-20140.5-15105.8L-20140.5-15105.8z M-20000.9-15105c-0.7-0.7-0.7-1.8-0.1-2.5l0,0
		c0.7-0.7,1.8-0.7,2.5-0.1l0,0c0.7,0.7,0.7,1.8,0.1,2.5l0,0c-0.3,0.4-0.8,0.6-1.3,0.5l0,0
		C-20000.1-15104.5-20000.5-15104.7-20000.9-15105L-20000.9-15105z M-20145.6-15111.8c-0.6-0.8-0.5-1.9,0.3-2.5l0,0
		c0.8-0.6,1.9-0.5,2.5,0.3c0,0,0,0,0,0l0,0c0.6,0.8,0.5,1.9-0.3,2.5l0,0c-0.3,0.3-0.7,0.4-1.1,0.4l0,0
		C-20144.8-15111.2-20145.3-15111.4-20145.6-15111.8z M-19995.6-15110.8c-0.8-0.6-0.9-1.7-0.3-2.5v0c0.6-0.8,1.7-0.9,2.5-0.3
		c0,0,0,0,0,0l0,0c0.8,0.6,0.9,1.7,0.3,2.5c0,0,0,0,0,0l0,0c-0.3,0.4-0.9,0.7-1.4,0.7l0,0
		C-19994.9-15110.4-19995.3-15110.5-19995.6-15110.8L-19995.6-15110.8z M-20150.3-15118.3L-20150.3-15118.3L-20150.3-15118.3
		c-0.5-0.8-0.3-1.9,0.5-2.5l0,0c0.8-0.5,1.9-0.3,2.5,0.5l0,0c0.5,0.8,0.3,1.9-0.5,2.5c0,0,0,0,0,0l0,0c-0.3,0.2-0.7,0.3-1,0.3l0,0
		C-20149.4-15117.5-20150-15117.8-20150.3-15118.3z M-19990.9-15117c-0.8-0.6-1-1.7-0.5-2.5l0,0c0.6-0.8,1.7-1,2.5-0.5l0,0
		c0.8,0.5,1,1.6,0.5,2.5c0,0,0,0,0,0l0,0c-0.3,0.5-0.9,0.8-1.5,0.8l0,0C-19990.2-15116.7-19990.6-15116.8-19990.9-15117
		L-19990.9-15117z M-20154.4-15125.1c-0.5-0.9-0.2-1.9,0.7-2.4c0,0,0,0,0,0l0,0c0.9-0.5,1.9-0.2,2.4,0.7c0,0,0,0,0,0l0,0
		c0.5,0.9,0.2,1.9-0.7,2.4c0,0,0,0,0,0l0,0c-0.3,0.2-0.6,0.2-0.9,0.2l0,0C-20153.5-15124.2-20154.1-15124.6-20154.4-15125.1z
		 M-19986.6-15123.6c-0.9-0.5-1.2-1.6-0.7-2.4l0,0c0.5-0.9,1.6-1.2,2.4-0.7c0,0,0,0,0,0l0,0c0.9,0.5,1.2,1.6,0.7,2.4c0,0,0,0,0,0h0
		c-0.3,0.6-0.9,0.9-1.6,0.9l0,0C-19986.1-15123.4-19986.4-15123.4-19986.6-15123.6L-19986.6-15123.6z M-20158-15132.2
		c-0.4-0.9,0-1.9,0.9-2.3c0,0,0,0,0,0l0,0c0.9-0.4,1.9,0,2.3,0.9c0,0,0,0,0,0l0,0c0.4,0.9,0,1.9-0.9,2.3c0,0,0,0,0,0l0,0
		c-0.2,0.1-0.5,0.2-0.8,0.2l0,0C-20157.1-15131.2-20157.7-15131.6-20158-15132.2z M-19982.9-15130.5c-0.9-0.4-1.3-1.5-0.9-2.3
		c0,0,0,0,0,0l0,0c0.4-0.9,1.5-1.3,2.4-0.9c0,0,0,0,0,0l0,0c0.9,0.4,1.3,1.5,0.9,2.4c0,0,0,0,0,0l0,0c-0.3,0.6-0.9,1-1.7,1l0,0
		C-19982.5-15130.3-19982.7-15130.4-19982.9-15130.5L-19982.9-15130.5z M-20160.9-15139.6c-0.3-0.9,0.2-1.9,1.1-2.3c0,0,0,0,0,0l0,0
		c0.9-0.3,1.9,0.2,2.3,1.1c0,0,0,0,0,0l0,0c0.3,0.9-0.2,1.9-1.1,2.3l0,0c-0.2,0.1-0.4,0.1-0.6,0.1l0,0
		C-20160-15138.5-20160.7-15138.9-20160.9-15139.6z M-19979.8-15137.7c-0.9-0.3-1.4-1.4-1.1-2.3l0,0c0.3-0.9,1.4-1.4,2.3-1.1l0,0
		c0.9,0.3,1.4,1.4,1.1,2.3l0,0c-0.3,0.7-0.9,1.2-1.7,1.2l0,0C-19979.4-15137.6-19979.6-15137.6-19979.8-15137.7L-19979.8-15137.7z
		 M-20163.2-15147.3c-0.2-0.9,0.3-1.9,1.3-2.2c0,0,0,0,0,0l0,0c0.9-0.3,1.9,0.3,2.2,1.3c0,0,0,0,0,0l0,0c0.2,1-0.3,1.9-1.3,2.2l0,0
		c-0.2,0-0.3,0.1-0.5,0.1l0,0C-20162.4-15145.9-20163-15146.5-20163.2-15147.3L-20163.2-15147.3z M-19977.3-15145.1
		c-0.9-0.3-1.5-1.2-1.2-2.2c0,0,0,0,0,0l0,0c0.3-0.9,1.2-1.5,2.2-1.3c0,0,0,0,0,0l0,0c0.9,0.3,1.5,1.2,1.2,2.2l0,0
		c-0.2,0.8-0.9,1.3-1.8,1.3l0,0C-19977-15145-19977.2-15145-19977.3-15145.1L-19977.3-15145.1z M-20164.9-15155L-20164.9-15155
		c-0.2-1,0.5-1.9,1.4-2.1c0,0,0,0,0,0l0,0c1-0.2,1.9,0.5,2.1,1.4c0,0,0,0,0,0l0,0c0.2,1-0.5,1.9-1.4,2.1c0,0,0,0,0,0l0,0
		c-0.1,0-0.2,0-0.3,0l0,0C-20164.1-15153.6-20164.8-15154.2-20164.9-15155z M-19975.4-15152.7c-1-0.2-1.6-1.1-1.4-2.1c0,0,0,0,0,0
		l0,0c0.2-1,1.1-1.6,2.1-1.4c0,0,0,0,0,0l0,0c1,0.2,1.6,1.1,1.4,2.1l0,0c-0.2,0.9-0.9,1.5-1.8,1.5l0,0
		C-19975.2-15152.6-19975.3-15152.6-19975.4-15152.7L-19975.4-15152.7z M-20166-15162.9L-20166-15162.9c-0.1-1,0.6-1.8,1.6-1.9l0,0
		c1-0.1,1.8,0.6,1.9,1.6c0,0,0,0,0,0l0,0c0.1,1-0.6,1.8-1.6,1.9l0,0c-0.1,0-0.1,0-0.2,0l0,0
		C-20165.2-15161.3-20165.9-15162-20166-15162.9z M-19974.2-15160.4c-1-0.1-1.7-1-1.6-2l0,0c0.1-1,1-1.7,2-1.6l0,0
		c1,0.1,1.7,1,1.6,2l0,0c-0.1,0.9-0.9,1.6-1.8,1.6l0,0C-19974.1-15160.4-19974.1-15160.4-19974.2-15160.4L-19974.2-15160.4z
		 M-20166.4-15170.9c0-1,0.8-1.8,1.8-1.8c0,0,0,0,0,0l0,0c1,0,1.8,0.8,1.8,1.8l0,0c0,1-0.8,1.8-1.8,1.8h-0.1
		C-20165.6-15169.1-20166.4-15169.9-20166.4-15170.9L-20166.4-15170.9z M-19975.3-15170c0-1,0.8-1.8,1.8-1.7l0,0
		c1,0,1.8,0.8,1.7,1.8l0,0c0,1-0.8,1.8-1.8,1.7l0,0C-19974.6-15168.2-19975.3-15169-19975.3-15170L-19975.3-15170z M-20164.5-15177
		c-1-0.1-1.7-0.9-1.7-1.9h0c0.1-1,0.9-1.7,1.9-1.6c0,0,0,0,0,0l0,0c1,0.1,1.7,0.9,1.6,1.9l0,0
		C-20162.7-15177.7-20163.5-15176.9-20164.5-15177L-20164.5-15177L-20164.5-15177z M-19975.4-15175.8L-19975.4-15175.8
		c0-1,0.7-1.8,1.7-1.8l0,0c1,0,1.8,0.7,1.8,1.7l0,0c0,1-0.7,1.8-1.7,1.9l0,0c0,0-0.1,0-0.1,0l0,0
		C-19974.6-15174.2-19975.3-15174.9-19975.4-15175.8L-19975.4-15175.8z M-20163.8-15184.7c-1-0.1-1.6-1.1-1.5-2c0,0,0,0,0,0l0,0
		c0.1-1,1-1.6,2-1.5c0,0,0,0,0,0l0,0c1,0.1,1.6,1.1,1.5,2c0,0,0,0,0,0l0,0c-0.1,0.9-0.9,1.5-1.8,1.5l0,0
		C-20163.6-15184.7-20163.7-15184.7-20163.8-15184.7z M-19976-15183.5c-0.1-1,0.6-1.9,1.5-2c0,0,0,0,0,0l0,0c1-0.1,1.9,0.6,2,1.5
		c0,0,0,0,0,0l0,0c0.1,1-0.6,1.9-1.5,2l0,0c-0.1,0-0.2,0-0.3,0l0,0C-19975.2-15181.9-19975.9-15182.6-19976-15183.5L-19976-15183.5z
		 M-20162.4-15192.4c-1-0.2-1.5-1.2-1.3-2.1l0,0c0.2-1,1.2-1.5,2.1-1.3l0,0c1,0.2,1.5,1.2,1.3,2.1l0,0c-0.2,0.8-0.9,1.4-1.8,1.4l0,0
		C-20162.2-15192.4-20162.3-15192.4-20162.4-15192.4L-20162.4-15192.4z M-19977.2-15191.1c-0.2-1,0.4-1.9,1.4-2.1l0,0
		c1-0.2,1.9,0.4,2.1,1.4c0,0,0,0,0,0l0,0c0.2,1-0.4,1.9-1.4,2.1l0,0c-0.1,0-0.3,0-0.4,0l0,0
		C-19976.4-15189.7-19977.1-15190.3-19977.2-15191.1L-19977.2-15191.1z M-20160.4-15200c-0.9-0.3-1.4-1.3-1.1-2.2l0,0
		c0.3-0.9,1.3-1.4,2.2-1.1l0,0c0.9,0.3,1.4,1.3,1.1,2.2c0,0,0,0,0,0l0,0c-0.2,0.7-0.9,1.2-1.7,1.2l0,0
		C-20160.1-15199.9-20160.3-15200-20160.4-15200z M-19979.1-15198.5c-0.3-0.9,0.3-1.9,1.2-2.2c0,0,0,0,0,0l0,0
		c0.9-0.3,1.9,0.3,2.2,1.2l0,0c0.3,0.9-0.3,1.9-1.2,2.2c0,0,0,0,0,0l0,0c-0.2,0.1-0.4,0.1-0.5,0.1l0,0
		C-19978.2-15197.2-19978.9-15197.8-19979.1-15198.5L-19979.1-15198.5z M-20157.8-15207.4c-0.9-0.4-1.3-1.4-0.9-2.3l0,0
		c0.4-0.9,1.4-1.3,2.3-0.9l0,0c0.9,0.4,1.3,1.4,0.9,2.3l0,0c-0.3,0.7-1,1.1-1.7,1.1l0,0
		C-20157.4-15207.3-20157.6-15207.3-20157.8-15207.4z M-19981.6-15205.8c-0.4-0.9,0.1-1.9,1-2.3c0,0,0,0,0,0l0,0
		c0.9-0.4,1.9,0.1,2.3,1c0,0,0,0,0,0l0,0c0.4,0.9-0.1,1.9-1,2.3l0,0c-0.2,0.1-0.4,0.1-0.7,0.1l0,0
		C-19980.7-15204.6-19981.3-15205.1-19981.6-15205.8L-19981.6-15205.8z M-20154.6-15214.5c-0.9-0.5-1.2-1.5-0.8-2.4c0,0,0,0,0,0l0,0
		c0.4-0.9,1.5-1.2,2.4-0.8c0,0,0,0,0,0l0,0c0.9,0.5,1.2,1.5,0.8,2.4c0,0,0,0,0,0l0,0c-0.3,0.6-0.9,1-1.6,1l0,0
		C-20154.1-15214.3-20154.4-15214.4-20154.6-15214.5z M-19984.6-15212.8L-19984.6-15212.8c-0.4-0.9-0.1-1.9,0.8-2.4l0,0
		c0.9-0.4,1.9-0.1,2.4,0.8c0,0,0,0,0,0l0,0c0.4,0.9,0.1,1.9-0.8,2.4c0,0,0,0,0,0l0,0c-0.2,0.1-0.5,0.2-0.8,0.2l0,0
		C-19983.8-15211.8-19984.4-15212.2-19984.6-15212.8z M-20150.9-15221.4c-0.8-0.5-1.1-1.6-0.6-2.4c0,0,0,0,0,0l0,0
		c0.5-0.8,1.6-1.1,2.5-0.6l0,0c0.8,0.5,1.1,1.6,0.6,2.5l0,0c-0.3,0.5-0.9,0.8-1.5,0.8l0,0
		C-20150.3-15221.1-20150.6-15221.2-20150.9-15221.4z M-19988.3-15219.6c-0.5-0.8-0.2-1.9,0.6-2.4l0,0c0.8-0.5,1.9-0.2,2.4,0.6
		c0,0,0,0,0,0l0,0c0.5,0.8,0.2,1.9-0.6,2.4c0,0,0,0,0,0l0,0c-0.3,0.2-0.6,0.3-0.9,0.2l0,0
		C-19987.4-15218.7-19988-15219-19988.3-15219.6z M-20146.5-15227.9c-0.8-0.6-0.9-1.7-0.4-2.5c0,0,0,0,0,0l0,0
		c0.6-0.8,1.7-0.9,2.5-0.4c0,0,0,0,0,0l0,0c0.8,0.6,0.9,1.7,0.4,2.5l0,0c-0.3,0.5-0.9,0.7-1.5,0.7l0,0
		C-20145.9-15227.6-20146.2-15227.7-20146.5-15227.9L-20146.5-15227.9z M-19992.5-15226c-0.6-0.8-0.4-1.9,0.4-2.5l0,0
		c0.8-0.6,1.9-0.4,2.5,0.4l0,0c0.6,0.8,0.4,1.9-0.4,2.5c0,0,0,0,0,0l0,0c-0.3,0.2-0.7,0.3-1.1,0.3l0,0
		C-19991.6-15225.3-19992.1-15225.5-19992.5-15226L-19992.5-15226z M-20141.7-15234c-0.7-0.7-0.8-1.8-0.1-2.5l0,0
		c0.7-0.7,1.8-0.8,2.5-0.1l0,0c0.7,0.7,0.8,1.8,0.1,2.5l0,0c-0.3,0.4-0.8,0.6-1.4,0.6l0,0
		C-20141-15233.6-20141.4-15233.8-20141.7-15234z M-19997.1-15232.1c-0.6-0.7-0.5-1.9,0.2-2.5c0,0,0,0,0,0l0,0
		c0.7-0.6,1.9-0.5,2.5,0.2c0,0,0,0,0,0l0,0c0.6,0.8,0.5,1.9-0.2,2.5l0,0c-0.3,0.3-0.7,0.4-1.2,0.4l0,0
		C-19996.3-15231.5-19996.8-15231.7-19997.1-15232.1L-19997.1-15232.1z M-20136.4-15239.8c-0.7-0.7-0.7-1.8,0.1-2.5c0,0,0,0,0,0l0,0
		c0.7-0.7,1.8-0.7,2.5,0c0,0,0,0,0,0l0,0c0.7,0.7,0.7,1.8-0.1,2.5l0,0c-0.3,0.3-0.8,0.5-1.3,0.5l0,0
		C-20135.6-15239.2-20136-15239.4-20136.4-15239.8z M-20002.3-15237.8L-20002.3-15237.8c-0.7-0.7-0.7-1.8,0-2.5c0,0,0,0,0,0l0,0
		c0.7-0.7,1.8-0.7,2.5,0c0,0,0,0,0,0l0,0c0.7,0.7,0.7,1.8,0,2.5c0,0,0,0,0,0l0,0c-0.3,0.3-0.8,0.5-1.3,0.5l0,0
		C-20001.5-15237.2-20002-15237.4-20002.3-15237.8L-20002.3-15237.8z M-20130.6-15245.1c-0.6-0.8-0.5-1.9,0.3-2.5c0,0,0,0,0,0l0,0
		c0.8-0.6,1.9-0.5,2.5,0.3c0,0,0,0,0,0l0,0c0.6,0.8,0.5,1.9-0.3,2.5l0,0c-0.3,0.3-0.7,0.4-1.2,0.4l0,0
		C-20129.8-15244.4-20130.3-15244.6-20130.6-15245.1L-20130.6-15245.1z M-20007.9-15243L-20007.9-15243c-0.7-0.6-0.8-1.8-0.2-2.5
		l0,0c0.6-0.7,1.8-0.8,2.5-0.2l0,0c0.7,0.6,0.8,1.8,0.2,2.5l0,0c-0.3,0.4-0.9,0.6-1.4,0.6l0,0
		C-20007.2-15242.6-20007.6-15242.7-20007.9-15243L-20007.9-15243z M-20124.4-15249.8c-0.6-0.8-0.3-1.9,0.5-2.5c0,0,0,0,0,0l0,0
		c0.8-0.6,1.9-0.4,2.5,0.5c0,0,0,0,0,0l0,0c0.6,0.8,0.3,1.9-0.5,2.5l0,0c-0.3,0.2-0.7,0.3-1,0.3l0,0
		C-20123.6-15249.1-20124.1-15249.4-20124.4-15249.8z M-20013.9-15247.8L-20013.9-15247.8c-0.8-0.6-1-1.7-0.4-2.5l0,0
		c0.6-0.8,1.7-1,2.5-0.4l0,0c0.8,0.6,1,1.7,0.4,2.5l0,0c-0.3,0.5-0.9,0.7-1.5,0.7l0,0
		C-20013.3-15247.4-20013.6-15247.6-20013.9-15247.8L-20013.9-15247.8z M-20117.9-15254.1c-0.5-0.8-0.2-1.9,0.7-2.4c0,0,0,0,0,0l0,0
		c0.8-0.5,1.9-0.2,2.4,0.6c0,0,0,0,0,0l0,0c0.5,0.9,0.2,1.9-0.7,2.4c0,0,0,0,0,0l0,0c-0.3,0.2-0.6,0.2-0.9,0.2l0,0
		C-20117-15253.2-20117.6-15253.6-20117.9-15254.1L-20117.9-15254.1z M-20020.3-15252c-0.8-0.5-1.1-1.6-0.6-2.4c0,0,0,0,0,0l0,0
		c0.5-0.8,1.6-1.1,2.4-0.6c0,0,0,0,0,0l0,0v0l0,0c0.8,0.5,1.1,1.6,0.6,2.4l0,0c-0.3,0.5-0.9,0.9-1.6,0.9l0,0
		C-20019.7-15251.8-20020-15251.9-20020.3-15252L-20020.3-15252z M-20111-15257.8c-0.4-0.9,0-1.9,0.9-2.4l0,0c0.9-0.4,2,0,2.4,0.9
		c0,0,0,0,0,0l0,0c0.4,0.9,0,2-0.9,2.4c0,0,0,0,0,0l0,0c-0.2,0.1-0.5,0.2-0.8,0.2l0,0
		C-20110.1-15256.8-20110.7-15257.2-20111-15257.8z M-20027-15255.8L-20027-15255.8c-0.9-0.4-1.2-1.5-0.8-2.4c0,0,0,0,0,0l0,0
		c0.4-0.9,1.5-1.2,2.4-0.8c0,0,0,0,0,0l0,0c0.9,0.4,1.2,1.5,0.8,2.4c0,0,0,0,0,0l0,0c-0.3,0.6-0.9,1-1.6,1l0,0
		C-20026.5-15255.6-20026.8-15255.6-20027-15255.8L-20027-15255.8z M-20103.8-15261c-0.3-0.9,0.1-1.9,1.1-2.3l0,0
		c0.9-0.3,1.9,0.1,2.3,1.1c0,0,0,0,0,0l0,0c0.3,0.9-0.1,1.9-1,2.3c0,0,0,0,0,0l0,0c-0.2,0.1-0.4,0.1-0.7,0.1l0,0
		C-20102.9-15259.8-20103.6-15260.3-20103.8-15261L-20103.8-15261z M-20034-15258.9c-0.9-0.4-1.3-1.4-1-2.3c0,0,0,0,0,0l0,0
		c0.4-0.9,1.4-1.4,2.3-1c0,0,0,0,0,0l0,0c0.9,0.4,1.3,1.4,1,2.3c0,0,0,0,0,0l0,0c-0.3,0.7-0.9,1.1-1.7,1.1l0,0
		C-20033.6-15258.8-20033.8-15258.8-20034-15258.9L-20034-15258.9z M-20096.4-15263.5c-0.3-0.9,0.3-1.9,1.2-2.2c0,0,0,0,0,0l0,0
		c0.9-0.3,1.9,0.3,2.2,1.2c0,0,0,0,0,0l0,0c0.3,0.9-0.3,1.9-1.2,2.2c0,0,0,0,0,0l0,0c-0.2,0-0.3,0.1-0.5,0.1l0,0
		C-20095.5-15262.2-20096.2-15262.8-20096.4-15263.5L-20096.4-15263.5z M-20041.2-15261.5L-20041.2-15261.5
		c-0.9-0.3-1.5-1.3-1.2-2.2c0,0,0,0,0,0l0,0c0.3-0.9,1.3-1.5,2.2-1.2l0,0c0.9,0.3,1.5,1.3,1.2,2.2l0,0c-0.2,0.8-0.9,1.3-1.7,1.3l0,0
		C-20040.9-15261.4-20041.1-15261.5-20041.2-15261.5L-20041.2-15261.5z M-20088.8-15265.4c-0.2-1,0.4-1.9,1.4-2.1c0,0,0,0,0,0h0
		c1-0.2,1.9,0.4,2.1,1.4c0,0,0,0,0,0l0,0c0.2,1-0.4,1.9-1.4,2.1c0,0,0,0,0,0h0c-0.1,0-0.2,0-0.4,0l0,0
		C-20088-15264-20088.7-15264.6-20088.8-15265.4L-20088.8-15265.4z M-20048.6-15263.5c-1-0.2-1.6-1.1-1.4-2.1c0,0,0,0,0,0l0,0
		c0.2-1,1.2-1.6,2.1-1.4c0,0,0,0,0,0l0,0c1,0.2,1.6,1.2,1.3,2.1l0,0c-0.2,0.8-0.9,1.4-1.8,1.4l0,0
		C-20048.4-15263.4-20048.5-15263.4-20048.6-15263.5L-20048.6-15263.5z M-20081.1-15266.7c-0.1-1,0.6-1.8,1.6-2l0,0
		c1-0.1,1.9,0.6,2,1.6l0,0c0.1,1-0.6,1.8-1.6,2c0,0,0,0,0,0l0,0c-0.1,0-0.2,0-0.2,0l0,0
		C-20080.3-15265.2-20081-15265.9-20081.1-15266.7L-20081.1-15266.7z M-20056.2-15264.8L-20056.2-15264.8c-1-0.1-1.7-1-1.5-2l0,0
		c0.1-1,1-1.7,2-1.5c0,0,0,0,0,0l0,0c1,0.1,1.7,1,1.5,2c0,0,0,0,0,0l0,0c-0.1,0.9-0.9,1.6-1.8,1.5l0,0
		C-20056.1-15264.8-20056.1-15264.8-20056.2-15264.8L-20056.2-15264.8z M-20073.3-15267.4c0-1,0.7-1.8,1.7-1.8c0,0,0,0,0,0l0,0
		c1,0,1.8,0.7,1.8,1.7c0,0,0,0,0,0l0,0c0,1-0.7,1.8-1.7,1.8c0,0,0,0,0,0l0,0h-0.1l0,0
		C-20072.6-15265.7-20073.3-15266.5-20073.3-15267.4z M-20065.5-15267.4c0.1-1,0.9-1.7,1.9-1.7c0,0,0,0,0,0l0,0
		c1,0.1,1.7,0.9,1.7,1.9l0,0c-0.1,1-0.9,1.7-1.9,1.7c0,0,0,0,0,0l0,0C-20064.8-15265.6-20065.6-15266.4-20065.5-15267.4
		C-20065.5-15267.4-20065.5-15267.4-20065.5-15267.4L-20065.5-15267.4z"/>
	<path fill="#18C5D2" d="M-19999.2-15098.6C-19999.2-15098.6-19999.2-15098.6-19999.2-15098.6c0.2,0.5,0.7,0.6,1.1,0.4c0,0,0,0,0,0
		c14.3-7.7,25.9-15.2,34.4-22.1c9.9-8.1,15.7-15.5,17.1-22c0.1-0.4-0.2-0.9-0.6-1s-0.9,0.2-1,0.6c-2.5,11.6-20,26.5-50.7,43
		C-19999.2-15099.5-19999.4-15099-19999.2-15098.6z"/>
	<path fill="#189AA7" d="M-19955.5-15128.3c0,0,3.7,5.6,13.3-1.2C-19942.2-15129.5-19950.2-15136.5-19955.5-15128.3z"/>
	<path fill="#189AA7" d="M-19960.3-15124.5c0,0,5.8-3.3-0.5-13.3C-19960.7-15137.8-19968.2-15130.2-19960.3-15124.5z"/>
	<path fill="#189AA7" d="M-19949.2-15137.8c0,0,6.6-1.2,4-12.7C-19945.2-15150.5-19954.7-15145.8-19949.2-15137.8z"/>
	<path fill="#189AA7" d="M-19969.6-15116.6c0,0,1.5,6.5,12.9,3.4C-19956.7-15113.2-19961.9-15122.5-19969.6-15116.6z"/>
	<path fill="#189AA7" d="M-19975.1-15113.5c0,0,6.3-2.3,1.8-13.2C-19973.3-15126.7-19981.9-15120.4-19975.1-15113.5z"/>
	<path fill="#189AA7" d="M-19982.2-15108.5c0,0,1.4,6.6,12.9,3.6C-19969.3-15104.9-19974.3-15114.3-19982.2-15108.5z"/>
	<path fill="#18C5D2" d="M-20090.1-15174.3L-20090.1-15174.3c-0.4,0.3-0.9,0.2-1.2-0.2c0,0,0,0,0,0c-9.3-13.3-16.3-25.2-20.8-35.2
		c-5.2-11.7-7-20.9-5.3-27.4c0.1-0.4,0.5-0.7,1-0.6c0.4,0.1,0.7,0.5,0.6,1l0,0c-3,11.5,5.9,32.7,25.9,61.2
		C-20089.7-15175-20089.8-15174.6-20090.1-15174.3z"/>
	<path fill="#189AA7" d="M-20115.8-15220.5c0,0-5.8,3.4-11.3-7.1C-20127.2-15227.5-20116.8-15230.2-20115.8-15220.5z"/>
	<path fill="#189AA7" d="M-20113.3-15214.9c0,0-3.7-5.6,6.4-11.7C-20106.9-15226.6-20103.6-15216.4-20113.3-15214.9z"/>
	<path fill="#189AA7" d="M-20117.2-15231.8c0,0-5.3-4.1,2.2-13.2C-20115-15245-20108.6-15236.5-20117.2-15231.8z"/>
	<path fill="#189AA7" d="M-20108.5-15203.6c0,0-4.3,5.1-13.1-2.8C-20121.5-15206.5-20112.7-15212.4-20108.5-15203.6z"/>
	<path fill="#189AA7" d="M-20105-15198.4c0,0-4.6-4.9,4.3-12.6C-20100.7-15211.1-20095.8-15201.6-20105-15198.4z"/>
	<path fill="#189AA7" d="M-20100.9-15190.8c0,0-4.2,5.2-13.1-2.6C-20114-15193.3-20105.3-15199.5-20100.9-15190.8z"/>
	<path fill="#187D87" d="M-19992.2-15183.3c-0.7,22.2-18.2,31.6-21.5,33.7c-3.6,2.1-7.7,3.2-11.9,3.2c-0.6,0-1.2,0-1.6,0
		c-0.8,0-1.2-0.1-1.2-0.1s1-12.3,2.5-25.7c1.3-11.9,6.9-31.9,24.9-50.7C-20001-15223-19991.5-15206.9-19992.2-15183.3z"/>
	<path fill="#18C5D2" d="M-20002.2-15207c0,0.1-1,6.7-3.5,16c0,0,0,0.1,0,0.1c-0.3,1.2-0.7,2.5-1,3.7c-0.1,0.5-0.3,1-0.4,1.5
		c-0.5,1.5-0.9,3.1-1.5,4.7c-0.5,1.6-1.1,3.2-1.7,5c0,0,0,0.1,0,0.1c-0.7,1.8-1.4,3.7-2.2,5.7c-0.2,0.5-0.4,1-0.6,1.5
		c-1,2.5-2.2,5-3.5,7.5l0,0c0,0.1-0.1,0.2-0.1,0.3v0c-0.9,1.8-1.9,3.6-2.9,5.3c-0.3,0.6-0.6,1.1-1,1.6c-1.5,2.6-3.2,5.1-5,7.5
		c-0.6,0-1.2,0-1.6,0c3.5-4.6,6.6-9.6,9.2-14.9c0.2-0.5,0.5-0.9,0.7-1.4c2.1-4.4,4-8.8,5.7-13.4c0.2-0.5,0.4-1.1,0.6-1.6
		c0.4-1.3,0.9-2.5,1.2-3.7c1.1-3.4,2.1-6.6,2.8-9.6c0.1-0.5,0.3-1.1,0.4-1.6c2.2-8.6,3.1-14.5,3.1-14.6c0.1-0.3,0.4-0.6,0.8-0.5
		C-20002.4-15207.6-20002.1-15207.3-20002.2-15207L-20002.2-15207z"/>
	<path fill="#18C5D2" d="M-20006.2-15190.5c-0.2,0-0.5,0-0.6-0.2c-0.2-0.2-4-5.2-4.9-7.9c-0.1-0.3,0.1-0.7,0.4-0.8s0.7,0.1,0.8,0.4
		l0,0c0.8,2.5,4.7,7.5,4.7,7.5c0.2,0.3,0.2,0.7-0.1,0.9C-20006-15190.6-20006.1-15190.5-20006.2-15190.5z"/>
	<path fill="#18C5D2" d="M-20007.5-15185.6c-0.3,0.1-0.7-0.2-0.8-0.5c-0.1-0.3,0.1-0.7,0.5-0.7c0.1,0,6.2-1.7,8.9-3.7
		c0.3-0.2,0.7-0.2,0.9,0.1s0.2,0.7-0.1,0.9C-20001.1-15187.3-20007.2-15185.7-20007.5-15185.6L-20007.5-15185.6z"/>
	<path fill="#18C5D2" d="M-20010.8-15175.6c-0.3,0-0.5-0.1-0.7-0.3c-0.2-0.3-4.9-8.1-6-14.1c-0.1-0.3,0.2-0.7,0.5-0.7
		c0.3-0.1,0.7,0.2,0.7,0.5c1,5.7,5.8,13.6,5.8,13.6c0.2,0.3,0.1,0.7-0.2,0.9C-20010.7-15175.6-20010.7-15175.6-20010.8-15175.6z"/>
	<path fill="#18C5D2" d="M-20013.5-15168.6c-0.3,0.1-0.7-0.2-0.7-0.5c-0.1-0.3,0.1-0.7,0.5-0.7c0.1,0,7.5-1.9,12.4-6.7
		c0.3-0.2,0.7-0.2,0.9,0s0.2,0.7,0,0.9C-20005.7-15170.7-20013.2-15168.7-20013.5-15168.6L-20013.5-15168.6z"/>
	<path fill="#18C5D2" d="M-20017.1-15160.7c-0.3,0-0.5-0.1-0.7-0.3c-2.4-4-4.1-8.4-5.1-13c-0.1-0.3,0.2-0.7,0.5-0.7l0,0
		c0.3-0.1,0.7,0.2,0.7,0.5c0.9,4.4,2.6,8.7,4.9,12.6c0.2,0.3,0.1,0.7-0.2,0.9C-20017-15160.8-20017.1-15160.7-20017.1-15160.7
		L-20017.1-15160.7z"/>
	<path fill="#18C5D2" d="M-20020.9-15153.9c-0.3,0.1-0.7-0.2-0.7-0.5c-0.1-0.3,0.1-0.7,0.5-0.7c5-1.5,9.7-4,13.8-7.4
		c0.3-0.2,0.7-0.2,0.9,0.1c0.2,0.3,0.2,0.7-0.1,0.9c0,0,0,0,0,0C-20010.7-15158-20015.6-15155.4-20020.9-15153.9L-20020.9-15153.9z"
		/>
	<path fill="#187D87" d="M-20097-15126.9c-1.6,1-3.2,1.9-4.9,2.7c-0.5,0.2-0.9,0.4-1.4,0.6c-14.2,5.6-30.6,2.4-30.6,2.4
		s-29.7-3-28.1-17.3c1.6-14.3,14.8-5.4,19.7-7.9c4.9-2.5-8.4-11.5-18.8-21.1c-10.4-9.7-6.8-18.2-1.1-17.8c5.6,0.4,5.5-7-0.8-13
		c-6.6-6.3-17-22.5-7.2-25.9c11.2-3.9,17.9,19.6,27.2,19.3s0.9-9.7,8-10.6c7.1-0.9,14.9,14.3,12.4,27.7c-2.5,13.4,5.8,24.4,8.4,20.5
		c2.5-3.9,0.2-16.9,6.2-18.9C-20096.6-15190.2-20081.9-15136.9-20097-15126.9z"/>
	<path fill="#18C5D2" d="M-20102-15124.2c-0.5,0.2-0.9,0.4-1.4,0.6c-17.4-27.7-57.4-85-57.9-85.7c-0.2-0.3-0.2-0.8,0.2-1.1
		s0.8-0.2,1.1,0.2C-20159.6-15209.5-20119.3-15151.8-20102-15124.2z"/>
	<path fill="#18C5D2" d="M-20138.8-15177.5c-0.4,0.1-0.8-0.2-0.8-0.7c0-0.1,0-0.3,0-0.4c0-0.1,4.3-10.9,4.7-18
		c0-0.4,0.4-0.7,0.8-0.7c0.4,0,0.7,0.4,0.7,0.8c-0.4,7.4-4.6,18.1-4.8,18.5C-20138.3-15177.7-20138.5-15177.6-20138.8-15177.5z"/>
	<path fill="#18C5D2" d="M-20134.3-15170.2L-20134.3-15170.2c-0.5,0-11.6,0.8-19.8-1.6c-0.4-0.1-0.6-0.5-0.5-0.9
		c0.1-0.4,0.5-0.6,0.9-0.5c0,0,0,0,0,0c7.9,2.3,19.1,1.6,19.3,1.6c0.4,0,0.8,0.3,0.8,0.7
		C-20133.6-15170.6-20133.9-15170.3-20134.3-15170.2L-20134.3-15170.2z"/>
	<path fill="#18C5D2" d="M-20114.9-15142.2c-0.4,0-0.8-0.2-0.8-0.7c0-0.2,0-0.4,0.1-0.5c0.1-0.1,7.8-10.5,8.2-17.7
		c0-0.4,0.4-0.7,0.8-0.7s0.7,0.4,0.7,0.8c-0.4,7.7-8.2,18.1-8.5,18.6C-20114.5-15142.3-20114.7-15142.2-20114.9-15142.2z"/>
	<path fill="#18C5D2" d="M-20122.7-15133.7c-4.4,0.7-8.9,0.7-13.3,0c-0.4-0.1-0.7-0.5-0.6-0.9c0.1-0.4,0.5-0.7,0.9-0.6l0,0
		c10,1.9,24.4-2.4,24.6-2.4c0.4-0.1,0.8,0.1,0.9,0.5c0.1,0.4-0.1,0.8-0.5,0.9C-20114.7-15135-20118.7-15134.2-20122.7-15133.7z"/>
	<path fill="#189AA7" d="M-20036.4-15099.8c1.5,1.2,3,2.2,4.7,3.1c0.5,0.2,0.9,0.5,1.4,0.7c13.7,6.8,30.3,5,30.3,5
		s29.8-0.4,29.5-14.8c-0.4-14.4-14.3-6.7-18.9-9.6c-4.6-2.9,9.3-10.7,20.5-19.5s8.3-17.6,2.6-17.7c-5.7-0.1-4.8-7.5,1.9-12.9
		c7.2-5.7,18.9-20.9,9.4-25.2c-10.9-4.8-19.5,18-28.7,16.9c-9.2-1.1,0-9.8-7-11.3s-16.1,13-14.8,26.5s-7.9,23.8-10.1,19.7
		c-2.2-4.1,1.2-16.8-4.6-19.3C-20031.4-15163-20050.6-15111.1-20036.4-15099.8z"/>
	<path fill="#18C5D2" d="M-20031.7-15096.7c0.5,0.2,0.9,0.5,1.4,0.7c19.7-26.1,64.5-79.8,65-80.4c0.3-0.3,0.2-0.8-0.1-1.1
		c-0.3-0.3-0.8-0.2-1.1,0.1C-19967-15176.8-20012.1-15122.8-20031.7-15096.7z"/>
	<path fill="#18C5D2" d="M-19990.4-15146.7c0.4,0.1,0.8-0.2,0.9-0.6c0-0.1,0-0.3,0-0.4c0-0.1-3.4-11.2-3.1-18.4
		c0-0.4-0.3-0.8-0.7-0.8s-0.8,0.3-0.8,0.7c0,0,0,0,0,0c-0.2,7.4,3.1,18.4,3.2,18.9C-19990.9-15147-19990.7-15146.8-19990.4-15146.7z
		"/>
	<path fill="#18C5D2" d="M-19995.5-15139.8L-19995.5-15139.8c0.5,0.1,11.5,1.8,19.9,0.1c0.4-0.1,0.7-0.5,0.6-0.9s-0.5-0.7-0.9-0.6
		c0,0,0,0,0,0c-8.1,1.6-19.2-0.1-19.3-0.1c-0.4-0.1-0.8,0.2-0.9,0.6C-19996.2-15140.3-19996-15139.9-19995.5-15139.8
		L-19995.5-15139.8z"/>
	<path fill="#18C5D2" d="M-20017.3-15113.5c0.4,0.1,0.8-0.2,0.9-0.6c0-0.2,0-0.4-0.1-0.6c-0.1-0.1-6.9-11.2-6.7-18.4
		c0-0.4-0.3-0.8-0.7-0.8c-0.4,0-0.8,0.3-0.8,0.7c0,0,0,0,0,0c-0.3,7.7,6.6,18.8,6.9,19.2
		C-20017.7-15113.7-20017.5-15113.5-20017.3-15113.5z"/>
	<path fill="#18C5D2" d="M-20010.2-15104.4c4.4,1,8.8,1.4,13.3,1.1c0.4,0,0.7-0.4,0.7-0.8c0-0.4-0.4-0.7-0.8-0.7c0,0,0,0,0,0
		c-10.1,1-24.1-4.4-24.3-4.5c-0.4-0.1-0.8,0.1-1,0.5c-0.1,0.4,0,0.8,0.4,1C-20018.1-15106.4-20014.2-15105.3-20010.2-15104.4z"/>
	<path fill="#189AA7" d="M-20166.5-15106.9c20,15.5,41.1,7.1,45.3,5.7c4.5-1.6,8.5-4.4,11.5-8.1c0.5-0.5,0.8-1,1.1-1.4
		c0.5-0.7,0.8-1.1,0.8-1.1s-11.5-8.1-24.3-16.6c-11.4-7.5-33-17.2-62.7-15.1C-20194.9-15143.6-20187.8-15123.4-20166.5-15106.9z"/>
	<path fill="#18C5D2" d="M-20180.1-15132.9c0.1,0.1,6.6,4,16.6,8.6c0,0,0.1,0,0.1,0c1.3,0.6,2.6,1.2,4,1.8c0.5,0.2,1.1,0.5,1.6,0.7
		c1.7,0.7,3.4,1.4,5.2,2.1c1.8,0.7,3.6,1.4,5.6,2.1c0,0,0.1,0,0.1,0c2.1,0.8,4.3,1.5,6.6,2.2c0.6,0.2,1.2,0.4,1.8,0.6
		c2.9,0.9,6,1.7,9.1,2.5l0,0c0.1,0,0.2,0.1,0.3,0.1h0c2.2,0.5,4.5,1,6.8,1.4c0.7,0.1,1.4,0.2,2.2,0.4c3.4,0.5,6.8,0.9,10.3,1.1
		c0.5-0.5,0.8-1,1.1-1.4c-6.7-0.3-13.3-1.2-19.8-2.7c-0.6-0.1-1.2-0.3-1.7-0.4c-5.4-1.3-10.7-2.9-15.9-4.8c-0.6-0.2-1.2-0.4-1.8-0.7
		c-1.4-0.5-2.8-1.1-4.1-1.6c-3.8-1.5-7.3-3-10.5-4.5c-0.6-0.3-1.1-0.5-1.7-0.8c-9.1-4.3-15-7.9-15.1-7.9c-0.3-0.2-0.8-0.1-1,0.2
		S-20180.4-15133.1-20180.1-15132.9C-20180.1-15132.9-20180.1-15132.9-20180.1-15132.9L-20180.1-15132.9z"/>
	<path fill="#18C5D2" d="M-20162.7-15124.4c0.2-0.2,0.3-0.5,0.2-0.7c-0.1-0.3-1.6-7.3-3.3-10.1c-0.2-0.3-0.7-0.4-1-0.2
		c-0.3,0.2-0.4,0.7-0.2,1c1.6,2.5,3.1,9.5,3.1,9.6c0.1,0.4,0.5,0.6,0.9,0.6C-20162.9-15124.3-20162.8-15124.3-20162.7-15124.4z"/>
	<path fill="#18C5D2" d="M-20157.4-15122c0.3-0.2,0.4-0.7,0.1-1s-0.7-0.4-1-0.1c-0.1,0-6,4.2-9.8,5.1c-0.4,0.1-0.6,0.5-0.5,0.9
		s0.5,0.6,0.9,0.5C-20163.6-15117.6-20157.7-15121.8-20157.4-15122C-20157.4-15122-20157.4-15122-20157.4-15122z"/>
	<path fill="#18C5D2" d="M-20146.2-15117.6c0.2-0.2,0.3-0.5,0.2-0.8c-0.1-0.4-3.6-10.3-8-15.5c-0.3-0.3-0.7-0.4-1-0.1
		c-0.3,0.3-0.4,0.7-0.1,1c4.3,5.1,7.7,15,7.7,15.1c0.1,0.4,0.5,0.6,0.9,0.5C-20146.3-15117.5-20146.2-15117.5-20146.2-15117.6z"/>
	<path fill="#18C5D2" d="M-20138.1-15114.9c0.3-0.3,0.4-0.7,0.1-1c-0.2-0.3-0.7-0.4-1-0.1c-0.1,0.1-7.2,5.1-14.9,6.1
		c-0.4,0-0.7,0.4-0.6,0.8c0,0.4,0.4,0.7,0.8,0.6C-20145.6-15109.5-20138.4-15114.6-20138.1-15114.9L-20138.1-15114.9z"/>
	<path fill="#18C5D2" d="M-20128.5-15112.3c0.2-0.2,0.3-0.5,0.2-0.8c-1.8-5-4.4-9.8-7.8-14c-0.3-0.3-0.7-0.3-1-0.1l0,0
		c-0.3,0.3-0.3,0.7-0.1,1c0,0,0,0,0,0c3.2,4.1,5.7,8.6,7.5,13.5c0.1,0.4,0.5,0.6,0.9,0.5
		C-20128.6-15112.2-20128.6-15112.2-20128.5-15112.3L-20128.5-15112.3z"/>
	<path fill="#18C5D2" d="M-20119.8-15110.6c0.3-0.3,0.3-0.7,0.1-1c-0.2-0.3-0.7-0.3-1-0.1c-5,3.4-10.6,5.6-16.5,6.7
		c-0.4,0-0.7,0.4-0.7,0.8c0,0.4,0.4,0.7,0.8,0.7c0,0,0.1,0,0.1,0C-20130.8-15104.6-20125-15107-20119.8-15110.6L-20119.8-15110.6z"
		/>
	<ellipse fill="#BABABA" cx="-20061.7" cy="-15065.8" rx="76.1" ry="8.6"/>
	<path fill="#ED8B1B" d="M-20028.4-15246.3c-0.5,0.6-1.1,1.1-1.7,1.6c-3.8,3.2-14.6,10.2-36.6,10.2c-18.2,0-29.2-3-34.5-5
		c-1.3-0.5-2.6-1-3.8-1.7c0,0-5.5-14,15.5-12.1s32.6,9.5,41.2,5.9C-20039.6-15250.9-20025.5-15251.9-20028.4-15246.3z"/>
	<path opacity="0.7" fill="#ED8B1B" enable-background="new    " d="M-20030.1-15244.7c-3.8,3.2-14.6,10.2-36.6,10.2
		c-18.2,0-29.2-3-34.5-5l0,0c0,0-9.2-13,11.7-11.1s32.2,7.7,41.2,5.2C-20040-15247.6-20029.3-15249.5-20030.1-15244.7z"/>
	<path fill="#187D87" d="M-20015.7-15215.4c-0.7-0.7-1.9-0.7-2.6,0c-4.4,4.6-11.9,3.8-21-1.4l0,0c-3-1.7-6.5-2.2-9.9-1.5v5.5
		c2.4,0.5,4.6,1.5,6.6,3c0.1,0.1,0.2,0.2,0.3,0.2c3.2,2.7,7.6,11.8,13.1,15.2c3.1,1.9,6.8,2.4,10.3,1.3c1-0.3,1.5-1.4,1.1-2.4
		c-0.3-0.9-1.3-1.4-2.2-1.2c-6.2,1.6-12.1-3-17.2-12.1c-0.8-1.4-1.9-2.7-3.1-3.8c-1-0.8-2-1.5-3.2-2c1.2,0.3,2.3,0.7,3.5,1.2
		c4.4,1.8,10.2,4.8,15,4.8c3.6,0,7.1-1.5,9.4-4.3c0.3-0.3,0.4-0.7,0.4-1.2C-20015.1-15214.6-20015.3-15215-20015.7-15215.4z"/>
	<path opacity="0.3" fill="#187D87" enable-background="new    " d="M-20039.3-15216.7L-20039.3-15216.7c-3-1.7-6.6-2.3-9.9-1.5v5.5
		c2.4,0.5,4.6,1.5,6.6,3c0.1,0.1,0.2,0.2,0.3,0.2c0.9-0.9,1.6-1.9,2-3c-1-0.8-2-1.5-3.2-2c1.2,0.3,2.4,0.7,3.5,1.2
		C-20039.6-15214.5-20039.4-15215.6-20039.3-15216.7z"/>
	<path fill="#EDAC2F" d="M-20028.4-15246.3c0,0-3.4,20.5-22.9,31.8c0,0-12.7,4.4-22.2,1.5c-2.3-0.7-4.4-1.9-6.2-3.6
		c0,0-21.2-16.1-25.3-24.6c0,0,2.6-6.5,18.4-7c3.1,0,6.1,0.3,9.1,1C-20064.7-15244.5-20049.7-15238.2-20028.4-15246.3z"/>
	<path opacity="0.5" fill="#EDAC2F" enable-background="new    " d="M-20030.9-15244c0,0-4.7,16.1-13.7,21.4
		c-1.6-0.2-3.1-0.7-4.6-1.4C-20049.2-15224.1-20039.3-15228.1-20030.9-15244z"/>
	<path fill="#EDAC2F" d="M-20063.1-15061.6c-76.2,0-77.4-57.7-53.6-93.6c23.8-35.9,37.5-62.8,37.5-62.8l2,0.3c2.9,0.5,5.8,0.8,8.7,1
		l0,0c6.6,0.4,13.1-0.1,19.6-1.3c0,0,3.9,6.7,10.8,17.9c6.9,11.2,16.8,26.9,28.7,44.8c7.6,11.5,12.7,25.3,13.5,38.7l0,0
		C-19994.2-15088.1-20011.3-15061.6-20063.1-15061.6z"/>
	<path fill="#F5A711" d="M-20048.8-15208.6c0,0,23,33.5,36.5,56.4c11.4,19.4,15.7,39.2,5,53c0,0,7.8-20.6-8.7-51.6
		C-20023.6-15165.1-20043.8-15191.9-20048.8-15208.6z"/>
	<path fill="#ED8B1B" d="M-20011.1-15076.9c-10.7,9.3-27.4,15.3-51.9,15.3c-76.2,0-77.4-57.7-53.6-93.6
		c23.8-35.9,37.5-62.8,37.5-62.8l2,0.3c1,0.2,2.1,0.3,3.1,0.5c1.9,0.2,3.7,0.4,5.6,0.5l0,0c0,0-4.6,33-24.1,60.3
		c-19.6,27.3-11.3,65.8,29.6,72.9c40.9,7.1,68.8-7.2,67.1-33l0,0C-19995-15101.6-19999.3-15087.2-20011.1-15076.9z"/>
	<path fill="#ED8B1B" d="M-20077.3-15247.2L-20077.3-15247.2C-20077.3-15247.2-20077.3-15247.2-20077.3-15247.2
		C-20077.3-15247.2-20077.3-15247.2-20077.3-15247.2z"/>
	<path fill="#ED8B1B" d="M-20068.4-15217.6c0.5-7.2-10.1-9.6-15.3-18.3c-5.5-9.1,6.4-11.3,6.4-11.3c-3-0.7-6-1-9.1-1
		c-4,0-7.9,0.7-11.7,2c-5.6,2.1-6.8,5-6.8,5c3.5,7.3,19.4,20,24,23.6H-20068.4z"/>
	<path fill="#187D87" d="M-20044.9-15215.6c0,1-0.4,1.9-1.1,2.6c0,0-18-5.6-36.2,1c-0.7-1-1.1-2.2-1-3.5c0.1-1,0.4-1.9,0.9-2.8
		c0,0,17.6-5,36.5,0.1C-20045.3-15217.5-20045-15216.6-20044.9-15215.6z"/>
	<path opacity="0.3" fill="#187D87" enable-background="new    " d="M-20044.9-15215.6c0,1-0.4,1.9-1.1,2.6c0,0-18-5.6-36.2,1
		c-0.7-1-1.1-2.2-1-3.5C-20079-15217-20061.8-15220.7-20044.9-15215.6z"/>
	<path fill="#187D87" d="M-20043.6-15218.4c-0.6,0.6-1.4,0.9-2.2,0.9c-11.9-3.8-24.6-3.9-36.5-0.1c-0.8-0.1-1.5-0.4-2-1
		c-0.3-0.4-0.5-0.9-0.5-1.4c0,0,21.7-7.6,41.7,0.3C-20043.1-15219.3-20043.3-15218.8-20043.6-15218.4z"/>
	<path opacity="0.3" fill="#187D87" enable-background="new    " d="M-20043.6-15218.4c-0.6,0.6-1.4,0.9-2.2,0.9
		c-11.9-3.8-24.6-3.9-36.5-0.1c-0.8-0.1-1.5-0.4-2-1C-20081.1-15219.7-20061.7-15225.4-20043.6-15218.4z"/>
	<path fill="#DA7D1D" d="M-20058.5-15123.9c0,0.2-0.2,0.6-0.3,0.6l-6.4,0c-0.2,0-0.4-0.1-0.6-0.2c-0.2-0.2-0.3-0.4-0.3-0.7
		l-7.3-12.9l-3,0l-2.1-0.2l0.1,13.1c0,0.5-0.4,1-0.9,1l-5.2,0c-0.5,0-1-0.4-1-0.9l-0.2-33.5c0-0.4,0.1-0.8,0.3-1.2
		c0.3-0.3,0.8-0.4,1.2-0.3c1.2-0.2,2.8-0.2,4.4-0.4c1.6-0.1,3.4-0.2,5.3-0.2c1.8,0,3.7,0.2,5.5,0.5c1.6,0.3,3.2,0.9,4.6,1.8
		c1.3,0.9,2.4,2,3.2,3.4c0.8,1.6,1.3,3.5,1.3,5.3v0.3c0.3,4.5-2.4,8.6-6.7,9.9l7.9,14.1L-20058.5-15123.9z M-20066.7-15148.7
		c0.1-1.6-0.6-3.1-1.9-4.1c-1.7-1-3.7-1.4-5.7-1.2l-4.5,0l0.1,11l4.4,0c2,0.1,3.9-0.4,5.7-1.3
		C-20067.3-15145.4-20066.6-15147-20066.7-15148.7L-20066.7-15148.7z M-20030-15135.2c0.2,3.3-0.8,6.6-2.8,9.2
		c-2.4,2.4-5.8,3.6-9.1,3.2l-2.2,0c-0.8,0-1.7-0.2-2.6-0.2l0,8.7c0,0.5-0.4,1-0.9,1l-4.8,0c-0.5,0-0.9-0.4-0.9-1l-0.2-33.9
		c0-0.3,0.1-0.5,0.2-0.8c0.4-0.3,0.7-0.4,1.2-0.6c1.6-0.7,3.2-1.1,4.9-1.2c1.6-0.3,3.3-0.4,4.9-0.2c3.4-0.3,6.7,0.8,9.2,3.1
		c2.2,2.5,3.2,5.8,2.9,9.1L-20030-15135.2z M-20036.6-15139c0-0.9,0-1.8-0.2-2.7c-0.1-0.8-0.4-1.6-0.8-2.3c-0.4-0.6-1-1.1-1.7-1.4
		c-0.8-0.3-1.7-0.5-2.6-0.5c-0.9-0.1-1.9,0-2.8,0.2c-0.7,0-1.4,0.1-2.1,0.2l0.1,17c0.8,0.2,1.6,0.3,2.5,0.2c0.8,0.1,1.6,0.1,2.3,0.2
		c0.9,0,1.8-0.2,2.6-0.6c0.7-0.3,1.3-0.9,1.6-1.6c0.4-0.7,0.7-1.5,0.7-2.3c0.2-0.9,0.3-1.9,0.2-2.8L-20036.6-15139L-20036.6-15139z"
		/>
	<ellipse fill="#BABABA" cx="-20148" cy="-15055" rx="29.2" ry="4.5"/>
	<path fill="#252533" d="M-20141.1-15059.5h5.1l3.2-39.1l-3.6-35.9l-13.8-1.3l8.2,40.9
		C-20144.2-15085.4-20142.3-15073.3-20141.1-15059.5z"/>
	<path fill="#FFFFFF" d="M-20141.2-15059.8c-0.2,0.4-0.3,0.9-0.3,1.3c0,0.9,0.1,3.9,0.1,3.9h14.9c0-1.4-0.7-2.7-1.8-3.6
		c-1.9-1.2-4.8,0-7.6-2C-20135.9-15060.1-20136.7-15059.4-20141.2-15059.8z"/>
	<path fill="#35354C" d="M-20168.9-15059.8c1-10.6,5.6-31.9,8.6-36.5l0-40l13.4,3.2l-4,36.9l-12.9,36.2
		C-20165.3-15059.2-20167.1-15059.4-20168.9-15059.8z"/>
	<path fill="#FFFFFF" d="M-20168.9-15059.8c-0.2,0.4-0.4,0.9-0.3,1.3v3.9h14.9c0-1.4-0.7-2.7-1.8-3.6c-1.9-1.2-4.8,0-7.6-2
		C-20163.8-15060.1-20164.4-15059.4-20168.9-15059.8z"/>
	<path fill="#FF4D27" d="M-20135.6-15134.3c-0.6,1.1-2.9,1.9-4.8,2.4c-0.1,0-0.3,0.1-0.4,0.1c-0.3,0.1-0.6,0.1-0.9,0.2
		c-3.1,0.5-6.3,0.8-9.4,0.8c-0.6,0-1.2,0-1.8-0.1c-0.1,0-0.3,0-0.4-0.1c-3.3-0.5-7-1.9-8.8-3.7l2.7-12l-5.2-29.8l6.8-2.4l0.4-0.1
		l1.5-0.5l1.2-0.4l7.2,1l1.2,0.2l0.4,0.1l5.2,0.7L-20135.6-15134.3z"/>
	<path fill="#35354C" d="M-20141.2-15196.3c0,0,5.5-3.6,3.9-5.8c-0.7-1-3.7,0.3-3.7,0.3s4.2-3.2,2.1-4.4c-1.8-1-4.3,1.6-4.3,1.6
		s2.4-2.6,0.6-3.1c-2.5-0.7-5.2,2.4-9.2,2.4c-4-0.1-9.8,4.4-5.2,10.3L-20141.2-15196.3z"/>
	<path fill="#FF8B7B" d="M-20148.4-15183.9l-0.3,4.1l-0.2,1.9c-2.4,1.7-6.2-0.8-6.2-0.8l-0.2-6.4c1.1-0.7,3.8,0.3,5.5,0.8
		C-20148.9-15184.1-20148.4-15183.9-20148.4-15183.9z"/>
	<path fill="#FF8B7B" d="M-20140.7-15194.3c0,0.1,0,0.3,0,0.4c-0.2,2.8-0.6,5.5-1.2,8.2c-0.5,2.6-3.1,4.3-5.7,3.8c0,0-0.1,0-0.1,0
		c-2.1-0.5-4.2-1-6.2-1.7c-0.6-0.2-1.2-0.6-1.6-1.1c-0.4-0.4-0.6-0.8-0.8-1.2c-0.5-1-0.8-2.1-1-3.2c-0.2-0.9-0.3-1.8-0.4-2.7
		c0-0.1,0-0.1,0-0.2c0-0.5,0-1,0-1.5l0,0c0.1-3,0.3-5.5,0.3-5.5c4-4.7,14.8-2.6,16.3,1c0,0.1,0.1,0.1,0.1,0.2
		C-20140.7-15196.7-20140.5-15195.5-20140.7-15194.3z"/>
	<path fill="#35354C" d="M-20155.5-15184.7c-0.4-0.4-0.6-0.8-0.8-1.2c-0.5-1-0.8-2.1-1-3.2c0.6-0.1,1.2,0,1.7,0.3
		C-20155.7-15188.9-20153.5-15185.5-20155.5-15184.7z"/>
	<path fill="#35354C" d="M-20141-15197.9L-20141-15197.9c-3.3,2.1-8.8-0.9-8.8-0.9c-0.4,1.5-2.5,1.4-3.1,2.6
		c-0.3,0.8-0.5,1.6-0.5,2.5c0,0.6-0.6,1.1-1.2,1.1l0,0c-0.6-1.1-2-1.6-3.1-1c0,0,0,0-0.1,0l0,0c0.1-3,0.3-5.5,0.3-5.5
		c4-4.7,14.8-2.6,16.3,1C-20141-15198-20141-15197.9-20141-15197.9z"/>
	<path fill="#FF8B7B" d="M-20154.5-15192.5c0,0-1.7-2.1-3.2-1c-1.6,1.3-0.5,5.9,2.7,5.9L-20154.5-15192.5z"/>
	<path fill="#C42D27" d="M-20140.7-15178.2c0,0,9.8,19.6,11.9,25.5c0,0,10.9,0.3,15.5,0l-1.2,5.4c0,0-11.3,1.2-15,1.5
		c-3.3,0.3-8.6-10-8.6-10L-20140.7-15178.2z"/>
	<path fill="#F3D46A" d="M-20100.7-15167.5c4.2,13.9-3.7,28.6-17.7,32.8c-6.2,1.9-12.8,1.4-18.7-1.4c-0.6-0.3-1.1-0.6-1.7-0.9
		c-2.4-1.4-4.6-3.1-6.5-5.1c-0.4-0.4-0.7-0.8-1.1-1.2c-2.2-2.7-3.8-5.8-4.8-9.1c-0.1-0.3-0.2-0.6-0.3-0.9
		c-3.6-14.1,4.8-28.4,18.9-32.1c3-0.8,6-1,9.1-0.7c0.6,0.1,1.3,0.1,1.9,0.2c2.7,0.5,5.3,1.3,7.8,2.6c0.5,0.3,1.1,0.6,1.6,0.9
		c5.3,3.2,9.2,8.2,11.2,14C-20100.9-15168.2-20100.8-15167.8-20100.7-15167.5z"/>
	<path fill="#DA7D1D" d="M-20105.8-15166c0.1,0.3,0.2,0.6,0.3,0.9c2.8,11.3-4.1,22.7-15.4,25.5c-10.5,2.6-21.3-3.2-24.9-13.5
		c-0.1-0.3-0.2-0.6-0.3-0.9c-3.2-11.2,3.2-22.8,14.3-26.1C-20120.7-15183.3-20109.1-15177-20105.8-15166L-20105.8-15166z"/>
	<path fill="#EDAC2F" d="M-20105.5-15165.1c2.7,10.9-3.6,22-14.4,25.2c-0.2,0.1-0.5,0.1-0.7,0.2c-4.7,1.2-9.7,0.8-14.1-1.3
		c-0.5-0.3-1.1-0.5-1.6-0.8c-2.4-1.4-4.5-3.2-6.2-5.4c-0.4-0.5-0.8-1.1-1.2-1.6c-5.4-10.1-1.6-22.6,8.5-28c2.5-1.3,5.2-2.1,7.9-2.4
		c0.7-0.1,1.4-0.1,2.1-0.1c2.8,0,5.6,0.6,8.1,1.7c0.5,0.2,1.1,0.5,1.6,0.8c4.2,2.2,7.4,5.8,9.3,10.1
		C-20105.9-15166.1-20105.7-15165.6-20105.5-15165.1z"/>
	<path fill="#DA7D1D" d="M-20124.1-15154.9c0,0.1,0,0.2,0,0.2l-2.3,1c-0.1,0-0.2,0-0.2,0c-0.1,0-0.2-0.1-0.2-0.2l-4.5-3.5l-1,0.4
		l-0.8,0.2l2,4.7c0.1,0.2,0,0.4-0.2,0.5l-1.8,0.8c-0.2,0.1-0.4,0-0.5-0.2l-5-11.8c-0.1-0.1-0.1-0.3-0.1-0.5c0.1-0.2,0.2-0.3,0.4-0.3
		c0.4-0.3,1-0.5,1.5-0.8c0.5-0.3,1.2-0.6,1.8-0.9c0.7-0.3,1.3-0.5,2-0.6c0.6-0.1,1.3-0.2,1.9-0.1c0.6,0.1,1.1,0.4,1.6,0.7
		c0.5,0.5,1,1,1.2,1.7l0.1,0.1c0.8,1.5,0.4,3.4-0.9,4.5L-20124.1-15154.9L-20124.1-15154.9z M-20130.7-15162.5
		c-0.2-0.6-0.7-1-1.3-1.2c-0.8-0.1-1.5,0-2.2,0.4l-1.6,0.7l1.6,3.9l1.6-0.7c0.7-0.3,1.3-0.7,1.8-1.3
		C-20130.4-15161.2-20130.4-15161.9-20130.7-15162.5L-20130.7-15162.5z M-20115.7-15163.1c0.6,1.1,0.7,2.4,0.3,3.7
		c-0.5,1.2-1.5,2.1-2.8,2.5l-0.8,0.3c-0.3,0.1-0.6,0.2-1,0.3l1.3,3.1c0.1,0.2,0,0.4-0.2,0.5l-1.7,0.7c-0.2,0.1-0.4,0-0.5-0.2l-5-12
		c0-0.1-0.1-0.2,0-0.3c0.1-0.1,0.2-0.3,0.3-0.4c0.5-0.5,1-0.9,1.6-1.1c0.5-0.3,1.1-0.6,1.7-0.8c1.1-0.6,2.5-0.7,3.7-0.2
		c1.1,0.6,2,1.6,2.4,2.8L-20115.7-15163.1z M-20118.6-15163.5c-0.1-0.3-0.3-0.6-0.5-0.9c-0.2-0.3-0.4-0.5-0.6-0.7
		c-0.2-0.2-0.5-0.2-0.8-0.2c-0.3,0-0.7,0.1-1,0.2c-0.3,0.1-0.7,0.3-1,0.5c-0.3,0.1-0.5,0.2-0.7,0.4l2.5,6c0.3,0,0.6-0.2,0.9-0.3
		c0.3-0.1,0.6-0.2,0.9-0.3c0.3-0.1,0.6-0.3,0.8-0.6c0.2-0.2,0.3-0.5,0.3-0.8c0-0.3,0-0.6-0.1-0.9c-0.1-0.4-0.2-0.7-0.3-1
		L-20118.6-15163.5L-20118.6-15163.5z"/>
	<path fill="#F3D46A" d="M-20123.6-15155.9c0,0.1,0,0.2,0,0.2l-2.3,1c-0.1,0-0.2,0-0.2,0c-0.1,0-0.2-0.1-0.2-0.2l-4.5-3.5l-1,0.4
		l-0.8,0.2l2,4.7c0.1,0.2,0,0.4-0.2,0.5l-1.8,0.8c-0.2,0.1-0.4,0-0.5-0.2l-5-11.8c-0.1-0.1-0.1-0.3-0.1-0.5c0.1-0.2,0.2-0.3,0.4-0.3
		c0.4-0.3,1-0.5,1.5-0.8c0.5-0.3,1.2-0.6,1.8-0.9c0.7-0.3,1.3-0.5,2-0.6c0.6-0.1,1.3-0.2,1.9-0.1c0.6,0.1,1.1,0.4,1.6,0.7
		c0.5,0.5,1,1,1.2,1.7l0.1,0.1c0.8,1.5,0.4,3.4-0.9,4.5L-20123.6-15155.9L-20123.6-15155.9z M-20130.1-15163.5
		c-0.2-0.6-0.7-1-1.3-1.2c-0.8-0.1-1.5,0-2.2,0.4l-1.6,0.7l1.6,3.9l1.6-0.7c0.7-0.3,1.3-0.7,1.8-1.3
		C-20129.8-15162.2-20129.8-15162.9-20130.1-15163.5L-20130.1-15163.5z M-20115.1-15164c0.6,1.1,0.7,2.4,0.3,3.7
		c-0.5,1.2-1.5,2.1-2.8,2.5l-0.8,0.3c-0.3,0.1-0.6,0.2-1,0.3l1.3,3.1c0.1,0.2,0,0.4-0.2,0.5l-1.7,0.7c-0.2,0.1-0.4,0-0.5-0.2l-5-12
		c0-0.1-0.1-0.2,0-0.3c0.1-0.1,0.2-0.3,0.3-0.4c0.5-0.5,1-0.9,1.6-1.2c0.5-0.3,1.1-0.6,1.7-0.8c1.1-0.6,2.5-0.7,3.7-0.2
		c1.1,0.6,2,1.6,2.4,2.8L-20115.1-15164z M-20118-15164.4c-0.1-0.3-0.3-0.6-0.5-0.9c-0.2-0.3-0.4-0.5-0.6-0.7
		c-0.2-0.2-0.5-0.2-0.8-0.2c-0.3,0-0.7,0.1-1,0.2c-0.3,0.1-0.7,0.3-1,0.5c-0.3,0.1-0.5,0.2-0.7,0.4l2.5,6c0.3,0,0.6-0.2,0.9-0.3
		c0.3-0.1,0.6-0.2,0.9-0.3c0.3-0.1,0.6-0.3,0.8-0.6c0.2-0.2,0.3-0.5,0.3-0.8c0-0.3,0-0.6-0.1-0.9c-0.1-0.4-0.2-0.7-0.3-1
		L-20118-15164.4L-20118-15164.4z"/>
	<path fill="#C42D27" d="M-20133.3-15146.4c-10.9,4.1-22.7-0.9-22.7-0.9s-8.4-8.4-10.4-17.5c-2-9.1,1.8-11.8,1.8-11.8
		c6.7,17.1,12.1,23.9,12.1,23.9s9.1,1.5,13.5,2.1c1.9,0.1,3.9-0.2,5.7-0.7C-20133.1-15149.6-20133.1-15148-20133.3-15146.4z"/>
	<path fill="#FF8B7B" d="M-20133.3-15151.2c0,0,1.7-2,2.5-2c0.8,0,1.3,1,1.3,1s2.2-0.8,3.2,0.3c1,1,1.4,7.9-7,5.6L-20133.3-15151.2z
		"/>
	<ellipse fill="#BABABA" cx="-20002.4" cy="-15052.6" rx="47.5" ry="2.9"/>
	<path fill="#4400A1" d="M-20009.9-15228.9c0,0-4.6,11.5-8,15c0,0-6.5,2.6-9,3c-2.5,0.4-7.3,1.7-7.3,1.7l0.6,3.3
		c0,0,13.9-1,17.3-2.5s8.3-11.7,8.3-11.7C-20007.5-15223.2-20008.2-15226.3-20009.9-15228.9z"/>
	<path fill="#252533" d="M-20009.5-15121.3h-4.6l-2.9-35.5l3.3-32.5l12.5-1.2l-7.5,37.1
		C-20006.7-15144.8-20008.5-15133.9-20009.5-15121.3z"/>
	<path fill="#FFFFFF" d="M-20009.4-15121.6c0.2,0.4,0.3,0.8,0.3,1.2c0,0.8-0.1,3.6-0.1,3.6h-13.5c0-1.3,0.6-2.5,1.7-3.2
		c1.7-1.1,4.3,0,6.8-1.8C-20014.2-15121.9-20013.5-15121.3-20009.4-15121.6z"/>
	<path fill="#35354C" d="M-19984.3-15121.6c-0.9-9.6-5.1-29-7.8-33.1l0-36.3l-12.2,2.9l3.6,33.5l11.7,32.8
		C-19987.5-15121.2-19985.8-15121.1-19984.3-15121.6z"/>
	<path fill="#FFFFFF" d="M-19984.3-15121.6c0.2,0.4,0.3,0.8,0.3,1.2v3.5h-13.5c0-1.3,0.6-2.5,1.7-3.2c1.7-1.1,4.3,0,6.8-1.8
		C-19989-15121.9-19988.4-15121.2-19984.3-15121.6z"/>
	<path fill="#5F00D0" d="M-19998.6-15235.6c0,0,5.3,0.1,7.8,2.3c2.4,2.2,0.1,6.7-2.6,7.2c-2.6,0.6-10.9-0.5-11.7-1.9
		S-20005.4-15235.5-19998.6-15235.6z"/>
	<path fill="#5F00D0" d="M-20014.5-15189.2c0.6,1,2.6,1.8,4.3,2.2c0.1,0,0.2,0.1,0.4,0.1c0.3,0.1,0.6,0.1,0.9,0.2
		c2.8,0.5,5.7,0.7,8.5,0.7c0.6,0,1.1,0,1.7-0.1c0.1,0,0.2,0,0.4,0c3-0.4,6.3-1.7,8-3.4l-2.4-10.9l4.7-27l-6.2-2.1l-0.3-0.1l-1.4-0.5
		l-1.1-0.4l-6.6,0.9l-1.1,0.1l-0.4,0l-4.7,0.6L-20014.5-15189.2z"/>
	<path fill="#4400A1" d="M-19999.1-15226.1c2.7,0.1,5-1.6,5.8-4.2c0-0.1,0-0.2-0.1-0.2s-0.2,0-0.2,0.1c0,0,0,0,0,0
		c-0.7,2.4-3,4-5.5,3.9h-0.1c-0.1,0-0.2,0.1-0.2,0.2C-19999.4-15226.1-19999.3-15226.1-19999.1-15226.1
		C-19999.2-15226.1-19999.2-15226.1-19999.1-15226.1L-19999.1-15226.1z"/>
	<path fill="#4400A1" d="M-20003.5-15226.7c0.1,0,0.2-0.1,0.2-0.2s-0.1-0.2-0.2-0.2c-0.1,0-1.4-0.1-1.8-1.9c0-0.1-0.1-0.2-0.2-0.1
		c-0.1,0-0.2,0.1-0.1,0.2c0,0,0,0,0,0C-20005.5-15227.8-20004.7-15226.9-20003.5-15226.7L-20003.5-15226.7z"/>
	<path fill="#4400A1" d="M-19998.6-15199.7c0,2.4,0.3,4.7,0.8,7.1c0,0-8.7,1.4-13.7-1.3c-0.3-2.3-0.3-4.6,0.1-6.9L-19998.6-15199.7z
		"/>
	<path fill="#FFFFFF" d="M-20000.2-15209.5L-20000.2-15209.5c0.1,0,0.2-0.1,0.2-0.2c0,0,0,0,0,0c-0.4-4.3,1.3-15.2,1.3-15.3
		c0-0.1-0.1-0.2-0.1-0.2c-0.1,0-0.2,0-0.2,0.1l0,0c0,0.1-1.7,11-1.3,15.4C-20000.3-15209.5-20000.3-15209.5-20000.2-15209.5z"/>
	<path fill="#FFFFFF" d="M-20005.9-15210.3L-20005.9-15210.3c0.1,0,0.2-0.1,0.2-0.2c0,0,0,0,0,0c-0.4-4.3,1.4-15.3,1.4-15.4
		c0-0.1,0-0.2-0.1-0.2c-0.1,0-0.2,0-0.2,0.1l0,0c0,0.1-1.8,11.1-1.4,15.5C-20006-15210.4-20006-15210.3-20005.9-15210.3z"/>
	<path fill="#35354C" d="M-20010.8-15247c0,0-1.5,1.2-0.7,4.1c0.9,2.9,2,3.1,2,3.1S-20008.4-15246.5-20010.8-15247z"/>
	<path fill="#FF8B7B" d="M-20003.2-15233.7l0.7,3.7l0.3,1.7c2.3,1.3,5.5-1.3,5.5-1.3l-0.4-5.8c-1.1-0.5-3.4,0.6-4.9,1.2
		C-20002.7-15233.9-20003.2-15233.7-20003.2-15233.7z"/>
	<path fill="#FF8B7B" d="M-20011.1-15242.3c0,0.1,0,0.3,0,0.4c0.1,1.1,0.4,2.4,0.6,3.7c0.1,0.3,0.1,0.5,0.2,0.8
		c0.1,0.2,0.1,0.4,0.2,0.7c0.1,0.5,0.2,0.9,0.3,1.4c0.1,0.3,0.2,0.6,0.2,0.9c0.1,0.2,0.1,0.4,0.2,0.6c0.9,2.1,3.2,3.1,5.3,2.5
		c1.3-0.4,2.7-0.8,3.9-1.3c0.1,0,0.1,0,0.2-0.1c1-0.4,1.9-0.8,2.8-1.3c0.1-0.2,0.2-0.3,0.3-0.5c0.7-1.4,1.1-3,1.2-4.6
		c0.1-0.6,0.1-1.3,0.1-1.9c0-0.1,0-0.1,0-0.2c-0.3-3.2-0.8-6.3-0.8-6.3c-3.9-4-13.5-1.4-14.7,1.9
		C-20011.3-15244.6-20011.3-15243.4-20011.1-15242.3z"/>
	<path fill="#35354C" d="M-19996.8-15234.6c0.7-1.4,1.1-3,1.2-4.6c-0.7,0.1-1.3,0.3-1.8,0.7
		C-19997.4-15237.2-19997.2-15235.9-19996.8-15234.6z"/>
	<path fill="#35354C" d="M-19995.6-15242.6c-1.1-0.5-2.3,0-2.8,1c0,0,0,0,0,0l-1,0.1c-0.1-1.1-0.3-2.2-0.7-3.2
		c-0.6-1.1-2.6-0.9-3-2.2c0,0-4.8,3.1-7.9,1.3c-3.5-1.9,6.4-7.6,11.6-5.6C-19995.4-15249.6-19995.2-15246.2-19995.6-15242.6z"/>
	<path fill="#FF8B7B" d="M-19998.4-15241.5c0,0,1.4-2,2.8-1.1c1.6,1.1,0.8,5.3-2.1,5.5L-19998.4-15241.5z"/>
	<path fill="#35354C" d="M-20005.6-15251c-1.8,0.4-3.8,0.4-5.6-0.1c-2.9-0.9-3.9,4.6-0.4,5.3
		C-20008.2-15245.1-20005.6-15251-20005.6-15251z"/>
	<path fill="#35354C" d="M-20010.2-15236.9c0,0.3,0,0.5,0.1,0.8c0.1,0.3,0.2,0.5,0.4,0.7c0.2-0.3,0.7-0.7,2-0.5c0.7,0.1,1.2,0.4,2,0
		c0.8-0.4,1.6-0.8,2.5-1h0c0.6-0.2,1.3,0.2,1.4,0.9c0.1,0.3,0,0.7-0.2,1c-1.1,1.5-2.6,2.7-4.4,2.7c-1.4,0-2.7-1.1-3.1-3.5
		c0,0-0.2,0.2-0.2,0.2c0,3,2.4,5.5,5.4,5.7c0.7,0,1.3-0.2,1.9-0.6c1-0.5,1.8-1.3,2.5-2.2c0.5-0.7,0.9-1.6,1.1-2.4
		c0.4-2.1,0.6-4.2,0.5-6.3l-1,0.1c-0.1,1.3-0.5,2.7-1,3.9c-0.9-0.4-1.9-0.6-2.9-0.6c-0.6,0.1-1.1,0.2-1.6,0.5
		c-1.2,0.6-2.6,0.8-3.9,0.6C-20009.6-15237.1-20010.1-15237.2-20010.2-15236.9z"/>
	<path fill="#F3D46A" d="M-20000.6-15197.4c-3,14.1-16.9,23.1-31,20.1c-6.3-1.3-11.8-4.9-15.6-10.1c-0.4-0.5-0.7-1-1.1-1.6
		c-1.5-2.3-2.6-4.9-3.2-7.6c-0.1-0.5-0.2-1.1-0.3-1.6c-0.6-3.4-0.6-6.8,0.2-10.2c0.1-0.3,0.1-0.6,0.2-0.9
		c3.6-14,17.8-22.4,31.8-18.9c2.9,0.7,5.7,2,8.2,3.7c0.5,0.4,1,0.7,1.5,1.1c2.1,1.7,4,3.7,5.5,6c0.3,0.5,0.6,1,0.9,1.5
		c3,5.3,4.1,11.5,3.1,17.5C-20000.5-15198-20000.5-15197.7-20000.6-15197.4z"/>
	<path fill="#DA7D1D" d="M-20005.7-15198.5c-0.1,0.3-0.1,0.6-0.2,0.9c-2.9,11.2-14.4,17.8-25.5,14.9c-10.4-2.8-17.1-13-15.3-23.6
		c0.1-0.3,0.1-0.6,0.2-0.9c2.4-11.3,13.5-18.5,24.8-16.1C-20010.5-15220.9-20003.3-15209.8-20005.7-15198.5
		C-20005.7-15198.5-20005.7-15198.5-20005.7-15198.5L-20005.7-15198.5z"/>
	<path fill="#EDAC2F" d="M-20005.9-15197.5c-2.9,10.8-13.7,17.4-24.6,15.1c-0.2-0.1-0.5-0.1-0.7-0.2c-4.7-1.2-8.8-4-11.7-7.8
		c-0.4-0.5-0.7-1-1-1.5c-1.4-2.3-2.4-4.9-2.8-7.6c-0.1-0.7-0.2-1.3-0.2-2c-0.1-1.6,0-3.2,0.2-4.8c2.9-11.2,14.4-17.8,25.5-14.9
		c1,0.3,2,0.6,3,1.1c0.6,0.3,1.3,0.6,1.9,0.9c2.4,1.4,4.6,3.2,6.3,5.4c0.4,0.5,0.7,1,1,1.5c2.6,3.9,3.7,8.6,3.3,13.3
		C-20005.8-15198.6-20005.9-15198-20005.9-15197.5z"/>
	<path fill="#DA7D1D" d="M-20027.4-15197c0,0.1-0.1,0.2-0.2,0.2l-2.4-0.4c-0.1,0-0.1-0.1-0.2-0.1c-0.1-0.1-0.1-0.2-0.1-0.3l-1.9-5.4
		l-1.1-0.2l-0.8-0.2l-0.9,5c0,0.2-0.2,0.3-0.4,0.3l-2-0.3c-0.2,0-0.3-0.2-0.3-0.4l2.2-12.7c0-0.2,0.1-0.3,0.2-0.4
		c0.1-0.1,0.3-0.1,0.5,0c0.5,0,1.1,0.1,1.7,0.2c0.6,0.1,1.3,0.1,2,0.3c0.7,0.1,1.4,0.3,2,0.6c0.6,0.2,1.2,0.5,1.6,1
		c0.4,0.4,0.8,0.9,1,1.5c0.2,0.7,0.2,1.4,0.1,2.1l0,0.1c-0.2,1.7-1.5,3.1-3.2,3.3L-20027.4-15197L-20027.4-15197z M-20028.9-15207
		c0.1-0.6,0-1.2-0.4-1.7c-0.6-0.5-1.3-0.8-2.1-0.8l-1.7-0.3l-0.7,4.2l1.7,0.3c0.7,0.2,1.5,0.1,2.2-0.1
		C-20029.3-15205.7-20028.9-15206.3-20028.9-15207L-20028.9-15207z M-20015.9-15199.4c-0.1,1.3-0.7,2.4-1.7,3.3
		c-1.1,0.7-2.4,1-3.7,0.6l-0.8-0.1c-0.3,0-0.6-0.2-1-0.2l-0.6,3.3c0,0.2-0.2,0.3-0.4,0.3l-1.8-0.3c-0.2,0-0.3-0.2-0.3-0.4l2.2-12.8
		c0-0.1,0.1-0.2,0.1-0.3c0.2-0.1,0.3-0.1,0.5-0.1c0.6-0.1,1.3-0.2,1.9-0.1c0.6,0,1.3,0.1,1.9,0.2c1.3,0.1,2.5,0.8,3.3,1.8
		c0.7,1.1,0.8,2.4,0.5,3.7L-20015.9-15199.4z M-20018.2-15201.3c0.1-0.3,0.1-0.7,0.1-1c0-0.3,0-0.6-0.1-0.9
		c-0.1-0.3-0.3-0.5-0.5-0.6c-0.3-0.2-0.6-0.3-1-0.4c-0.4-0.1-0.7-0.1-1.1-0.1c-0.3,0-0.5-0.1-0.8-0.1l-1.1,6.4
		c0.3,0.1,0.6,0.2,0.9,0.2c0.3,0.1,0.6,0.2,0.9,0.2c0.3,0.1,0.7,0,1,0c0.3-0.1,0.5-0.3,0.7-0.5c0.2-0.2,0.4-0.5,0.4-0.8
		c0.1-0.3,0.2-0.7,0.3-1.1L-20018.2-15201.3L-20018.2-15201.3z"/>
	<path fill="#F3D46A" d="M-20026.5-15197.5c0,0.1-0.1,0.2-0.2,0.2l-2.4-0.4c-0.1,0-0.1-0.1-0.2-0.1c-0.1-0.1-0.1-0.2-0.1-0.3
		l-1.9-5.4l-1.1-0.2l-0.8-0.2l-0.9,5c0,0.2-0.2,0.3-0.4,0.3l-2-0.3c-0.2,0-0.3-0.2-0.3-0.4l2.2-12.7c0-0.2,0.1-0.3,0.2-0.4
		c0.1-0.1,0.3-0.1,0.5,0c0.5,0,1.1,0.1,1.7,0.2c0.6,0.1,1.3,0.1,2,0.3c0.7,0.1,1.4,0.3,2,0.6c0.6,0.2,1.2,0.5,1.6,1
		c0.4,0.4,0.8,0.9,1,1.5c0.2,0.7,0.2,1.4,0.1,2.1l0,0.1c-0.2,1.7-1.5,3.1-3.2,3.3L-20026.5-15197.5L-20026.5-15197.5z
		 M-20027.9-15207.4c0.1-0.6,0-1.2-0.4-1.7c-0.6-0.5-1.3-0.8-2.1-0.8l-1.7-0.3l-0.7,4.2l1.7,0.3c0.7,0.2,1.5,0.1,2.2-0.1
		C-20028.3-15206.2-20028-15206.8-20027.9-15207.4L-20027.9-15207.4z M-20014.9-15199.8c-0.1,1.3-0.7,2.4-1.7,3.3
		c-1.1,0.7-2.4,1-3.7,0.6l-0.8-0.1c-0.3,0-0.6-0.2-1-0.2l-0.6,3.3c0,0.2-0.2,0.3-0.4,0.3l-1.8-0.3c-0.2,0-0.3-0.2-0.3-0.4l2.2-12.8
		c0-0.1,0.1-0.2,0.1-0.3c0.2-0.1,0.3-0.1,0.5-0.1c0.6-0.1,1.3-0.2,1.9-0.1c0.6,0,1.3,0.1,1.9,0.2c1.3,0.1,2.5,0.8,3.3,1.8
		c0.7,1.1,0.8,2.4,0.5,3.7L-20014.9-15199.8z M-20017.2-15201.7c0.1-0.3,0.1-0.7,0.1-1c0-0.3,0-0.6-0.1-0.9
		c-0.1-0.3-0.3-0.5-0.5-0.6c-0.3-0.2-0.6-0.3-1-0.4c-0.4-0.1-0.7-0.1-1.1-0.1c-0.3,0-0.5-0.1-0.8-0.1l-1.1,6.4
		c0.3,0.1,0.6,0.2,0.9,0.2c0.3,0.1,0.6,0.2,0.9,0.2c0.3,0.1,0.7,0,1,0c0.3-0.1,0.5-0.3,0.7-0.5c0.2-0.2,0.4-0.5,0.4-0.8
		c0.1-0.3,0.2-0.7,0.3-1.1L-20017.2-15201.7L-20017.2-15201.7z"/>
	<path fill="#4400A1" d="M-20016.4-15194.6c11.6,1.5,22.7-4.6,22.7-4.6s7.2-8.9,8.3-18.1s-2.9-10.1-2.9-10.1
		c-5,17.5-8.5,23.5-8.5,23.5c-4.1,2.1-8.6,3.6-13.2,4.4c-2.3,0.3-4.6,0.5-6.9,0.6C-20016.9-15197.5-20016.8-15196-20016.4-15194.6z"
		/>
	<path fill="#EEB684" d="M-20016.8-15198.9c0,0-1.9-2.3-2.7-2.2c-0.8,0.1-1.2,1.1-1.2,1.1s-2.3-0.6-3.1,0.6
		c-0.9,1.1-0.6,7.9,7.5,4.9L-20016.8-15198.9z"/>
	<path fill="#252533" d="M-20000.7-15114.9l15.7,61.4c0.1,0.4-0.1,0.8-0.4,0.9c-0.1,0-0.2,0-0.3,0c-0.6,0-1.1-0.4-1.2-1l-15.7-61.4
		H-20000.7z"/>
	<path fill="#252533" d="M-19975.1-15114.9l15.7,61.4c0.1,0.4-0.1,0.8-0.4,0.9c-0.1,0-0.2,0-0.3,0c-0.6,0-1.1-0.4-1.2-1l-15.7-61.4
		H-19975.1z"/>
	<path fill="#252533" d="M-20001.9-15114.9h26c0.5,0.1,0.9,0.5,1,1c0.1,0.4-0.1,0.8-0.4,0.9c-0.1,0-0.2,0-0.3,0h-25.6
		c-0.6,0-1.1-0.4-1.2-1C-20002.5-15114.3-20002.3-15114.7-20001.9-15114.9C-20001.9-15114.9-20001.9-15114.9-20001.9-15114.9z"/>
	<path fill="#252533" d="M-19972.4-15100.7h-25.6c-0.6,0-1.1-0.4-1.2-1c-0.1-0.4,0.1-0.8,0.4-0.9c0.1,0,0.2,0,0.3,0h25.6
		c0.6,0,1.1,0.4,1.2,1c0.1,0.4-0.1,0.8-0.4,0.9C-19972.2-15100.7-19972.3-15100.7-19972.4-15100.7z"/>
	<path fill="#252533" d="M-19969.3-15088.5h-25.6c-0.6,0-1.1-0.4-1.2-1c-0.1-0.4,0.1-0.8,0.4-0.9c0.1,0,0.2,0,0.3,0h25.6
		c0.6,0,1.1,0.4,1.2,1c0.1,0.4-0.1,0.8-0.4,0.9C-19969.1-15088.5-19969.2-15088.5-19969.3-15088.5z"/>
	<path fill="#252533" d="M-19966.2-15076.3h-25.6c-0.6,0-1.1-0.4-1.2-1c-0.1-0.4,0.1-0.8,0.4-1c0.1,0,0.2,0,0.3,0h25.6
		c0.6,0,1.1,0.4,1.2,1c0.1,0.4-0.1,0.8-0.5,1C-19966-15076.3-19966.1-15076.3-19966.2-15076.3z"/>
	<path fill="#252533" d="M-19963-15064h-25.6c-0.6,0-1.1-0.4-1.2-1c-0.1-0.4,0.1-0.8,0.4-0.9c0.1,0,0.2,0,0.3,0h25.6
		c0.6,0,1.1,0.4,1.2,1c0.1,0.4-0.1,0.8-0.4,0.9C-19962.8-15064-19962.9-15064-19963-15064z"/>
	<path fill="#35354C" d="M-20001.2-15114.9h2l-15.7,61.4c-0.2,0.6-0.7,0.9-1.2,1c-0.4,0-0.7-0.3-0.8-0.7c0-0.1,0-0.2,0-0.3
		L-20001.2-15114.9z"/>
	<path fill="#35354C" d="M-20042.5-15053.5l15.7-61.4h2l-15.7,61.4c-0.2,0.6-0.7,0.9-1.2,1c-0.4,0-0.7-0.3-0.8-0.7
		C-20042.6-15053.4-20042.6-15053.4-20042.5-15053.5z"/>
	<path fill="#252533" d="M-20026-15114.9h26c0.4,0.1,0.6,0.5,0.5,0.9c0,0,0,0.1,0,0.1c-0.2,0.6-0.7,0.9-1.2,1h-25.6
		c-0.4,0-0.7-0.3-0.8-0.7c0-0.1,0-0.2,0-0.3C-20026.9-15114.4-20026.5-15114.8-20026-15114.9z"/>
	<path fill="#35354C" d="M-19975.1-15113h-50.9c-1.1,0-1.9-0.9-1.9-1.9l0,0c0-1.1,0.9-1.9,1.9-1.9h50.9c1.1,0,1.9,0.9,1.9,1.9l0,0
		C-19973.2-15113.8-19974.1-15113-19975.1-15113z"/>
	<path fill="#35354C" d="M-20029.4-15100.7h25.6c0.6,0,1.1-0.4,1.2-1c0.1-0.4-0.1-0.8-0.4-0.9c-0.1,0-0.2,0-0.3,0h-25.6
		c-0.6,0-1.1,0.4-1.2,1c-0.1,0.4,0.1,0.8,0.4,0.9C-20029.6-15100.7-20029.5-15100.7-20029.4-15100.7z"/>
	<path fill="#35354C" d="M-20032.6-15088.5h25.6c0.6,0,1.1-0.4,1.2-1c0.1-0.4-0.1-0.8-0.4-0.9c-0.1,0-0.2,0-0.3,0h-25.6
		c-0.6,0-1.1,0.4-1.2,1c-0.1,0.4,0.1,0.8,0.4,0.9C-20032.8-15088.5-20032.7-15088.5-20032.6-15088.5z"/>
	<path fill="#35354C" d="M-20035.7-15076.3h25.6c0.6,0,1.1-0.4,1.2-1c0.1-0.4-0.1-0.8-0.4-1c-0.1,0-0.2,0-0.3,0h-25.6
		c-0.6,0-1.1,0.4-1.2,1c-0.1,0.4,0.1,0.8,0.5,1C-20035.9-15076.3-20035.8-15076.3-20035.7-15076.3z"/>
	<path fill="#35354C" d="M-20038.8-15064h25.6c0.6,0,1.1-0.4,1.2-1c0.1-0.4-0.1-0.8-0.4-0.9c-0.1,0-0.2,0-0.3,0h-25.6
		c-0.6,0-1.1,0.4-1.2,1c-0.1,0.4,0.1,0.8,0.4,0.9C-20039-15064-20038.9-15064-20038.8-15064z"/>
</g>
</svg>
