<svg id="Layer_1" data-name="Layer 1" xmlns="http://www.w3.org/2000/svg" xmlns:xlink="http://www.w3.org/1999/xlink" viewBox="0 0 242.65 188.37"><defs><linearGradient id="linear-gradient" x1="-297.77" y1="390.33" x2="-296.77" y2="390.33" gradientTransform="matrix(242.65, 0, 0, -139.95, 72253.95, 54744.61)" gradientUnits="userSpaceOnUse"><stop offset="0" stop-color="#d2e9e6"/><stop offset="0.34" stop-color="#a6d3d1"/><stop offset="1" stop-color="#d2e9e6"/></linearGradient><linearGradient id="linear-gradient-2" x1="-297.77" y1="390.32" x2="-296.77" y2="390.32" gradientTransform="matrix(242.58, 0, 0, -139.07, 72231.99, 54393.73)" gradientUnits="userSpaceOnUse"><stop offset="0" stop-color="#d2e9e6"/><stop offset="0.66" stop-color="#a6d3d1"/><stop offset="1" stop-color="#d2e9e6"/></linearGradient><linearGradient id="linear-gradient-3" x1="-294.24" y1="388.92" x2="-293.24" y2="388.92" gradientTransform="matrix(62.81, 0, 0, -70.97, 18613.66, 27672.65)" gradientUnits="userSpaceOnUse"><stop offset="0" stop-color="#fcd24a"/><stop offset="1" stop-color="#e1b725"/></linearGradient><linearGradient id="linear-gradient-4" x1="-294.24" y1="386.1" x2="-293.24" y2="386.1" gradientTransform="matrix(62.78, 0, 0, -35.75, 18604.99, 13845.79)" xlink:href="#linear-gradient-3"/><linearGradient id="linear-gradient-5" x1="-291.53" y1="379.28" x2="-290.53" y2="379.28" gradientTransform="matrix(8.76, 0, 0, -16.24, 2444.34, 6255.32)" xlink:href="#linear-gradient-3"/><linearGradient id="linear-gradient-6" x1="-289.43" y1="379.27" x2="-288.43" y2="379.27" gradientTransform="matrix(8.76, 0, 0, -16.23, 2435.17, 6253.7)" xlink:href="#linear-gradient-3"/><linearGradient id="linear-gradient-7" x1="-297.25" y1="387.49" x2="-296.25" y2="387.49" gradientTransform="matrix(65.29, 0, 0, -47.34, 19295.73, 18449.88)" xlink:href="#linear-gradient-3"/></defs><title>ic-set-password</title><path d="M242.65,87.15V93h0c0,1.32-.9,2.62-2.62,3.62L83.42,186.85a14.09,14.09,0,0,1-12.74,0l-68-39.38c-1.73-1-2.6-2.32-2.63-3.62H0v-5.76l10.28-2.39L159.14,49.94a14.13,14.13,0,0,1,12.73,0L237.4,87.77Z" transform="translate(0 0)" fill="url(#linear-gradient)"/><path d="M242.65,87.15v1.74a7.18,7.18,0,0,1-2.17,1.86L83.88,181a15,15,0,0,1-13.66,0l-68-39.38A7.22,7.22,0,0,1,0,139.71v-1.62l10.29-2.39L159.14,49.94a14.13,14.13,0,0,1,12.73,0L237.4,87.77Z" transform="translate(0 0)" fill="#fff"/><path d="M242.62,86.71a4.74,4.74,0,0,1-2.6,3.23L83.42,180.16a14.09,14.09,0,0,1-12.74,0l-68-39.39a3.32,3.32,0,0,1,0-6.48L159.14,44.14a14,14,0,0,1,12.74,0L240,83.48A4.72,4.72,0,0,1,242.62,86.71Z" transform="translate(0 0)" fill="url(#linear-gradient-2)"/><path d="M85.41,170.59a11.65,11.65,0,0,1-5.72-1.38l-58.57-33.9a4.62,4.62,0,0,1-2.45-3v-.16a4.59,4.59,0,0,1,2.47-3.06l25.73-14.86L71.3,100.1l37-21.36,31.61-18,14.16-8.18a12.63,12.63,0,0,1,11.42,0L224,86.29l.14.09a4.53,4.53,0,0,1,2.45,3l0,.08,0,.08a4.57,4.57,0,0,1-2.46,3L211,100l-49.59,28.64L91.13,169.22A11.64,11.64,0,0,1,85.41,170.59Z" transform="translate(0 0)" fill="#fff"/><path d="M226.13,88.73a4.1,4.1,0,0,1-2.23,2.72l-13.15,7.4L186.33,113l-25.18,14.54L110.21,156.9,90.89,168.06a12.12,12.12,0,0,1-11,0L60.66,156.9l-39.3-22.75a2.78,2.78,0,0,1,0-5.45l.55-.32,25.19-14.54,24.43-14.1,37-21.36,31.61-18,14.17-8.18a12.14,12.14,0,0,1,11,0l14.17,8.18,44.36,25.6.13.08A4.07,4.07,0,0,1,226.13,88.73Z" transform="translate(0 0)" fill="#096d5c"/><path d="M50.68,163.7a5.42,5.42,0,0,1-2.65-.6L30.49,153a1.35,1.35,0,0,1-.82-1.08c0-.52.5-1.13,1.32-1.61a7.33,7.33,0,0,1,3.58-.88,5.32,5.32,0,0,1,2.65.6l17.55,10.13a1.39,1.39,0,0,1,.82,1.07c0,.54-.5,1.14-1.33,1.62A7.44,7.44,0,0,1,50.68,163.7Z" transform="translate(0 0)" fill="#fff"/><path d="M218.86,105.83a2.64,2.64,0,0,1-1.27,2l-11.86,6.85c-.71.4-1.28.16-1.28-.54h0a2.66,2.66,0,0,1,1.28-2l11.86-6.85c.7-.4,1.27-.16,1.27.53Z" transform="translate(0 0)" fill="#fff"/><path d="M202.54,115.3a2.66,2.66,0,0,1-1.27,2l-11.87,6.84c-.7.41-1.27.17-1.27-.53h0a2.63,2.63,0,0,1,1.27-2l11.87-6.85c.7-.41,1.27-.17,1.27.53Z" transform="translate(0 0)" fill="#fff"/><path d="M112.46,144a1.49,1.49,0,0,1-.74-2.78L149,119.75a1.49,1.49,0,0,1,1.49,2.58l-37.24,21.5A1.53,1.53,0,0,1,112.46,144Z" transform="translate(0 0)" fill="#71ab3c"/><path d="M154.38,119.83a1.49,1.49,0,0,1-.75-2.78c7.45-4.3,11.72-9.9,11.72-15.36,0-4.41-2.86-8.49-8.06-11.49l-2.5-1.44c-12.64-7.3-34.83-6.35-49.49,2.11a1.49,1.49,0,0,1-1.49-2.58h0c15.48-8.93,39-9.88,52.47-2.11l2.5,1.44c6.16,3.56,9.55,8.55,9.55,14.07,0,6.56-4.81,13.1-13.21,17.94A1.47,1.47,0,0,1,154.38,119.83Z" transform="translate(0 0)" fill="#71ab3c"/><path d="M62.64,115.27a1.49,1.49,0,0,1-.74-2.78L97.46,92A1.49,1.49,0,0,1,99,94.5l-.07,0L63.39,115.07A1.53,1.53,0,0,1,62.64,115.27Z" transform="translate(0 0)" fill="#71ab3c"/><path d="M85,145.51c-6.31,0-12.34-1.27-16.84-3.87l-2.51-1.44a1.49,1.49,0,0,1,1.49-2.59l2.51,1.45c9.07,5.24,25,4.55,35.57-1.54a1.5,1.5,0,0,1,1.5,2.59A44.65,44.65,0,0,1,85,145.51Z" transform="translate(0 0)" fill="#71ab3c"/><path d="M113.63,135.91a1.49,1.49,0,0,1-.75-2.78l34.3-19.8c5.29-3.06,8.32-7,8.32-10.82,0-3.05-2-5.9-5.66-8l-2.5-1.45a1.49,1.49,0,1,1,1.49-2.58h0l2.5,1.45c4.61,2.66,7.15,6.42,7.15,10.58,0,4.92-3.58,9.8-9.81,13.4l-34.3,19.8A1.49,1.49,0,0,1,113.63,135.91Z" transform="translate(0 0)" fill="#71ab3c"/><path d="M57.92,125.45a1.49,1.49,0,0,1-.75-2.78L110.27,92c8.56-4.94,20.57-6.71,30.59-4.51a1.49,1.49,0,1,1-.64,2.91c-9.19-2-20.63-.34-28.46,4.18l-53.1,30.66A1.47,1.47,0,0,1,57.92,125.45Z" transform="translate(0 0)" fill="#71ab3c"/><path d="M86.45,139.85H86.2a1.49,1.49,0,0,1-1.48-1.5,1.47,1.47,0,0,1,1.47-1.48h0a25.27,25.27,0,0,0,12.59-3.07l36.3-21a1.49,1.49,0,1,1,1.49,2.58l-36.3,21A28.53,28.53,0,0,1,86.45,139.85Z" transform="translate(0 0)" fill="#71ab3c"/><path d="M76.39,137.54a1.47,1.47,0,0,1-.74-.2l-2.51-1.45c-3.06-1.76-4.74-4.28-4.74-7.1,0-3.28,2.33-6.5,6.41-8.86l41.91-24.2c7.26-4.19,18.32-4.61,24.65-1l2.51,1.45c3.06,1.77,4.74,4.29,4.74,7.1,0,3.28-2.33,6.51-6.4,8.86a1.49,1.49,0,1,1-1.5-2.58c3.13-1.8,4.92-4.09,4.92-6.28s-1.77-3.65-3.25-4.51l-2.51-1.45c-5.42-3.13-15.35-2.69-21.67,1L76.3,122.52c-3.13,1.8-4.92,4.09-4.92,6.28s1.77,3.66,3.25,4.51l2.51,1.45a1.49,1.49,0,0,1-.75,2.78Z" transform="translate(0 0)" fill="#71ab3c"/><path d="M87.87,134.16A9.77,9.77,0,0,1,83.1,133l-2.5-1.45A1.49,1.49,0,1,1,82.09,129h0l2.5,1.45c1.93,1.11,5.49.93,7.77-.39l41.92-24.2c1.12-.65,1.52-1.34,1.52-1.73s-.54-.85-.86-1l-2.51-1.45c-1.92-1.11-5.48-.93-7.76.39L81.26,127.11a1.49,1.49,0,0,1-1.49-2.58l43.41-25.07c3.2-1.84,7.92-2,10.74-.38l2.51,1.45a4.2,4.2,0,0,1,2.35,3.61c0,1.64-1.1,3.21-3,4.31l-41.91,24.2A12.14,12.14,0,0,1,87.87,134.16Z" transform="translate(0 0)" fill="#71ab3c"/><path d="M91.07,127.62a1.49,1.49,0,0,1-1.49-1.49,1.47,1.47,0,0,1,.75-1.29l11.27-6.51a1.49,1.49,0,0,1,1.49,2.58h0l-11.27,6.51A1.53,1.53,0,0,1,91.07,127.62Z" transform="translate(0 0)" fill="#71ab3c"/><path d="M106.63,118.64a1.49,1.49,0,0,1-.75-2.78L126.47,104a1.49,1.49,0,1,1,1.49,2.58l-20.59,11.88A1.47,1.47,0,0,1,106.63,118.64Z" transform="translate(0 0)" fill="#71ab3c"/><path d="M195.57,52.62V97.39h0c-.11,1.34-1.15,2.73-3.05,3.83l-6.26,3.62c-3.69,2.13-9.27,2.36-12.47.52L134.92,82.91a3.7,3.7,0,0,1-2.16-3.13V35.62Z" transform="translate(0 0)" fill="url(#linear-gradient-3)"/><path d="M195.57,52.62v1.91A7.59,7.59,0,0,1,192.84,57l-6.27,3.63a15.29,15.29,0,0,1-7.37,1.84,11.69,11.69,0,0,1-5.74-1.34L134.6,38.72a5.46,5.46,0,0,1-1.83-1.65V35.62Z" transform="translate(0 0)" fill="#ffdf85"/><path d="M195.56,52.64c-.12,1.35-1.14,2.73-3,3.83l-1.23.7-5,2.92c-3.69,2.13-9.26,2.35-12.46.51L134.92,38.16a3.83,3.83,0,0,1-2.14-2.86c.11-1.33,1.14-2.72,3-3.81l6.27-3.62c3.69-2.14,9.27-2.37,12.46-.53l3.44,2,12.14,7,23.28,13.45a3.87,3.87,0,0,1,.58.38A3.52,3.52,0,0,1,195.56,52.64Z" transform="translate(0 0)" fill="url(#linear-gradient-4)"/><path d="M157.48,86.05a2,2,0,0,1-1-.29l-3.53-2a3.86,3.86,0,0,1-1.77-3.06V75a4.74,4.74,0,0,0-1-2.53,13.68,13.68,0,0,1-3.13-7.88c0-2.87,1.64-4.71,4.17-4.71a7.76,7.76,0,0,1,3.83,1.18c4.06,2.34,7.36,7.57,7.36,11.65,0,2.07-.82,3.6-2.3,4.3-.29.14-1.25.66-1.25,1.42v5.92a1.9,1.9,0,0,1-.37,1.17,1.34,1.34,0,0,1-1.08.51Z" transform="translate(0 0)" fill="#ffdf85"/><path d="M155.44,61.62c-3.88-2.24-7-.91-7,3a13,13,0,0,0,3,7.48A5.41,5.41,0,0,1,152.5,75v5.65a3.23,3.23,0,0,0,1.45,2.5l3.53,2c.8.46,1.45.09,1.45-.84V78.44a2.44,2.44,0,0,1,1.62-2,3.8,3.8,0,0,0,1.94-3.72C162.48,68.83,159.33,63.87,155.44,61.62Z" transform="translate(0 0)" fill="#262e54"/><path d="M182.68,57.15c-2.59,0-4.68-1.45-4.68-4V34.54c0-7-6.12-16.53-13.36-20.71L160,11.15c-3.57-2.06-6.11-2.06-7.2-1.43-1.3.75-1.49,2.83-1.49,4V32.31c0,2.58-2.09,4-4.68,4s-4.67-1.45-4.67-4V13.73c0-5.51,2.18-9.81,6.16-12.11,4.47-2.58,10.5-2.06,16.55,1.43l4.64,2.67c10.11,5.85,18,18.5,18,28.82V53.11C187.35,55.7,185.26,57.15,182.68,57.15Z" transform="translate(0 0)" fill="#d2e9e6"/><path d="M129.67,102.39A4.38,4.38,0,0,0,134.05,98V90.53a4.38,4.38,0,1,0-8.75,0V98a4.38,4.38,0,0,0,4.37,4.38Z" transform="translate(0 0)" fill="url(#linear-gradient-5)"/><path d="M120.49,107.69a4.38,4.38,0,0,0,4.38-4.38V95.83a4.38,4.38,0,0,0-8.76,0v7.48a4.38,4.38,0,0,0,4.38,4.38Z" transform="translate(0 0)" fill="url(#linear-gradient-6)"/><path d="M72.79,121.07c0,5.94,3.83,10.09,9.32,10.09A14.39,14.39,0,0,0,89.24,129a25.48,25.48,0,0,0,11.84-16.72L135.89,92a4.38,4.38,0,1,0-4.38-7.58L99.37,103.19A8.9,8.9,0,0,0,92,99.57a14.26,14.26,0,0,0-7.12,2.12C78,105.66,72.79,114,72.79,121.07Zm8.75,0c0-3.92,3.6-9.43,7.7-11.8a5.76,5.76,0,0,1,2.75-.94,1.24,1.24,0,0,1,.33,0v0a2.64,2.64,0,0,1,.23,1.27c0,3.92-3.6,9.43-7.7,11.8a5.73,5.73,0,0,1-2.74.94,1.27,1.27,0,0,1-.34,0h0a2.59,2.59,0,0,1-.24-1.29Z" transform="translate(0 0)" fill="url(#linear-gradient-7)"/><path d="M81.78,122.36c.07.1,2.6,3.48,8.63-3.47,4.55-5.24,2.17-10.13,1.92-10.5a2.63,2.63,0,0,1,.22,1.27c0,3.92-3.6,9.43-7.69,11.8a5.87,5.87,0,0,1-2.75.94A1.24,1.24,0,0,1,81.78,122.36Z" transform="translate(0 0)" fill="#e6e7e8"/></svg>