<svg id="Layer_1" data-name="Layer 1" xmlns="http://www.w3.org/2000/svg" viewBox="0 0 158.46 194.54"><title>ic-signup</title><rect x="13.97" y="181.46" width="9.54" height="4.29" transform="translate(-159.32 135.08) rotate(-68.93)" fill="#ff8b7b"/><path d="M1.22,189.16h4.2L7,179.43H2.76Z" transform="translate(0 0)" fill="#ff8b7b"/><path d="M5.7,188.67H1a.34.34,0,0,0-.34.29L0,192.69a.66.66,0,0,0,.56.75H.68c1.65,0,2.45-.12,4.52-.12,1.28,0,3.92.13,5.68.13s1.9-1.74,1.16-1.9a11.14,11.14,0,0,1-5.64-2.62A1.14,1.14,0,0,0,5.7,188.67Z" transform="translate(0 0)"/><path d="M19.69,187.2l-4.48-1.3a.36.36,0,0,0-.42.17l-1.65,3.35a.64.64,0,0,0,.31.85l.11,0c1.62.44,2.71.71,4.74,1.31,1.4.4,2.83,1.07,4.21,1.51a20.75,20.75,0,0,0,4.38.32c1.73,0,2.11-1.82,1.37-1.9-1.87-.21-2.12-.12-3.15-.63a14.36,14.36,0,0,1-4.51-3.12A2,2,0,0,0,19.69,187.2Z" transform="translate(0 0)"/><path d="M25.67,51.83l5.54-2.24s7.31,13.32,9.4,14c2.85.91,8.74,3.46,12.24,3.94A6.18,6.18,0,0,1,54,70.45C49.32,72,39,69.94,36.8,68.3,31.77,64.56,25.67,51.83,25.67,51.83Z" transform="translate(0 0)" fill="#ff8b7b"/><path d="M24,48.81c-1,3.82,4.56,11.49,4.56,11.49l7.35-4.13S34.51,53,32.83,49.81C30.12,44.63,25.14,44.45,24,48.81Z" transform="translate(0 0)" fill="#068675"/><path d="M33,57.82l-2.89,1.61-.5-8.85C31.23,51.87,32.42,55.75,33,57.82Z" transform="translate(0 0)" fill="#046256"/><path d="M52.14,67.48l4.62-1.94,1.9,5.12a18.85,18.85,0,0,1-5.71,0Z" transform="translate(0 0)" fill="#ff8b7b"/><path d="M60.2,65.41l.12,3.41-1.65,1.84-1.9-5.12Z" transform="translate(0 0)" fill="#ff8b7b"/><rect x="17.12" y="179.31" width="4.92" height="4.29" transform="translate(-156.75 134.38) rotate(-68.9)" fill="#ea7063"/><path d="M2.76,179.43H7l-.8,5H2Z" transform="translate(0 0)" fill="#ea7063"/><path d="M28.79,45.93s5.7,12.7,2.38,36.33H8.69C8.33,78.81,9.52,62,5.23,45.72a57.14,57.14,0,0,1,7.47-.95,80.24,80.24,0,0,1,9.56,0A43.78,43.78,0,0,1,28.79,45.93Z" transform="translate(0 0)" fill="#068675"/><path d="M31.88,75.87c-.08,1-.18,2-.3,3.1L14.86,73.54a12,12,0,0,1-6.43-4.66c-.06-1.49-.14-3.06-.27-4.69-.06-.8-.13-1.61-.2-2.44S7.79,60,7.68,59.13Z" transform="translate(0 0)" fill="#046256"/><path d="M13,34c.78,3.07,1.71,8.71-.32,10.76,0,0,1.42,3.12,7.13,3.12,5.22,0,2.43-3.12,2.43-3.12C18.78,44,18.72,41.41,19.18,39Z" transform="translate(0 0)" fill="#ff8b7b"/><path d="M15.53,36.05l3.64,3a10.8,10.8,0,0,0-.2,1.7c-1.06,1.06-3.2-1.62-3.42-3A4.41,4.41,0,0,1,15.53,36.05Z" transform="translate(0 0)" fill="#ea7063"/><path d="M25.44,34a3.67,3.67,0,0,1-2.37,1.75c-1.34.3-2-.94-1.64-2.18s1.43-2.61,2.77-2.36a1.87,1.87,0,0,1,1.47,2.19A1.91,1.91,0,0,1,25.44,34Z" transform="translate(0 0)" fill="#ea7063"/><path d="M23.23,24.13c2.09,1,2.82,9.25.2,10.48S19.27,22.32,23.23,24.13Z" transform="translate(0 0)"/><path d="M12.38,29.38c.5,4.16.58,6.61,2.81,8.75a5.37,5.37,0,0,0,9.13-2.85c.67-3.74-.26-9.92-4.43-11.58a5.38,5.38,0,0,0-7.51,5.68Z" transform="translate(0 0)" fill="#ff8b7b"/><path d="M19.24,26.29c-3.09-.79-5.36-1.33-4.55,1.25,1.08,3.43,2.38,6.76.64,6.91-1.06.1-5.75-1.9-5.15-3.9.52-1.76-1.66-2.23-2.07-3.12-1.44-3.22,2.69-2.8,2-4.75s3.33-5.1,5.57-3.54c3.63,2.54,9.87,2.5,6.59-1.66-2.35-3,1.85-2.36,1.85-2.36s-2.54,1.5,1.73,3.82C30.32,21.4,26.19,28.06,19.24,26.29Z" transform="translate(0 0)"/><path d="M10.77,34a4.32,4.32,0,0,0,2.57,1.75c1.38.3,1.9-.94,1.39-2.18S13,30.93,11.68,31.18a1.72,1.72,0,0,0-1.28,2.06A1.69,1.69,0,0,0,10.77,34Z" transform="translate(0 0)" fill="#ff8b7b"/><path d="M31.17,82.26s3.77,33.77,4.07,46.58c.3,13.33-12.79,54.92-12.79,54.92L15.75,181s7.8-38,6.72-51.09c-1.18-14.27-6.07-47.6-6.07-47.6Z" transform="translate(0 0)" fill="#e6c125"/><path d="M21.79,91.53c3,6.24,1,18.58-.65,25.89-.62-5.16-1.35-10.76-2.05-16C19.16,93.5,19.78,87.34,21.79,91.53Z" transform="translate(0 0)" fill="#b99c21"/><path d="M16.05,178.76s-.8,2.14-.8,2.14L23,184.14l1.22-2.26Z" transform="translate(0 0)" fill="#b19522"/><path d="M23.2,82.26s-2.89,32.12-4.8,44.15c-2.1,13.17-10.33,57.06-10.33,57.06H.37S5,140.65,5.85,127.6c1-14.16,2.84-45.34,2.84-45.34Z" transform="translate(0 0)" fill="#e6c125"/><path d="M.26,181.47S0,183.62,0,183.62H8.46l.6-2.47Z" transform="translate(0 0)" fill="#b19522"/><path d="M3.2,178.93a.08.08,0,0,0,.08-.07c0-.39,4.2-39.05,5-50.77.85-12.72,2.56-40.92,2.57-41.2a.06.06,0,0,0-.06-.08h0a.07.07,0,0,0-.07.07c0,.28-1.73,28.48-2.58,41.2-.78,11.72-4.94,50.38-5,50.77,0,0,0,.07.06.08Z" transform="translate(0 0)" fill="#9f820c"/><path d="M3.08,51.21l5.8-1.54s5.7,14,7.7,14.93a120.31,120.31,0,0,1,12.61,7.62,5.76,5.76,0,0,1-.33,3c-5-.91-14.64-4.61-16.65-6.5C7.63,64.49,3.08,51.21,3.08,51.21Z" transform="translate(0 0)" fill="#ff8b7b"/><path d="M1.56,49.61C0,54.56,6,61.32,6,61.32l8.28-3.38a84.88,84.88,0,0,0-3.39-8.41C8.38,44,3.11,44.61,1.56,49.61Z" transform="translate(0 0)" fill="#068675"/><path d="M7.13,189.41a1.28,1.28,0,0,0,.8-.22.56.56,0,0,0,.17-.52.35.35,0,0,0-.18-.29c-.48-.23-1.79.6-1.94.69a.14.14,0,0,0,0,.1.11.11,0,0,0,.08.08A4.65,4.65,0,0,0,7.13,189.41Zm.57-.87a.19.19,0,0,1,.13,0,.12.12,0,0,1,.07.12.37.37,0,0,1-.11.36,2,2,0,0,1-1.49.07,3.73,3.73,0,0,1,1.4-.57Z" transform="translate(0 0)"/><path d="M6,189.26h0c.42-.24,1.21-1.16,1.09-1.63a.34.34,0,0,0-.33-.26.54.54,0,0,0-.42.13c-.46.4-.49,1.61-.5,1.66a.11.11,0,0,0,.05.09Zm.75-1.7h0c.13,0,.14.07.15.1.07.27-.43,1-.84,1.3a2.25,2.25,0,0,1,.42-1.32.31.31,0,0,1,.22-.09Z" transform="translate(0 0)"/><path d="M22,188.71a1.52,1.52,0,0,0,1.05,0,.49.49,0,0,0,.27-.42.31.31,0,0,0-.11-.3c-.45-.4-2.27,0-2.48.08a.08.08,0,0,0-.07.08.1.1,0,0,0,.07.1A7.17,7.17,0,0,0,22,188.71Zm.91-.66a.38.38,0,0,1,.17.08.13.13,0,0,1,0,.12.38.38,0,0,1-.18.28,2.78,2.78,0,0,1-1.87-.34,5.36,5.36,0,0,1,1.83-.14Z" transform="translate(0 0)"/><path d="M20.69,188.26h0c.54-.1,1.7-.75,1.7-1.23,0-.11-.05-.26-.31-.35a.73.73,0,0,0-.58,0c-.6.3-.92,1.37-.93,1.42a.08.08,0,0,0,0,.1ZM22,186.85h.06c.18.06.17.14.17.16,0,.29-.81.82-1.37,1a2.14,2.14,0,0,1,.78-1.13.5.5,0,0,1,.36,0Z" transform="translate(0 0)"/><path d="M28.73,71.89l5.82,2.68.67,1.65-2.15,1.44s-4-.43-5.16-3Z" transform="translate(0 0)" fill="#ff8b7b"/><path d="M28.48,75.37a7.93,7.93,0,0,1,1.08-3.16l-.92-.69a8.89,8.89,0,0,0-1.3,3.66Z" transform="translate(0 0)" fill="#0f264c"/><path d="M27.48,72.69A1.12,1.12,0,1,0,29,72.35l-.18-.1A1,1,0,0,0,27.48,72.69Z" transform="translate(0 0)" fill="#0f264c"/><path d="M38.48,76.74l-.77.78-5.23-2.23,2.07-.72Z" transform="translate(0 0)" fill="#ff8b7b"/><rect x="92.53" width="4.83" height="0.78" fill="#407bff"/><path d="M158.46,3.5H69.17L60.86,189.43h89.29Z" transform="translate(0 0)" fill="#068675"/><path d="M155.8,6.05H66.51L58.19,192h89.3Z" transform="translate(0 0)" fill="#fff" opacity="0.7" style="isolation:isolate"/><path d="M153.13,8.6H63.84L55.53,194.54h89.29Z" transform="translate(0 0)" fill="#e7f7f5" opacity="0.66" style="isolation:isolate"/><path d="M143,84.7H68.77l-.62,14.23h74.2Z" transform="translate(0 0)" fill="#fff"/><path d="M111.92,70.32H70.46l-.28,6.36h41.45Z" transform="translate(0 0)" fill="#068675"/><path d="M143,106.11H67.62L67,120.34h75.35Z" transform="translate(0 0)" fill="#fff"/><path d="M143,127.09H66.74l-.64,14.23h76.23Z" transform="translate(0 0)" fill="#fff"/><path d="M127.27,161.53H76l-.76,17.05h51.25Z" transform="translate(0 0)" fill="#068675" opacity="0.42" style="isolation:isolate"/><path d="M123.84,181.23H72.6a.15.15,0,0,1-.07,0,.06.06,0,0,1,0-.07l.76-17a.09.09,0,0,1,.09-.09h51.25a.07.07,0,0,1,.06,0,.09.09,0,0,1,0,.06l-.77,17.06A.09.09,0,0,1,123.84,181.23ZM72.69,181h51.07l.75-16.87H73.44Z" transform="translate(0 0)" fill="#fff"/><path d="M126.29,43.74a20,20,0,0,1-4.21,11.39,20.32,20.32,0,0,1-16,8A18.38,18.38,0,0,1,87.51,44.89c0-.38,0-.76,0-1.15a20.47,20.47,0,0,1,20.25-19.38,18.36,18.36,0,0,1,18.54,18.2A11.55,11.55,0,0,1,126.29,43.74Z" transform="translate(0 0)" fill="#fff"/><path d="M95.58,28.42a5.28,5.28,0,0,1-1.12,3,5.4,5.4,0,0,1-4.26,2.13,4.9,4.9,0,0,1-4.93-4.85c0-.1,0-.2,0-.3a5.43,5.43,0,0,1,5.38-5.15,4.88,4.88,0,0,1,4.93,4.83C95.59,28.21,95.59,28.31,95.58,28.42Z" transform="translate(0 0)" fill="#068675"/><ellipse cx="107.2" cy="37.26" rx="8.02" ry="7.67" transform="translate(4.5 85.56) rotate(-44.35)" fill="#068675" opacity="0.73" style="isolation:isolate"/><path d="M122.08,55.13a20.32,20.32,0,0,1-16,8,18.37,18.37,0,0,1-15.31-8c3.68-3.66,9.5-6,15.94-6S118.73,51.47,122.08,55.13Z" transform="translate(0 0)" fill="#068675" opacity="0.73" style="isolation:isolate"/><path d="M42.5,79.19c-.53,1.16-1.09,2.44-1.58,3.68s-1,2.51-1.41,3.79a47.58,47.58,0,0,0-2,7.7l-.13.82a1.2,1.2,0,0,0,0,.42A4.37,4.37,0,0,0,38,96.89a16.39,16.39,0,0,0,2.48,2.78,40,40,0,0,0,3.08,2.58c1.08.82,2.2,1.63,3.31,2.38l-1,2a39.77,39.77,0,0,1-7.53-4.29A18.4,18.4,0,0,1,35,99.13a7.86,7.86,0,0,1-1.33-2.38,5.14,5.14,0,0,1-.27-1.65c0-.14,0-.33,0-.42l0-.28,0-.55a43.08,43.08,0,0,1,1.83-8.56c.43-1.38.9-2.74,1.43-4.08s1.07-2.64,1.75-4Z" transform="translate(0 0)" fill="#ff8b7b"/><path d="M40,72.47c-1.81.43-3.55,7-3.55,7l7.07,4.72s2.36-5.2,1.54-7.48S42.29,71.93,40,72.47Z" transform="translate(0 0)" fill="#e6c125"/><path d="M41.38,76.71l-.49,5.73,2.63,1.76a23.25,23.25,0,0,0,1.6-5.1Z" transform="translate(0 0)" fill="#bc9b0e"/><path d="M46.13,104.3l3.94-2-1,4.34s-2.7.75-4-.56Z" transform="translate(0 0)" fill="#ff8b7b"/><path d="M53.68,103l-1,3.59-3.59,0,1-4.34Z" transform="translate(0 0)" fill="#ff8b7b"/><path d="M59.26,58.29a10.84,10.84,0,0,0,.88,2.21.89.89,0,0,1-.88.28Z" transform="translate(0 0)" fill="#ff5652"/><path d="M48.35,62.39c.51,2.6,1,7.36-.8,9.09,0,0,.71,2.63,5.54,2.63,5.31,0,2.54-2.63,2.54-2.63-2.9-.69-2.82-2.84-2.32-4.86Z" transform="translate(0 0)" fill="#ff8b7b"/><path d="M46,71.77h0a1,1,0,0,1,.81-1.12h0c2-.32,6.43-1,8.68-.67,1.67.24,2.11,1.21,2.18,2a1,1,0,0,1-.9,1.06h-.13l-9.71-.44A1,1,0,0,1,46,71.77Z" transform="translate(0 0)" fill="#a5870a"/><path d="M46.94,56.47c.27,4.34.29,6.18,2.48,8.41C52.72,68.23,58,67,59,62.62c.93-3.9.34-10.33-3.91-12.06a5.93,5.93,0,0,0-7.74,3.22A6,6,0,0,0,46.94,56.47Z" transform="translate(0 0)" fill="#ff8b7b"/><path d="M51.62,169.29l3.6,2.5,6-8.16-3.6-2.5Z" transform="translate(0 0)" fill="#ff8b7b"/><path d="M43.23,169.13l3.8,2.16,5.33-8.63-3.8-2.17Z" transform="translate(0 0)" fill="#ff8b7b"/><path d="M61.24,163.63l-3.1,4.21-3.6-2.5,3.1-4.21Z" transform="translate(0 0)" fill="#ea7063"/><path d="M48.56,160.49l3.8,2.17-2.75,4.45-3.8-2.17Z" transform="translate(0 0)" fill="#ea7063"/><path d="M63,72.6s2.09.74-2.09,26.43H43.15c.3-7.24.31-11.7-3.15-26.56a53.26,53.26,0,0,1,7.55-1,57.34,57.34,0,0,1,8.08,0C59.1,71.8,63,72.6,63,72.6Z" transform="translate(0 0)" fill="#e6c125"/><path d="M64.84,76.68c.4,1.12.83,2.32,1.27,3.48s.87,2.34,1.32,3.51l1.37,3.51.35.87.17.44.09.22s0,0,0,0a1.44,1.44,0,0,0-.39-.35,1.61,1.61,0,0,0-.73-.21,1.43,1.43,0,0,0-.62.11c-.26.12-.26.17-.25.17l.12-.13a7.57,7.57,0,0,0,.8-1.3c.27-.51.52-1.06.76-1.62.5-1.11,1-2.27,1.4-3.43s.88-2.35,1.3-3.54l1.27-3.56,2.15.54c-.42,2.55-1,5-1.63,7.55-.32,1.26-.69,2.5-1.11,3.76-.21.62-.45,1.25-.72,1.9a11.69,11.69,0,0,1-1.06,2,4.13,4.13,0,0,1-.49.6,3.05,3.05,0,0,1-1,.72,2.36,2.36,0,0,1-1.08.2,2.46,2.46,0,0,1-1.18-.35,2.93,2.93,0,0,1-1-1.06,3.1,3.1,0,0,1-.21-.39l-.11-.22-.21-.43L65,88.84c-.55-1.16-1.09-2.33-1.6-3.51s-1-2.37-1.48-3.57-.91-2.4-1.32-3.69Z" transform="translate(0 0)" fill="#ff8b7b"/><path d="M63,72.6c2.14.51,4.54,6.82,4.54,6.82l-6.35,5.42S57.1,78,57.93,75.67,60.24,71.94,63,72.6Z" transform="translate(0 0)" fill="#e6c125"/><path d="M74.07,72.91,76.3,71l1.55,2.42-1.14,2s-1.82,1.66-3.43.82h0A2.91,2.91,0,0,1,74.07,72.91Z" transform="translate(0 0)" fill="#ff8b7b"/><path d="M80.35,71.05l-.17.61-3.53.59L76.3,71Z" transform="translate(0 0)" fill="#ff8b7b"/><path d="M54.66,99s14,17.72,11.42,34.65C64,147.37,51.61,165.89,51.61,165.89L45.81,163a188.66,188.66,0,0,0,10.44-25.37A18.73,18.73,0,0,0,54,121.4C46.89,111,35.48,117.19,43.15,99Z" transform="translate(0 0)" fill="#066256"/><path d="M52.36,166.26l-7.29-3.62.75-2,7.78,3.81Z" transform="translate(0 0)" fill="#0a534a"/><path d="M61.55,110.41l-2-2c0,.16,4,24.59,5.07,31.46a40.68,40.68,0,0,0,1.5-6.16C67.37,125.39,64.66,116.91,61.55,110.41Z" transform="translate(0 0)" fill="#044a40"/><path d="M60.94,99s16.92,22.26,17.4,35.61c.4,11.19-18.44,32.79-18.44,32.79l-5.46-3.54s11-15.36,13.78-27.91C67.16,123.55,44.48,99,44.48,99Z" transform="translate(0 0)" fill="#066256"/><path d="M60.36,167.72,54,163.6l1.14-2,7.17,4.4Z" transform="translate(0 0)" fill="#0a534a"/><path d="M49.52,171a3.86,3.86,0,0,1-1.58-.54.09.09,0,0,1,0-.1.1.1,0,0,1,.07-.09c.17-.06,1.68-.52,2.11-.16a.36.36,0,0,1,.12.34.57.57,0,0,1-.32.48A.71.71,0,0,1,49.52,171Zm-1.26-.61c.69.36,1.25.49,1.52.35a.37.37,0,0,0,.2-.32.12.12,0,0,0,0-.15c-.22-.19-1.06,0-1.67.12Z" transform="translate(0 0)"/><path d="M48,170.47a.11.11,0,0,1-.11-.1,0,0,0,0,1,0,0c0-.06.36-1.27.93-1.54a.55.55,0,0,1,.47,0,.37.37,0,0,1,.25.38c0,.5-1.06,1.2-1.53,1.3ZM49.07,169a.37.37,0,0,0-.15,0c-.35.17-.63.82-.77,1.22.49-.21,1.16-.75,1.19-1.06,0,0,0-.11-.14-.17l-.13,0Z" transform="translate(0 0)"/><path d="M57.49,173.41c-.63,0-1.5-.8-2-1.3a.08.08,0,0,1,0-.11.11.11,0,0,1,.1-.06c.22,0,2.17.29,2.44.84a.35.35,0,0,1,0,.33.6.6,0,0,1-.44.3Zm-1.62-1.23c.71.69,1.33,1.07,1.68,1a.38.38,0,0,0,.29-.2.15.15,0,0,0,0-.13C57.7,172.57,56.66,172.31,55.87,172.18Z" transform="translate(0 0)"/><path d="M55.94,172.17a2.43,2.43,0,0,1-.38,0,.12.12,0,0,1-.09-.11l0-.06s.79-.95,1.5-1a.76.76,0,0,1,.58.18c.21.19.2.36.15.46C57.55,172,56.59,172.17,55.94,172.17Zm-.15-.21c.62,0,1.62-.17,1.75-.44,0,0,.05-.1-.1-.22a.53.53,0,0,0-.42-.13,2.39,2.39,0,0,0-1.23.79Z" transform="translate(0 0)"/><path d="M42.88,98l-.62,1.59c-.06.12.09.25.29.25H61c.16,0,.29-.08.3-.18l.16-1.59c0-.11-.13-.2-.3-.2h-18A.33.33,0,0,0,42.88,98Z" transform="translate(0 0)" fill="#0da591"/><path d="M45.79,100h-.48c-.1,0-.17,0-.16-.11l.23-2.07c0-.06.09-.11.18-.11H46c.11,0,.17.05.17.11L46,99.89C46,100,45.89,100,45.79,100Z" transform="translate(0 0)" fill="#177e71"/><path d="M57.18,100H56.7c-.1,0-.17,0-.17-.11l.23-2.07c0-.06.09-.11.19-.11h.48c.1,0,.17.05.16.11l-.22,2.07C57.36,100,57.28,100,57.18,100Z" transform="translate(0 0)" fill="#177e71"/><path d="M47.37,51.56c-2.17.8-5.08.2-3.94,6.92,1.21,7.11-.65,9.45-.65,9.45a44.4,44.4,0,0,0,16.69-.1s-2.58-4.5-1.85-7.78c.92-4.19.19-5.74.19-5.74S50.43,50.45,47.37,51.56Z" transform="translate(0 0)"/><path d="M56.58,58.73a4.37,4.37,0,0,0,.68,2.33c.59.9,1.29.54,1.46-.4s.05-2.33-.71-2.91S56.59,57.75,56.58,58.73Z" transform="translate(0 0)" fill="#ff8b7b"/><path d="M45.48,52.32c-.63-1.75,2.36-4.45,8.66-3.33s6.58,6.37,6.58,6.37l-1.27-1.52.06,1.6L53,56.68Z" transform="translate(0 0)"/><path d="M48.14,169.88l-4.73-1.34a.35.35,0,0,0-.42.19l-1.6,3.6a.69.69,0,0,0,.38.91l.08,0c1.66.44,2.49.56,4.57,1.15,1.28.36,3.11,1,4.88,1.53s2.36-1.23,1.67-1.59a8.55,8.55,0,0,1-4.2-4A1.17,1.17,0,0,0,48.14,169.88Z" transform="translate(0 0)"/><path d="M55.63,171.46l-4-2.81a.34.34,0,0,0-.45,0l-2.68,2.88a.69.69,0,0,0,.06,1l.07.06c1.43.95,2.16,1.34,3.94,2.57,1.09.76,3.27,2.45,4.78,3.49s2.63-.39,2.1-1a11.77,11.77,0,0,1-3.33-5.62A1.13,1.13,0,0,0,55.63,171.46Z" transform="translate(0 0)"/><ellipse cx="45.37" cy="193.45" rx="14.95" ry="1.09" fill="#e7edf2"/><path d="M54.48,191.91a35.82,35.82,0,0,1-7.36-2.81L47,189v-12h5.33a1.59,1.59,0,1,0,0-3.18H47v-54.6H43.78v54.6H38.46a1.59,1.59,0,1,0,0,3.18h5.32v12l-.16.08a36.4,36.4,0,0,1-7.36,2.81.78.78,0,0,0-.53,1,.79.79,0,0,0,.75.56H54.26a.78.78,0,0,0,.8-.76A.8.8,0,0,0,54.48,191.91Z" transform="translate(0 0)" fill="#aff8ef"/><rect x="32.55" y="113.73" width="25.63" height="11.69" rx="5.18" fill="#198678"/><path d="M35.26,125.41v1c0,.83.92,1.52,2,1.52H53.46c1.11,0,2-.69,2-1.52v-1Z" transform="translate(0 0)" fill="#2ea092"/></svg>