<svg id="Layer_1" data-name="Layer 1" xmlns="http://www.w3.org/2000/svg" viewBox="0 0 288.19 297.07"><title>ic-success-01</title><path d="M21.26,224.77v-.15h0v-.2a99.11,99.11,0,0,1-4-27.81c0-26.13,10.51-55.07,45.2-63.49C98.33,124.43,126.68,111,157,86.93,221.89,35.26,355,138.79,247.81,239.71a172.07,172.07,0,0,1-117.89,47.2C78,286.87,32.79,262.53,21.26,224.77Z" transform="translate(0.02 0)" fill="#71ab3c"/><path d="M112.24,80.71s-10.75,35.5-36.67,77.06c0,0-3.93,7,3,11.7,7.4,4.93,11.69-1.72,11.69-1.72l.34-.44c27.19-37.3,39.76-74.24,36.45-83.18S115.37,74.57,112.24,80.71Z" transform="translate(0.02 0)" fill="#d2caff"/><path d="M106.73,82.67c-5.2,20.3-20,50.54-24.61,59.57,0,0,3.93,9,10.93,13.51,11.17,7.14,16.34,3.09,16.34,3.09,8.66-24.47,24.66-56.64,24.15-73.93S110,70.08,106.73,82.67Z" transform="translate(0.02 0)" fill="#05796a"/><path d="M89.87,159.6C57.23,122.82,38.22,90.92,38.22,90.92l-9-.28a396.64,396.64,0,0,0,47.22,80.64s3.87,4.58,11-.85C94.18,165.3,90.18,160,90.18,160Z" transform="translate(0.02 0)" fill="#ff8b7b"/><path d="M42.69,98c-4.37-7.87-.85-18-9.84-21.1-4.7-1.62-9.8,10.64-22.88-5.13-3.63-4.39-3.49,11.79,8.57,16,4.2,1.47,9.85,1.17,12.39,6.71C33.74,100.63,44.91,102,42.69,98Z" transform="translate(0.02 0)" fill="#ff8b7b"/><path d="M165.83,269.34c10.54-50.34,11.52-57.87,5.51-84-2.94-12.8-45.93-7.28-48.7,17-.93,8.14-2.89,34.28-5.67,64.27A160.66,160.66,0,0,0,165.83,269.34Z" transform="translate(0.02 0)" fill="#303233"/><path d="M174.45,222.09a89.46,89.46,0,0,0,.27-17.47c-8-.93-32.83-.17-35.66-.17-1.79,0-9.77,1.6-17,3.12-1,11.4-2.8,33.82-5.14,59q5.94,1.29,12.14,2.12c.17-7.89.23-18,.37-28.74.17-13.83-3.37-14.19,5.5-12.77s22.7,1.6,22.7,1.6S167.4,225.08,174.45,222.09Z" transform="translate(0.02 0)" fill="#363636"/><path d="M200.23,262.53c2.61-45.77,2.09-53.74-7.3-77.7-4.79-12.21-46.5-.43-45.66,24,.27,7.91,2.06,32.52,3.68,61.26a169.75,169.75,0,0,0,49.28-7.56Z" transform="translate(0.02 0)" fill="#303233"/><path d="M182,226.74c9.83-.36,15.92-1.47,19.56-2.49a92.76,92.76,0,0,0-2.73-22c-13.24-.16-30.89-.27-32.21.21s-10.77,1.1-19,1.61a21.07,21.07,0,0,0-.39,4.75c.27,7.91,2.06,32.52,3.68,61.25q6.69,0,13.49-.6c-1-8-1.9-18.41-2.32-27.82C161.41,225.79,162.35,227.45,182,226.74Z" transform="translate(0.02 0)" fill="#363636"/><path d="M140.81,66.1c15.61-2.77,26.56,3.74,33.14,16.52,24.1,46.73,28.93,83.73,29.56,133.39-4.11,5.86-12.21,4.63-30.14,5.72-23.71,1.44-46.26.83-54.3-6.51,5.74-43.27,3-56.84-11.23-113.77-2-8.18-.56-18.58.38-22.36,1-4.17,7-7.64,16-10.48C124.13,68.58,138.16,66.21,140.81,66.1Z" transform="translate(0.02 0)" fill="#068675"/><path d="M103.64,46.12C88.35,48,68.12,7.49,99.4,6.29c25.1-1,34.27-15.84,48,3.89,14.33,20.62-5.6,38-7.94,50.4-2,10.82-11.68,13.74-20.31-5.1S108.13,45.55,103.64,46.12Z" transform="translate(0.02 0)"/><path d="M99.4,6.29c-31.28,1.2-11,41.74,4.24,39.83,1.81-.23,3.28-1.81,5-2.39a35.46,35.46,0,0,0-5-4.72S92.4,36.66,92.76,25.49s2.83-13.66,17.38-17.56,30.16-9.58,36.19,8S133.05,52,137.28,66.16h0a14.24,14.24,0,0,0,2.17-5.58c2.34-12.39,22.27-29.78,7.94-50.4C133.67-9.55,124.5,5.34,99.4,6.29Z" transform="translate(0.02 0)"/><path d="M101.17,30.74s-1.65,28,4.88,33.5,16.85-.34,16.85-.34,1.27,2.89,2,4.68c-.42,2-6.31,10,4.06,10.45,10.74.48,12.71-13.16,12.71-13.16s-1.8-2.32-7.65-23.25c.39-3,7.26-7.19,3.35-12.6s-8.15,2.87-8.15,2.87V17.59S110.62,31.86,101.17,30.74Z" transform="translate(0.02 0)" fill="#ff8b7b"/><path d="M96.22,148.15a1.08,1.08,0,0,1-.39,1.49,1.11,1.11,0,0,1-.69.14H71.86a2.93,2.93,0,0,1-2.48-1.63l-3.76-8.85a1.1,1.1,0,0,1,.43-1.49,1.14,1.14,0,0,1,.7-.14H90a3,3,0,0,1,2.48,1.63Z" transform="translate(0.02 0)" fill="#d32e41"/><path d="M129.76,200.82a1.08,1.08,0,0,1-.38,1.48h0a1,1,0,0,1-.69.15H84.19a2.93,2.93,0,0,1-2.47-1.63L58,145.36a1.1,1.1,0,0,1,.38-1.49,1.14,1.14,0,0,1,.7-.14h44.49a2.9,2.9,0,0,1,2.47,1.63Z" transform="translate(0.02 0)" fill="#f85063"/><path d="M152.15,90s26.42,26.05,51.14,68.33c0,0,4.4,6.75,11.77,2.75C222.88,156.84,219,150,219,150l-.24-.51c-20.38-41.38-47.21-69.69-56.7-70.93S148.18,84.39,152.15,90Z" transform="translate(0.02 0)" fill="#ff8b7b"/><path d="M156.26,99.65c13.67,16.61,28.15,37.35,34,45.68,0,0,9.13-1.51,16.35-5.62,11.53-6.55,9.23-13.48,9.23-13.48C198.2,107.15,183.38,88,166.49,72.57,157.5,64.33,141.64,81.89,156.26,99.65Z" transform="translate(0.02 0)" fill="#05796a"/><path d="M210.1,144.23c-46.13,17-82.77,23.13-82.77,23.13l-3.52,8.25a396.24,396.24,0,0,0,92.3-14.6s5.68-1.94,3.2-10.56c-2.33-8.14-8.74-6.35-8.74-6.35Z" transform="translate(0.02 0)" fill="#ff8b7b"/><path d="M135.57,165.78c-8.92,1.21-14.75-4-21.08-4.55-5-.47-19.38,2-17.18,11.86,1,4.22,5.44,10.61,18.26,7.33,4.31-1.1,7.17-4.61,13-6.44S140.05,165.16,135.57,165.78Z" transform="translate(0.02 0)" fill="#ff8b7b"/><path d="M128.65,165.52a15.24,15.24,0,0,0-6.35-6.15c-4.82-2.54-10-2.42-10.78-1.17a23.85,23.85,0,0,1,1.24,2.9c.25.72,1.5.33,2.16.56a3.51,3.51,0,0,1,1.92,2.42s3.8,1.1,4.14,1.12a5.06,5.06,0,0,0,2.68.71A26,26,0,0,0,128.65,165.52Z" transform="translate(0.02 0)" fill="#ff8b7b"/><path d="M23.13,77.36h0a7.34,7.34,0,0,1-5.21-2.16L2.21,59.75A7.37,7.37,0,1,1,12.5,49.19l0,0,.1.11,10.5,10.24L51,31.72A7.37,7.37,0,0,1,61.37,42.14l-33,33.06a7.32,7.32,0,0,1-5.21,2.16Z" transform="translate(0.02 0)" fill="#e6c125"/><path d="M37.9,172.45c-.25-1.68-.2-3.28-1.14-4.76-1.87-2.94-4.53-2.2-7.1-.9s-5.09,2.11-7.95.87c-4.45-1.92-6.54-8.64-2.29-11.8,1.38-1,2.73.67,2.55,2-.26,1.81-1.16,3.8.39,5.35,2.07,2.07,4.5.33,6.56-.6a8.59,8.59,0,0,1,6.9-.3c4,1.6,6.84,7,3.69,10.6a1,1,0,0,1-1.36,0,1,1,0,0,1-.25-.42Z" transform="translate(0.02 0)" fill="#e6c125"/><path d="M279.54,214c-.25-1.68-.2-3.28-1.14-4.76-1.88-2.94-4.53-2.2-7.11-.91s-5.09,2.11-7.94.88c-4.45-1.92-6.54-8.64-2.3-11.8,1.38-1,2.74.67,2.55,2-.25,1.81-1.15,3.8.4,5.35,2.07,2.07,4.5.33,6.56-.6a8.59,8.59,0,0,1,6.9-.3c4,1.6,6.83,7,3.69,10.6a1,1,0,0,1-1.37,0,.82.82,0,0,1-.24-.41Z" transform="translate(0.02 0)" fill="#e6c125"/><path d="M227.48,209.48c-3.07,3-4.24,7.56-1.31,11.1A8.59,8.59,0,0,0,237.72,222c8.33-6.43-.35-18.28-9.33-15.83a1.49,1.49,0,0,0,.4,2.92c2.62.15,5.44.25,7.53,2.09a5.46,5.46,0,0,1,.46,7.6c-4.9,6-13.41-2.84-8.26-8.23a.71.71,0,0,0-1-1Z" transform="translate(0.02 0)" fill="#068675"/><path d="M23.62,232.62c-3.08,2.95-4.25,7.55-1.32,11.1a8.61,8.61,0,0,0,11.56,1.38c8.33-6.42-.35-18.28-9.34-15.83a1.49,1.49,0,0,0,.4,2.92c2.63.15,5.44.25,7.54,2.09a5.46,5.46,0,0,1,.45,7.6c-4.9,6-13.4-2.84-8.26-8.23a.72.72,0,0,0,0-1,.76.76,0,0,0-1,0Z" transform="translate(0.02 0)" fill="#068675"/><path d="M97.15,271.69c2.12,7.86,4.45,15.64,6.88,23.4a2.43,2.43,0,0,0,2.86,1.93H107a2.25,2.25,0,0,0,1-.5c6.31-4.29,12.64-8.51,18.62-13.26a2.26,2.26,0,0,0-.24-3.54c-7-4.81-16.47-11.91-25.37-12-2.26,0-3.84,3.17-1.55,4.49,3.59,2.07,7.89,2.81,11.73,4.4a64.4,64.4,0,0,1,12.71,6.79c.09-1.29.18-2.58.26-3.87-6.69,4.12-13,8.73-19.35,13.33l3.76.76c-2.72-7.68-5.5-15.3-8.51-22.87-.64-1.6-3.35-.72-2.9,1Z" transform="translate(0.02 0)" fill="#e6c125"/><path d="M236.05,73.2c-2.12,7.86-4.45,15.63-6.87,23.4a2.45,2.45,0,0,1-2.93,1.87,2.38,2.38,0,0,1-1-.51c-6.32-4.29-12.64-8.51-18.62-13.26a2.26,2.26,0,0,1-.17-3.19,2.64,2.64,0,0,1,.4-.35c7-4.81,16.48-11.91,25.37-12,2.26,0,3.84,3.17,1.55,4.5-3.59,2.07-7.89,2.8-11.72,4.4a64.43,64.43,0,0,0-12.72,6.78c-.08-1.29-.17-2.58-.26-3.87,6.69,4.12,13,8.74,19.35,13.34l-3.75.75c2.71-7.68,5.5-15.3,8.51-22.86.63-1.6,3.34-.73,2.9,1Z" transform="translate(0.02 0)" fill="#e6c125"/><path d="M245.47,134.42l-1.63-1.63,1.63-1.62a2,2,0,0,0-2.76-2.76l-1.66,1.6-1.63-1.63a2,2,0,0,0-2.76,2.76l1.63,1.62-1.63,1.63a2,2,0,1,0,2.6,2.91.57.57,0,0,0,.11-.11v-.05l1.62-1.62,1.63,1.62a1.95,1.95,0,0,0,2.75-2.75Z" transform="translate(0.02 0)" fill="#e6c125"/><path d="M64.75,199.63l-1.19-1.2,1.19-1.19a1.44,1.44,0,0,0-2-2.06h0l-1.19,1.2-1.19-1.2a1.44,1.44,0,0,0-2.06,2h0l1.19,1.19-1.19,1.2a1.43,1.43,0,0,0,.3,2,1.41,1.41,0,0,0,1.7,0l1.19-1.2,1.19,1.2a1.42,1.42,0,0,0,2-.3,1.41,1.41,0,0,0,0-1.7Z" transform="translate(0.02 0)" fill="#096d5c"/><path d="M116.56,244.31l-1.19-1.19,1.19-1.2a1.44,1.44,0,1,0-2-2.11l0,.05h0l-1.19,1.2-1.2-1.2a1.44,1.44,0,0,0-2.06,2h0l1.2,1.2-1.2,1.19a1.44,1.44,0,0,0,0,2,1.42,1.42,0,0,0,2,0l1.2-1.19,1.19,1.19a1.42,1.42,0,0,0,2-.3,1.41,1.41,0,0,0,0-1.7Z" transform="translate(0.02 0)" fill="#e6c125"/><path d="M69.42,236a4,4,0,1,0-4,4h0A4,4,0,0,0,69.42,236Z" transform="translate(0.02 0)" fill="#096d5c"/><path d="M226.58,175.9a2.75,2.75,0,1,0-2.75,2.75h0a2.75,2.75,0,0,0,2.75-2.75Z" transform="translate(0.02 0)" fill="#096d5c"/></svg>