<svg id="Layer_1" data-name="Layer 1" xmlns="http://www.w3.org/2000/svg" xmlns:xlink="http://www.w3.org/1999/xlink" viewBox="0 0 316.23 184.66"><defs><clipPath id="clip-path" transform="translate(0 0.02)"><path d="M276.69,35.28H215.82a10.18,10.18,0,0,0-10.14,10.14v126a10.18,10.18,0,0,0,10.14,10.14h60.87a10.18,10.18,0,0,0,10.14-10.14v-126a10.18,10.18,0,0,0-10.14-10.14" fill="none"/></clipPath><clipPath id="clip-path-2" transform="translate(0 0.02)"><path d="M276.69,43.82a5.32,5.32,0,0,1,5.3,5.3V163.58a5.33,5.33,0,0,1-5.3,5.31H215.82a5.32,5.32,0,0,1-5.3-5.31V49.12a5.32,5.32,0,0,1,5.3-5.3Z" fill="none"/></clipPath><linearGradient id="linear-gradient" x1="-257.83" y1="387.16" x2="-257.83" y2="388.48" gradientTransform="matrix(71.48, 0, 0, -125.07, 18675.23, 48652.72)" gradientUnits="userSpaceOnUse"><stop offset="0" stop-color="#1e9df8"/><stop offset="0.12" stop-color="#40acf9"/><stop offset="0.35" stop-color="#7dc6fb"/><stop offset="0.56" stop-color="#addbfc"/><stop offset="0.75" stop-color="#cfeafe"/><stop offset="0.9" stop-color="#e4f3fe"/><stop offset="1" stop-color="#ecf7ff"/></linearGradient><clipPath id="clip-path-3" transform="translate(0 0.02)"><path d="M28.08,109.52h93.13a3,3,0,0,1,3,3v65.61a3.45,3.45,0,0,1-3.44,3.44H28.08Z" fill="none"/></clipPath><clipPath id="clip-path-4" transform="translate(0 0.02)"><path d="M95.29,136.09A5.89,5.89,0,1,1,89.4,142h0a5.89,5.89,0,0,1,5.89-5.89" fill="none"/></clipPath><clipPath id="clip-path-5" transform="translate(0 0.02)"><path d="M233.4,93.82h24.65a4.09,4.09,0,0,1,4.07,4.08v40.47a4.09,4.09,0,0,1-4.07,4.08H233.4a4.1,4.1,0,0,1-4.08-4.08V97.9a4.1,4.1,0,0,1,4.08-4.08" fill="none"/></clipPath></defs><title>ic-sbmax</title><path d="M46.05,129.42h-18C12.64,129.42,0,141.14,0,155.47s12.64,26.05,28.08,26.05H270.76c25,0,45.47-19,45.47-42.18s-20.47-42.18-45.47-42.18c-10.58,0-20.14-8-20.14-17.84s8.65-17.83,19.22-17.83h10.88c11,0,20-8.35,20-18.55s-9-18.54-20-18.54h-31c-4.28,0-7.78-3.25-7.78-7.22s3.5-7.22,7.78-7.22h5.16a5.2,5.2,0,0,0,5.37-5h0a5.2,5.2,0,0,0-5.37-5H222.76c-7.12,0-7.92,7.81-25.93,7.81h-38.7a6.8,6.8,0,0,0-7,6.5h0a6.79,6.79,0,0,0,7,6.5h6.73c5.59,0,10.16,4.24,10.16,9.42s-4.57,9.42-10.16,9.42H154.73c-27.35,0-31.21,6.63-36,19.82S78.32,73.72,78.32,73.72h-34c-8.42,0-15.3,6.39-15.3,14.2s6.89,14.2,15.3,14.2h1.75c8.1,0,14.72,6.15,14.72,13.66S54.15,129.42,46.05,129.42ZM270,10a5,5,0,1,1,5.37-5A5.18,5.18,0,0,1,270,10Z" transform="translate(0 0.02)" fill="#096d5c" fill-rule="evenodd" opacity="0.26" style="isolation:isolate"/><path d="M281.89,35.28H221a10.18,10.18,0,0,0-10.15,10.14v126A10.18,10.18,0,0,0,221,181.52h60.86A10.18,10.18,0,0,0,292,171.38v-126a10.18,10.18,0,0,0-10.15-10.14" transform="translate(0 0.02)" fill="#096d5c" fill-rule="evenodd"/><g clip-path="url(#clip-path)"><rect x="205.68" y="35.3" width="81.15" height="146.24" fill="#068675"/></g><g clip-path="url(#clip-path-2)"><rect x="210.52" y="43.84" width="71.48" height="125.07" fill="url(#linear-gradient)"/></g><path d="M250.84,40.45a.64.64,0,0,0,0-1.27H239a.64.64,0,0,0,0,1.27ZM253,39.18a.64.64,0,0,0-.05,1.27h.6a.64.64,0,0,0,0-1.27Z" transform="translate(0 0.02)" fill="#fff" fill-rule="evenodd"/><path d="M241.28,172.7h10.88a2.31,2.31,0,0,1,2.29,2.29h0a2.31,2.31,0,0,1-2.29,2.3H241.28A2.3,2.3,0,0,1,239,175h0a2.3,2.3,0,0,1,2.29-2.29" transform="translate(0 0.02)" fill="#096d5c" fill-rule="evenodd"/><path d="M30.39,102.27h99.42a3,3,0,0,1,2.95,3v65.61a3.44,3.44,0,0,1-3.44,3.44H28.08V104.58a2.33,2.33,0,0,1,2.31-2.31" transform="translate(0 0.02)" fill="#068675" fill-rule="evenodd"/><path d="M31.68,105.17v66.2h97.6a.57.57,0,0,0,.59-.54V105.22a.06.06,0,0,0-.06,0Z" transform="translate(0 0.02)" fill="#096d5c" fill-rule="evenodd"/><path d="M40.12,95.93a16.64,16.64,0,1,1,27.06,16l-25.52-5.08a16.54,16.54,0,0,1-1.54-10.88" transform="translate(0 0.02)" fill="#e58927"/><path d="M39.38,94.58a16.64,16.64,0,1,1,25.81,16.91L41.7,106.82a16.63,16.63,0,0,1-2.32-12.24" transform="translate(0 0.02)" fill="#ffef95"/><path d="M39.79,95.23A16.64,16.64,0,1,1,66.21,111.7l-24.5-4.88a16.61,16.61,0,0,1-1.92-11.58" transform="translate(0 0.02)" fill="#fbca0d"/><path d="M39.79,95.23l0-.14,32.63,6.49s0,.1,0,.15a16.61,16.61,0,0,1-6.21,10l-24.5-4.87a16.58,16.58,0,0,1-1.93-11.59" transform="translate(0 0.02)" fill="#ffd915"/><path d="M42.26,95.72A14.12,14.12,0,1,1,62.66,111l-17.39-3.46A14.1,14.1,0,0,1,42.26,95.72Z" transform="translate(0 0.02)" fill="#fca700"/><path d="M42.26,95.72A14.12,14.12,0,1,1,62.66,111l-17.39-3.46A14.1,14.1,0,0,1,42.26,95.72Z" transform="translate(0 0.02)" fill="none" stroke="#fca700" stroke-miterlimit="10" stroke-width="0.22"/><path d="M65.71,88.1a15.16,15.16,0,0,1,2.1,10.2C65.17,111.53,52,112,43,103.6a14,14,0,0,0,2.34,3.93L62.63,111A14.13,14.13,0,0,0,65.7,88.1" transform="translate(0 0.02)" fill="#ec830e"/><path d="M44.44,97.47a12.47,12.47,0,0,1,23.4-3.09,12.47,12.47,0,0,0-23.62,8,13.65,13.65,0,0,0,.63,1.53,12.39,12.39,0,0,1-.41-6.42" transform="translate(0 0.02)" fill="#ffd915"/><g clip-path="url(#clip-path-3)"><rect x="28.08" y="109.54" width="96.08" height="72" fill="#068675"/></g><path d="M30.92,178.25V179H29.77v-.74Zm2.06,0V179H31.83v-.74Zm2.07,0V179H33.89v-.74Zm2.06,0V179H36v-.74Zm2.06,0V179H38v-.74Zm2.06,0V179H40.08v-.74Zm2.06,0V179H42.14v-.74Zm2.07,0V179H44.2v-.74Zm2.06,0V179H46.26v-.74Zm2.06,0V179H48.33v-.74Zm2.06,0V179H50.39v-.74Zm2.06,0V179H52.45v-.74Zm2.07,0V179H54.51v-.74Zm2.06,0V179H56.57v-.74Zm2.06,0V179H58.64v-.74Zm2.06,0V179H60.7v-.74Zm2.06,0V179H62.76v-.74Zm2.07,0V179H64.82v-.74Zm2.06,0V179H66.88v-.74Zm2.06,0V179H68.94v-.74Zm2.06,0V179H71v-.74Zm2.06,0V179H73.07v-.74Zm2.07,0V179H75.13v-.74Zm2.06,0V179H77.19v-.74Zm2.06,0V179H79.26v-.74Zm2.06,0V179H81.32v-.74Zm2.06,0V179H83.38v-.74Zm2.07,0V179H85.44v-.74Zm2.06,0V179H87.5v-.74Zm2.06,0V179H89.57v-.74Zm2.06,0V179H91.63v-.74Zm2.06,0V179H93.69v-.74Zm2.07,0V179H95.75v-.74Zm2.06,0V179H97.81v-.74Zm2.06,0V179H99.88v-.74Zm2.06,0V179h-1.15v-.74Zm2.06,0V179H104v-.74Zm2.07,0V179h-1.16v-.74Zm2.06,0V179h-1.16v-.74Zm2.06,0V179h-1.15v-.74Zm2.06,0V179h-1.15v-.74Zm2.06,0V179h-1.15v-.74Zm2.07,0V179h-1.16v-.74Zm2.06,0V179h-1.16v-.74Zm1.15,0h.05l0,0h0l0,0h0v0h0v0l0-.16.73.12,0,.2,0,.07,0,.07,0,.05,0,.07-.05.08,0,.06,0,.05-.05.05-.08.07,0,0-.07,0,0,0-.08,0-.1,0h-.42v-.74h.25Zm.15-2.31h.74v1.15h-.74Zm0-2.07h.74V175h-.74Zm0-2.06h.74V173h-.74Zm0-2.06h.74v1.16h-.74Zm0-2.06h.74v1.15h-.74Zm0-2.06h.74v1.15h-.74Zm0-2.07h.74v1.16h-.74Zm0-2.06h.74v1.16h-.74Zm0-2.06h.74v1.15h-.74Zm0-2.06h.74v1.15h-.74Zm0-2.06h.74v1.15h-.74Zm0-2.07h.74v1.16h-.74Zm0-2.06h.74v1.16h-.74Zm0-2.06h.74v1.15h-.74Zm0-2.06h.74v1.15h-.74Zm0-2.06h.74v1.15h-.74Zm0-2.07h.74v1.16h-.74Zm0-2.06h.74V142h-.74Zm0-2.06h.74V140h-.74Zm0-2.06h.74v1.15h-.74Zm0-2.06h.74v1.15h-.74Zm0-2.07h.74v1.16h-.74Zm0-2.06h.74v1.16h-.74Zm0-2.06h.74v1.15h-.74Zm0-2.06h.74v1.15h-.74Zm0-2.06h.74v1.15h-.74Zm0-2.07h.74v1.16h-.74Zm0-2.06h.74v1.16h-.74Zm0-2.06h.74v1.15h-.74Zm0-2.06h.74v1.15h-.74Zm0-2.06h.74v1.15h-.74Zm-2.12-1.28v-.75h1.15v.75Zm-2.07,0v-.75h1.16v.75Zm-2.06,0v-.75h1.16v.75Zm-2.06,0v-.75h1.15v.75Zm-2.06,0v-.75h1.15v.75Zm-2.06,0v-.75h1.15v.75Zm-2.07,0v-.75h1.16v.75Zm-2.06,0v-.75h1.16v.75Zm-2.06,0v-.75h1.15v.75Zm-2.06,0v-.75h1.15v.75Zm-2.06,0v-.75H99.3v.75Zm-2.07,0v-.75h1.16v.75Zm-2.06,0v-.75h1.16v.75Zm-2.06,0v-.75h1.15v.75Zm-2.06,0v-.75h1.15v.75Zm-2.06,0v-.75H89v.75Zm-2.07,0v-.75h1.16v.75Zm-2.06,0v-.75h1.16v.75Zm-2.06,0v-.75H82.8v.75Zm-2.06,0v-.75h1.15v.75Zm-2.06,0v-.75h1.15v.75Zm-2.07,0v-.75h1.16v.75Zm-2.06,0v-.75h1.16v.75Zm-2.06,0v-.75h1.15v.75Zm-2.06,0v-.75h1.15v.75Zm-2.06,0v-.75h1.15v.75Zm-2.07,0v-.75h1.16v.75Zm-2.06,0v-.75h1.15v.75Zm-2.06,0v-.75h1.15v.75Zm-2.06,0v-.75h1.15v.75Zm-2.06,0v-.75h1.15v.75Zm-2.07,0v-.75H56v.75Zm-2.06,0v-.75h1.16v.75Zm-2.06,0v-.75h1.15v.75Zm-2.06,0v-.75h1.15v.75Zm-2.06,0v-.75h1.15v.75Zm-2.07,0v-.75h1.16v.75Zm-2.06,0v-.75h1.16v.75Zm-2.06,0v-.75h1.15v.75Zm-2.06,0v-.75H39.5v.75Zm-2.07,0v-.75h1.16v.75Zm-2.06,0v-.75h1.16v.75Zm-2.06,0v-.75h1.16v.75Zm-2.06,0v-.75h1.15v.75Zm91.54.37h-.75v-.37h-.06v-.75c.73,0,.81-.19.81,1.11Z" transform="translate(0 0.02)" fill="#71ab3c" fill-rule="evenodd"/><path d="M95.1,132.74h40.21a2,2,0,0,1,2,2v14.62a2,2,0,0,1-2,2H95.1A9.3,9.3,0,0,1,85.82,142h0a9.31,9.31,0,0,1,9.28-9.28" transform="translate(0 0.02)" fill="#096d5c" fill-rule="evenodd"/><path d="M13.16,181.52H307a1.56,1.56,0,0,1,1.56,1.56h0a1.56,1.56,0,0,1-1.56,1.56H13.16a1.56,1.56,0,0,1-1.56-1.56h0a1.56,1.56,0,0,1,1.56-1.56" transform="translate(0 0.02)" fill="#096d5c" fill-rule="evenodd"/><path d="M163.8,89.05c-2.1,4.65-4.7,9-10.69,9.89-4.86.73-22.16-5.36-22.81-9.74s2.32-5.08,2.32-5.08,17.06,5.65,18.36,5.22c1-.33,5.74-4.83,8.66-7.5.62-.57,5.06,5.21,4.16,7.21" transform="translate(0 0.02)" fill="#000446" fill-rule="evenodd"/><path d="M153,181.56H167.9a1.37,1.37,0,0,0,1.36-1.19.93.93,0,0,0,0-.29l-.6-7.81a8.56,8.56,0,0,0-1.48-.49,1.47,1.47,0,0,1-1.1-1l0-.11c-.35-1.5-2.51-2-2.91-.51-.05.18-.1.37-.14.55a.59.59,0,0,0,0,.13c-.07.31-.11.61-.15.86h0a7.69,7.69,0,0,0-.07,1.07c-.2.25-.39.49-.57.74l-.28.35-.57.74-.26.33-.61.73a4,4,0,0,1-.28.3,4.24,4.24,0,0,1-2.45,1.48c-1.62.23-4.25.4-5.52,2.77a1,1,0,0,0-.07.15.92.92,0,0,0,.6,1.15.86.86,0,0,0,.28,0" transform="translate(0 0.02)" fill="#630"/><path d="M153,181.56H167.9a1.37,1.37,0,0,0,1.36-1.19H152.15a.92.92,0,0,0,.6,1.15.86.86,0,0,0,.28,0" transform="translate(0 0.02)" fill="#000446"/><path d="M165.39,79.62h11.36c2.75,0,6.71,1.38,8.37,3.33,2.39,2.79,1.46,34,.73,38.39l-.83.59c0,17.4,2.51,35.82,1.63,52.47l-6.87.08L171,131.26l-4.18-9.16-7.15-.57-1.93-.26,1.88-39.43a8.9,8.9,0,0,1,5.75-2.22" transform="translate(0 0.02)" fill="#000446" fill-rule="evenodd"/><path d="M165.39,79.62h1.88l.24,2.78,1.6,25.6-6.4-20.27,2.14-2.13-1.6-1.6,1.6-4.36.54,0" transform="translate(0 0.02)" fill="#464878" fill-rule="evenodd"/><path d="M178.18,89.87c-1.12-2.34-.26-6.92,2.13-8a3.62,3.62,0,0,1,3.16-.24c6.58,3.69,17.43,44,.73,38.21-2.55-.89-3.78-25.37-6-30" transform="translate(0 0.02)" fill="#000446" fill-rule="evenodd"/><path d="M174.6,79.62,174,82.14,169.11,108l9-20-1.84-2.39L178,84.27,177,79.62a18.58,18.58,0,0,0-2.36,0" transform="translate(0 0.02)" fill="#464878" fill-rule="evenodd"/><path d="M166.51,79.63c-.75,5.64,2,22.21,2.6,28.38.2-.49,5.48-24,6-28.38H170a28.69,28.69,0,0,0-3.47,0" transform="translate(0 0.02)" fill="#fff" fill-rule="evenodd"/><path d="M167.74,97.29c.55,4.31,1.12,8.31,1.37,10.72l.09-.32.37-1.27c.5-2,1.32-5.68,2.19-9.7l-1-9.75.75-1.56-1.4-1.61-1.4,1.64.78,1.51Z" transform="translate(0 0.02)" fill="#f06" fill-rule="evenodd"/><path d="M163.5,74c-.4,2.65,2.64,4.67,4.71,4.49v1.21l-.11.15c-.72,1.88,1.31,3.08,2,3.73.62-.47,3.91-1.37,4-4h-.14V75.07a2.67,2.67,0,0,0,.46-.2,1.6,1.6,0,0,0,.51-1.66c-.12-.7-1.1-.22-1.1-.22h0c.85-2.08,1.93-3.86-.25-5S167,66.91,167,66.91l-2.63-.27c.71,1.13-.62,5.61-.88,7.37" transform="translate(0 0.02)" fill="#f9c4c7" fill-rule="evenodd"/><path d="M172.09,76.48c-.93,2.47-1.8,3.39-3.88,3.67V78.47a7.32,7.32,0,0,0,3.88-2" transform="translate(0 0.02)" fill="#f28085" fill-rule="evenodd"/><path d="M158.72,121.4l13.65-.06-2.49,53.23-8.64.28Z" transform="translate(0 0.02)" fill="#000446" fill-rule="evenodd"/><path d="M177.28,180.17c.13,2.17,7.82,1.42,9.05.77a1.47,1.47,0,0,0,.71-1.32,9.19,9.19,0,0,0-.59-3.07c-.5-1.53-.43-1.5-.77-2.55,0,0,.09-1.7-2.43-2.35s-3.44,3.59-3.87,4.4-1.93,1.77-2.09,3.6a4.69,4.69,0,0,0,0,.53" transform="translate(0 0.02)" fill="#630"/><path d="M177.38,180.93c.15,1.4,7.72,1.26,9,.61.47-.25.67-1.19.71-1.77a10,10,0,0,1-4.36.94,11.86,11.86,0,0,1-5.39-.91c0,.16.08.95.09,1.13" transform="translate(0 0.02)" fill="#000446"/><rect x="176.58" y="94.69" width="5.87" height="1.07" fill="#464878"/><path d="M164.81,68.05c2.07.34,5.67-.08,7.29,1.44.8.75.79,1.71.21,3.65-.17.57-.44,1,.43.47.41-.24,1.07-.6,1.33-.43a1.12,1.12,0,0,1,.1,1.56l-.08.08c-.17.15-.51.38-.51.38a2.55,2.55,0,0,0,2.13-.54c1-.82,4-3.3,3.4-6.87-2.32-14.12-23.11-4.91-14.3.26" transform="translate(0 0.02)" fill="#000446" fill-rule="evenodd"/><path d="M160.58,99.89A15.08,15.08,0,1,1,171.83,118a15.08,15.08,0,0,1-11.25-18.12" transform="translate(0 0.02)" fill="#e58927"/><path d="M160,98.64a15.08,15.08,0,1,1,11.25,18.13h0A15.08,15.08,0,0,1,160,98.65h0" transform="translate(0 0.02)" fill="#ffef95"/><path d="M160.3,99.25a15.08,15.08,0,1,1,11.25,18.12A15.08,15.08,0,0,1,160.3,99.25h0" transform="translate(0 0.02)" fill="#fbca0d"/><path d="M160.3,99.25l0-.13L189.7,106l0,.13a15.08,15.08,0,1,1-29.37-6.87" transform="translate(0 0.02)" fill="#ffd915"/><path d="M162.52,99.77a12.8,12.8,0,1,1,9.55,15.38,12.8,12.8,0,0,1-9.55-15.38h0" transform="translate(0 0.02)" fill="#f9aa28"/><path d="M184,93.57a13.69,13.69,0,0,1,1.6,9.31c-2.79,11.91-14.74,11.92-22.68,4A12.8,12.8,0,1,0,184,93.57" transform="translate(0 0.02)" fill="#ec9b1a"/><path d="M164.44,101.42a11.29,11.29,0,0,1,21.29-2.09,11.3,11.3,0,1,0-21.64,6.49,10.08,10.08,0,0,0,.53,1.42,11.27,11.27,0,0,1-.18-5.82" transform="translate(0 0.02)" fill="#ffd915"/><path d="M186.07,114.07a.89.89,0,0,0-.68,0l-.91.88-1.66-2.15a.69.69,0,0,0-.34.88,13.21,13.21,0,0,1,.48,2l-1.36-2a.49.49,0,0,0-.36.56c.08.44.51,1.91.51,1.91l-1.54-1.66a4.55,4.55,0,0,0,.4,1.42,5.24,5.24,0,0,1,.42.9l-1.55-1.16s.9,1.66.94,1.71c1.32,1.52,2.85,1.74,4.18.58.42-.36,1.77-3.7,1.47-3.83" transform="translate(0 0.02)" fill="#f9c4c7" fill-rule="evenodd"/><path d="M96.52,96.33a19.32,19.32,0,1,1,24.86,11.33h0A19.32,19.32,0,0,1,96.52,96.33" transform="translate(0 0.02)" fill="#e58927"/><path d="M95,95.45a19.32,19.32,0,1,1,24.86,11.33h0A19.31,19.31,0,0,1,95,95.45h0" transform="translate(0 0.02)" fill="#ffef95"/><path d="M95.77,95.84a19.32,19.32,0,1,1,24.85,11.33A19.32,19.32,0,0,1,95.77,95.84" transform="translate(0 0.02)" fill="#fbca0d"/><path d="M95.77,95.84l-.06-.16L131.9,82.16l.06.15A19.32,19.32,0,1,1,95.77,95.84" transform="translate(0 0.02)" fill="#ffd915"/><path d="M98.51,94.82a16.39,16.39,0,1,1,21.1,9.61,16.39,16.39,0,0,1-21.1-9.61Z" transform="translate(0 0.02)" fill="#fca700"/><path d="M98.51,94.82a16.39,16.39,0,1,1,21.1,9.61,16.39,16.39,0,0,1-21.1-9.61Z" transform="translate(0 0.02)" fill="none" stroke="#fca700" stroke-miterlimit="10" stroke-width="0.22"/><path d="M117,73a17.52,17.52,0,0,1,8.31,8.79c5.48,14.67-7.25,23.16-21.3,20.41A16.4,16.4,0,1,0,117,73" transform="translate(0 0.02)" fill="#ec830e"/><path d="M101.73,95.22a14.47,14.47,0,0,1,21.21-17.35,14.47,14.47,0,1,0-16.89,23.43,14.37,14.37,0,0,1-4.32-6.08" transform="translate(0 0.02)" fill="#ffd915"/><path d="M69.78,109.52a15.76,15.76,0,0,1,30.72,0Z" transform="translate(0 0.02)" fill="#e58927"/><path d="M68.63,109.52a15.76,15.76,0,0,1,31.15,0Z" transform="translate(0 0.02)" fill="#ffef95"/><path d="M69.23,109.52a15.75,15.75,0,0,1,31,0Z" transform="translate(0 0.02)" fill="#fbca0d"/><path d="M71.66,109.52a13.37,13.37,0,0,1,26.1,0Z" transform="translate(0 0.02)" fill="#fca700"/><path d="M71.66,109.52a13.37,13.37,0,0,1,26.1,0Z" transform="translate(0 0.02)" fill="none" stroke="#fca700" stroke-miterlimit="10" stroke-width="0.22"/><path d="M91.7,101a14.6,14.6,0,0,1,3.82,8.48h2.24A13.38,13.38,0,0,0,91.7,101" transform="translate(0 0.02)" fill="#ec830e"/><path d="M74.43,109.52a11.81,11.81,0,0,1,20.41-3,11.81,11.81,0,0,0-21.7,3Z" transform="translate(0 0.02)" fill="#ffd915"/><rect x="198.25" y="164.17" width="41.22" height="5.29" fill="#fda600"/><rect x="198.25" y="164.17" width="5.22" height="5.29" fill="#fda600"/><rect x="203.47" y="164.17" width="5.28" height="5.29" fill="#ffd115"/><rect x="208.76" y="164.17" width="19" height="5.29" fill="#fca700"/><rect x="227.76" y="164.17" width="7.99" height="5.29" fill="#ec830e"/><rect x="200.26" y="169.46" width="37.25" height="0.5" fill="#df641e"/><rect x="193.18" y="169.96" width="41.22" height="5.29" fill="#fda600"/><rect x="193.18" y="169.96" width="5.22" height="5.29" fill="#fda600"/><rect x="198.4" y="169.96" width="5.29" height="5.29" fill="#ffd115"/><rect x="203.68" y="169.96" width="19" height="5.29" fill="#fca700"/><rect x="222.69" y="169.96" width="7.99" height="5.29" fill="#ec830e"/><rect x="195.19" y="175.25" width="37.25" height="0.5" fill="#df641e"/><rect x="195.9" y="175.75" width="41.22" height="5.29" fill="#fda600"/><rect x="195.9" y="175.75" width="5.22" height="5.29" fill="#fda600"/><rect x="201.12" y="175.75" width="5.28" height="5.29" fill="#ffd115"/><rect x="206.41" y="175.75" width="19" height="5.29" fill="#fca700"/><rect x="225.41" y="175.75" width="7.99" height="5.29" fill="#ec830e"/><rect x="197.91" y="181.04" width="37.25" height="0.5" fill="#df641e"/><rect x="195.57" y="146.81" width="41.22" height="5.28" fill="#fda600"/><rect x="195.57" y="146.81" width="5.22" height="5.28" fill="#fda600"/><rect x="200.79" y="146.81" width="5.29" height="5.28" fill="#ffd115"/><rect x="206.08" y="146.81" width="19" height="5.28" fill="#fca700"/><rect x="225.08" y="146.81" width="7.99" height="5.28" fill="#ec830e"/><rect x="197.58" y="152.09" width="37.25" height="0.5" fill="#df641e"/><rect x="190.49" y="152.59" width="41.22" height="5.29" fill="#fda600"/><rect x="190.49" y="152.59" width="5.22" height="5.29" fill="#fda600"/><rect x="195.72" y="152.59" width="5.28" height="5.29" fill="#ffd115"/><rect x="201" y="152.59" width="19" height="5.29" fill="#fca700"/><rect x="220.01" y="152.59" width="7.99" height="5.29" fill="#ec830e"/><rect x="192.51" y="157.88" width="37.25" height="0.5" fill="#df641e"/><rect x="193.22" y="158.38" width="41.22" height="5.29" fill="#fda600"/><rect x="193.22" y="158.38" width="5.22" height="5.29" fill="#fda600"/><rect x="198.44" y="158.38" width="5.29" height="5.29" fill="#ffd115"/><rect x="203.73" y="158.38" width="19" height="5.29" fill="#fca700"/><rect x="222.73" y="158.38" width="7.99" height="5.29" fill="#ec830e"/><rect x="195.23" y="163.67" width="37.25" height="0.5" fill="#df641e"/><rect x="123.96" y="164.17" width="41.22" height="5.29" fill="#fda600"/><rect x="123.96" y="164.17" width="5.22" height="5.29" fill="#fda600"/><rect x="129.19" y="164.17" width="5.29" height="5.29" fill="#ffd115"/><rect x="134.47" y="164.17" width="19" height="5.29" fill="#fca700"/><rect x="153.48" y="164.17" width="7.99" height="5.29" fill="#ec830e"/><rect x="125.98" y="169.46" width="37.25" height="0.5" fill="#df641e"/><rect x="118.89" y="169.96" width="41.22" height="5.29" fill="#fda600"/><rect x="118.89" y="169.96" width="5.22" height="5.29" fill="#fda600"/><rect x="124.11" y="169.96" width="5.28" height="5.29" fill="#ffd115"/><rect x="129.4" y="169.96" width="19" height="5.29" fill="#fca700"/><rect x="148.4" y="169.96" width="7.99" height="5.29" fill="#ec830e"/><rect x="120.9" y="175.25" width="37.25" height="0.5" fill="#df641e"/><rect x="121.61" y="175.75" width="41.22" height="5.29" fill="#fda600"/><rect x="121.61" y="175.75" width="5.22" height="5.29" fill="#fda600"/><rect x="126.83" y="175.75" width="5.29" height="5.29" fill="#ffd115"/><rect x="132.12" y="175.75" width="19" height="5.29" fill="#fca700"/><rect x="151.12" y="175.75" width="7.99" height="5.29" fill="#ec830e"/><rect x="123.62" y="181.04" width="37.25" height="0.5" fill="#df641e"/><path d="M230.6,71.4A15.43,15.43,0,1,1,246,86.82h0A15.42,15.42,0,0,1,230.6,71.4" transform="translate(0 0.02)" fill="#00a551"/><rect x="28.08" y="105.19" width="3.6" height="4.35" fill="#254fb9"/><g clip-path="url(#clip-path-4)"><rect x="89.39" y="136.11" width="11.78" height="11.78" fill="#096d5c"/></g><path d="M35,109.52a15.75,15.75,0,0,1,22.25-1.11,14.53,14.53,0,0,1,1.11,1.11Z" transform="translate(0 0.02)" fill="#e58927"/><path d="M33.18,109.52a15.76,15.76,0,0,1,22.06-3.14,15.57,15.57,0,0,1,3.14,3.14Z" transform="translate(0 0.02)" fill="#ffef95"/><path d="M34.1,109.52a15.75,15.75,0,0,1,22.16-2.21,15.92,15.92,0,0,1,2.21,2.21Z" transform="translate(0 0.02)" fill="#fbca0d"/><path d="M37.39,109.52a13.39,13.39,0,0,1,17.79,0Z" transform="translate(0 0.02)" fill="#fca700"/><path d="M37.39,109.52a13.39,13.39,0,0,1,17.79,0Z" transform="translate(0 0.02)" fill="none" stroke="#fca700" stroke-miterlimit="10" stroke-width="0.22"/><path d="M53.28,108.09c.4.46.78.94,1.14,1.43h.78a14.07,14.07,0,0,0-1.92-1.43" transform="translate(0 0.02)" fill="#ec830e"/><path d="M43.35,109.52a11.94,11.94,0,0,1,7.43,0h1.84a11.84,11.84,0,0,0-12.88,0Z" transform="translate(0 0.02)" fill="#ffd915"/><path d="M237.08,93.82h24.65a4.1,4.1,0,0,1,4.08,4.08v40.47a4.1,4.1,0,0,1-4.08,4.08H237.08a4.09,4.09,0,0,1-4.07-4.08V97.9a4.09,4.09,0,0,1,4.07-4.08" transform="translate(0 0.02)" fill="#096d5c" fill-rule="evenodd"/><g clip-path="url(#clip-path-5)"><rect x="229.32" y="93.85" width="32.8" height="48.63" fill="#068675"/></g><rect x="244.69" y="97.62" width="4.45" height="39.94" fill="#000446"/><path d="M223.09,119.22a17.12,17.12,0,0,1,26.06-14.6v29.19a17.11,17.11,0,0,1-26.06-14.6" transform="translate(0 0.02)" fill="#e58927"/><path d="M222.07,118a17.11,17.11,0,0,1,27.07-13.92v27.84A17.11,17.11,0,0,1,222.07,118" transform="translate(0 0.02)" fill="#ffef95"/><path d="M222.61,118.58a17.12,17.12,0,0,1,26.53-14.3v28.6a17.11,17.11,0,0,1-26.53-14.3" transform="translate(0 0.02)" fill="#fbca0d"/><path d="M222.61,118.58v-.15h26.53v14.45a17.11,17.11,0,0,1-26.53-14.3" transform="translate(0 0.02)" fill="#ffd915"/><path d="M225.2,118.58a14.54,14.54,0,0,1,24-11.06v22.12a14.53,14.53,0,0,1-24-11.06Z" transform="translate(0 0.02)" fill="#fca700"/><path d="M225.2,118.58a14.54,14.54,0,0,1,24-11.06v22.12a14.53,14.53,0,0,1-24-11.06Z" transform="translate(0 0.02)" fill="none" stroke="#fca700" stroke-miterlimit="10" stroke-width="0.22"/><path d="M249.14,124.64c-4.27,6.25-13.62,6.69-21.65,1.75a14.51,14.51,0,0,0,20.06,4.41,14.15,14.15,0,0,0,1.59-1.17Zm-1.81-18.46a17.82,17.82,0,0,1,1.81,2.43v-1.1a14.78,14.78,0,0,0-1.81-1.33Z" transform="translate(0 0.02)" fill="#ec830e"/><path d="M227.75,119.91a12.82,12.82,0,0,1,21.4-9.53v-.48a12.83,12.83,0,0,0-19.7,16.4,12.86,12.86,0,0,1-1.7-6.39" transform="translate(0 0.02)" fill="#ffd915"/><rect x="260.41" y="175.75" width="41.22" height="5.29" fill="#fda600"/><rect x="260.41" y="175.75" width="5.22" height="5.29" fill="#fda600"/><rect x="265.64" y="175.75" width="5.29" height="5.29" fill="#ffd115"/><rect x="270.92" y="175.75" width="19" height="5.29" fill="#fca700"/><rect x="289.93" y="175.75" width="7.99" height="5.29" fill="#ec830e"/><rect x="262.43" y="181.04" width="37.25" height="0.5" fill="#df641e"/><path d="M93.64,137.59A2.62,2.62,0,1,1,91,140.21h0a2.62,2.62,0,0,1,2.61-2.62h0" transform="translate(0 0.02)" fill="#71ab3c" fill-rule="evenodd"/><path d="M148.65,27.79H127.59a12.91,12.91,0,0,0-12.9,12.9h0v8.59a12.91,12.91,0,0,0,12.9,12.9H143.5l5.15,4v-4a12.9,12.9,0,0,0,12.9-12.9h0V40.69a12.89,12.89,0,0,0-12.9-12.9h0" transform="translate(0 0.02)" fill="#068675" fill-rule="evenodd"/><rect x="140.41" y="41.57" width="3.02" height="13.26" fill="#fff"/><rect x="135.06" y="46.15" width="3.02" height="8.68" fill="#fff"/><rect x="129.72" y="45.16" width="3.02" height="9.67" fill="#fff"/><rect x="124.37" y="47.96" width="3.02" height="6.86" fill="#fff"/><rect x="146.28" y="37.39" width="3.02" height="17.44" fill="#fff"/><path d="M123.54,44l11-6.93,1.75,2.84,9.55-6.33-.65-1.1,3.27.39-1.19,2.9-.71-1.19-10.76,7.19-1.82-3L124.19,45Z" transform="translate(0 0.02)" fill="#fff" fill-rule="evenodd"/><path d="M115.06,92.26a.65.65,0,0,1,.1.36.72.72,0,0,1-.16.44.75.75,0,0,1-.61.24,1.2,1.2,0,0,1-.59-.15,2.35,2.35,0,0,1-1-2.23,1,1,0,0,0-.32-.76,1.31,1.31,0,0,0-.9-.28h-2.5v2.59a.91.91,0,0,1-.19.59.68.68,0,0,1-.51.23,1,1,0,0,1-.68-.24.73.73,0,0,1-.29-.58V84.75a.81.81,0,0,1,.79-.82h3.88a2.4,2.4,0,0,1,1.3.38,2.72,2.72,0,0,1,1,1,3,3,0,0,1,.36,1.47,2.62,2.62,0,0,1-.36,1.3,2.9,2.9,0,0,1-.93,1,2,2,0,0,1,.92,1.57,3,3,0,0,1,0,.42,4.08,4.08,0,0,0,.11.59.4.4,0,0,0,.24.27A.84.84,0,0,1,115.06,92.26Zm-2.54-4a1.77,1.77,0,0,0,.37-.6,2.34,2.34,0,0,0,.15-.83,1.6,1.6,0,0,0-.15-.68,1.34,1.34,0,0,0-.37-.5.7.7,0,0,0-.47-.19h-2.93v3h2.93A.66.66,0,0,0,112.52,88.27Z" transform="translate(0 0.02)" fill="#fceb3c"/><path d="M121.87,86.48a3.34,3.34,0,0,1,1.18,1.32,4.05,4.05,0,0,1,.43,1.91,4.2,4.2,0,0,1-.42,1.91A3.42,3.42,0,0,1,121.89,93a3.07,3.07,0,0,1-1.64.47,3,3,0,0,1-1.21-.26,3,3,0,0,1-.94-.64v2.62a.8.8,0,0,1-.8.82.83.83,0,0,1-.58-.23.81.81,0,0,1-.22-.59V87a.8.8,0,0,1,.22-.58.83.83,0,0,1,1.15,0,.81.81,0,0,1,.23.58V87a2.61,2.61,0,0,1,.89-.7,2.54,2.54,0,0,1,1.2-.3A3,3,0,0,1,121.87,86.48Zm-.47,4.83a2.63,2.63,0,0,0,0-3.2,1.88,1.88,0,0,0-2.83,0,2.6,2.6,0,0,0,0,3.2,1.87,1.87,0,0,0,2.64.18l.18-.18Z" transform="translate(0 0.02)" fill="#fceb3c"/><path d="M174.89,105.59a.68.68,0,0,1,.1.36.72.72,0,0,1-.15.45.8.8,0,0,1-.62.24,1.23,1.23,0,0,1-.59-.15,2.35,2.35,0,0,1-1-2.23,1,1,0,0,0-.31-.76,1.25,1.25,0,0,0-.9-.28H169v2.59a.86.86,0,0,1-.2.59.61.61,0,0,1-.51.22,1,1,0,0,1-.68-.23.72.72,0,0,1-.28-.58V98.09a.8.8,0,0,1,.78-.82H172a2.44,2.44,0,0,1,1.31.38,2.7,2.7,0,0,1,1,1,3,3,0,0,1,.37,1.46,2.67,2.67,0,0,1-.36,1.3,2.85,2.85,0,0,1-.94,1,2,2,0,0,1,.92,1.58,1.9,1.9,0,0,1,0,.41,4.21,4.21,0,0,0,.11.6.43.43,0,0,0,.24.27A.8.8,0,0,1,174.89,105.59Zm-2.54-4a1.59,1.59,0,0,0,.37-.61,2.29,2.29,0,0,0,.15-.82,1.68,1.68,0,0,0-.15-.69,1.39,1.39,0,0,0-.37-.5.72.72,0,0,0-.47-.18H169v3h2.92A.66.66,0,0,0,172.35,101.61Z" transform="translate(0 0.02)" fill="#fceb3c"/><path d="M181.7,99.82a3.31,3.31,0,0,1,1.18,1.31,4.12,4.12,0,0,1,.44,1.91,4.25,4.25,0,0,1-.43,1.92,3.25,3.25,0,0,1-1.17,1.32,3,3,0,0,1-1.64.48,2.91,2.91,0,0,1-1.2-.26,3.38,3.38,0,0,1-.95-.64v2.62a.77.77,0,0,1-.22.58.78.78,0,0,1-.58.24.81.81,0,0,1-.57-.23.78.78,0,0,1-.23-.59v-8.19a.79.79,0,0,1,.23-.58.83.83,0,0,1,1.15,0,.78.78,0,0,1,.22.58v0a2.8,2.8,0,0,1,.9-.7,2.63,2.63,0,0,1,1.2-.3A3.09,3.09,0,0,1,181.7,99.82Zm-.47,4.83a2.63,2.63,0,0,0,0-3.2,1.87,1.87,0,0,0-2.82,0,2.31,2.31,0,0,0-.55,1.6,2.35,2.35,0,0,0,.55,1.6,1.87,1.87,0,0,0,2.63.18,1.53,1.53,0,0,0,.18-.18Z" transform="translate(0 0.02)" fill="#fceb3c"/><path d="M240.1,121.52a.69.69,0,0,1,.1.37.66.66,0,0,1-.16.44.73.73,0,0,1-.61.24,1.2,1.2,0,0,1-.59-.15,2.35,2.35,0,0,1-1-2.23,1,1,0,0,0-.32-.76,1.31,1.31,0,0,0-.9-.28h-2.5v2.59a.91.91,0,0,1-.19.59.63.63,0,0,1-.51.22,1,1,0,0,1-.68-.23.73.73,0,0,1-.29-.58V114a.82.82,0,0,1,.79-.82h3.88a2.46,2.46,0,0,1,1.31.38,2.7,2.7,0,0,1,1,1,2.89,2.89,0,0,1,.36,1.47,2.52,2.52,0,0,1-.36,1.3,2.79,2.79,0,0,1-.93,1,2.05,2.05,0,0,1,.92,1.58,2,2,0,0,1,0,.41,4.21,4.21,0,0,0,.11.6.4.4,0,0,0,.24.27A.8.8,0,0,1,240.1,121.52Zm-2.54-4a1.77,1.77,0,0,0,.37-.6,2.39,2.39,0,0,0,.15-.83,1.6,1.6,0,0,0-.15-.68,1.24,1.24,0,0,0-.37-.5.7.7,0,0,0-.47-.19h-2.93v3h2.93A.66.66,0,0,0,237.56,117.54Z" transform="translate(0 0.02)" fill="#fceb3c"/><path d="M246.91,115.75a3.39,3.39,0,0,1,1.18,1.31,4,4,0,0,1,.43,1.91,4.24,4.24,0,0,1-.42,1.92,3.32,3.32,0,0,1-1.17,1.32,3,3,0,0,1-1.64.48,3,3,0,0,1-1.21-.26,3.2,3.2,0,0,1-.94-.64v2.62a.8.8,0,0,1-.8.82.83.83,0,0,1-.58-.23.81.81,0,0,1-.22-.59v-8.19a.8.8,0,0,1,.22-.58.83.83,0,0,1,1.15,0,.81.81,0,0,1,.23.58v.06a2.55,2.55,0,0,1,.9-.7,2.48,2.48,0,0,1,1.2-.3A3,3,0,0,1,246.91,115.75Zm-.47,4.83a2.63,2.63,0,0,0,0-3.2,1.88,1.88,0,0,0-2.83,0,2.36,2.36,0,0,0-.55,1.6,2.4,2.4,0,0,0,.55,1.6,1.87,1.87,0,0,0,2.64.18l.18-.18Z" transform="translate(0 0.02)" fill="#fceb3c"/><path d="M246,74.66a.75.75,0,0,1,.1.36.7.7,0,0,1-.16.44.75.75,0,0,1-.61.24,1.2,1.2,0,0,1-.59-.15,2.33,2.33,0,0,1-1-2.23,1,1,0,0,0-.32-.76,1.31,1.31,0,0,0-.9-.28h-2.5v2.59a.89.89,0,0,1-.19.59.68.68,0,0,1-.52.23,1,1,0,0,1-.67-.24.72.72,0,0,1-.29-.58V67.15a.8.8,0,0,1,.79-.81h3.87a2.49,2.49,0,0,1,1.31.37,2.88,2.88,0,0,1,1,1,3,3,0,0,1,.36,1.47,2.6,2.6,0,0,1-.36,1.3,2.91,2.91,0,0,1-.93,1,2.07,2.07,0,0,1,.92,1.57,3,3,0,0,1,0,.42,3.84,3.84,0,0,0,.11.59.44.44,0,0,0,.24.28A.73.73,0,0,1,246,74.66Zm-2.55-4a1.69,1.69,0,0,0,.38-.61,2.29,2.29,0,0,0,.15-.82,1.62,1.62,0,0,0-.15-.69,1.42,1.42,0,0,0-.38-.5.71.71,0,0,0-.46-.19h-2.93v3H243A.65.65,0,0,0,243.48,70.68Z" transform="translate(0 0.02)" fill="#fff"/><path d="M252.84,68.88A3.34,3.34,0,0,1,254,70.2a4.18,4.18,0,0,1,.43,1.91A4.08,4.08,0,0,1,254,74a3.32,3.32,0,0,1-1.16,1.33,3,3,0,0,1-2.85.21,3.17,3.17,0,0,1-.94-.63v2.61a.86.86,0,0,1-.23.59.83.83,0,0,1-1.15,0,.79.79,0,0,1-.22-.59V69.36a.81.81,0,0,1,.22-.59.83.83,0,0,1,1.15,0,.86.86,0,0,1,.23.59v0a2.77,2.77,0,0,1,.89-.7,2.51,2.51,0,0,1,1.2-.3A3,3,0,0,1,252.84,68.88Zm-.47,4.83a2.63,2.63,0,0,0,0-3.2,1.9,1.9,0,0,0-2.83,0,2.6,2.6,0,0,0,0,3.2,1.87,1.87,0,0,0,2.64.18c.06,0,.12-.12.18-.18Z" transform="translate(0 0.02)" fill="#fff"/><path d="M56.71,101.15a.75.75,0,0,1,.1.36.7.7,0,0,1-.16.44.77.77,0,0,1-.62.24,1.19,1.19,0,0,1-.58-.15,2.34,2.34,0,0,1-1-2.23,1,1,0,0,0-.31-.76,1.33,1.33,0,0,0-.9-.28h-2.5v2.59a.89.89,0,0,1-.19.59.68.68,0,0,1-.52.23,1,1,0,0,1-.67-.24.69.69,0,0,1-.29-.58V93.64a.79.79,0,0,1,.78-.81h3.88a2.52,2.52,0,0,1,1.31.37,2.77,2.77,0,0,1,1,1,2.9,2.9,0,0,1,.37,1.47,2.6,2.6,0,0,1-.36,1.3,2.93,2.93,0,0,1-.94,1,2.06,2.06,0,0,1,.93,1.57,3,3,0,0,1,0,.42,3.83,3.83,0,0,0,.1.59.51.51,0,0,0,.24.28A.69.69,0,0,1,56.71,101.15Zm-2.55-4a1.69,1.69,0,0,0,.38-.61,2.08,2.08,0,0,0,.14-.82,1.47,1.47,0,0,0-.14-.69,1.55,1.55,0,0,0-.38-.5.73.73,0,0,0-.47-.19H50.77v3h2.92A.67.67,0,0,0,54.16,97.17Z" transform="translate(0 0.02)" fill="#fceb3c"/><path d="M63.51,95.37a3.29,3.29,0,0,1,1.19,1.32,4.46,4.46,0,0,1,0,3.82,3.27,3.27,0,0,1-1.17,1.33,2.92,2.92,0,0,1-1.63.47,3,3,0,0,1-1.21-.26,3.17,3.17,0,0,1-.94-.63V104a.86.86,0,0,1-.23.59.83.83,0,0,1-1.15,0,.84.84,0,0,1-.23-.59V95.85a.86.86,0,0,1,.23-.59.83.83,0,0,1,1.15,0,.86.86,0,0,1,.23.59v.05a2.77,2.77,0,0,1,.89-.7,2.51,2.51,0,0,1,1.2-.3A3,3,0,0,1,63.51,95.37Zm-.46,4.83a2.63,2.63,0,0,0,0-3.2,1.72,1.72,0,0,0-1.41-.63,1.75,1.75,0,0,0-1.41.63,2.35,2.35,0,0,0-.55,1.6,2.4,2.4,0,0,0,.55,1.6,1.87,1.87,0,0,0,2.64.18c.06,0,.12-.12.18-.18Z" transform="translate(0 0.02)" fill="#fceb3c"/></svg>