<svg id="Layer_1" data-name="Layer 1" xmlns="http://www.w3.org/2000/svg" xmlns:xlink="http://www.w3.org/1999/xlink" viewBox="0 0 220 134"><defs><linearGradient id="linear-gradient" x1="-308.23" y1="363.13" x2="-307.85" y2="362.92" gradientTransform="matrix(210.21, 0, 0, -130.71, 64856.67, 47517.23)" gradientUnits="userSpaceOnUse"><stop offset="0" stop-color="#71ab3c"/><stop offset="1" stop-color="#068675"/></linearGradient></defs><title>ic-verifikasi</title><path d="M149.55,132.42a49.11,49.11,0,0,1-29.53-21A49.26,49.26,0,0,0,73.33,96.61,49.63,49.63,0,1,1,91.27,25.07a49.53,49.53,0,0,0,11.8,9.43,49.35,49.35,0,0,0,11,4.65A48.59,48.59,0,0,0,129.17,41a49.49,49.49,0,0,0,14.76-2.77h0a49.4,49.4,0,1,1,5.63,94.15Z" transform="translate(0 0)" fill="url(#linear-gradient)"/><path d="M87,57.94a6.73,6.73,0,0,1,.68-2.82c1.1-1.74,2.68-1.3,4.2-.53s3,1.25,4.7.52c2.64-1.15,3.88-5.12,1.36-7-.81-.61-1.62.39-1.51,1.16.16,1.07.69,2.24-.23,3.16-1.22,1.23-2.66.2-3.89-.35a5,5,0,0,0-4.08-.18c-2.35,1-4,4.13-2.19,6.28a.57.57,0,0,0,.81,0,.55.55,0,0,0,.15-.24Z" transform="translate(0 0)" fill="#e6c125"/><path d="M78.73,34.13c-1.82,1.75-2.51,4.47-.78,6.57a5.1,5.1,0,0,0,6.85.82c4.93-3.81-.21-10.83-5.53-9.37a.88.88,0,0,0,.23,1.72c1.56.09,3.22.15,4.46,1.24a3.23,3.23,0,0,1,.27,4.5c-2.9,3.57-7.94-1.68-4.89-4.87a.43.43,0,0,0-.61-.61Z" transform="translate(0 0)" fill="#068675"/><path d="M1.53,73.41c1.26,4.66,2.64,9.26,4.07,13.87a1.46,1.46,0,0,0,2.35.8c3.74-2.54,7.48-5,11-7.85a1.34,1.34,0,0,0,.09-1.89,1.51,1.51,0,0,0-.23-.21c-4.15-2.84-9.76-7-15-7.08-1.34,0-2.27,1.88-.91,2.66C5,74.94,7.57,75.37,9.84,76.32a37.83,37.83,0,0,1,7.53,4l.15-2.3c-4,2.44-7.69,5.18-11.46,7.9l2.23.45c-1.61-4.55-3.26-9.06-5-13.54A.92.92,0,0,0,2,72.46a.94.94,0,0,0-.48,1Z" transform="translate(0 0)" fill="#e6c125"/><path d="M.45,53.72a58.22,58.22,0,0,0,10,.65.92.92,0,0,0,0-1.84,57.27,57.27,0,0,0-9.8,0c-.64,0-.9,1.11-.16,1.22Z" transform="translate(0 0)" fill="#068675"/><path d="M22.24,48.36l-.17-.14a1.87,1.87,0,0,0-2.65,2.65l.15.16a1.88,1.88,0,1,0,2.68-2.65v0Z" transform="translate(0 0)" fill="#e6c125"/><path d="M65.35,77.72H40.79a6.6,6.6,0,0,1-6.6-6.6h0V18.87A18.87,18.87,0,0,1,53.07,0h0A18.87,18.87,0,0,1,72,18.87V71.12A6.59,6.59,0,0,1,65.35,77.72Z" transform="translate(0 0)"/><path d="M86.09,79.72l-5.66,7.11-19-7.75,5.24-5.75Z" transform="translate(0 0)" fill="#e37a6c"/><path d="M67.64,70.67c.5,4.64,1.8,23.77,1.8,23.77-15.34,8.18-34.37,2.76-37.29-.62a32.67,32.67,0,0,1,8.62-14.66l-5-13.87s-.6-1.42-.59-1.43c.3-.52,7.73-7.2,4.07-17.78A2.67,2.67,0,0,1,41,42.7a2.28,2.28,0,0,1,.64-.13l4.4-.36,12-.35c2.86.16,4.89.43,4.89.43,1.84,1.71,4.72,6.42,6.59,11.21C70.64,56.59,72,61.52,67.64,70.67Z" transform="translate(0 0)" fill="#068675"/><path d="M39,70.3l1.75-6.78,2.16,15.65-4.38,2.44,2.24-2.45L38.5,72.84Z" transform="translate(0 0)" fill="#068675"/><path d="M39,70.3l1.75-6.78,2.16,15.65-4.38,2.44,2.24-2.45L38.5,72.84Z" transform="translate(0 0)" fill="#068675" opacity="0.2" style="isolation:isolate"/><path d="M65.21,8.22c2,1.18,4.46,6.19,4.21,16.71-.2,8.91-3.09,11.11-4.54,11.75s-4.25.24-7-.21v5.35s3.76,4.36,3.52,6.82-5.42,3-8.94.63S46,42.21,46,42.21l.06-12.3s-1.6,1.55-4.31-.82c-2.24-2-3-5.26-1.25-7a3.89,3.89,0,0,1,5.51.19,4,4,0,0,1,.7,1s4.34.16,10.11-3A16.23,16.23,0,0,0,65.21,8.22Z" transform="translate(0 0)" fill="#ff8b7b"/><g opacity="0.5"><path d="M59.77,30.24l2.6.83a1.34,1.34,0,0,1-1.64,1h0A1.44,1.44,0,0,1,59.77,30.24Z" transform="translate(0 0)" fill="#ff8b7b"/></g><g opacity="0.5"><path d="M62.85,21.24,63,28l3.55-1.1Z" transform="translate(0 0)" fill="#ff8b7b"/></g><g opacity="0.5"><path d="M57.91,36.47c-2.86-.37-8.76-2.07-9.68-4.4a6.06,6.06,0,0,0,2.07,3c1.76,1.5,7.61,3.21,7.61,3.21Z" transform="translate(0 0)" fill="#ff8b7b"/></g><path d="M22.67,87.51c.07-1,1.87-11.24,3.11-17l12.09,3.71-1.94,8.06L25.87,92A4,4,0,0,1,22.67,87.51Z" transform="translate(0 0)" fill="#ff8b7b"/><path d="M41.61,42.57c-4.64.4-10.76,1.1-13.67,14.3-2.72,12.37-3.4,16.7-3.4,16.7s3.58,4.52,12.81,4l3.4-14.08C46.93,55.38,44.94,49.55,41.61,42.57Z" transform="translate(0 0)" fill="#047868"/><path d="M80.7,77.93c1.66-3.09,2.07-3.22,3.06-3.9s7-1.58,9.56-1.79c3-.25,4,.29,3.19,2.84-1.76,5.44-7.1,17-8.3,18.6-.78,1-.94,2-4.27,2.34-3.1.3-7,.47-8.15.54s-2.73.36-1.7-3a109.94,109.94,0,0,1,4.54-11.21C79.91,79.55,80.7,77.93,80.7,77.93Z" transform="translate(0 0)" fill="#263238"/><path d="M35.93,82.28S62.8,85.12,66.28,84,74.43,79.48,77,78s4.32-1.56,4.32-1S79.12,81,78.63,82.32s2.32,1.36,6,.51,5.16-3,6.12-1.73-2,7.37-8.16,9.65-10.65.77-15.7,1-34,2.47-41,.26a6.19,6.19,0,0,1,2.42-6A21.5,21.5,0,0,1,35.93,82.28Z" transform="translate(0 0)" fill="#ff8b7b"/><path d="M210.63,54.66a6.64,6.64,0,0,1-.68,2.8c-1.1,1.74-2.67,1.3-4.19.53s-3-1.24-4.68-.51c-2.62,1.13-3.86,5.1-1.35,7,.81.6,1.61-.39,1.5-1.15-.15-1.06-.68-2.24.23-3.15,1.22-1.23,2.65-.2,3.87.35a5.06,5.06,0,0,0,4.07.18c2.34-.95,4-4.12,2.17-6.26a.57.57,0,0,0-.8,0,.61.61,0,0,0-.15.24Z" transform="translate(0 0)" fill="#e6c125"/><path d="M132.89,103c1.81-1.74,2.5-4.45.77-6.54a5.07,5.07,0,0,0-6.81-.82c-4.91,3.79.2,10.78,5.5,9.33a.88.88,0,0,0,.59-1.1.89.89,0,0,0-.82-.62c-1.55-.09-3.21-.15-4.45-1.23a3.22,3.22,0,0,1-.26-4.48c2.88-3.55,7.9,1.68,4.87,4.85a.43.43,0,0,0,0,.61.42.42,0,0,0,.59,0Z" transform="translate(0 0)" fill="#068675"/><path d="M142.77,131.65c-1.25-4.64-2.62-9.22-4.05-13.8a1.44,1.44,0,0,0-1.72-1.1,1.35,1.35,0,0,0-.61.3c-3.73,2.53-7.45,5-11,7.82a1.32,1.32,0,0,0-.1,1.87,1.21,1.21,0,0,0,.24.21c4.13,2.84,9.71,7,15,7,1.34,0,2.27-1.87.92-2.65-2.12-1.22-4.65-1.65-6.91-2.6a37,37,0,0,1-7.5-4l-.15,2.29c3.94-2.43,7.65-5.15,11.41-7.87l-2.22-.44c1.6,4.53,3.24,9,5,13.48a.91.91,0,0,0,1.7-.56Z" transform="translate(0 0)" fill="#e6c125"/><path d="M210.85,83.54a57.76,57.76,0,0,0-9.92-.65.92.92,0,1,0,0,1.83,56.69,56.69,0,0,0,9.75,0C211.32,84.7,211.58,83.64,210.85,83.54Z" transform="translate(0 0)" fill="#068675"/><path d="M189.15,88.87l.17.14A1.87,1.87,0,0,0,192,86.37l-.15-.16a1.88,1.88,0,0,0-2.66,2.66Z" transform="translate(0 0)" fill="#e6c125"/><path d="M166.1,101.88v21q-6-1.18-12.15-3v-18Z" transform="translate(0 0)" fill="#639832"/><rect x="153.95" y="101.88" width="12.15" height="4.58" fill="#3f6c15"/><path d="M140.44,61.11h0a16,16,0,0,1,16.05,16h0v24.72h-32.1V77.16A16,16,0,0,1,140.44,61.11Z" transform="translate(0 0)" fill="#264c75"/><path d="M163.83,70.76V91.49a2.63,2.63,0,0,1-2.63,2.63h-38a2.62,2.62,0,0,1-2.62-2.63V70.76l21.6,12.74Z" transform="translate(0 0)" fill="#f79831"/><path d="M163.1,93.3,149.19,79.39l-7,4.11-7-4.11L121.34,93.3a2.63,2.63,0,0,0,1.9.83h38A2.65,2.65,0,0,0,163.1,93.3Z" transform="translate(0 0)" fill="#f9b630"/><path d="M142.22,85.4,150.77,81l-1.58-1.58-7,4.11-7-4.11L133.69,81Z" transform="translate(0 0)" fill="#f79831"/><path d="M120.62,70.76h43.21L142.22,83.5Z" transform="translate(0 0)" fill="#f9b630"/><rect x="116.54" y="98.29" width="39.95" height="3.59" fill="#71ab3c"/><path d="M181.22,61.1H140.44a16,16,0,0,1,16.05,16.05h0v24.72h40.78V77.16A16.05,16.05,0,0,0,181.22,61.1Z" transform="translate(0 0)" fill="#71ab3c"/><rect x="116.54" y="99.95" width="39.95" height="1.93" fill="#639832"/><rect x="156.49" y="99.95" width="40.78" height="1.93" fill="#639832"/><path d="M181.22,61.1H166A16.06,16.06,0,0,1,182,77.15h0v24.73h15.27V77.16A16.05,16.05,0,0,0,181.22,61.1Z" transform="translate(0 0)" fill="#639832"/><circle cx="165.56" cy="86.55" r="4.79" fill="#fff"/><path d="M168.18,86.55a2.63,2.63,0,1,0-2.62,2.63,2.62,2.62,0,0,0,2.62-2.63Z" transform="translate(0 0)" fill="#3f6c15"/><rect x="164.74" y="50.18" width="1.5" height="36.37" fill="#639832"/><path d="M166.2,63.35,180.69,57,166.2,50.72Z" transform="translate(0 0)" fill="#e6c125"/><path d="M175.73,54.87l-9.53,3.27v5.21L180.69,57Z" transform="translate(0 0)" fill="#c3a113"/><path d="M156.49,77.15v24.73h0V98.29h-4.1V77.15a16,16,0,0,0-14-15.91,15.68,15.68,0,0,1,2.05-.13h0a16,16,0,0,1,16.05,16Z" transform="translate(0 0)" fill="#264c75" opacity="0.29" style="isolation:isolate"/><path d="M133.18,48.08A2.79,2.79,0,1,0,136,50.87h0A2.79,2.79,0,0,0,133.18,48.08Zm0,4.17a1.38,1.38,0,1,1,1.38-1.38h0A1.38,1.38,0,0,1,133.18,52.25Z" transform="translate(0 0)" fill="#71ab3c"/><path d="M204.44,84.62A3.33,3.33,0,1,0,207.77,88a3.33,3.33,0,0,0-3.33-3.33Zm0,5A1.65,1.65,0,1,1,206.08,88a1.64,1.64,0,0,1-1.64,1.64Z" transform="translate(0 0)" fill="#71ab3c"/><path d="M109.7,95.88a1.75,1.75,0,1,0,1.74,1.74h0A1.74,1.74,0,0,0,109.7,95.88Zm0,2.6a.86.86,0,0,1,0-1.72.86.86,0,0,1,0,1.72Z" transform="translate(0 0)" fill="#71ab3c"/><path d="M204.8,46.42a1.69,1.69,0,1,0,1.68,1.68h0A1.68,1.68,0,0,0,204.8,46.42Zm0,2.51a.83.83,0,1,1,0-1.66.83.83,0,1,1,0,1.66Z" transform="translate(0 0)" fill="#71ab3c"/><path d="M159.86,57.12a1.19,1.19,0,1,1-1.19-1.19,1.19,1.19,0,0,1,1.19,1.19Z" transform="translate(0 0)" fill="#71ab3c"/><path d="M220,77.42A1.61,1.61,0,1,0,218.39,79h0A1.61,1.61,0,0,0,220,77.42Z" transform="translate(0 0)" fill="#71ab3c"/><path d="M147.42,54.43a1.19,1.19,0,1,0-1.19,1.19,1.19,1.19,0,0,0,1.19-1.19Z" transform="translate(0 0)" fill="#71ab3c"/><circle cx="194.01" cy="117.13" r="1.58" fill="#71ab3c"/><path d="M145.92,108.38a1.37,1.37,0,1,0-1.37,1.37h0A1.37,1.37,0,0,0,145.92,108.38Z" transform="translate(0 0)" fill="#71ab3c"/><circle cx="104.14" cy="80.13" r="1.47" fill="#71ab3c"/><path d="M183,49.35l-.46-.46.46-.47a.56.56,0,0,0,0-.79.57.57,0,0,0-.79,0l-.46.47-.47-.47a.55.55,0,0,0-.78,0,.57.57,0,0,0,0,.79l0,0,.46.47-.46.46a.56.56,0,0,0,.78.79l.47-.47.46.47a.56.56,0,0,0,.83-.76Z" transform="translate(0 0)" fill="#71ab3c"/><path d="M219.25,61.27l-.55-.55.55-.55a.66.66,0,0,0-.93-.94h0l-.55.56-.55-.56a.66.66,0,0,0-.94.94h0l.55.55-.55.55a.66.66,0,0,0,.94.93l.55-.55.55.55a.66.66,0,0,0,.93-.93Z" transform="translate(0 0)" fill="#71ab3c"/><path d="M204.25,108.17l-.59-.58.59-.58a.7.7,0,0,0-.08-1,.71.71,0,0,0-.91,0l-.58.58-.59-.58a.7.7,0,0,0-1,1l.58.58-.58.58a.7.7,0,0,0,1,1l.59-.58.58.58a.7.7,0,0,0,1-.08A.71.71,0,0,0,204.25,108.17Z" transform="translate(0 0)" fill="#71ab3c"/><path d="M116.43,87.78l-.49-.49.49-.49a.59.59,0,1,0-.83-.83l-.49.49-.49-.49a.59.59,0,0,0-.83.83l.49.49-.49.49a.59.59,0,0,0,.83.83l.49-.49.49.49a.59.59,0,0,0,.83-.83Z" transform="translate(0 0)" fill="#71ab3c"/></svg>