<svg id="Layer_1" data-name="Layer 1" xmlns="http://www.w3.org/2000/svg" viewBox="0 0 254 212"><title>ic-verifikasi email</title><g opacity="0.15"><ellipse cx="125.97" cy="108.28" rx="96.23" ry="96.09" fill="#71ab3c"/><path d="M125.37,31.58H64.2a9.38,9.38,0,0,1-9.36-9.4h0a9.38,9.38,0,0,1,9.36-9.4h61.17a9.37,9.37,0,0,1,9.36,9.39h0a9.37,9.37,0,0,1-9.35,9.4Z" transform="translate(0 0)" fill="#71ab3c"/><path d="M48.79,163.89H88.1a7.36,7.36,0,0,1,7.34,7.36h0a7.35,7.35,0,0,1-7.34,7.36H48.79a7.35,7.35,0,0,1-7.34-7.36h0a7.36,7.36,0,0,1,7.34-7.36Z" transform="translate(0 0)" fill="#71ab3c"/><path d="M40.83,192.76H99.07a4.77,4.77,0,0,1,4.76,4.77h0a4.77,4.77,0,0,1-4.76,4.77H40.83a4.76,4.76,0,0,1-4.75-4.77h0A4.75,4.75,0,0,1,40.83,192.76Z" transform="translate(0 0)" fill="#71ab3c"/><rect x="163.82" y="202.46" width="18.4" height="9.54" rx="3.15" fill="#71ab3c"/><path d="M119.78,174.23h87.7a7.82,7.82,0,0,1,7.8,7.83h0a7.82,7.82,0,0,1-7.8,7.83h-87.7a7.82,7.82,0,0,1-7.8-7.83h0A7.81,7.81,0,0,1,119.78,174.23Z" transform="translate(0 0)" fill="#71ab3c"/><path d="M57.2,178.5H84.59a7.39,7.39,0,0,0-5.19,2.21,6.7,6.7,0,0,0-2.15,4.95,7.12,7.12,0,0,0,7.16,7.1H57.2a6.87,6.87,0,0,0,7.32-6.39,5.81,5.81,0,0,0,0-.59,7.26,7.26,0,0,0-7.25-7.28Z" transform="translate(0 0)" fill="#71ab3c"/><path d="M170.22,94.44h70.6A13.21,13.21,0,0,1,254,107.66h0a13.2,13.2,0,0,1-13.18,13.22h-70.6A13.2,13.2,0,0,1,157,107.67h0a13.22,13.22,0,0,1,13.18-13.23Z" transform="translate(0 0)" fill="#71ab3c"/><path d="M140.11,146.58H244.72a8.56,8.56,0,0,1,8.54,8.57h0a8.57,8.57,0,0,1-8.54,8.57H140.11a8.57,8.57,0,0,1-8.55-8.57h0A8.56,8.56,0,0,1,140.11,146.58Z" transform="translate(0 0)" fill="#71ab3c"/><path d="M186.08,121h49.19a13.12,13.12,0,0,0-9.32,3.83,12.1,12.1,0,0,0-3.87,8.87c0,7.3,5.91,12.74,13.19,12.74H186.08a12.82,12.82,0,0,0,9.31-3.41,12.54,12.54,0,0,0,3.86-9.08,13,13,0,0,0-13-13Z" transform="translate(0 0)" fill="#71ab3c"/><path d="M105.32,83H22.59a14,14,0,0,1-14-14h0a14,14,0,0,1,14-14h82.74a14,14,0,0,1,14,14h0a14,14,0,0,1-14,14Z" transform="translate(0 0)" fill="#71ab3c"/><path d="M139.77,162.09H20.22A20.26,20.26,0,0,1,0,141.8H0a20.25,20.25,0,0,1,20.22-20.29H139.77A20.25,20.25,0,0,1,160,141.8h0a20.25,20.25,0,0,1-20.21,20.29Z" transform="translate(0 0)" fill="#71ab3c"/><path d="M208.34,51h-66a11.19,11.19,0,0,1-11.16-11.2h0a11.18,11.18,0,0,1,11.16-11.2h66a11.18,11.18,0,0,1,11.17,11.2h0A11.19,11.19,0,0,1,208.34,51Z" transform="translate(0 0)" fill="#71ab3c"/><path d="M187.79,12.19H172.12A6.09,6.09,0,0,1,166,6.09h0A6.09,6.09,0,0,1,172.12,0h15.67a6.09,6.09,0,0,1,6.08,6.09h0A6.09,6.09,0,0,1,187.79,12.19Z" transform="translate(0 0)" fill="#71ab3c"/></g><path d="M200.4,131.84A78.45,78.45,0,1,1,142.83,37l.15,0A78.46,78.46,0,0,1,200.4,131.84Z" transform="translate(0 0)" fill="#068675"/><path d="M202.71,65.76c-.24,1.58-.2,3.08-1.08,4.47-1.75,2.76-4.24,2.07-6.65.85s-4.77-2-7.44-.82c-4.17,1.81-6.12,8.12-2.15,11.08,1.29,1,2.56-.62,2.39-1.84-.24-1.7-1.08-3.56.37-5,1.94-2,4.21-.31,6.14.56a8,8,0,0,0,6.47.28c3.71-1.5,6.4-6.55,3.45-10a.9.9,0,0,0-1.28,0,1,1,0,0,0-.23.39Z" transform="translate(0 0)" fill="#e6c125"/><path d="M78.94,142.54c2.88-2.77,4-7.1,1.22-10.42a8,8,0,0,0-10.82-1.3c-7.8,6,.33,17.18,8.75,14.87a1.4,1.4,0,0,0-.37-2.74c-2.46-.14-5.09-.24-7.06-2a5.15,5.15,0,0,1-.43-7.14c4.59-5.65,12.56,2.68,7.74,7.74a.68.68,0,0,0,1,1Z" transform="translate(0 0)" fill="#068675"/><path d="M94.62,187.91c-2-7.38-4.16-14.69-6.43-22a2.3,2.3,0,0,0-3.71-1.28c-5.92,4-11.83,8-17.44,12.46a2.13,2.13,0,0,0-.15,3,2.73,2.73,0,0,0,.37.32c6.57,4.52,15.43,11.19,23.76,11.24,2.12,0,3.6-3,1.45-4.22-3.36-1.95-7.39-2.64-11-4.14a60.53,60.53,0,0,1-11.9-6.37c-.08,1.21-.16,2.42-.25,3.63,6.27-3.87,12.17-8.2,18.12-12.53L84,167.32c2.54,7.22,5.15,14.38,8,21.49.6,1.5,3.14.68,2.72-.9Z" transform="translate(0 0)" fill="#e6c125"/><path d="M203.05,111.6a91.23,91.23,0,0,0-15.75-1,1.46,1.46,0,0,0,0,2.92,89.15,89.15,0,0,0,15.5,0c1-.07,1.42-1.77.26-1.93Z" transform="translate(0 0)" fill="#068675"/><path d="M168.37,120.06l.26.24a3,3,0,0,0,4.19,0,3.06,3.06,0,0,0,0-4.21l-.23-.26a3,3,0,0,0-4.22,0A3,3,0,0,0,168.37,120.06Z" transform="translate(0 0)" fill="#e6c125"/><path d="M131.05,140.47V174q-9.6-1.91-19.29-4.8V140.47Z" transform="translate(0 0)" fill="#639832"/><rect x="111.76" y="140.47" width="19.29" height="7.3" fill="#3f6c15"/><path d="M90.31,75.49h0A25.49,25.49,0,0,1,115.8,101v39.49h-51V101A25.5,25.5,0,0,1,90.31,75.49Z" transform="translate(0 0)" fill="#264c75"/><path d="M127.45,90.88v33a4.2,4.2,0,0,1-4.18,4.2H63a4.19,4.19,0,0,1-4.17-4.2v-33l34.32,20.3Z" transform="translate(0 0)" fill="#f79831"/><path d="M126.29,126.8,104.2,104.63l-11.07,6.55-11.07-6.55L60,126.8a4.14,4.14,0,0,0,3,1.31h60.29A4.15,4.15,0,0,0,126.29,126.8Z" transform="translate(0 0)" fill="#f9b630"/><path d="M93.13,114.21l13.58-7.06-2.51-2.51-11.07,6.54-11.08-6.55-2.48,2.49Z" transform="translate(0 0)" fill="#f79831"/><path d="M58.81,90.88h68.64l-34.32,20.3Z" transform="translate(0 0)" fill="#f9b630"/><rect x="52.33" y="134.74" width="63.46" height="5.72" fill="#71ab3c"/><path d="M155.07,75.49H90.3a25.53,25.53,0,0,1,25.5,25.57h0v39.4h64.77v-39.4A25.54,25.54,0,0,0,155.07,75.49Z" transform="translate(0 0)" fill="#71ab3c"/><rect x="52.33" y="137.39" width="63.46" height="3.08" fill="#639832"/><rect x="115.8" y="137.39" width="64.77" height="3.08" fill="#639832"/><path d="M155.07,75.49H130.82a25.53,25.53,0,0,1,25.49,25.58h0v39.4h24.26v-39.4a25.54,25.54,0,0,0-25.5-25.58Z" transform="translate(0 0)" fill="#639832"/><ellipse cx="130.2" cy="116.04" rx="7.61" ry="7.63" fill="#fff"/><path d="M134.37,116a4.18,4.18,0,1,0-4.17,4.19A4.17,4.17,0,0,0,134.37,116Z" transform="translate(0 0)" fill="#3f6c15"/><rect x="128.89" y="58.07" width="2.38" height="57.97" fill="#639832"/><path d="M131.22,79.06l23-10.06-23-10.07Z" transform="translate(0 0)" fill="#e6c125"/><path d="M146.36,65.55l-15.14,5.21v8.3l23-10.06Z" transform="translate(0 0)" fill="#c3a113"/><path d="M115.8,101.07v39.4h0v-5.73h-6.51V101.07A25.54,25.54,0,0,0,87.05,75.71a23.56,23.56,0,0,1,3.25-.22h0A25.54,25.54,0,0,1,115.8,101.07Z" transform="translate(0 0)" fill="#264c75" opacity="0.29" style="isolation:isolate"/><path d="M79,54.73a4.45,4.45,0,1,0,4.43,4.46h0A4.45,4.45,0,0,0,79,54.73Zm0,6.64a2.2,2.2,0,1,1,2.19-2.2h0A2.19,2.19,0,0,1,79,61.37Z" transform="translate(0 0)" fill="#71ab3c"/><path d="M192.88,113a5.3,5.3,0,1,0,5.28,5.32v0A5.3,5.3,0,0,0,192.88,113Zm0,7.93a2.62,2.62,0,1,1,2.61-2.63h0a2.62,2.62,0,0,1-2.61,2.62Z" transform="translate(0 0)" fill="#71ab3c"/><path d="M41.47,130.91a2.78,2.78,0,1,0,2.76,2.79h0A2.78,2.78,0,0,0,41.47,130.91Zm0,4.15a1.37,1.37,0,1,1,1.36-1.38h0a1.36,1.36,0,0,1-1.36,1.37Z" transform="translate(0 0)" fill="#71ab3c"/><path d="M193.45,52.08a2.69,2.69,0,1,0,2.67,2.69h0a2.68,2.68,0,0,0-2.67-2.69Zm0,4a1.33,1.33,0,1,1,1.32-1.33h0a1.32,1.32,0,0,1-1.32,1.33Z" transform="translate(0 0)" fill="#71ab3c"/><path d="M121.58,69.14a1.89,1.89,0,1,1-1.88-1.9A1.89,1.89,0,0,1,121.58,69.14Z" transform="translate(0 0)" fill="#71ab3c"/><path d="M217.59,101.49a2.55,2.55,0,1,0-2.55,2.56A2.54,2.54,0,0,0,217.59,101.49Z" transform="translate(0 0)" fill="#71ab3c"/><path d="M101.72,64.85a1.89,1.89,0,1,0-1.89,1.9,1.88,1.88,0,0,0,1.89-1.9Z" transform="translate(0 0)" fill="#71ab3c"/><ellipse cx="176.11" cy="164.78" rx="2.5" ry="2.51" fill="#71ab3c"/><path d="M99.32,150.84A2.18,2.18,0,1,0,97.15,153a2.18,2.18,0,0,0,2.17-2.18Z" transform="translate(0 0)" fill="#71ab3c"/><ellipse cx="32.64" cy="105.81" rx="2.34" ry="2.34" fill="#71ab3c"/><path d="M158.57,56.76l-.74-.74.74-.74A.89.89,0,0,0,157.32,54l-.74.74-.74-.74a.88.88,0,0,0-1.25,0,.9.9,0,0,0,0,1.22l.74.74-.74.74a.89.89,0,0,0,0,1.25.88.88,0,0,0,1.25,0l.74-.74.74.74a.88.88,0,0,0,1.25,0,.9.9,0,0,0,0-1.26Z" transform="translate(0 0)" fill="#71ab3c"/><path d="M216.41,75.75l-.88-.88.88-.88a1.05,1.05,0,0,0-1.49-1.48l-.87.88-.88-.88A1,1,0,0,0,211.69,74l.88.88-.88.88a1.05,1.05,0,0,0,0,1.48,1,1,0,0,0,1.44,0l.88-.88.87.88a1.05,1.05,0,0,0,1.49-1.49Z" transform="translate(0 0)" fill="#71ab3c"/><path d="M192.57,150.5l-.92-.93.92-.93a1.11,1.11,0,1,0-1.56-1.57h0l-.93.93-.93-.93a1.11,1.11,0,1,0-1.56,1.57h0l.92.93-.92.93a1.11,1.11,0,0,0,1.56,1.57l.93-.93.93.93a1.11,1.11,0,1,0,1.56-1.57Z" transform="translate(0 0)" fill="#71ab3c"/><path d="M52.16,118l-.78-.78.78-.78a.93.93,0,0,0-1.32-1.32l-.78.78-.78-.78A.93.93,0,0,0,48,116.44l.78.78L48,118a.93.93,0,0,0,1.31,1.32h0l.78-.78.78.78A.93.93,0,0,0,52.16,118Z" transform="translate(0 0)" fill="#71ab3c"/></svg>