<svg id="Layer_1" data-name="Layer 1" xmlns="http://www.w3.org/2000/svg" viewBox="0 0 254 212"><title>ic-verifikasi-ponsel</title><g opacity="0.15"><ellipse cx="125.96" cy="108.28" rx="96.12" ry="96.09" fill="#71ab3c"/><path d="M125.54,31.58H64.14a9.4,9.4,0,0,1-9.4-9.4h0a9.4,9.4,0,0,1,9.4-9.4h61.4a9.4,9.4,0,0,1,9.4,9.4h0a9.4,9.4,0,0,1-9.4,9.4Z" transform="translate(0 0)" fill="#71ab3c"/><path d="M48.78,163.89H88.23a7.37,7.37,0,0,1,7.36,7.36h0a7.36,7.36,0,0,1-7.36,7.36H48.78a7.36,7.36,0,0,1-7.37-7.36h0A7.37,7.37,0,0,1,48.78,163.89Z" transform="translate(0 0)" fill="#71ab3c"/><path d="M41,192.76H99.43a4.77,4.77,0,0,1,4.78,4.77h0a4.78,4.78,0,0,1-4.77,4.77H41a4.78,4.78,0,0,1-4.77-4.77h0A4.77,4.77,0,0,1,41,192.76Z" transform="translate(0 0)" fill="#71ab3c"/><rect x="163.77" y="202.46" width="18.46" height="9.54" rx="3.15" fill="#71ab3c"/><path d="M119.53,174.23h88a7.84,7.84,0,0,1,7.83,7.83h0a7.84,7.84,0,0,1-7.83,7.83h-88a7.83,7.83,0,0,1-7.83-7.83h0A7.83,7.83,0,0,1,119.53,174.23Z" transform="translate(0 0)" fill="#71ab3c"/><path d="M57.18,178.5H84.66a7.46,7.46,0,0,0-5.21,2.21,6.78,6.78,0,0,0-2.16,4.95,7.14,7.14,0,0,0,7.19,7.1H57.18a6.88,6.88,0,0,0,7.34-6.39,5.82,5.82,0,0,0,0-.59,7.3,7.3,0,0,0-7.29-7.28Z" transform="translate(0 0)" fill="#71ab3c"/><path d="M169.91,94.44h70.86A13.23,13.23,0,0,1,254,107.67h0a13.22,13.22,0,0,1-13.23,13.22H169.91a13.22,13.22,0,0,1-13.22-13.22h0A13.22,13.22,0,0,1,169.91,94.44Z" transform="translate(0 0)" fill="#71ab3c"/><path d="M139.69,146.58h105a8.56,8.56,0,0,1,8.57,8.57h0a8.57,8.57,0,0,1-8.57,8.57h-105a8.57,8.57,0,0,1-8.57-8.57h0A8.57,8.57,0,0,1,139.69,146.58Z" transform="translate(0 0)" fill="#71ab3c"/><path d="M185.83,121H235.2a13.15,13.15,0,0,0-9.35,3.83,12.06,12.06,0,0,0-3.88,8.87c0,7.3,5.92,12.74,13.23,12.74H185.83a12.89,12.89,0,0,0,9.35-3.41,12.51,12.51,0,0,0,3.87-9.08,13,13,0,0,0-13-13Z" transform="translate(0 0)" fill="#71ab3c"/><path d="M105.7,83h-83a14,14,0,0,1-14.05-14h0a14,14,0,0,1,14.05-14h83a14,14,0,0,1,14,14h0a14,14,0,0,1-14,14Z" transform="translate(0 0)" fill="#71ab3c"/><path d="M140.28,162.09h-120A20.29,20.29,0,0,1,0,141.8H0a20.29,20.29,0,0,1,20.29-20.29h120a20.3,20.3,0,0,1,20.3,20.29h0a20.3,20.3,0,0,1-20.29,20.29Z" transform="translate(0 0)" fill="#71ab3c"/><path d="M208.18,51H141.93a11.21,11.21,0,0,1-11.2-11.2h0a11.2,11.2,0,0,1,11.2-11.2h66.25a11.2,11.2,0,0,1,11.2,11.2h0A11.21,11.21,0,0,1,208.18,51Z" transform="translate(0 0)" fill="#71ab3c"/><path d="M187.8,12.19H172.07a6.1,6.1,0,0,1-6.1-6.1h0A6.1,6.1,0,0,1,172.07,0H187.8a6.1,6.1,0,0,1,6.1,6.09h0A6.1,6.1,0,0,1,187.8,12.19Z" transform="translate(0 0)" fill="#71ab3c"/></g><ellipse cx="124.21" cy="113.1" rx="78.35" ry="78.33" transform="translate(-23.44 32.99) rotate(-13.84)" fill="#71ab3c"/><path d="M66,121.31c-.23-1.57-.19-3.07-1.07-4.47-1.76-2.76-4.26-2.07-6.68-.85s-4.78,2-7.46.83c-4.19-1.81-6.15-8.13-2.16-11.09,1.3-1,2.57.62,2.4,1.84-.24,1.7-1.09,3.56.37,5,1.94,2,4.23.31,6.17-.56a8,8,0,0,1,6.48-.28c3.73,1.5,6.43,6.55,3.47,10a.91.91,0,0,1-1.29,0,.94.94,0,0,1-.22-.39Z" transform="translate(0 0)" fill="#e6c125"/><path d="M79,83.66c2.89,2.77,4,7.1,1.23,10.43a8.1,8.1,0,0,1-10.86,1.3c-7.82-6,.33-17.18,8.78-14.88a1.4,1.4,0,0,1,.94,1.74,1.38,1.38,0,0,1-1.31,1c-2.47.15-5.11.24-7.09,2a5.13,5.13,0,0,0-.43,7.14c4.6,5.66,12.6-2.68,7.77-7.73a.69.69,0,0,1,0-1,.68.68,0,0,1,.92,0Z" transform="translate(0 0)" fill="#068675"/><path d="M201.14,145.65c-2,7.38-4.18,14.69-6.46,22a2.31,2.31,0,0,1-2.75,1.76,2.27,2.27,0,0,1-1-.48c-5.94-4-11.88-8-17.5-12.46a2.11,2.11,0,0,1-.15-3,1.65,1.65,0,0,1,.37-.33c6.59-4.52,15.49-11.19,23.84-11.24,2.13,0,3.62,3,1.46,4.22-3.37,1.95-7.41,2.64-11,4.14A60.56,60.56,0,0,0,176,156.63c-.09-1.21-.17-2.42-.25-3.63,6.28,3.87,12.21,8.2,18.18,12.53l-3.53.71c2.55-7.22,5.17-14.38,8-21.49.6-1.5,3.15-.68,2.73.9Z" transform="translate(0 0)" fill="#e6c125"/><path d="M202.87,114.6a92.11,92.11,0,0,1-15.82,1,1.46,1.46,0,0,1,0-2.92,89.73,89.73,0,0,1,15.55,0C203.63,112.75,204,114.44,202.87,114.6Z" transform="translate(0 0)" fill="#068675"/><path d="M168.28,106.14l.27-.23a3,3,0,1,1,4.2,4.2l-.23.27a3,3,0,0,1-4.24-4.24Z" transform="translate(0 0)" fill="#e6c125"/><path d="M99.86,153.07h39a10.46,10.46,0,0,0,10.47-10.46h0V59.71a30,30,0,0,0-29.95-29.95h0a30,30,0,0,0-30,29.94h0v82.9A10.47,10.47,0,0,0,99.86,153.07Z" transform="translate(0 0)"/><path d="M67,156.24l9,11.28L106,155.22,97.7,146.1Z" transform="translate(0 0)" fill="#e37a6c"/><path d="M96.23,141.87c-.8,7.37-2.85,37.71-2.85,37.71,24.35,13,54.55,4.39,59.17-1-4.19-13.77-10.23-19.6-13.67-23.26l7.89-22s.94-2.25.92-2.27c-.48-.82-12.26-11.42-6.45-28.2a4.25,4.25,0,0,0-2.67-5.37,4.4,4.4,0,0,0-1-.21l-7-.57-19-.55c-4.53.25-7.76.69-7.76.69-2.91,2.71-7.48,10.18-10.45,17.78C91.46,119.54,89.39,127.36,96.23,141.87Z" transform="translate(0 0)" fill="#068675"/><path d="M141.68,141.29l-2.77-10.76-3.43,24.84,7,3.87-3.55-3.89,3.6-10Z" transform="translate(0 0)" fill="#068675"/><path d="M141.68,141.29l-2.77-10.76-3.43,24.84,7,3.87-3.55-3.89,3.6-10Z" transform="translate(0 0)" fill="#068675" opacity="0.2" style="isolation:isolate"/><path d="M100.09,42.81c-3.16,1.86-7.07,9.82-6.68,26.5.32,14.13,4.91,17.63,7.21,18.63s6.74.4,11-.32V96.1s-6,6.93-5.59,10.82,8.62,4.81,14.2,1,10.28-11.21,10.28-11.21l-.1-19.51s2.54,2.47,6.84-1.3c3.56-3.1,4.76-8.34,2-11.15a6.19,6.19,0,0,0-8.75.31,6.51,6.51,0,0,0-1.1,1.65s-6.88.25-16.05-4.78A25.76,25.76,0,0,1,100.09,42.81Z" transform="translate(0 0)" fill="#ff8b7b"/><g opacity="0.5"><path d="M108.72,77.75l-4.13,1.31a2.12,2.12,0,0,0,2.61,1.5l.07,0A2.26,2.26,0,0,0,108.72,77.75Z" transform="translate(0 0)" fill="#ff8b7b"/></g><g opacity="0.5"><path d="M103.83,63.46l-.28,10.7-5.64-1.75Z" transform="translate(0 0)" fill="#ff8b7b"/></g><g opacity="0.5"><path d="M111.67,87.62c4.55-.6,13.9-3.28,15.36-7a9.56,9.56,0,0,1-3.28,4.72c-2.8,2.39-12.08,5.09-12.08,5.09Z" transform="translate(0 0)" fill="#ff8b7b"/></g><path d="M167.6,168.6c-.11-1.53-3-17.84-4.94-27l-19.19,5.88,3.08,12.78,16,15.43C167.58,174.72,167.71,170.13,167.6,168.6Z" transform="translate(0 0)" fill="#ff8b7b"/><path d="M137.55,97.29c7.36.65,17.06,1.74,21.68,22.69,4.33,19.64,5.4,26.5,5.4,26.5s-5.67,7.18-20.33,6.39l-5.39-22.34C129.1,117.62,132.26,108.37,137.55,97.29Z" transform="translate(0 0)" fill="#047868"/><path d="M75.51,153.41c-2.64-4.9-3.29-5.12-4.86-6.2s-11.18-2.51-15.17-2.85c-4.7-.4-6.36.47-5.06,4.5,2.8,8.64,11.27,27,13.16,29.51,1.25,1.66,1.5,3.2,6.78,3.72,4.93.48,11.11.75,12.93.85s4.34.57,2.71-4.79a177.76,177.76,0,0,0-7.21-17.78C76.76,156,75.51,153.41,75.51,153.41Z" transform="translate(0 0)" fill="#263238"/><path d="M146.55,160.29s-42.64,4.51-48.16,2.8-12.94-7.23-16.93-9.51-6.85-2.48-6.85-1.53,3.41,6.16,4.18,8.32-3.67,2.16-9.51.81-8.19-4.74-9.7-2.75,3.23,11.7,12.94,15.31,16.9,1.23,24.91,1.57,53.95,3.92,65.09.41c0,0,1.29-5.2-3.85-9.47A34.32,34.32,0,0,0,146.55,160.29Z" transform="translate(0 0)" fill="#ff8b7b"/></svg>