<svg id="Layer_1" data-name="Layer 1" xmlns="http://www.w3.org/2000/svg" xmlns:xlink="http://www.w3.org/1999/xlink" viewBox="0 0 320 165"><defs><clipPath id="clip-path" transform="translate(0 0)"><path d="M268.35,78.44l.43-1.21.42,1.21a4.23,4.23,0,0,0,2.35,2.4,4.26,4.26,0,0,0-2.35,2.4l-.42,1.22-.43-1.22a4.26,4.26,0,0,0-2.35-2.4,4.23,4.23,0,0,0,2.35-2.4" fill="none"/></clipPath><clipPath id="clip-path-2" transform="translate(0 0)"><rect x="-75.67" y="-269.13" width="651.39" height="652.81" fill="none"/></clipPath><clipPath id="clip-path-3" transform="translate(0 0)"><path d="M88.08,21.94l.43-1.22.42,1.22a4.26,4.26,0,0,0,2.35,2.4,4.23,4.23,0,0,0-2.35,2.4L88.51,28l-.43-1.21a4.23,4.23,0,0,0-2.35-2.4,4.26,4.26,0,0,0,2.35-2.4" fill="none"/></clipPath><clipPath id="clip-path-4" transform="translate(0 0)"><rect x="-255.94" y="-325.64" width="651.39" height="652.81" fill="none"/></clipPath><clipPath id="clip-path-5" transform="translate(0 0)"><path d="M85.3,21.94l.42-1.22.43,1.22a4.26,4.26,0,0,0,2.35,2.4,4.23,4.23,0,0,0-2.35,2.4L85.72,28l-.42-1.21A4.23,4.23,0,0,0,83,24.34a4.26,4.26,0,0,0,2.35-2.4" fill="none"/></clipPath><clipPath id="clip-path-6" transform="translate(0 0)"><rect x="-258.72" y="-325.64" width="651.39" height="652.81" fill="none"/></clipPath><clipPath id="clip-path-7" transform="translate(0 0)"><path d="M59.12,103.66s-.8-1.26-2.88-9.66-7.52-16.42-16-13.44-6.05,12.89-1.87,28.88c3,11.42-9.2,20.28,6.86,29.15,9.72,5.38,26.61-1.85,23.3-18.1a22.1,22.1,0,0,0-4.12-9.09,60.8,60.8,0,0,1-5.29-7.74" fill="none"/></clipPath><clipPath id="clip-path-8" transform="translate(0 0)"><rect x="-236.9" y="-266.18" width="640.68" height="642.07" fill="none"/></clipPath><clipPath id="clip-path-9" transform="translate(0 0)"><path d="M52.41,153.78a.36.36,0,0,1-.28-.41c3.86-24.74-6.68-58-6.79-58.3a.37.37,0,0,1,.24-.46h0a.37.37,0,0,1,.46.23c.11.34,10.7,33.73,6.81,58.64a.36.36,0,0,1-.42.3h0" fill="none"/></clipPath><clipPath id="clip-path-10" transform="translate(0 0)"><rect x="-236.9" y="-266.18" width="640.68" height="642.07" fill="none"/></clipPath><clipPath id="clip-path-11" transform="translate(0 0)"><path d="M49,108.13l-.06,0a.36.36,0,0,1-.2-.48h0a49.57,49.57,0,0,0,2.48-8.19.37.37,0,0,1,.42-.3h0a.36.36,0,0,1,.29.42h0a50.59,50.59,0,0,1-2.52,8.33.36.36,0,0,1-.42.22" fill="none"/></clipPath><clipPath id="clip-path-12" transform="translate(0 0)"><rect x="-236.9" y="-266.18" width="640.68" height="642.07" fill="none"/></clipPath><clipPath id="clip-path-13" transform="translate(0 0)"><path d="M50.5,115.52l-.15-.06c-1.88-1.47-6.59-4.18-6.64-4.21a.37.37,0,0,1-.13-.5h0a.36.36,0,0,1,.49-.14h0c.19.12,4.8,2.77,6.72,4.27a.37.37,0,0,1,.07.51.37.37,0,0,1-.37.13" fill="none"/></clipPath><clipPath id="clip-path-15" transform="translate(0 0)"><path d="M51.76,122.73l-.07,0a.38.38,0,0,1-.18-.49h0L53.92,117a.36.36,0,0,1,.48-.17h0a.35.35,0,0,1,.17.48l-2.41,5.18a.36.36,0,0,1-.41.2" fill="none"/></clipPath><clipPath id="clip-path-17" transform="translate(0 0)"><path d="M86.33,130c-.63,0-16.8-1.91-17.53-17s9.56-18.79,6.85-35.56-9.82-21.59,6.12-33.83c0,0,7.1-4.92,7.43-11.84.4-8.27,14.65-17.87,24.21-12.36s7.32,14.05-.87,27.85-.3,16.21,1.28,20.67,5.22,9.15-3.14,19.81,1.6,23.68-5.51,33.89c0,0-6.24,7.56-18.83,8.34" fill="none"/></clipPath><clipPath id="clip-path-18" transform="translate(0 0)"><rect x="-430.27" y="-266.18" width="640.68" height="642.07" fill="none"/></clipPath><clipPath id="clip-path-19" transform="translate(0 0)"><path d="M88.86,153.1a.68.68,0,0,0,.5-.79c-8.68-46,9-108.68,9.2-109.3a.69.69,0,0,0-.47-.85h0a.69.69,0,0,0-.85.47h0c-.18.63-18,63.64-9.22,109.93a.69.69,0,0,0,.8.55h0" fill="none"/></clipPath><clipPath id="clip-path-21" transform="translate(0 0)"><path d="M92.48,67.62l.12,0a.69.69,0,0,0,.34-.9,91.86,91.86,0,0,1-5.12-15.15A.68.68,0,0,0,87,51a.67.67,0,0,0-.53.8h0a94.09,94.09,0,0,0,5.21,15.41.69.69,0,0,0,.79.39" fill="none"/></clipPath><clipPath id="clip-path-23" transform="translate(0 0)"><path d="M90.15,81.52l.27-.13c3.43-2.85,12.06-8.2,12.15-8.25a.7.7,0,0,0,.22-1h0a.67.67,0,0,0-.93-.22h0c-.36.22-8.8,5.46-12.3,8.36a.69.69,0,0,0-.09,1,.67.67,0,0,0,.69.22" fill="none"/></clipPath><clipPath id="clip-path-25" transform="translate(0 0)"><path d="M88.21,95.07l.14-.06a.67.67,0,0,0,.3-.92l-4.8-9.52a.69.69,0,0,0-.92-.3h0a.68.68,0,0,0-.3.92l4.81,9.52a.67.67,0,0,0,.77.36" fill="none"/></clipPath><clipPath id="clip-path-26" transform="translate(0 0)"><rect x="-430.27" y="-266.18" width="640.68" height="642.07" fill="none"/></clipPath><clipPath id="clip-path-27" transform="translate(0 0)"><path d="M237.9,136c-.6.47-6-9.35-7.27-21.83,0,0-.61-6.14,5.2-3,0,0-6-26.85,10-24.84,2.77.34,4.34,1,5.93,2.71,2.15,2.36,3.34,6.18.8,11.67-5.08,11-9.55,15.25-7.36,21.07s1.44,7.48-7.3,14.24" fill="none"/></clipPath><clipPath id="clip-path-28" transform="translate(0 0)"><rect x="-317.51" y="-266.18" width="640.68" height="642.07" fill="none"/></clipPath><clipPath id="clip-path-29" transform="translate(0 0)"><path d="M239.46,153.44a.59.59,0,0,0,.46-.7h0c-3.69-18,1.62-48.44,2.3-49.78a.58.58,0,0,0-.14-.8h0a.61.61,0,0,0-.83.15c-1.1,1.53-6.06,33.17-2.47,50.68a.58.58,0,0,0,.69.46h0" fill="none"/></clipPath><clipPath id="clip-path-31" transform="translate(0 0)"><path d="M62.9,57.31l.42-1.22.43,1.22a4.26,4.26,0,0,0,2.35,2.4,4.23,4.23,0,0,0-2.35,2.4l-.43,1.21-.42-1.21a4.23,4.23,0,0,0-2.35-2.4,4.26,4.26,0,0,0,2.35-2.4" fill="none"/></clipPath><clipPath id="clip-path-32" transform="translate(0 0)"><rect x="-281.12" y="-290.27" width="651.39" height="652.81" fill="none"/></clipPath></defs><title>ic-welcome</title><g clip-path="url(#clip-path)"><g clip-path="url(#clip-path-2)"><path d="M278.07,91H259.49V70.7h18.58Z" transform="translate(0 0)" fill="#fffefe"/></g></g><g clip-path="url(#clip-path-3)"><g clip-path="url(#clip-path-4)"><path d="M97.8,34.48H79.22V14.19H97.8Z" transform="translate(0 0)" fill="#fffefe"/></g></g><g clip-path="url(#clip-path-5)"><g clip-path="url(#clip-path-6)"><path d="M95,34.48H76.43V14.19H95Z" transform="translate(0 0)" fill="#fffefe"/></g></g><path d="M250.06,153.21s41.37-21.08,40.41-63.6S250.7,33.73,224.08,60,171.8,78.47,158,56.28,135-14.52,96.44,4.2c-28.78,14-48.1,51.43-54.34,85.22C37.81,112.63,44,137.15,59,152.47c.49.5,1,1,1.5,1.48l189.54-.74" transform="translate(0 0)" fill="#096d5c" fill-rule="evenodd"/><g clip-path="url(#clip-path-7)"><g clip-path="url(#clip-path-8)"><path d="M28.14,146.77H75.36V73.5H28.14Z" transform="translate(0 0)" fill="#71ab3c"/></g></g><g clip-path="url(#clip-path-9)"><g clip-path="url(#clip-path-10)"><path d="M38.92,160.21H60.11V88.16H38.92Z" transform="translate(0 0)" fill="#fff"/></g></g><g clip-path="url(#clip-path-11)"><g clip-path="url(#clip-path-12)"><path d="M42.32,114.55h16V92.72h-16Z" transform="translate(0 0)" fill="#fff"/></g></g><g clip-path="url(#clip-path-13)"><g clip-path="url(#clip-path-12)"><path d="M37.12,122H57.35V104.14H37.12Z" transform="translate(0 0)" fill="#fff"/></g></g><g clip-path="url(#clip-path-15)"><g clip-path="url(#clip-path-12)"><path d="M45.07,129.16H61V110.41h-16Z" transform="translate(0 0)" fill="#fff"/></g></g><path d="M47,24.25a38,38,0,0,0-2.71-2.82c-1.85-1.6-4-4.42-10.76-2.34a16,16,0,0,0-1.55.59,5,5,0,0,1-4.36-1.25c-3-2.4-4.2-4.21-8.33-4.27-4.81-.06-5.56,5.95-9.3,7.48-2.38,1-8.66,2-10,2.39l47,.22" transform="translate(0 0)" fill="#068675" fill-rule="evenodd"/><path d="M247.71,21.92a56.84,56.84,0,0,1,4.16-4.34c2.85-2.46,6.12-6.8,16.57-3.6a22,22,0,0,1,2.38.91c.93.39,3.78.4,6.7-1.93,4.65-3.7,6.47-6.48,12.83-6.57,7.4-.1,8.57,9.15,14.32,11.52,3.67,1.51,13.33,3,15.33,3.67l-72.29.34" transform="translate(0 0)" fill="#068675" fill-rule="evenodd"/><g clip-path="url(#clip-path-17)"><g clip-path="url(#clip-path-18)"><path d="M62.35,136.43H126.1V11.4H62.35Z" transform="translate(0 0)" fill="#71ab3c"/></g></g><g clip-path="url(#clip-path-19)"><g clip-path="url(#clip-path-18)"><path d="M79.19,159.54H105V35.71H79.19Z" transform="translate(0 0)" fill="#fff"/></g></g><g clip-path="url(#clip-path-21)"><g clip-path="url(#clip-path-18)"><path d="M80.06,74.06H99.41V44.57H80.06Z" transform="translate(0 0)" fill="#fff"/></g></g><g clip-path="url(#clip-path-23)"><g clip-path="url(#clip-path-18)"><path d="M82.89,88h26.4V65.45H82.89Z" transform="translate(0 0)" fill="#fff"/></g></g><g clip-path="url(#clip-path-25)"><g clip-path="url(#clip-path-26)"><path d="M76.15,101.51h19V77.77h-19Z" transform="translate(0 0)" fill="#fff"/></g></g><g clip-path="url(#clip-path-27)"><g clip-path="url(#clip-path-28)"><path d="M224.2,142.4h36.2V79.74H224.2Z" transform="translate(0 0)" fill="#71ab3c"/></g></g><g clip-path="url(#clip-path-29)"><g clip-path="url(#clip-path-28)"><path d="M231.08,159.88h17.65V95.63H231.08Z" transform="translate(0 0)" fill="#fff"/></g></g><path d="M17.54,156.52H301.87c.15,0,.27-.85.27-1.89s-.12-1.9-.27-1.9H17.54c-.15,0-.27.85-.27,1.9s.12,1.89.27,1.89" transform="translate(0 0)" fill="#7c6a56" fill-rule="evenodd"/><g clip-path="url(#clip-path-31)"><g clip-path="url(#clip-path-32)"><path d="M72.62,69.85H54V49.56H72.62Z" transform="translate(0 0)" fill="#fffefe"/></g></g><path d="M178.3,116.29c2.74,13.45,10.53,25.46,13.26,38.91a7,7,0,0,0,.83,2.53,2.2,2.2,0,0,0,2.28,1.06c1.56-.43,1.56-2.6,1.34-4.2-.64-4.77-.09-9.61.47-14.39l2.61-22.37a1.93,1.93,0,0,1,2.54.09,5.05,5.05,0,0,1,1.34,2.42,69,69,0,0,1,2.33,12.25,223,223,0,0,1,2.24,24.88l2.27.15a247.85,247.85,0,0,0,7.62-25.3c1.11-4.32,2.2-8.65,2.89-13.06a142.76,142.76,0,0,0,1.36-17.52,5.62,5.62,0,0,0-.63-3.44,5.38,5.38,0,0,0-2.63-1.7c-8.56-3.28-17.77-4.5-26.91-5.21a30.53,30.53,0,0,0-7.7.1,11.24,11.24,0,0,0-5.68,2.58c-1.7,1.62-1.14,4.2-1.15,6.43A78.81,78.81,0,0,0,178.3,116.29Z" transform="translate(0 0)" fill="#666"/><path d="M172.89,86.17c-.85,2.56-1.51,5.59.05,7.79a8,8,0,0,0,3,2.28c6.4,3.23,13.73,4,20.86,4.66a127.45,127.45,0,0,0,19.33.9c3.07-.16,6.31-.61,8.71-2.53a11.33,11.33,0,0,0,3.79-7.66,33.46,33.46,0,0,0-.57-8.71,86.32,86.32,0,0,0-1.8-9.44,43.13,43.13,0,0,0-7.35-14.89,26.58,26.58,0,0,0-9.48-8.14c-3.61-1.69-9.09-2.47-12.84-.65s-7.2,7-9.71,10.27A86.94,86.94,0,0,0,172.89,86.17Z" transform="translate(0 0)" fill="#e6c125"/><path d="M208.64,41a8.28,8.28,0,0,1-.27,2,6.3,6.3,0,0,1-3.85,3.75,9.79,9.79,0,0,1-6.37.18,10.51,10.51,0,0,1-4.61-3.27c-2.44-2.82-3.85-6.16-3.51-9.49a2,2,0,0,1,.57-1.4,4.73,4.73,0,0,1,2.63-.77c3.16-.29,11.93-2.27,14.53-.75S208.78,38.92,208.64,41Z" transform="translate(0 0)" fill="#ff8b7b"/><path d="M183.1,31.48c.46,2,3,3.44,5.63,3.78a15,15,0,0,0,7.75-1.34c2.48-1.1,4.81-2.7,7.71-2.79a4.1,4.1,0,0,1,1.55.21,3,3,0,0,1,1.18.95c1.65,2,1.9,4.52,2.1,6.89a38.55,38.55,0,0,0,2.09-6.28c.55-2.32.71-5-1.61-6.68-1.76-1.25-4.45-1.46-6.88-1.24a22.31,22.31,0,0,0-9.36,3c-1.06.64-2,1.37-3.16,1.93a6.92,6.92,0,0,1-3.87.75c-1.49-.2-1.77-1.11-2.81-1.63A3.43,3.43,0,0,0,183.1,31.48Z" transform="translate(0 0)"/><path d="M213.93,64.89a42.88,42.88,0,0,0-3.52-4.75,8.6,8.6,0,0,1-2.07-5.41c.1-2,1.65-4,3.63-3.95a5.59,5.59,0,0,1,2.32.7,21.54,21.54,0,0,1,6.31,4.78,10.84,10.84,0,0,1,1.78,2.52,14,14,0,0,1,1,4.42,25.07,25.07,0,0,1-.07,8,12.29,12.29,0,0,1-7,8.53c-.76.32-1.91.87-2.63.47a2,2,0,0,1-.74-2.18c.43-2.07,1.85-3.79,2.17-6A11.52,11.52,0,0,0,213.93,64.89Z" transform="translate(0 0)" fill="#ff8b7b"/><path d="M209.82,79.49a2.36,2.36,0,0,0-.42.36,2.13,2.13,0,0,0-.3,1.3c0,.73.08,1.59.7,2a2.12,2.12,0,0,0,1,.2l1,.06a1.33,1.33,0,0,0,1.63-.92,1.42,1.42,0,0,0,0-.2c.3-.88.61-1.76.91-2.63a.45.45,0,0,0-.12-.64l0,0c-.73-.56-1.08-.85-2-.64A5.47,5.47,0,0,0,209.82,79.49Z" transform="translate(0 0)" fill="#f2d6c9"/><path d="M216.72,158.23a2.89,2.89,0,0,0-1.75-.53l-2.77-.21a2.29,2.29,0,0,1-1.14-.3,1.17,1.17,0,0,1-.31-.35h-.87a10.11,10.11,0,0,0-3.16.69c.22.9.43,1.8.64,2.7a.65.65,0,0,0,.66.63h.11a78.93,78.93,0,0,0,9.22-.33A2.94,2.94,0,0,0,216.72,158.23Z" transform="translate(0 0)"/><path d="M195.52,157.42a5.24,5.24,0,0,1-2.18,5.49l-1,.89a1.06,1.06,0,0,1-.31.21,1.08,1.08,0,0,1-.4,0c-.58,0-1.17,0-1.75,0a2.38,2.38,0,0,1-1.58-.64,1.25,1.25,0,0,1-.18-1.59,2.35,2.35,0,0,1,1-.59,6,6,0,0,0,2.48-2.15,3,3,0,0,1,1.4-1.45A9,9,0,0,1,195.52,157.42Z" transform="translate(0 0)"/><path d="M216.19,76.94a2,2,0,0,0-.54-.78,1.9,1.9,0,0,0-1.16-.29l-21.4-.71a1.42,1.42,0,0,0-1.34.9,76.1,76.1,0,0,0-3.39,7.81.6.6,0,0,0,.38.75l.16,0c9.63.13,19.75,1.17,29.36.36a1,1,0,0,0,.86-1.12,1.14,1.14,0,0,0-.09-.3C218.08,81.43,217.15,78.89,216.19,76.94Z" transform="translate(0 0)" fill="#7f7f7f"/><path d="M216,76.32a2.12,2.12,0,0,0-.53-.79,2,2,0,0,0-1.13-.29l-21-.7a1.38,1.38,0,0,0-1.32.9c-1.13,2.7-2.48,5-3.32,7.8a.58.58,0,0,0,.37.75.4.4,0,0,0,.15,0c9.45.13,19.38,1.17,28.81.36a1,1,0,0,0,.84-1.13,1,1,0,0,0-.08-.29C217.85,80.8,216.93,78.27,216,76.32Z" transform="translate(0 0)" fill="#666"/><path d="M214.89,76.89a1.56,1.56,0,0,0-.48-.57,2.12,2.12,0,0,0-1-.2l-18.94-.51a1.3,1.3,0,0,0-1.19.64,52.05,52.05,0,0,0-3,5.61.46.46,0,0,0,.32.55.43.43,0,0,0,.16,0c8.52.09,17.48.84,26,.26a.71.71,0,0,0,.68-1C216.56,80.11,215.73,78.29,214.89,76.89Z" transform="translate(0 0)" fill="#f0f0f0"/><path d="M206.58,77.46a.23.23,0,0,0,0,.18A21.11,21.11,0,0,0,207.64,82h5.07a7.64,7.64,0,0,0,1.59-.1c-.57-1.45-1.13-2.91-1.7-4.37q-2.91.08-5.79-.12A.24.24,0,0,0,206.58,77.46Z" transform="translate(0 0)" fill="#e0c74e"/><path d="M204.46,77.31c-3.1.16-6.2.11-9.3,0-.24,0-.24.36,0,.38a78,78,0,0,0,9.3,0C204.73,77.71,204.73,77.29,204.46,77.31Z" transform="translate(0 0)" fill="#cacaca"/><path d="M204.78,78.49c-3.05,0-6.09.08-9.13.24-.23,0-.23.37,0,.36,3-.14,6.08-.18,9.13-.17a.21.21,0,0,0,.21-.22A.21.21,0,0,0,204.78,78.49Z" transform="translate(0 0)" fill="#cacaca"/><path d="M204.77,80c-3.2-.15-6.41-.16-9.62-.15a.18.18,0,1,0,0,.36c3.21,0,6.42.16,9.62.23a.22.22,0,0,0,.21-.23A.23.23,0,0,0,204.77,80Z" transform="translate(0 0)" fill="#cacaca"/><path d="M203.92,81.13c-2.85,0-5.7,0-8.54.05a.18.18,0,0,0-.19.18.18.18,0,0,0,.19.19c2.84,0,5.7.08,8.54,0a.24.24,0,0,0,0-.47Z" transform="translate(0 0)" fill="#cacaca"/><path d="M192.14,79.55a6,6,0,0,0,1.59,0,3,3,0,0,0,1.21-.5,2.33,2.33,0,0,0,1-1.73,1.59,1.59,0,0,0-1.07-1.59,2.18,2.18,0,0,0-.95,0c-1.4.25-2.68,1-4.11,1.15a2.28,2.28,0,0,0-1.48.36A1.32,1.32,0,0,0,188,78a1.42,1.42,0,0,0,.08.93c.3.53,1.16.35,1.67.4Z" transform="translate(0 0)" fill="#f2d6c9"/><path d="M182.8,55a34.34,34.34,0,0,0-6.1,6.36,22.55,22.55,0,0,0-4.2,7,8.48,8.48,0,0,0,1,7.79c1.71,2.15,4.59,3,7.29,3.47a12.84,12.84,0,0,0,3.27.33c1.22-.08,3.17.16,4.33-.23.63-.21.63-.81,1.1-1.26a1.82,1.82,0,0,0,.24-2q-3-.2-5.9-.62c-1.62-.23-3.39-.59-4.44-1.85a4.59,4.59,0,0,1-.22-5A9.94,9.94,0,0,1,183,65.29a47.87,47.87,0,0,0,4.56-2.74c2.41-1.84,12.55-9.15,9.66-12.24C195,47.88,184.78,53.46,182.8,55Z" transform="translate(0 0)" fill="#eb7b6b"/><path d="M223.73,59.91a2.77,2.77,0,0,0-.85-2l-3-3.77a12.11,12.11,0,0,0-1.57-1.71,11.47,11.47,0,0,0-4.21-1.9c-1.7-.49-3.69-.92-5.12.12a3.93,3.93,0,0,0-1.43,3.19,10.14,10.14,0,0,0,.84,3.52,34.34,34.34,0,0,0,2.23,5c.76,1.31,1.6,1.21,2.88.63A35.53,35.53,0,0,1,223.73,59.91Z" transform="translate(0 0)" fill="#e6c125"/><path d="M184.56,58.41a40.83,40.83,0,0,0,3.82,4.88.44.44,0,0,0,.73.11,26.12,26.12,0,0,0,2.7-3c1.83-1.91,4.47-3,5.91-5.25a6.52,6.52,0,0,0,1-4.32,2.74,2.74,0,0,0-.54-1.46,2.53,2.53,0,0,0-2-.8,8.39,8.39,0,0,0-3.07.75Q188.91,51,184.83,53c-.67.32-1.34.64-2,1-.87.44-1.08.44-.52,1.2C183.11,56.2,183.85,57.27,184.56,58.41Z" transform="translate(0 0)" fill="#e6c125"/><path d="M275.2,88.35s.43-6.85-12-6.36l-.71,0-.26.14c-.17.46-.32.92-.45,1.4,0,.13-.07.33-.1.51-.08.75-.06.42,0,0,0-.14,0-.34.07-.58,0,.3-.1.61-.15.91-.37,2.74-.29,5.49-.53,8.24a55.62,55.62,0,0,1-1.19,7,3.84,3.84,0,0,1,1.35.1c.62.22.92,57-.15,60.5l4.94.06S275.62,102,275.2,88.35Z" transform="translate(0 0)" fill="#97a8b2"/><path d="M261.63,56.22A3.72,3.72,0,0,0,257.94,58a7.78,7.78,0,0,0-.68,2.71c-.41,3.32-.93,6.61-1.56,9.9-.42,2.22-.47,6.64-3.62,6.86-1.18.08-2.39-.8-3.55-1A28.25,28.25,0,0,1,243,75.45a9.58,9.58,0,0,1-3.58-2.4c-.67-.65-1.6-1.94-2.49-2.18-.64-.18-1.46.56-1,1.09a1.42,1.42,0,0,0-2,1.21c-.07,1.78,3.44,2.78,4.68,3.55a44.63,44.63,0,0,0,5.9,3.36,27.87,27.87,0,0,0,10.42,2.27,3.41,3.41,0,0,0,1.83-.34c1.15-.71,1.77-2.36,2.64-3.37a6.68,6.68,0,0,0,1.61-2.8,100.65,100.65,0,0,0,2.57-10.3C264.17,62.62,266.34,56.9,261.63,56.22Z" transform="translate(0 0)" fill="#ff8b7b"/><path d="M247.14,108.58c.08,2.19.23,4.37.37,6.56.22,3.27.43,6.54.65,9.81a5.28,5.28,0,0,0,.8,3,.58.58,0,0,0,.24.2c.34.13.61-.3.73-.64a40.57,40.57,0,0,1,6-11.48,8.34,8.34,0,0,1,2.34-2.32,9.54,9.54,0,0,1,2.35-.83l4.86-1.22a4.82,4.82,0,0,0,4-3A45.75,45.75,0,0,0,274.25,98a32.63,32.63,0,0,0,.84-8.47,2.35,2.35,0,0,0-.12-.83,1.89,1.89,0,0,0-.77-.86,8.15,8.15,0,0,0-4.22-1c-5.54-.25-11.2-.36-16.64.94-1.68.4-4.53.8-5.33,2.57-1,2.18-.69,5.55-.81,7.9C247,101.73,247,105.15,247.14,108.58Z" transform="translate(0 0)" fill="#97a8b2"/><path d="M258.47,104.92l-9.31-1.24c-.16-.39.61,0,.56.42-1.62,13-1,26.1.3,39.13a82.41,82.41,0,0,1,0,16.84c1.28.13,3.48.33,4.75.47,2.35-17.44,3.78-34.94,6.13-52.38a2.84,2.84,0,0,0-.48-2.55A3.55,3.55,0,0,0,258.47,104.92Z" transform="translate(0 0)" fill="#97a8b2"/><path d="M254.44,47.42c1.85-.07,3.75-1.32,5.74-1.73-.52-1.61.11-3.34.28-5a17.7,17.7,0,0,0-1.08-6.76A12.2,12.2,0,0,0,257,29a2,2,0,0,0-.9-.61,2.48,2.48,0,0,0-.94,0c-2.19.34-8.27.59-8.85,3.05-.79,3.36,1.53,7.82,2.82,10.8a12.86,12.86,0,0,0,2.32,3.92A3.9,3.9,0,0,0,254.44,47.42Z" transform="translate(0 0)" fill="#ff8b7b"/><path d="M275.67,95.52l0,0,.07-.07.15-.22c.65-1,1.21-2,1.78-3.08a91.61,91.61,0,0,0-4.09-36.18c-1.19-3.74-2.37-7.85-6.83-10.4a2.11,2.11,0,0,0-.76-.31,2.78,2.78,0,0,0-1.11.13l-7.23,1.85-1.45.35c-.51.12-1,.22-1.55.29-.89.13-4.42,1-4.54,1.81q-.46,3.26-.84,6.49a137.08,137.08,0,0,0-1.06,16.07,96.43,96.43,0,0,1-1.35,16c-.07.41-.39,2.56-.77,4.77l.06.12a19.49,19.49,0,0,0,1,1.7l.17.24.08.1a15.53,15.53,0,0,0,1.34,1.35l.18.16c-.65-.62,0,0,.23.14a15.86,15.86,0,0,0,1.54.9l.71.33.17.06q11.34-.48,22.58-1.6A12.16,12.16,0,0,1,275.67,95.52Z" transform="translate(0 0)" fill="#e8e8e8"/><path d="M250.37,159.58a.9.9,0,0,0-.23,0,.44.44,0,0,0-.22.14,2.19,2.19,0,0,0-.58.88,2.41,2.41,0,0,1-.36.88,2.71,2.71,0,0,1-1.13.61,16.63,16.63,0,0,1-3.62.74,3.19,3.19,0,0,0-.81.13,1.58,1.58,0,0,0-1,1.42c0,.15,0,.35.16.44a1.12,1.12,0,0,0,.36,0l8.69,0a14.43,14.43,0,0,0,2.62-.18.67.67,0,0,0,.31-.1.46.46,0,0,0,.17-.24,8.6,8.6,0,0,0,.42-3.83c0-.4-.1-.73-.73-.81-.89-.13.09,0-.82-.05Z" transform="translate(0 0)" fill="#97a8b2"/><path d="M265.84,34.78a6.27,6.27,0,0,0-1.16-3.05A41.79,41.79,0,0,0,262,26.94a6.27,6.27,0,0,0-4.57-2.75,9.16,9.16,0,0,0-2.26.34,39.75,39.75,0,0,0-9.26,3,2.59,2.59,0,0,0-1,.74,2.89,2.89,0,0,0-.33,1c-.09.5-.17,1-.26,1.5a2.59,2.59,0,0,0-.05,1c.18.95,1.32,1.38,2.3,1.44a14.86,14.86,0,0,0,2.9-.22c.92-.13,3.09-.89,3.84-.06.37.41.26,1.1.51,1.58a14,14,0,0,0,1.27,1.5,1.69,1.69,0,0,1,.39,1.76,2.46,2.46,0,0,1,1.82-.27,1,1,0,0,1,.57.3.91.91,0,0,1-.14,1.16,2.67,2.67,0,0,1-1.12.58,6.5,6.5,0,0,1,1.57,6.68,5.73,5.73,0,0,0,3.36-2,11.54,11.54,0,0,0,2.12-2.93,14.89,14.89,0,0,0,.62-1.56l1.13-3.17A5.39,5.39,0,0,0,265.84,34.78Z" transform="translate(0 0)"/><path d="M261.48,159.69a.82.82,0,0,0-.22,0,.55.55,0,0,0-.22.14,2.14,2.14,0,0,0-.59.89,2.53,2.53,0,0,1-.35.87,2.48,2.48,0,0,1-1.14.61,16.42,16.42,0,0,1-3.61.74,3.79,3.79,0,0,0-.82.13,1.58,1.58,0,0,0-1,1.42.36.36,0,0,0,.16.44.9.9,0,0,0,.36.05l8.68,0a15.25,15.25,0,0,0,2.62-.17,1.19,1.19,0,0,0,.32-.1.51.51,0,0,0,.17-.24,8.79,8.79,0,0,0,.42-3.84c0-.4-.1-.72-.73-.81-.9-.12.08,0-.83,0Z" transform="translate(0 0)" fill="#97a8b2"/><path d="M236.58,74.21a22,22,0,0,1-1.25,2.16.37.37,0,0,1-.49.22.24.24,0,0,1-.11-.06L231,74.69c.29-2.91.13-6.44,1-9.21.12-.4,6.21.66,6.61,1.77s-.73,3.75-1.1,4.8C237.23,72.78,236.92,73.51,236.58,74.21Z" transform="translate(0 0)" fill="#c7b299"/><path d="M231.57,65.79a5,5,0,0,0,.54.06,8.45,8.45,0,0,1,1.12.19,41.36,41.36,0,0,1,5.37,1.7.78.78,0,0,0,.36.08.52.52,0,0,0,.38-.39,1.42,1.42,0,0,0,0-.58.17.17,0,0,0-.13-.16l-.27-.11c-.41-.15-.83-.27-1.26-.39-1.83-.51-3.66-1-5.51-1.41a.36.36,0,0,0-.29,0,.92.92,0,0,0-.26.52C231.58,65.44,231.37,65.74,231.57,65.79Z" transform="translate(0 0)" fill="#534741"/><path d="M231.49,71,237,73.37l1.11-2.88-6.58-2.67Z" transform="translate(0 0)" fill="#5b8c87"/><path d="M252.05,38.12a.31.31,0,0,0-.3-.22,29,29,0,0,0-4,.79.35.35,0,0,0-.26.42.36.36,0,0,0,.42.26h0c1.19-.31,2.4-.54,3.6-.8a14.85,14.85,0,0,1,.36,1.88,7.92,7.92,0,0,1,0,.85c0,.5-.76.55-1.09.61a8.27,8.27,0,0,1-1.22.12c-.61,0-.64-.25-.87-.64a11.71,11.71,0,0,1-.86-1.87c-.07-.2-.4-.12-.34.09a11.29,11.29,0,0,0,1.13,2.68c.37.6,1.75.23,2.32.15s1.42-.22,1.51-.94A9.63,9.63,0,0,0,252.05,38.12Z" transform="translate(0 0)" fill="#333"/><path d="M255.32,36.92c-1.17.51-2.32,1.07-3.43,1.69a.21.21,0,0,0-.07.29.21.21,0,0,0,.23.1c1.23-.36,2.43-.77,3.62-1.25C256.13,37.53,255.8,36.74,255.32,36.92Z" transform="translate(0 0)" fill="#333"/><path d="M265.51,56.31c-.46-1.76-2.38-5.45-4.41-2.8a5.9,5.9,0,0,0-.89,2.89q-1.47,12.21-3,24.41c-.52,4.24-1.08,8.62-3.28,12.28a7.12,7.12,0,0,0-.93,1.82,1.88,1.88,0,0,0,.45,1.89c-.72.9-.13,2.84,1.19,2.73a1.52,1.52,0,0,0,.77-.3c1.31-.91,1-2.6,1.29-4,.42-1.91,1-3.78,1.59-5.64,2.26-7.17,5.09-14.16,6.6-21.49C265.73,64.21,266.52,60.15,265.51,56.31Z" transform="translate(0 0)" fill="#ff8b7b"/><path d="M260.39,51.9a2.37,2.37,0,0,0-2.23,2.39q-2.31,11-3.5,22.28l7.61,1.92A46.46,46.46,0,0,0,266.43,56c-.09-1.37-.32-2.88-1.39-3.75C263.79,51.22,262,51.54,260.39,51.9Z" transform="translate(0 0)" fill="#6087a2"/><path d="M174.3,73.16a2.06,2.06,0,0,0,.8.52,2.25,2.25,0,0,0,1.28-.17l.83-.28a.39.39,0,0,0,.34-.43.29.29,0,0,0,0-.09,44.12,44.12,0,0,0-1.47-7.63l-3.4,1.57c-.61.28-2.67.84-2.71,1.59s1.42,2,1.89,2.49A31.34,31.34,0,0,0,174.3,73.16Z" transform="translate(0 0)" fill="#fff"/><path d="M174.83,64.6a2,2,0,0,1,1.06-.23.73.73,0,0,1,.66.73c0,.26-1.4.87-1.64,1-.59.34-1.2.67-1.81,1s-1.24.6-1.87.87c-.35.14-1.1.62-1.5.47-1.5-.52,1.11-2,1.56-2.2A35.39,35.39,0,0,1,174.83,64.6Z" transform="translate(0 0)" fill="#333"/><path d="M161.62,161.14a5.15,5.15,0,0,1-1.66-.06,1.7,1.7,0,0,1-1.21-1c-.15-.45-.08-1-.47-1.3a.77.77,0,0,0-.3-.11c0-9.36.18-14.78.11-24.33a51.51,51.51,0,0,0,.11-9.21q-.33-14.58-.68-29.18a8.3,8.3,0,0,0-.71-3.83c-1-1.94-3.34-3-5.5-3.88-6.42-2.5-13.7-6.08-15.47,2q-.71,3.21-1.18,6.45a9.47,9.47,0,0,0,.16,4.7c1,2.61,2.74,9,5,10.91,5.87,4.92,8.43,10.5,10.37,17-.6,2.18.1,5.27.37,7,1.26,8.09,3.84,15.62,5.11,23.71a5.42,5.42,0,0,0-.61,3.28,1.1,1.1,0,0,0,.23.63,1.29,1.29,0,0,0,.9.32c.9.06,1.81.09,2.72.07a3,3,0,0,0,2-.54A3.24,3.24,0,0,0,161.62,161.14Z" transform="translate(0 0)" fill="#998675"/><path d="M154,105.81c-1.81-4-8.41-6.65-14.65-2.12-3.72,2.7-.89,5.73-.07,8.41a49.73,49.73,0,0,1,2,10,55,55,0,0,1-2,20.25c-1.31,4.55-1.34,9.53-2.24,14.07-.5,2.54-2.08,5.92-1.72,8.44l4.22,0a6.41,6.41,0,0,0,3.6-.67c1-.68,1.55-2.3.68-3.18a5,5,0,0,1-2.64.36c-3.89-.92,1.18-9.67,1.92-11.6,3.17-8.23,6.33-16.46,8.62-24.7C153.28,119.14,156.44,111.24,154,105.81Z" transform="translate(0 0)" fill="#998675"/><path d="M155.16,61.64q2.29,5.64,4.6,11.3a5.83,5.83,0,0,1,.65,3.23c-.36,1.92-2.46,3-4.38,3.39q-5.66-8-11.92-15.63c-2.36-2.87-6.05-9.52-.61-11.52C149.65,50.14,153.32,57.13,155.16,61.64Z" transform="translate(0 0)" fill="#acb18f"/><path d="M169,55.93c.5-.75,1.22-.4,1.85.22q-2.61,9.51-4.68,19.16c-.43,2-1,4.2-2.66,5.34a6.16,6.16,0,0,1-2.45.87c-1.55.26-3.42.13-4.29-1.18-1.24-1.86.29-3.68,1.52-5a13.05,13.05,0,0,0,3-4.57A98.91,98.91,0,0,1,169,55.93Z" transform="translate(0 0)" fill="#acb18f"/><path d="M171.92,55.6a2.69,2.69,0,0,0,.31-.61c.21-.55.43-1.1.65-1.66a2.33,2.33,0,0,0,.22-.78.9.9,0,0,0-.26-.73.87.87,0,0,0-.71-.15,1.85,1.85,0,0,0-.67.34,3.74,3.74,0,0,0-1.07,1.3,4,4,0,0,1-.65,1.18,5.66,5.66,0,0,0-.43.42.88.88,0,0,0-.11.87C169.59,56.7,171.43,56.24,171.92,55.6Z" transform="translate(0 0)" fill="#ff8b7b"/><path d="M161.92,106.9c-.64-13.67-2.07-27.32-3.92-40.9-.69-5-1.5-10.91-6.73-13.25-4.84-2.16-10.8-2.71-14,2.15-1.76,2.72-2.17,6-2.53,9.21q-3.34,29.33-6.68,58.63c2.45.14,31.7,4.47,31.84,2.65v-.07a1.43,1.43,0,0,0,.54-.13,2.12,2.12,0,0,0,1-1.75A82.38,82.38,0,0,0,161.92,106.9Z" transform="translate(0 0)" fill="#ebefeb"/><path d="M170.93,71a2.71,2.71,0,0,1,.2-.42,1.2,1.2,0,0,1,.86-.41c.32,0,.65,0,1-.07,1-.18,1.81-1.17,2.81-1a1.94,1.94,0,0,1,.85.39,1.66,1.66,0,0,1,.72,1,2.15,2.15,0,0,1-.73,1.71,2.82,2.82,0,0,1-.79.71,3.55,3.55,0,0,1-.84.26,4.57,4.57,0,0,0-2,.9c-.46.39-.84.94-1.43,1.09-1.05.26-2-.89-2.16-1.84S170.57,71.84,170.93,71Z" transform="translate(0 0)" fill="#ff8b7b"/><path d="M171.64,74.4l-1.38-2.76c-1.44.23-2.53,1.39-3.57,2.42a38.47,38.47,0,0,1-4.64,3.9,4.7,4.7,0,0,1-3.26,1.17c-1.44-.22-2.36-1.6-3.1-2.86l-8.28-14.16c-2.19-3.74-4.64-2.37-6.21,1-1.43,3.06.41,6.5,1.82,9.26a109.64,109.64,0,0,0,6,10.39c1.28,2,2.84,4,5.14,4.57a7,7,0,0,0,3.36-.2c3.52-1,6.32-3.62,8.9-6.2,1.68-1.68,3.34-3.39,5-5.11a1.39,1.39,0,0,0,.41-.66A1.36,1.36,0,0,0,171.64,74.4Z" transform="translate(0 0)" fill="#acb18f"/><path d="M156,33.8c-.58-1.71-1.48-3.82-3.34-4.26-2-.48-4.85.85-6.31,2.12a12.38,12.38,0,0,0-3.56,6.1,11,11,0,0,0,.33,7.64,6.31,6.31,0,0,0,6.27,3.73,7.35,7.35,0,0,0,4.33-2.72A13.29,13.29,0,0,0,156,33.8Z" transform="translate(0 0)" fill="#ff8b7b"/><path d="M147.31,40.23a1.71,1.71,0,0,0-2.37-.41,1.79,1.79,0,0,0-.46.49c-.39.77,1,3.89,1.2,4.84.54,2.55-2.2,19.9-1.5,22.42A37.41,37.41,0,0,1,132,66a1.75,1.75,0,0,1-1.49-2,1.7,1.7,0,0,1,0-.22c.31-8.24,7.92-36.25,18.14-36a17.93,17.93,0,0,1,3.72.6,8.68,8.68,0,0,1,2.34.82,6.27,6.27,0,0,1,2.78,4.15,18.31,18.31,0,0,1,.2,5.12c0,.52-6.16,0-6.74-.1s-1.9-.63-2.57-.35S147.57,39.54,147.31,40.23Z" transform="translate(0 0)"/><path d="M138.38,94.27a17.6,17.6,0,0,1-4.95-2.06l.76-2.3a31.22,31.22,0,0,0,22.49-.63l.34,3.65a47.6,47.6,0,0,1-5.83.72l-8,.66A17.44,17.44,0,0,1,138.38,94.27Z" transform="translate(0 0)" fill="#fff" opacity="0.19" style="isolation:isolate"/></svg>