<svg xmlns="http://www.w3.org/2000/svg" width="150" height="150" viewBox="0 0 150 150">
    <defs>
        <style>
            .cls-1{fill:#e65039}.cls-2{fill:#fef0d9}.cls-3{fill:#fcb641}.cls-4{fill:#fdd38d}
        </style>
    </defs>
    <g id="ic_komersial" transform="translate(-2.087)">
        <path id="Path_16909" d="M197.914 181.594h85.068a4.706 4.706 0 0 0 4.726-4.688V52.688A4.706 4.706 0 0 0 282.982 48H202.64a4.706 4.706 0 0 0-4.726 4.688z" class="cls-1" data-name="Path 16909" transform="translate(-137.985 -33.938)"/>
        <path id="Path_16910" d="M292.263 216.094h11.815V120h-66.164v56.25h49.623a4.706 4.706 0 0 1 4.726 4.688z" class="cls-2" data-name="Path 16910" transform="translate(-166.17 -84.844)"/>
        <path id="Path_16911" d="M165 312h66.164a4.706 4.706 0 0 1 4.726 4.688v51.562h-77.976" class="cls-3" data-name="Path 16911" transform="translate(-109.8 -220.594)"/>
        <ellipse id="Ellipse_5017" cx="14.178" cy="14.063" class="cls-2" data-name="Ellipse 5017" rx="14.178" ry="14.063" transform="translate(64.655 105.469)"/>
        <path id="Path_16912" d="M317.174 31.438h-47.26v-18.75A4.706 4.706 0 0 1 274.64 8h37.808a4.706 4.706 0 0 1 4.726 4.687z" class="cls-3" data-name="Path 16912" transform="translate(-188.718 -5.656)"/>
        <g id="Group_6054" data-name="Group 6054" transform="translate(4.449 63.281)">
            <path id="Path_16913" d="M54.88 334.313H19.539a9.4 9.4 0 0 1-9.381-10.521l6.4-51.563a9.426 9.426 0 0 1 9.38-8.229h22.543a9.426 9.426 0 0 1 9.381 8.229l6.4 51.563a9.4 9.4 0 0 1-9.382 10.521z" class="cls-4" data-name="Path 16913" transform="translate(-10.085 -249.937)"/>
            <path id="Path_16914" d="M74.27 230.063H50.64L45.914 216H79z" class="cls-4" data-name="Path 16914" transform="translate(-35.331 -216)"/>
        </g>
        <path id="Path_16915" d="M239 368.406a16.542 16.542 0 1 0-16.541 16.406A16.494 16.494 0 0 0 239 368.406zm-16.541 11.719a11.719 11.719 0 1 1 11.815-11.719 11.781 11.781 0 0 1-11.819 11.719z" data-name="Path 16915" transform="translate(-143.622 -248.875)"/>
        <path id="Path_16916" d="M319.907 342.061v-3.717a2.353 2.353 0 0 0-2.363-2.344h-21.267a2.344 2.344 0 1 0 0 4.688h18.9v2.344a2.328 2.328 0 0 0 .692 1.657l4.034 4V365.5l-4.034 4a2.328 2.328 0 0 0-.692 1.657v2.343h-18.9a2.344 2.344 0 1 0 0 4.687h21.267a2.353 2.353 0 0 0 2.363-2.344v-3.717l4.034-4a2.328 2.328 0 0 0 .692-1.657v-18.75a2.328 2.328 0 0 0-.692-1.657z" data-name="Path 16916" transform="translate(-205.629 -237.563)"/>
        <path id="Path_16917" d="M319.338 156.078l-18.9-11.719a2.39 2.39 0 0 0-2.507 0l-18.9 11.719a2.345 2.345 0 0 0-1.108 1.987v4.688a2.363 2.363 0 0 0 4.726 0v-3.389l16.541-10.254 16.541 10.254v3.389a2.363 2.363 0 0 0 4.726 0v-4.687a2.341 2.341 0 0 0-1.119-1.988z" data-name="Path 16917" transform="translate(-194.355 -101.815)"/>
        <path id="Path_16918" d="M324.633 216a2.353 2.353 0 0 0-2.363 2.344v14.063h-4.726v-11.719a4.712 4.712 0 0 0-4.726-4.688h-4.726a4.712 4.712 0 0 0-4.726 4.688v11.719h-4.726v-14.063a2.363 2.363 0 0 0-4.726 0v16.406a2.353 2.353 0 0 0 2.363 2.344h9.452a2.353 2.353 0 0 0 2.363-2.344v-14.062h4.726v14.062a2.353 2.353 0 0 0 2.363 2.344h9.452A2.353 2.353 0 0 0 327 234.75v-16.406a2.353 2.353 0 0 0-2.367-2.344z" data-name="Path 16918" transform="translate(-205.629 -152.719)"/>
        <path id="Path_16919" d="M341 188.688a2.344 2.344 0 1 0 0-4.688h-4.726a2.344 2.344 0 1 0 0 4.688z" data-name="Path 16919" transform="translate(-233.814 -130.094)"/>
        <path id="Path_16920" d="M145 11.719h-14.181V7.031A7.069 7.069 0 0 0 123.73 0H85.922a7.069 7.069 0 0 0-7.089 7.031v4.688H64.655a7.069 7.069 0 0 0-7.089 7.031v70.313H55.2c-.057 0-.1.028-.161.033l-.473-3.809a11.726 11.726 0 0 0-8.107-9.68l3.892-11.583a2.326 2.326 0 0 0-.326-2.112 2.356 2.356 0 0 0-1.914-.975H15.032a2.363 2.363 0 0 0-1.916.975 2.333 2.333 0 0 0-.326 2.112l3.892 11.583a11.732 11.732 0 0 0-8.107 9.68l-6.4 51.562a11.655 11.655 0 0 0 2.878 9.195A11.863 11.863 0 0 0 13.9 150H145a7.069 7.069 0 0 0 7.089-7.031V18.75A7.069 7.069 0 0 0 145 11.719zM83.559 7.031a2.356 2.356 0 0 1 2.363-2.344h37.808a2.356 2.356 0 0 1 2.363 2.344v16.407H83.559zM44.837 65.625L41.687 75H21.462l-3.15-9.375zm3.277 79.687H13.9a7.114 7.114 0 0 1-5.31-2.374 6.994 6.994 0 0 1-1.725-5.517l6.4-51.563a7.076 7.076 0 0 1 7.035-6.17h22.545a7.076 7.076 0 0 1 7.035 6.171l6.4 51.563a6.994 6.994 0 0 1-1.725 5.517 7.117 7.117 0 0 1-5.31 2.374zm11.815 0h-1.25a11.65 11.65 0 0 0 2.136-4.687h6.2a2.344 2.344 0 1 0 0-4.688h-6.16l-4.071-32.812h10.234a2.344 2.344 0 1 0 0-4.687H56.2l-.581-4.687h65.746a2.356 2.356 0 0 1 2.363 2.344v49.219zm61.438-56.25h-47.26V37.5h61.438v91.406h-7.089V96.094a7.069 7.069 0 0 0-7.089-7.031zm25.993 53.906a2.356 2.356 0 0 1-2.36 2.344h-16.544v-11.718h9.452a2.353 2.353 0 0 0 2.363-2.344V35.156a2.353 2.353 0 0 0-2.363-2.344H71.744a2.354 2.354 0 0 0-2.363 2.344v53.907h-7.089V18.75a2.357 2.357 0 0 1 2.363-2.344h14.178v9.375a2.353 2.353 0 0 0 2.367 2.344h47.26a2.353 2.353 0 0 0 2.363-2.344v-9.375H145a2.356 2.356 0 0 1 2.363 2.344z" data-name="Path 16920"/>
        <path id="Path_16921" d="M328.277 44.688h9.452a2.344 2.344 0 1 0 0-4.688h-9.452a2.344 2.344 0 1 0 0 4.688z" data-name="Path 16921" transform="translate(-228.177 -28.281)"/>
        <path id="Path_16922" d="M57.757 149.555l10.338-8.2 10.338 8.2a2.379 2.379 0 0 0 3.322-.366 2.33 2.33 0 0 0-.369-3.293l-11.815-9.375a2.378 2.378 0 0 0-2.951 0L54.806 145.9a2.328 2.328 0 0 0-.369 3.293 2.377 2.377 0 0 0 3.32.362z" data-name="Path 16922" transform="translate(-36.522 -96.162)"/>
        <path id="Path_16923" d="M57.753 37.555l10.338-8.2 10.338 8.2a2.379 2.379 0 0 0 3.322-.366 2.33 2.33 0 0 0-.369-3.293l-11.813-9.375a2.378 2.378 0 0 0-2.951 0L54.8 33.9a2.328 2.328 0 0 0-.371 3.293 2.378 2.378 0 0 0 3.324.362z" data-name="Path 16923" transform="translate(-36.519 -16.974)"/>
        <path id="Path_16924" d="M57.757 93.555l10.338-8.2 10.338 8.2a2.379 2.379 0 0 0 3.322-.366 2.33 2.33 0 0 0-.369-3.293l-11.814-9.375a2.378 2.378 0 0 0-2.951 0L54.806 89.9a2.328 2.328 0 0 0-.369 3.293 2.377 2.377 0 0 0 3.32.362z" data-name="Path 16924" transform="translate(-36.522 -56.568)"/>
    </g>
</svg>
