<svg xmlns="http://www.w3.org/2000/svg" viewBox="0 0 328 273">
  <defs>
    <style>
      .cls-1 {
        fill: #71ab3c;
      }

      .cls-2, .cls-4 {
        opacity: 0.995;
      }

      .cls-3, .cls-4 {
        fill: #f5fffd;
      }
    </style>
  </defs>
  <g id="ic-onboard-1" transform="translate(-16 -57.451)">
    <g id="Group_8653" data-name="Group 8653" transform="translate(16 57.451)">
      <g id="Group_8639" data-name="Group 8639" transform="translate(38.539 15.746)">
        <ellipse id="Ellipse_5056" data-name="Ellipse 5056" class="cls-1" cx="124.123" cy="123.701" rx="124.123" ry="123.701"/>
      </g>
      <g id="Group_8640" data-name="Group 8640" transform="translate(70.695 16.514)">
        <path id="Path_18171" data-name="Path 18171" class="cls-1" d="M187.608,170.8H108.33a12.136,12.136,0,0,1-12.136-12.138h0a12.136,12.136,0,0,1,12.136-12.136h79.278a12.136,12.136,0,0,1,12.136,12.136h0A12.136,12.136,0,0,1,187.608,170.8Z" transform="translate(-96.194 -146.527)"/>
      </g>
      <g id="Group_8641" data-name="Group 8641" transform="translate(53.478 211)">
        <path id="Path_18172" data-name="Path 18172" class="cls-1" d="M96.351,252.548H147.3a9.508,9.508,0,0,1,9.509,9.509h0a9.509,9.509,0,0,1-9.509,9.509H96.351a9.51,9.51,0,0,1-9.509-9.509h0A9.509,9.509,0,0,1,96.351,252.548Z" transform="translate(-86.842 -252.548)"/>
      </g>
      <g id="Group_8642" data-name="Group 8642" transform="translate(46.76 248.147)">
        <path id="Path_18173" data-name="Path 18173" class="cls-1" d="M89.355,272.8h75.482A6.162,6.162,0,0,1,171,278.965h0a6.162,6.162,0,0,1-6.162,6.164H89.355a6.162,6.162,0,0,1-6.162-6.164h0A6.162,6.162,0,0,1,89.355,272.8Z" transform="translate(-83.193 -272.803)"/>
      </g>
      <g id="Group_8643" data-name="Group 8643" transform="translate(211.483 260.674)">
        <rect id="Rectangle_5732" data-name="Rectangle 5732" class="cls-1" width="23.843" height="12.326" rx="3.149" transform="translate(23.843 12.326) rotate(-180)"/>
      </g>
      <g id="Group_8644" data-name="Group 8644" transform="translate(144.24 224.217)">
        <path id="Path_18174" data-name="Path 18174" class="cls-1" d="M146.251,259.8H259.916a10.108,10.108,0,0,1,10.109,10.107h0a10.11,10.11,0,0,1-10.109,10.111H146.251a10.111,10.111,0,0,1-10.109-10.111h0A10.109,10.109,0,0,1,146.251,259.8Z" transform="translate(-136.142 -259.805)"/>
      </g>
      <g id="Group_8645" data-name="Group 8645" transform="translate(73.829 229.737)">
        <path id="Path_18175" data-name="Path 18175" class="cls-1" d="M97.9,262.8h35.493a9.552,9.552,0,0,0-6.723,2.852,8.706,8.706,0,0,0-2.791,6.39,9.229,9.229,0,0,0,9.514,9.168H97.9A8.89,8.89,0,0,0,107.4,272.2,9.4,9.4,0,0,0,97.9,262.8Z" transform="translate(-97.896 -262.803)"/>
      </g>
      <g id="Group_8646" data-name="Group 8646" transform="translate(202.337 121.566)">
        <path id="Path_18176" data-name="Path 18176" class="cls-1" d="M184.778,203.822h91.5A17.082,17.082,0,0,1,293.362,220.9h0a17.08,17.08,0,0,1-17.081,17.079h-91.5A17.078,17.078,0,0,1,167.7,220.9h0A17.081,17.081,0,0,1,184.778,203.822Z" transform="translate(-167.699 -203.822)"/>
      </g>
      <g id="Group_8647" data-name="Group 8647" transform="translate(169.319 188.703)">
        <path id="Path_18177" data-name="Path 18177" class="cls-1" d="M160.834,240.4H296.412a11.071,11.071,0,0,1,11.07,11.07h0a11.071,11.071,0,0,1-11.07,11.07H160.834a11.072,11.072,0,0,1-11.07-11.07h0A11.072,11.072,0,0,1,160.834,240.4Z" transform="translate(-149.764 -240.401)"/>
      </g>
      <g id="Group_8648" data-name="Group 8648" transform="translate(239.968 155.731)">
        <path id="Path_18178" data-name="Path 18178" class="cls-1" d="M188.139,222.444h63.753a16.994,16.994,0,0,0-12.075,4.936,15.624,15.624,0,0,0-5.011,11.47c0,9.433,7.655,16.453,17.087,16.453H188.139c4.711,0,8.979-1.333,12.077-4.4a16.2,16.2,0,0,0,5-11.727A16.77,16.77,0,0,0,188.139,222.444Z" transform="translate(-188.139 -222.444)"/>
      </g>
      <g id="Group_8649" data-name="Group 8649" transform="translate(11.136 70.626)">
        <path id="Path_18179" data-name="Path 18179" class="cls-1" d="M189.2,212.324H81.977A18.133,18.133,0,0,1,63.843,194.19h0a18.133,18.133,0,0,1,18.134-18.134H189.2a18.134,18.134,0,0,1,18.136,18.134h0A18.134,18.134,0,0,1,189.2,212.324Z" transform="translate(-63.843 -176.056)"/>
      </g>
      <g id="Group_8650" data-name="Group 8650" transform="translate(0 156.362)">
        <path id="Path_18180" data-name="Path 18180" class="cls-1" d="M238.947,275.226H84a26.206,26.206,0,0,1-26.207-26.205h0A26.208,26.208,0,0,1,84,222.814H238.947a26.206,26.206,0,0,1,26.2,26.207h0A26.2,26.2,0,0,1,238.947,275.226Z" transform="translate(-57.794 -222.814)"/>
      </g>
      <g id="Group_8651" data-name="Group 8651" transform="translate(168.816 36.874)">
        <path id="Path_18181" data-name="Path 18181" class="cls-1" d="M249.5,186.521H163.958a14.468,14.468,0,0,1-14.467-14.469h0a14.466,14.466,0,0,1,14.467-14.467H249.5a14.466,14.466,0,0,1,14.467,14.467h0A14.468,14.468,0,0,1,249.5,186.521Z" transform="translate(-149.491 -157.586)"/>
      </g>
      <g id="Group_8652" data-name="Group 8652" transform="translate(214.324)">
        <path id="Path_18182" data-name="Path 18182" class="cls-1" d="M202.4,153.3H182.084a7.873,7.873,0,0,1-7.874-7.872h0a7.873,7.873,0,0,1,7.874-7.872H202.4a7.873,7.873,0,0,1,7.874,7.872h0A7.873,7.873,0,0,1,202.4,153.3Z" transform="translate(-174.21 -137.557)"/>
      </g>
    </g>
    <g id="Group_8689" data-name="Group 8689" transform="translate(83 92.988)">
      <g id="Group_8687" data-name="Group 8687" transform="translate(0 0)">
        <g id="Group_8684" data-name="Group 8684" transform="translate(13.735 0)">
          <g id="Group_8671" data-name="Group 8671" class="cls-2" transform="translate(28.457 34.128)">
            <path id="Path_18219" data-name="Path 18219" class="cls-3" d="M2519.788,667.146a1.369,1.369,0,0,1-1.233-1.963l9.071-18.834a5.1,5.1,0,0,0-2.382-6.793l-33.254-15.994a5.089,5.089,0,0,0-6.793,2.381l-14.973,30.687a1.369,1.369,0,1,1-2.46-1.2l14.969-30.68a7.828,7.828,0,0,1,10.444-3.655l33.253,15.994a7.837,7.837,0,0,1,3.662,10.447l-9.072,18.835A1.369,1.369,0,0,1,2519.788,667.146Z" transform="translate(-2418.436 -620.317)"/>
            <path id="Path_18220" data-name="Path 18220" class="cls-3" d="M2472.048,1116.9a7.781,7.781,0,0,1-3.381-.773l-16.693-8.029a1.369,1.369,0,1,1,1.187-2.467l16.693,8.029a5.1,5.1,0,0,0,6.793-2.381l7.916-16.4a1.369,1.369,0,0,1,2.466,1.19l-7.916,16.4A7.836,7.836,0,0,1,2472.048,1116.9Z" transform="translate(-2405.006 -1007.621)"/>
            <path id="Path_18221" data-name="Path 18221" class="cls-3" d="M2497.592,1095.286a1.364,1.364,0,0,1-.593-.136l-24.345-11.71a1.369,1.369,0,1,1,1.187-2.467l24.346,11.71a1.369,1.369,0,0,1-.594,2.6Z" transform="translate(-2421.911 -996.775)"/>
            <path id="Path_18222" data-name="Path 18222" class="cls-3" d="M2597.622,674.741a1.361,1.361,0,0,1-.593-.136l-43.1-20.729a1.369,1.369,0,0,1,1.187-2.468l43.1,20.73a1.369,1.369,0,0,1-.594,2.6Z" transform="translate(-2488.351 -645.622)"/>
            <path id="Path_18223" data-name="Path 18223" class="cls-3" d="M2472.595,1122.1a1.362,1.362,0,0,1-.593-.136l-4.606-2.215a1.369,1.369,0,0,1,1.187-2.468l4.606,2.215a1.369,1.369,0,0,1-.594,2.6Z" transform="translate(-2417.613 -1026.457)"/>
            <path id="Path_18224" data-name="Path 18224" class="cls-3" d="M2199.512,884.7a1.37,1.37,0,0,1-1.233-1.963l13.017-27.063,5.227-29.12a16,16,0,0,1,6.8-12.69l27.655-19.177a7.931,7.931,0,0,1,9.278,12.862l-19.965,14.912a42.188,42.188,0,0,1,7.687,12.628,31.7,31.7,0,0,1,2.053,14.7,34.1,34.1,0,0,1-7.461,17.446,1.369,1.369,0,0,1-2.159-1.684,31.418,31.418,0,0,0,6.9-16.048,28.993,28.993,0,0,0-1.888-13.437,38.933,38.933,0,0,0-8.129-12.8,1.369,1.369,0,0,1,.132-2.081l21.195-15.831a5.193,5.193,0,0,0-6.077-8.42l-27.652,19.175a13.246,13.246,0,0,0-5.626,10.6,1.325,1.325,0,0,1-.021.219l-5.279,29.41a1.377,1.377,0,0,1-.114.352l-13.1,27.231A1.37,1.37,0,0,1,2199.512,884.7Z" transform="translate(-2198.144 -761.696)"/>
            <path id="Path_18225" data-name="Path 18225" class="cls-3" d="M2680.589,878.579a7.37,7.37,0,0,1-7.081-5.393h0a7.37,7.37,0,0,1,5.122-9.063l12.1-3.363a7.361,7.361,0,1,1,3.941,14.184l-12.1,3.363A7.4,7.4,0,0,1,2680.589,878.579Zm12.121-15.351a4.644,4.644,0,0,0-1.245.171l-12.1,3.363a4.628,4.628,0,0,0-3.216,5.691h0a4.623,4.623,0,0,0,5.692,3.216l12.1-3.363a4.624,4.624,0,0,0-1.23-9.078Z" transform="translate(-2586.516 -816.65)"/>
            <path id="Path_18226" data-name="Path 18226" class="cls-3" d="M2665.882,951.759a7.361,7.361,0,0,1-1.973-14.453l12.1-3.363a7.361,7.361,0,0,1,3.941,14.184l-12.1,3.363A7.34,7.34,0,0,1,2665.882,951.759Zm12.1-15.348a4.608,4.608,0,0,0-1.236.169l-12.1,3.363a4.622,4.622,0,0,0,2.475,8.907l12.1-3.363a4.623,4.623,0,0,0-1.24-9.077Z" transform="translate(-2574.483 -876.474)"/>
            <path id="Path_18227" data-name="Path 18227" class="cls-3" d="M2627.823,1030.839a7.362,7.362,0,0,1-1.959-14.456l12.1-3.363a7.361,7.361,0,0,1,3.942,14.184l-12.1,3.363A7.387,7.387,0,0,1,2627.823,1030.839Zm12.112-15.35a4.612,4.612,0,0,0-1.237.169l-12.1,3.363a4.623,4.623,0,0,0-3.216,5.691h0a4.623,4.623,0,0,0,5.691,3.216l12.1-3.363a4.623,4.623,0,0,0-1.239-9.077Z" transform="translate(-2543.38 -941.117)"/>
            <path id="Path_18228" data-name="Path 18228" class="cls-3" d="M2366.854,1237.717a1.37,1.37,0,0,1-1.233-1.963l12.274-25.518a1.37,1.37,0,0,1,1.265-.775,23.184,23.184,0,0,0,14.284-4.2,19.2,19.2,0,0,0,4.592-4.469,1.369,1.369,0,0,1,2.3,1.493,21.439,21.439,0,0,1-5.192,5.13,25.98,25.98,0,0,1-15.154,4.793l-11.9,24.735A1.369,1.369,0,0,1,2366.854,1237.717Z" transform="translate(-2334.939 -1094.325)"/>
          </g>
          <path id="Path_18229" data-name="Path 18229" class="cls-4" d="M2045.809,1009.577a1.369,1.369,0,0,1-1.331-1.056,85.02,85.02,0,0,1-1.564-29.989,1.369,1.369,0,0,1,2.717.343,82.286,82.286,0,0,0,1.513,29.019,1.369,1.369,0,0,1-1.019,1.646A1.384,1.384,0,0,1,2045.809,1009.577Z" transform="translate(-2042.246 -878.038)"/>
          <path id="Path_18230" data-name="Path 18230" class="cls-4" d="M2202.348,1345.143a83.274,83.274,0,0,1-37.924-9.01,84.939,84.939,0,0,1-28.99-24.1,1.369,1.369,0,0,1,2.176-1.662,82.183,82.183,0,0,0,28.05,23.323,80.563,80.563,0,0,0,36.689,8.715,82.178,82.178,0,0,0,14.694-1.322,1.369,1.369,0,1,1,.491,2.693A84.922,84.922,0,0,1,2202.348,1345.143Z" transform="translate(-2118.193 -1149.839)"/>
          <path id="Path_18231" data-name="Path 18231" class="cls-4" d="M2931.48,1135.762a1.37,1.37,0,0,1-1.321-1.732c.679-2.468,1.246-5,1.687-7.52a1.369,1.369,0,0,1,2.7.471c-.456,2.607-1.042,5.223-1.744,7.774A1.369,1.369,0,0,1,2931.48,1135.762Z" transform="translate(-2768.042 -999.056)"/>
          <path id="Path_18232" data-name="Path 18232" class="cls-4" d="M2877.973,802.129a1.37,1.37,0,0,1-1.338-1.084,80.551,80.551,0,0,0-13.78-30.856,1.369,1.369,0,0,1,2.213-1.612,83.273,83.273,0,0,1,14.246,31.9,1.369,1.369,0,0,1-1.34,1.654Z" transform="translate(-2712.848 -706.925)"/>
          <g id="Group_8674" data-name="Group 8674" class="cls-2" transform="translate(1.689 137.086)">
            <g id="Group_8672" data-name="Group 8672" transform="translate(0 7.028)">
              <path id="Path_18233" data-name="Path 18233" class="cls-3" d="M2055.79,1225.588h-2.921a1.369,1.369,0,0,1,0-2.738h2.921a1.369,1.369,0,0,1,0,2.738Z" transform="translate(-2051.5 -1222.85)"/>
              <path id="Path_18234" data-name="Path 18234" class="cls-3" d="M2116.155,1225.588h-3.286a1.369,1.369,0,0,1,0-2.738h3.286a1.369,1.369,0,1,1,0,2.738Z" transform="translate(-2100.548 -1222.85)"/>
            </g>
            <g id="Group_8673" data-name="Group 8673" transform="translate(7.028)">
              <path id="Path_18235" data-name="Path 18235" class="cls-3" d="M2091.369,1252.008a1.369,1.369,0,0,1-1.369-1.369v-2.921a1.369,1.369,0,1,1,2.738,0v2.921A1.369,1.369,0,0,1,2091.369,1252.008Z" transform="translate(-2090 -1235.032)"/>
              <path id="Path_18236" data-name="Path 18236" class="cls-3" d="M2091.369,1190.374A1.369,1.369,0,0,1,2090,1189v-3.286a1.369,1.369,0,1,1,2.738,0V1189A1.369,1.369,0,0,1,2091.369,1190.374Z" transform="translate(-2090 -1184.35)"/>
            </g>
          </g>
          <g id="Group_8677" data-name="Group 8677" class="cls-2" transform="translate(157.211 101.856)">
            <g id="Group_8675" data-name="Group 8675" transform="translate(0 7.028)">
              <path id="Path_18237" data-name="Path 18237" class="cls-3" d="M2907.79,1032.588h-2.921a1.369,1.369,0,0,1,0-2.738h2.921a1.369,1.369,0,1,1,0,2.738Z" transform="translate(-2903.5 -1029.85)"/>
              <path id="Path_18238" data-name="Path 18238" class="cls-3" d="M2968.155,1032.588h-3.286a1.369,1.369,0,0,1,0-2.738h3.286a1.369,1.369,0,1,1,0,2.738Z" transform="translate(-2952.548 -1029.85)"/>
            </g>
            <g id="Group_8676" data-name="Group 8676" transform="translate(7.028)">
              <path id="Path_18239" data-name="Path 18239" class="cls-3" d="M2943.369,1059.009a1.369,1.369,0,0,1-1.369-1.369v-2.921a1.369,1.369,0,0,1,2.738,0v2.921A1.369,1.369,0,0,1,2943.369,1059.009Z" transform="translate(-2942 -1042.033)"/>
              <path id="Path_18240" data-name="Path 18240" class="cls-3" d="M2943.369,997.374A1.369,1.369,0,0,1,2942,996v-3.286a1.369,1.369,0,1,1,2.738,0V996A1.369,1.369,0,0,1,2943.369,997.374Z" transform="translate(-2942 -991.35)"/>
            </g>
          </g>
          <g id="Group_8680" data-name="Group 8680" class="cls-2" transform="translate(57.363)">
            <g id="Group_8678" data-name="Group 8678" transform="translate(0 7.028)">
              <path id="Path_18241" data-name="Path 18241" class="cls-3" d="M2360.79,474.588h-2.921a1.369,1.369,0,0,1,0-2.738h2.921a1.369,1.369,0,0,1,0,2.738Z" transform="translate(-2356.5 -471.85)"/>
              <path id="Path_18242" data-name="Path 18242" class="cls-3" d="M2421.155,474.588h-3.285a1.369,1.369,0,1,1,0-2.738h3.285a1.369,1.369,0,1,1,0,2.738Z" transform="translate(-2405.548 -471.85)"/>
            </g>
            <g id="Group_8679" data-name="Group 8679" transform="translate(7.028)">
              <path id="Path_18243" data-name="Path 18243" class="cls-3" d="M2396.369,501.009A1.369,1.369,0,0,1,2395,499.64v-2.921a1.369,1.369,0,1,1,2.738,0v2.921A1.369,1.369,0,0,1,2396.369,501.009Z" transform="translate(-2395 -484.033)"/>
              <path id="Path_18244" data-name="Path 18244" class="cls-3" d="M2396.369,439.374A1.369,1.369,0,0,1,2395,438v-3.286a1.369,1.369,0,1,1,2.738,0V438A1.369,1.369,0,0,1,2396.369,439.374Z" transform="translate(-2395 -433.35)"/>
            </g>
          </g>
          <g id="Group_8683" data-name="Group 8683" class="cls-2" transform="translate(153.013 147.49)">
            <g id="Group_8681" data-name="Group 8681" transform="translate(0 7.028)">
              <path id="Path_18245" data-name="Path 18245" class="cls-3" d="M2884.79,1282.588h-2.921a1.369,1.369,0,0,1,0-2.738h2.921a1.369,1.369,0,1,1,0,2.738Z" transform="translate(-2880.5 -1279.85)"/>
              <path id="Path_18246" data-name="Path 18246" class="cls-3" d="M2945.154,1282.588h-3.286a1.369,1.369,0,0,1,0-2.738h3.286a1.369,1.369,0,1,1,0,2.738Z" transform="translate(-2929.547 -1279.85)"/>
            </g>
            <g id="Group_8682" data-name="Group 8682" transform="translate(7.028)">
              <path id="Path_18247" data-name="Path 18247" class="cls-3" d="M2920.369,1309.009a1.369,1.369,0,0,1-1.369-1.369v-2.92a1.369,1.369,0,1,1,2.738,0v2.92A1.369,1.369,0,0,1,2920.369,1309.009Z" transform="translate(-2919 -1292.033)"/>
              <path id="Path_18248" data-name="Path 18248" class="cls-3" d="M2920.369,1247.374A1.369,1.369,0,0,1,2919,1246v-3.286a1.369,1.369,0,0,1,2.738,0V1246A1.369,1.369,0,0,1,2920.369,1247.374Z" transform="translate(-2919 -1241.35)"/>
            </g>
          </g>
          <path id="Path_18249" data-name="Path 18249" class="cls-4" d="M2148.137,1055.415a4.437,4.437,0,1,1,4.438-4.437A4.442,4.442,0,0,1,2148.137,1055.415Zm0-6.136a1.7,1.7,0,1,0,1.7,1.7A1.7,1.7,0,0,0,2148.137,1049.279Z" transform="translate(-2125.181 -934.611)"/>
          <path id="Path_18250" data-name="Path 18250" class="cls-4" d="M2464.415,568.906a4.437,4.437,0,1,1,4.437-4.437A4.442,4.442,0,0,1,2464.415,568.906Zm0-6.137a1.7,1.7,0,1,0,1.7,1.7A1.7,1.7,0,0,0,2464.415,562.769Z" transform="translate(-2383.726 -536.907)"/>
          <path id="Path_18251" data-name="Path 18251" class="cls-4" d="M2810.415,1198.906a4.437,4.437,0,1,1,4.438-4.437A4.442,4.442,0,0,1,2810.415,1198.906Zm0-6.137a1.7,1.7,0,1,0,1.7,1.7A1.7,1.7,0,0,0,2810.415,1192.769Z" transform="translate(-2666.568 -1051.908)"/>
        </g>
        <path id="Path_18252" data-name="Path 18252" class="cls-3" d="M2637.182,1331.463a22.057,22.057,0,1,1,22.057-22.057A22.081,22.081,0,0,1,2637.182,1331.463Zm0-41.375a19.318,19.318,0,1,0,19.318,19.318A19.341,19.341,0,0,0,2637.182,1290.088Z" transform="translate(-2496.819 -1131.463)"/>
        <path id="Path_18253" data-name="Path 18253" class="cls-3" d="M2131.042,598.452a1.37,1.37,0,0,1-1.338-1.665l4.734-21.435-49.721-10.983-5.011,23.384a1.369,1.369,0,1,1-2.677-.574l5.3-24.731a1.369,1.369,0,0,1,1.634-1.05l52.4,11.575a1.369,1.369,0,0,1,1.042,1.632l-5.03,22.771A1.37,1.37,0,0,1,2131.042,598.452Z" transform="translate(-2056.92 -537.999)"/>
        <path id="Path_18254" data-name="Path 18254" class="cls-3" d="M2156.477,624.185a1.37,1.37,0,0,1-1.338-1.665l1.976-8.945a5.481,5.481,0,0,1-2.93-4.643l-31.89-7.044a5.364,5.364,0,0,1-1.958,2.135,5.478,5.478,0,0,1-2.762.83l-1.7,7.709a5.479,5.479,0,0,1,2.154,1.9,5.347,5.347,0,0,1,.755,4.128,1.369,1.369,0,0,1-2.674-.591,2.631,2.631,0,0,0-.367-2.031,2.812,2.812,0,0,0-1.76-1.19,1.369,1.369,0,0,1-1.042-1.632l2.222-10.059a1.369,1.369,0,0,1,1.632-1.041,2.8,2.8,0,0,0,2.1-.347,2.665,2.665,0,0,0,1.2-1.7,1.369,1.369,0,0,1,1.632-1.042l34.228,7.561a1.368,1.368,0,0,1,1.042,1.632,2.7,2.7,0,0,0,.368,2.054,2.633,2.633,0,0,0,1.65,1.167,1.369,1.369,0,0,1,1.042,1.632l-2.233,10.108A1.37,1.37,0,0,1,2156.477,624.185Z" transform="translate(-2086.272 -568.701)"/>
        <path id="Path_18255" data-name="Path 18255" class="cls-3" d="M2220.614,661.27a4.393,4.393,0,1,1,4.289-3.446h0A4.4,4.4,0,0,1,2220.614,661.27Zm0-6.049a1.656,1.656,0,1,0,.357.039A1.658,1.658,0,0,0,2220.613,655.221Zm2.953,2.307h0Z" transform="translate(-2170.727 -612.483)"/>
        <g id="Group_8685" data-name="Group 8685" transform="translate(0 52.662)">
          <path id="Path_18256" data-name="Path 18256" class="cls-3" d="M2106.8,817.756h-.031a4.709,4.709,0,0,1,.029-9.417h.031a4.709,4.709,0,0,1-.029,9.417Zm0-6.679a1.971,1.971,0,0,0-1.97,1.958h0a1.971,1.971,0,0,0,1.958,1.983h.013a1.971,1.971,0,0,0,.012-3.941Zm-3.339,1.95h0Z" transform="translate(-2077.433 -792.552)"/>
          <path id="Path_18257" data-name="Path 18257" class="cls-3" d="M2023.86,760.913h-55.491a1.369,1.369,0,0,1-1.369-1.369V723.219a1.369,1.369,0,0,1,1.369-1.369h55.491a1.369,1.369,0,0,1,1.369,1.369v36.325A1.369,1.369,0,0,1,2023.86,760.913Zm-54.122-2.738h52.753V724.588h-52.753Z" transform="translate(-1967 -721.85)"/>
          <path id="Path_18258" data-name="Path 18258" class="cls-3" d="M2038.544,778.691h-37.77a1.369,1.369,0,0,1-1.312-.979,5.032,5.032,0,0,0-2.656-3.1,1.369,1.369,0,0,1-.781-1.236V754.8a1.369,1.369,0,0,1,.781-1.236,5.067,5.067,0,0,0,2.563-2.814,1.369,1.369,0,0,1,1.286-.9h38.009a1.369,1.369,0,0,1,1.286.9,5.028,5.028,0,0,0,2.849,2.938,1.37,1.37,0,0,1,.859,1.271v18.259a1.369,1.369,0,0,1-.859,1.27,5.06,5.06,0,0,0-2.943,3.224A1.369,1.369,0,0,1,2038.544,778.691Zm-36.823-2.738H2037.6a7.856,7.856,0,0,1,3.322-3.6V755.821a7.781,7.781,0,0,1-3.148-3.233h-36.228a7.865,7.865,0,0,1-2.781,3.018v16.962A7.782,7.782,0,0,1,2001.721,775.953Z" transform="translate(-1990.727 -744.739)"/>
        </g>
        <g id="Group_8686" data-name="Group 8686" transform="translate(129.054 171.125)">
          <path id="Path_18259" data-name="Path 18259" class="cls-3" d="M2685.315,1383.21a1.058,1.058,0,0,1,.149.536,1.027,1.027,0,0,1-.239.656,1.123,1.123,0,0,1-.914.358,1.782,1.782,0,0,1-.874-.219q-1.431-.814-1.431-3.318a1.444,1.444,0,0,0-.467-1.133,1.95,1.95,0,0,0-1.341-.417h-3.715v3.855a1.3,1.3,0,0,1-.289.874.955.955,0,0,1-.765.338,1.541,1.541,0,0,1-1-.348,1.071,1.071,0,0,1-.427-.864v-11.485a1.188,1.188,0,0,1,1.212-1.212h5.722a3.687,3.687,0,0,1,1.947.556,4.112,4.112,0,0,1,1.46,1.53,4.389,4.389,0,0,1,.546,2.186,3.874,3.874,0,0,1-.536,1.937,4.273,4.273,0,0,1-1.391,1.5,3.046,3.046,0,0,1,1.371,2.345,3.38,3.38,0,0,1,.059.616,6.238,6.238,0,0,0,.159.884.654.654,0,0,0,.358.407A1.174,1.174,0,0,1,2685.315,1383.21Zm-3.785-5.921a2.572,2.572,0,0,0,.556-.9,3.368,3.368,0,0,0,.218-1.222,2.387,2.387,0,0,0-.218-1.023,2.106,2.106,0,0,0-.556-.745,1.088,1.088,0,0,0-.7-.278h-4.351v4.51h4.351A.989.989,0,0,0,2681.531,1377.288Z" transform="translate(-2674 -1370.831)"/>
          <path id="Path_18260" data-name="Path 18260" class="cls-3" d="M2755.678,1388.408a4.949,4.949,0,0,1,1.759,1.957,6.114,6.114,0,0,1,.646,2.841,6.249,6.249,0,0,1-.636,2.851,4.883,4.883,0,0,1-1.739,1.967,4.425,4.425,0,0,1-2.434.705,4.258,4.258,0,0,1-1.8-.387,4.755,4.755,0,0,1-1.4-.944v3.894a1.192,1.192,0,0,1-.338.864,1.141,1.141,0,0,1-.854.348,1.159,1.159,0,0,1-.855-.338,1.183,1.183,0,0,1-.338-.874v-12.18a1.192,1.192,0,0,1,.338-.864,1.224,1.224,0,0,1,1.709,0,1.193,1.193,0,0,1,.338.864v.079a4.109,4.109,0,0,1,1.331-1.043,3.805,3.805,0,0,1,1.788-.447A4.547,4.547,0,0,1,2755.678,1388.408Zm-.7,7.183a3.9,3.9,0,0,0,.009-4.759,2.625,2.625,0,0,0-2.1-.944,2.653,2.653,0,0,0-2.106.944,3.5,3.5,0,0,0-.815,2.375,3.541,3.541,0,0,0,.815,2.384,2.78,2.78,0,0,0,4.193,0Z" transform="translate(-2734.24 -1384.623)"/>
        </g>
      </g>
      <g id="Group_8688" data-name="Group 8688" transform="translate(123.429 4.98)">
        <path id="Path_18261" data-name="Path 18261" class="cls-3" d="M2723.117,627.76a1.369,1.369,0,0,1-1.349-1.982l2.99-5.9a1.369,1.369,0,1,1,2.442,1.238l-2.99,5.9A1.368,1.368,0,0,1,2723.117,627.76Z" transform="translate(-2707.302 -590.197)"/>
        <path id="Path_18262" data-name="Path 18262" class="cls-3" d="M2778.821,516.005a1.369,1.369,0,0,1-1.349-1.982l2.991-5.9a1.369,1.369,0,1,1,2.442,1.238l-2.99,5.9A1.367,1.367,0,0,1,2778.821,516.005Z" transform="translate(-2752.838 -498.842)"/>
        <path id="Path_18263" data-name="Path 18263" class="cls-3" d="M2808.4,483.627a1.366,1.366,0,0,1-.419-.025l-.083-.018a1.369,1.369,0,0,1,.579-2.676l.083.018a1.369,1.369,0,0,1-.161,2.7Z" transform="translate(-2776.95 -477.182)"/>
        <path id="Path_18264" data-name="Path 18264" class="cls-3" d="M2644.68,523.346a1.369,1.369,0,0,1-1.348-1.984l7.032-13.815a1.369,1.369,0,0,1,2.44,1.242l-7.032,13.816A1.369,1.369,0,0,1,2644.68,523.346Z" transform="translate(-2643.183 -498.371)"/>
        <path id="Path_18265" data-name="Path 18265" class="cls-3" d="M2779.51,566.3a1.369,1.369,0,0,1-1.347-1.986l10.9-21.333a1.369,1.369,0,1,1,2.438,1.246l-10.9,21.333A1.368,1.368,0,0,1,2779.51,566.3Z" transform="translate(-2753.402 -527.337)"/>
        <path id="Path_18266" data-name="Path 18266" class="cls-3" d="M2851.394,491.214a1.369,1.369,0,0,1-1.352-1.977l3.161-6.3a1.369,1.369,0,1,1,2.447,1.228l-3.16,6.3A1.369,1.369,0,0,1,2851.394,491.214Z" transform="translate(-2812.164 -478.25)"/>
        <path id="Path_18267" data-name="Path 18267" class="cls-3" d="M2747.073,572.987a4.316,4.316,0,1,1,3.419-2.285A4.293,4.293,0,0,1,2747.073,572.987Zm-.546-5.871a1.591,1.591,0,0,0-.322.065,1.571,1.571,0,1,0,.322-.065Z" transform="translate(-2724.253 -545.435)"/>
        <path id="Path_18268" data-name="Path 18268" class="cls-3" d="M2879.644,463.442a1.369,1.369,0,0,1-1.417-.9l-.027-.075a1.369,1.369,0,1,1,2.578-.923l.027.075a1.371,1.371,0,0,1-1.161,1.825Z" transform="translate(-2835.235 -460.634)"/>
      </g>
    </g>
  </g>
</svg>
