<svg xmlns="http://www.w3.org/2000/svg" width="140" height="60" viewBox="0 0 140 60">
    <defs>
        <style>
            .cls-1{fill:none}.cls-2{fill:#27a08b}.cls-3{fill:#068675}.cls-4{fill:#fff}
        </style>
    </defs>
    <g id="ic_pin_activation" transform="translate(-8349 -14098)">
        <path id="Rectangle_5706" d="M0 0h140v60H0z" class="cls-1" data-name="Rectangle 5706" transform="translate(8349 14098)"/>
        <g id="Group_6665" data-name="Group 6665" transform="translate(8349.999 14098)">
            <path id="Path_17972" d="M138.4 162.1v25.834a17.1 17.1 0 0 1-17.082 17.082H17.085A17.1 17.1 0 0 1 0 187.938V162.1a17.1 17.1 0 0 1 17.085-17.082H121.32A17.1 17.1 0 0 1 138.4 162.1z" class="cls-2" data-name="Path 17972" transform="translate(0 -145.022)"/>
            <path id="Path_17973" d="M325.143 162.105v25.834a17.1 17.1 0 0 1-17.082 17.082H255.92v-60h52.141a17.1 17.1 0 0 1 17.082 17.084z" class="cls-3" data-name="Path 17973" transform="translate(-186.741 -145.022)"/>
            <g id="Group_6664" data-name="Group 6664" transform="translate(16.489 19.453)">
                <g id="Group_6663" data-name="Group 6663">
                    <path id="Path_17974" d="M73.57 224.961a2.557 2.557 0 0 1 .767-1.8 2.488 2.488 0 0 1 1.872-.807 1.823 1.823 0 0 1 .72.142l5.041 1.613-.237-4.841a2.221 2.221 0 0 1 .747-1.685 2.909 2.909 0 0 1 3.49-.024 2.2 2.2 0 0 1 .747 1.709l-.19 4.936 5.031-1.708a1.781 1.781 0 0 1 .712-.142 2.144 2.144 0 0 1 1.756.926 3.239 3.239 0 0 1 .712 2.017 1.889 1.889 0 0 1-1.614 2.088l-4.841 1.139 3.322 4.794a2.163 2.163 0 0 1 .38 1.376 2.269 2.269 0 0 1-.9 1.827 3.079 3.079 0 0 1-1.993.736 1.975 1.975 0 0 1-1.8-.9l-3.038-4.746L81.1 236.4a1.815 1.815 0 0 1-1.671.854 3.524 3.524 0 0 1-2.006-.688 2.077 2.077 0 0 1-1-1.78 2.268 2.268 0 0 1 .57-1.519l3.132-4.461-4.936-1.423q-1.62-.333-1.619-2.422z" class="cls-4" data-name="Path 17974" transform="translate(-73.57 -216.987)"/>
                    <path id="Path_17975" d="M177.337 224.961a2.557 2.557 0 0 1 .767-1.8 2.488 2.488 0 0 1 1.873-.807 1.823 1.823 0 0 1 .72.142l5.041 1.613-.237-4.841a2.221 2.221 0 0 1 .747-1.685 2.909 2.909 0 0 1 3.49-.024 2.2 2.2 0 0 1 .747 1.709l-.19 4.936 5.031-1.708a1.781 1.781 0 0 1 .712-.142 2.144 2.144 0 0 1 1.756.926 3.239 3.239 0 0 1 .712 2.017 1.889 1.889 0 0 1-1.614 2.088l-4.841 1.139 3.322 4.794a2.163 2.163 0 0 1 .38 1.376 2.269 2.269 0 0 1-.9 1.827 3.079 3.079 0 0 1-1.993.736 1.975 1.975 0 0 1-1.8-.9l-3.038-4.746-3.152 4.794a1.815 1.815 0 0 1-1.671.854 3.523 3.523 0 0 1-2.006-.688 2.077 2.077 0 0 1-1-1.78 2.268 2.268 0 0 1 .57-1.519l3.132-4.461-4.936-1.424q-1.623-.337-1.622-2.426z" class="cls-4" data-name="Path 17975" transform="translate(-149.287 -216.987)"/>
                </g>
                <path id="Path_17976" d="M281.1 224.961a2.557 2.557 0 0 1 .767-1.8 2.488 2.488 0 0 1 1.872-.807 1.823 1.823 0 0 1 .72.142l5.041 1.613-.237-4.841a2.221 2.221 0 0 1 .747-1.685 2.909 2.909 0 0 1 3.49-.024 2.2 2.2 0 0 1 .747 1.709l-.19 4.936 5.031-1.708a1.781 1.781 0 0 1 .712-.142 2.144 2.144 0 0 1 1.756.926 3.238 3.238 0 0 1 .712 2.017 1.889 1.889 0 0 1-1.614 2.088l-4.841 1.139 3.322 4.794a2.163 2.163 0 0 1 .38 1.376 2.269 2.269 0 0 1-.9 1.827 3.079 3.079 0 0 1-1.993.736 1.975 1.975 0 0 1-1.8-.9l-3.038-4.746-3.152 4.794a1.815 1.815 0 0 1-1.671.854 3.523 3.523 0 0 1-2.006-.688 2.077 2.077 0 0 1-1-1.78 2.268 2.268 0 0 1 .57-1.519l3.132-4.461-4.936-1.424q-1.621-.337-1.621-2.426z" class="cls-4" data-name="Path 17976" transform="translate(-225.004 -216.987)"/>
                <path id="Path_17977" d="M281.1 224.961a2.557 2.557 0 0 1 .767-1.8 2.488 2.488 0 0 1 1.872-.807 1.823 1.823 0 0 1 .72.142l5.041 1.613-.237-4.841a2.221 2.221 0 0 1 .747-1.685 2.909 2.909 0 0 1 3.49-.024 2.2 2.2 0 0 1 .747 1.709l-.19 4.936 5.031-1.708a1.781 1.781 0 0 1 .712-.142 2.144 2.144 0 0 1 1.756.926 3.238 3.238 0 0 1 .712 2.017 1.889 1.889 0 0 1-1.614 2.088l-4.841 1.139 3.322 4.794a2.163 2.163 0 0 1 .38 1.376 2.269 2.269 0 0 1-.9 1.827 3.079 3.079 0 0 1-1.993.736 1.975 1.975 0 0 1-1.8-.9l-3.038-4.746-3.152 4.794a1.815 1.815 0 0 1-1.671.854 3.523 3.523 0 0 1-2.006-.688 2.077 2.077 0 0 1-1-1.78 2.268 2.268 0 0 1 .57-1.519l3.132-4.461-4.936-1.424q-1.621-.337-1.621-2.426z" class="cls-4" data-name="Path 17977" transform="translate(-196.891 -216.987)"/>
            </g>
        </g>
    </g>
</svg>
