<svg xmlns="http://www.w3.org/2000/svg" width="200" height="168.142" viewBox="0 0 200 168.142">
    <defs>
        <style>
            .cls-1{fill:#71ab3c}.cls-2{fill:#e6c125}.cls-3{fill:#068675}.cls-4{fill:#096d5c}.cls-5,.cls-9{fill:#02554a}.cls-20,.cls-6{fill:#fff}.cls-16,.cls-20,.cls-7{opacity:.1}.cls-8{fill:#05796a}.cls-9{opacity:.3}.cls-10{fill:url(#linear-gradient)}.cls-11{fill:#a5636d}.cls-12{fill:#ed7a6a}.cls-13{fill:#bebed0}.cls-14{fill:#ff8b7b}.cls-15{fill:none}.cls-17{fill:#f7cddd}.cls-18{fill:#4c3e42}.cls-19{fill:#5c5c8e}.cls-21{fill:#efc8c4}.cls-22{fill:#727a9c}
        </style>
        <linearGradient id="linear-gradient" x1=".5" x2=".5" y1="1" gradientUnits="objectBoundingBox">
            <stop offset="0" stop-color="gray" stop-opacity=".251"/>
            <stop offset=".54" stop-color="gray" stop-opacity=".122"/>
            <stop offset="1" stop-color="gray" stop-opacity=".102"/>
        </linearGradient>
    </defs>
    <g id="Group_9701" data-name="Group 9701" transform="translate(-67 -95.603)">
        <g id="Group_9699" data-name="Group 9699" transform="translate(67 95.603)">
            <path id="Path_20492" d="M197.358 172.714V172.5a72.969 72.969 0 0 0 2.919-20.521c0-19.279-7.755-40.634-33.355-46.844C140.5 98.722 119.573 88.838 97.23 71.05 49.313 32.9-48.917 109.324 30.2 183.778a126.991 126.991 0 0 0 86.96 34.832c38.333-.081 71.688-18.046 80.198-45.896z" class="cls-1" data-name="Path 20492" transform="translate(-.42 -57.955)"/>
            <path id="Path_20493" d="M208.243 141.819a8.647 8.647 0 0 1 .843-3.549c1.384-2.174 3.345-1.624 5.244-.665s3.753 1.553 5.856.648c3.283-1.42 4.827-6.379 1.686-8.712-1.012-.754-2.014.5-1.881 1.446.2 1.331.887 2.8-.284 3.948-1.526 1.535-3.319.248-4.845-.444a6.363 6.363 0 0 0-5.093-.222c-2.919 1.189-5.04 5.146-2.724 7.825a.728.728 0 0 0 1.02 0 .683.683 0 0 0 .169-.3z" class="cls-2" data-name="Path 20493" transform="translate(-23.586 -65.671)"/>
            <path id="Path_20495" d="M49.606 173.865c2.272 2.174 3.132 5.572.967 8.189a6.345 6.345 0 0 1-8.527 1.02c-6.14-4.747.266-13.494 6.895-11.676a1.1 1.1 0 0 1-.248 2.165c-1.934.115-4.011.186-5.564 1.544a4.036 4.036 0 0 0-.337 5.607c3.62 4.436 9.894-2.1 6.1-6.068a.541.541 0 0 1 0-.763.532.532 0 0 1 .737 0z" class="cls-3" data-name="Path 20495" transform="translate(-4.83 -70.391)"/>
            <path id="Path_20496" d="M219.126 193.1c2.272 2.174 3.132 5.563.967 8.18a6.336 6.336 0 0 1-8.527 1.029c-6.14-4.747.266-13.494 6.895-11.684a1.1 1.1 0 0 1-.293 2.156c-1.934.106-4.011.186-5.564 1.544a4.036 4.036 0 0 0-.337 5.607c3.62 4.436 9.894-2.1 6.1-6.077a.536.536 0 1 1 .763-.754z" class="cls-3" data-name="Path 20496" transform="translate(-23.927 -72.56)"/>
            <path id="Path_20497" d="M156.421 225.628c-1.562 5.793-3.283 11.534-5.067 17.265a1.775 1.775 0 0 1-2.928 1c-4.659-3.158-9.326-6.273-13.736-9.759a1.668 1.668 0 0 1-.124-2.351 1.776 1.776 0 0 1 .3-.266c5.173-3.549 12.157-8.783 18.714-8.819 1.668 0 2.84 2.342 1.145 3.309-2.662 1.535-5.821 2.076-8.652 3.247a47.644 47.644 0 0 0-9.4 4.951c-.071-.949-.133-1.907-.2-2.857 4.934 3.034 9.583 6.441 14.277 9.839l-2.769.559c2-5.669 4.055-11.294 6.274-16.857a1.145 1.145 0 0 1 2.139.71z" class="cls-2" data-name="Path 20497" transform="translate(-15.484 -76.205)"/>
            <path id="Path_20498" d="M43.74 60.49c1.562 5.8 3.283 11.534 5.067 17.274a1.775 1.775 0 0 0 2.928 1c4.659-3.167 9.326-6.273 13.736-9.759a1.668 1.668 0 0 0 .124-2.351 1.714 1.714 0 0 0-.3-.257C60.12 62.85 53.137 57.615 46.58 57.58c-1.668 0-2.84 2.333-1.145 3.309 2.662 1.526 5.821 2.076 8.652 3.247a47.174 47.174 0 0 1 9.406 4.986c.071-.958.133-1.907.2-2.857C58.754 69.3 54.1 72.707 49.41 76.1l2.769.55c-2-5.66-4.055-11.285-6.274-16.857a1.145 1.145 0 0 0-2.139.7z" class="cls-2" data-name="Path 20498" transform="translate(-5.3 -57.58)"/>
            <path id="Path_20499" d="M35.854 111.16l1.207-1.2-1.207-1.2a1.44 1.44 0 1 1 2.014-2.058l1.207 1.2 1.2-1.2a1.429 1.429 0 0 1 2.032 0 1.455 1.455 0 0 1 0 2.014l-1.207 1.2 1.207 1.2a1.437 1.437 0 0 1-2.032 2.032l-1.2-1.2-1.2 1.2a1.437 1.437 0 1 1-2.076-1.978v-.053z" class="cls-2" data-name="Path 20499" transform="translate(-4.353 -63.073)"/>
            <path id="Path_20500" d="M186.156 165.551l.887-.887-.887-.887a1.056 1.056 0 0 1 1.491-1.49l.887.887.887-.887a1.056 1.056 0 0 1 1.491 1.491l-.887.887.887.887a1.056 1.056 0 0 1-1.491 1.491l-.887-.887-.887.887a1.056 1.056 0 0 1-1.491-1.491z" class="cls-4" data-name="Path 20500" transform="translate(-11.553 -64.925)"/>
            <path id="Path_20501" d="M143.065 202.71l.887-.887-.887-.887a1.056 1.056 0 1 1 1.491-1.49l.887.887.887-.887a1.056 1.056 0 0 1 1.491 1.49l-.887.887.887.887a1.056 1.056 0 0 1-1.491 1.49l-.887-.887-.887.887a1.056 1.056 0 0 1-1.491-1.49z" class="cls-2" data-name="Path 20501" transform="translate(-16.449 -73.542)"/>
            <path id="Path_20502" d="M182.31 195.879a2.919 2.919 0 1 1 2.919 2.919 2.919 2.919 0 0 1-2.919-2.919z" class="cls-4" data-name="Path 20502" transform="translate(-20.91 -72.851)"/>
            <path id="Path_20503" d="M51.62 146.022a2.032 2.032 0 1 1 2.032 2.032 2.041 2.041 0 0 1-2.032-2.032z" class="cls-4" data-name="Path 20503" transform="translate(-6.188 -67.327)"/>
            <path id="Path_20494" d="M7.313 176.349a8.647 8.647 0 0 1 .843-3.549c1.384-2.174 3.345-1.624 5.244-.665s3.753 1.553 5.856.648c3.283-1.42 4.827-6.379 1.695-8.712-1.02-.754-2.014.5-1.881 1.446.186 1.331.887 2.8-.293 3.948-1.526 1.535-3.319.248-4.836-.444a6.363 6.363 0 0 0-5.093-.222c-2.928 1.18-5.049 5.146-2.724 7.825a.719.719 0 0 0 1.012 0 .8.8 0 0 0 .177-.3z" class="cls-2" data-name="Path 20494" transform="translate(-.951 -69.566)"/>
        </g>
        <g id="Group_9700" data-name="Group 9700" transform="translate(104.283 127.416)">
            <path id="Path_18360" d="M279 495.972a4.015 4.015 0 0 1 3.6-.484s-.511 1.087-2.79 1.073z" class="cls-5" data-name="Path 18360" transform="translate(-268.448 -434.922)"/>
            <path id="Path_18436" d="M305.934 388.83l-17.1 6.609-24.989 9.651c-.943-1.749-2.333-4.142-4.055-6.982-5.917-9.8-15.711-25.044-24.427-38.439-9.824-15.093-18.277-27.839-18.277-27.839l6.12-1.773L273.2 315.57z" class="cls-6" data-name="Path 18436" transform="translate(-217.09 -285.855)"/>
            <path id="Path_18437" d="M335.724 388.83l-17.1 6.609a128.672 128.672 0 0 1-29.044 2.669c-5.918-9.8-15.711-25.044-24.427-38.439L253 330.057l49.992-14.487z" class="cls-7" data-name="Path 18437" transform="translate(-246.88 -285.855)"/>
            <path id="Path_18438" d="M336.83 349.208s-26.561 15.7-66.214 12.156L239 284.357l15.15-2.6 52.371-8.987 29.715 74.95z" class="cls-3" data-name="Path 18438" transform="translate(-235.266 -250.344)"/>
            <path id="Path_18439" d="M410.01 347.72a125.844 125.844 0 0 1-20.769-.589c-7.878-.923-15.793-2.834-22.593-6.332a68.6 68.6 0 0 1-14.77-9.913c-11.012-9.9-17.828-24.056-23.948-49.129l52.37-8.987z" class="cls-7" data-name="Path 18439" transform="translate(-309.039 -250.344)"/>
            <path id="Path_18440" d="M412.2 234.151s-19.586 3.835-39.5 1.473c-7.877-.928-15.8-2.834-22.593-6.332a68.6 68.6 0 0 1-14.77-9.913c-13.635-12.261-20.829-31.032-28.25-68.955 0 0 32.553 7.849 64.716-9.344-.003 0 10.841 67.654 40.397 93.071z" class="cls-6" data-name="Path 18440" transform="translate(-291.743 -141.08)"/>
            <path id="Path_18441" d="M510.193 581.627c-7.878-.928-15.8-2.834-22.593-6.332a68.61 68.61 0 0 1-14.77-9.913c11.6-.942 13.273-7.282 13.273-7.282 8.604 13.644 24.09 23.527 24.09 23.527z" class="cls-7" data-name="Path 18441" transform="translate(-429.243 -487.082)"/>
            <path id="Path_18442" d="M405.85 242.655s17.487 1.994 33.854-7.2l1.122 3.6a87.011 87.011 0 0 1-34.975 7.8z" class="cls-8" data-name="Path 18442" transform="translate(-373.679 -219.387)"/>
            <path id="Path_18443" d="M405.85 329.638a115.224 115.224 0 0 0 36.737-10.748l.654 1.5s-7.122 8.956-37.392 11.3z" class="cls-8" data-name="Path 18443" transform="translate(-373.679 -288.609)"/>
            <path id="Path_18444" d="M417.94 370.326a115.245 115.245 0 0 0 36.737-10.746l.655 1.5s-7.121 8.964-37.392 11.306z" class="cls-8" data-name="Path 18444" transform="translate(-383.708 -322.37)"/>
            <path id="Path_18445" d="M429 414.176a115.25 115.25 0 0 0 36.737-10.746l.655 1.5s-7.131 8.959-37.392 11.306z" class="cls-8" data-name="Path 18445" transform="translate(-392.883 -358.752)"/>
            <path id="Path_18446" d="M442.13 451.756a115.245 115.245 0 0 0 36.737-10.746l.654 1.5s-7.121 8.961-37.392 11.308z" class="cls-8" data-name="Path 18446" transform="translate(-403.775 -389.933)"/>
            <path id="Path_18447" d="M454.23 492.476a115.247 115.247 0 0 0 36.737-10.746l.654 1.5s-7.122 8.961-37.392 11.306z" class="cls-8" data-name="Path 18447" transform="translate(-413.813 -423.718)"/>
            <path id="Rectangle_5784" d="M0 0h5.139v5.136H0z" class="cls-9" data-name="Rectangle 5784" transform="rotate(-18.8 118.256 -203.161)"/>
            <path id="Rectangle_5785" d="M0 0h5.139v5.136H0z" class="cls-9" data-name="Rectangle 5785" transform="rotate(-18.8 141.479 -207.903)"/>
            <path id="Rectangle_5786" d="M0 0h5.139v5.136H0z" class="cls-9" data-name="Rectangle 5786" transform="rotate(-18.8 185.72 -214.344)"/>
            <path id="Rectangle_5787" d="M0 0h5.139v5.136H0z" class="cls-9" data-name="Rectangle 5787" transform="rotate(-18.8 209.546 -218.3)"/>
            <path id="Rectangle_5788" d="M0 0h5.139v5.136H0z" class="cls-9" data-name="Rectangle 5788" transform="rotate(-18.8 165.295 -210.96)"/>
            <path id="Path_18448" d="M801 313.47l-.183-.17c.47-.1.914-.138.914-.138s-1.614-5.834-4.336-7.781a12.771 12.771 0 0 1-3.26-3.939 59.577 59.577 0 0 0-4.856-7.113l-.491-.618-.211-.269a2.347 2.347 0 0 0 .615-1.388.021.021 0 0 1 0-.01.654.654 0 0 0 0-.082.947.947 0 0 0-.034-.189l-.019.029c-.23-.668-1.115-.962-1.771-1.33-1.534-.863-2.19-2.75-2.518-4.5-.256-1.362-.467-2.895-1.534-3.772-.682-.564-1.609-.749-2.3-1.31a6.708 6.708 0 0 1-1.423-2.078 8.323 8.323 0 0 0-2.769-3.122 4.622 4.622 0 0 0-4-.528c-.5.191-.953.487-1.447.693-1.227.511-2.633.443-3.848.983a8.563 8.563 0 0 0-3.359 3.525 16.768 16.768 0 0 0-1.594 2.836v-.111a4.051 4.051 0 0 0-.317 1.475 2.2 2.2 0 0 0 .07.64 2.065 2.065 0 0 0 1.384 1.32 5.791 5.791 0 0 0 .15.642 6.3 6.3 0 0 0 4.073 4.157c.056.02.114.034.171.051a1.354 1.354 0 0 0 .2.375c.544.681 1.635.487 2.344-.009.029-.019.056-.043.083-.063a2.529 2.529 0 0 0 .031.288c.015.082.027.17.044.244a11.767 11.767 0 0 0 2.275 5.3s.152.228.4.606a7.592 7.592 0 0 0 1.74 4.966c-.864.5-2.727 1.476-3.879 1.395 0 0-4.234.547-4.724.272-.068-.037-.133.014-.195.129-1.165-.71-4.893-2.757-5.212-.129-.288 2.384 3.109 2.689 4.726 2.7-.073.7-.114 1.257-.114 1.257l6.956-.475 3.622-.533a4.355 4.355 0 0 1-1.294 1.231s-3.274 2.648-3.84 2.672c-.08 0-.106.08-.094.208-1.377 0-5.66.2-4.472 2.583 1.079 2.161 4.116.666 5.49-.16.324.628.6 1.121.6 1.121l5.612-3.994 1.215-1.022a4.332 4.332 0 0 0 1.209-.233.136.136 0 0 0 .017.044 2.3 2.3 0 0 1 .1.385c.341 1.957-.8 6.521-.8 6.521s-2.519 6.418-1.309 7.294.315 4.569.315 4.569a6.816 6.816 0 0 0 .726 1 3.034 3.034 0 0 0 .425.4 3.9 3.9 0 0 0-.14.468 3.814 3.814 0 0 0 .2 2.357 10.721 10.721 0 0 1 .326 4.939l-1.639 11.021a4.642 4.642 0 0 0-2.173 0c-.578.325-.389 1.965.953 2.67a3.455 3.455 0 0 1-1.38.635 78.988 78.988 0 0 1-2.584.552c-.036 0-2.863-.623-3.589-.211s-.377 2.7 1.689 3.258c2.021.547 9.56 1.349 11.731 1.022l.138-.024c1.846-.364.225-2.788.021-3.082-.013-.1-.026-.2-.039-.315a15.326 15.326 0 0 1-.073-.851 27.592 27.592 0 0 0 5.023.141.549.549 0 0 0 .123-.022c1.635-.324.2-2.466.019-2.725l-.025-.209v-.019c0-.049-.012-.1-.017-.153a.659.659 0 0 0-.014-.133c-.014-.046 0-.082-.012-.124l-.02-.26v-.111c0-.068-.009-.136-.012-.206v-.114c0-.1 0-.208-.01-.313v-.833c0-.114.01-.232.017-.349l.01-.126c0-.087.013-.17.022-.259a.411.411 0 0 1 .014-.128c.014-.119.029-.238.046-.359a.8.8 0 0 1 .017-.107c.015-.09.03-.182.048-.274a.664.664 0 0 1 .027-.136q.031-.148.067-.3a.348.348 0 0 1 .019-.082 10.268 10.268 0 0 1 .139-.477c.029-.089.06-.17.092-.262l.041-.109c.046-.116.1-.23.147-.341.013-.029.029-.058.044-.087.042-.089.088-.17.136-.262l.058-.1c.065-.109.131-.218.2-.322 1.875-2.67 2.369-7.82 2.323-8.941s.223-3.445.559-3.789a29.562 29.562 0 0 0 2.316-3.423c.141-.252.264-.489.361-.7.556-.192.924-.341.924-.341a7.885 7.885 0 0 1-.28-2.2 6.65 6.65 0 0 1 2.059-4.908 8.022 8.022 0 0 0 2.8-5.429v-.162c-.006-.151-.006-.23-.006-.23z" class="cls-10" data-name="Path 18448" transform="translate(-668.464 -252.121)"/>
            <path id="Path_18449" d="M883.118 572.346a29.294 29.294 0 0 1-2.216 3.384 10.079 10.079 0 0 0-.534 3.747c.044 1.105-.424 6.2-2.216 8.84s-.871 7.2-.871 7.2l-2.858 1h-3.434l-2.366-.707-.624-1.72s.832-.128 2.9-.618a2.679 2.679 0 0 0 2.139-2.43l1.45-10.121a9.679 9.679 0 0 0-.278-4.322 3.516 3.516 0 0 1 .232-3.082l.046-.071a28.879 28.879 0 0 1 4.518-2.871c2.02-.974 4.068-1.437 4.65.291a3 3 0 0 1-.538 1.48z" class="cls-11" data-name="Path 18449" transform="translate(-757.062 -496.714)"/>
            <path id="Path_18450" d="M883.118 572.346a29.294 29.294 0 0 1-2.216 3.384 10.079 10.079 0 0 0-.534 3.747c.044 1.105-.424 6.2-2.216 8.84-1.261 1.861-1.178 4.675-1.023 6.175.067.628.148 1.022.148 1.022l-2.858 1h-3.431l-2.366-.7-.624-1.72s.208-.032.682-.124 1.193-.249 2.226-.494a2.679 2.679 0 0 0 2.129-2.43l1.45-10.121a9.679 9.679 0 0 0-.278-4.322 3.516 3.516 0 0 1 .232-3.082l.046-.071a28.879 28.879 0 0 1 4.518-2.871c2.02-.974 4.068-1.437 4.65.291a3 3 0 0 1-.535 1.476z" class="cls-12" data-name="Path 18450" transform="translate(-757.062 -496.714)"/>
            <path id="Path_18451" d="M877.282 713.721l-2.858 1h-3.434l-2.366-.709-.624-1.72s.208-.032.682-.124a1.286 1.286 0 0 0 .99 1.39l1.343.046c.189 0 .38.01.568.01a17.133 17.133 0 0 0 5.553-.921c.064.63.146 1.028.146 1.028z" class="cls-7" data-name="Path 18451" transform="translate(-757.062 -614.915)"/>
            <path id="Path_18452" d="M858.295 712.345l-1.345-.046a1.311 1.311 0 0 1-.948-1.687s-2.42-.549-3.039-.186-.32 2.364 1.428 2.854c1.7.479 8.089 1.182 9.924.894l.118-.02c1.663-.341 0-2.725 0-2.725a17.207 17.207 0 0 1-6.138.916z" class="cls-13" data-name="Path 18452" transform="translate(-744.344 -613.365)"/>
            <path id="Path_18453" d="M850.111 575.228c-.09.18-.187.368-.3.564a31.723 31.723 0 0 1-2.434 3.712c-.361.385-.649 2.98-.6 4.234s-.479 7-2.5 9.976a9.541 9.541 0 0 0-1.251 5.3q.008.854.1 1.7c.075.693.17 1.126.17 1.126l-3.225 1.129h-3.881l-2.671-.794-.7-1.948s.233-.037.758-.141 1.343-.278 2.512-.553a3.029 3.029 0 0 0 2.408-2.742l1.634-11.422a10.952 10.952 0 0 0-.312-4.879 3.915 3.915 0 0 1-.191-2.331 3.722 3.722 0 0 1 .511-1.229s.624-.491 1.565-1.139c.416-.286.9-.6 1.416-.923 2.277-1.408 5.271-2.846 6.706-1.8a1.854 1.854 0 0 1 .661.952 2.415 2.415 0 0 1-.376 1.208z" class="cls-14" data-name="Path 18453" transform="translate(-727.878 -499.204)"/>
            <path id="Path_18454" d="M843.287 735.234l-3.225 1.129h-3.872l-2.671-.793-.7-1.948s.233-.037.758-.141a1.421 1.421 0 0 0 .453 1.258 1.52 1.52 0 0 0 .961.361l1.222.039c.213 0 .428.012.641.012a19.4 19.4 0 0 0 6.269-1.042c.077.691.164 1.125.164 1.125z" class="cls-7" data-name="Path 18454" transform="translate(-727.878 -632.596)"/>
            <path id="Path_18455" d="M821.807 733.685l-1.22-.041a1.535 1.535 0 0 1-.963-.361 1.5 1.5 0 0 1-.4-1.555s-2.727-.618-3.431-.209-.359 2.669 1.612 3.222c1.931.54 9.13 1.333 11.2 1.01l.131-.024c1.875-.385 0-3.079 0-3.079a19.358 19.358 0 0 1-6.929 1.037z" class="cls-13" data-name="Path 18455" transform="translate(-713.471 -630.853)"/>
            <path id="Path_18456" d="M897.179 572.363a16.341 16.341 0 0 1-3.823.969 1.688 1.688 0 0 1-.292-.014 33.646 33.646 0 0 0-4.556.221c-.748.067-1.468.136-2.062.2-.886.092-1.5.158-1.5.158v-.577c.416-.286.9-.6 1.416-.923 2.277-1.408 5.272-2.846 6.706-1.8 2.02-.974 4.068-1.437 4.65.291a3.116 3.116 0 0 1-.539 1.475z" class="cls-7" data-name="Path 18456" transform="translate(-771.123 -496.73)"/>
            <path id="Path_18457" d="M902.715 497.361a8.063 8.063 0 0 1-2.678 5.369c-2.959 2.887-1.7 7.031-1.7 7.031a23.367 23.367 0 0 1-5.05 1.422 1.7 1.7 0 0 1-.291-.014 54.675 54.675 0 0 0-6.625.419c-.886.092-1.5.158-1.5.158v-12.26l16.35-3.966 1.481 1.473a2.761 2.761 0 0 1 .013.368z" data-name="Path 18457" transform="translate(-771.057 -435.16)"/>
            <g id="Group_6756" class="cls-16" data-name="Group 6756" transform="translate(113.82 60.365)">
                <path id="Path_18459" d="M885.179 587.753l-.269.029v.129s.61-.066 1.5-.158c1.5-.152 3.782-.364 5.294-.427a59.68 59.68 0 0 0-6.525.427z" data-name="Path 18459" transform="translate(-884.91 -571.682)"/>
                <path id="Path_18460" d="M939.881 497.025l-1.481-1.475-.987.247 1.241 1.235a2.725 2.725 0 0 1 0 .37 8.067 8.067 0 0 1-2.677 5.369c-2.959 2.885-1.7 7.032-1.7 7.032a28.057 28.057 0 0 1-4.592 1.381 4.187 4.187 0 0 1 .477.026 1.707 1.707 0 0 0 .291.015 23.365 23.365 0 0 0 5.05-1.422s-1.261-4.147 1.7-7.032a8.068 8.068 0 0 0 2.677-5.369 2.766 2.766 0 0 0 .001-.377z" data-name="Path 18460" transform="translate(-922.049 -495.55)"/>
            </g>
            <path id="Path_18461" d="M771.964 447.533s-4.943-3.426-5.306-.341 5.306 2.645 5.306 2.645z" class="cls-14" data-name="Path 18461" transform="translate(-672.979 -393.993)"/>
            <path id="Path_18462" d="M802 442.13s-2.674 1.768-4.153 1.659c0 0-4.043.542-4.513.271s-.757 3.917-.757 3.917l6.647-.468 4.261-.651s2.13-1.3 2.13-2.416S802 442.13 802 442.13z" class="cls-17" data-name="Path 18462" transform="translate(-694.496 -390.862)"/>
            <path id="Path_18463" d="M802 442.13s-2.674 1.768-4.153 1.659c0 0-4.043.542-4.513.271s-.757 3.917-.757 3.917l6.647-.468 4.261-.651s2.13-1.3 2.13-2.416S802 442.13 802 442.13z" class="cls-8" data-name="Path 18463" transform="translate(-694.496 -390.862)"/>
            <path id="Path_18464" d="M801.2 494.462s-6.011-.249-4.665 2.554 5.9-.6 5.9-.6z" class="cls-14" data-name="Path 18464" transform="translate(-697.613 -434.278)"/>
            <path id="Path_18465" d="M839.643 413.51s-4.873-3.643-4.186-8.079 4.186 3.4 4.186 3.4z" class="cls-3" data-name="Path 18465" transform="translate(-730.011 -359.284)"/>
            <path id="Path_18466" d="M792.474 311.428a6.159 6.159 0 0 1-1.733 4.276 5.812 5.812 0 0 1-.89.758 6.085 6.085 0 0 1-2.9 1.088c-.211.02-.424.032-.641.032a6.012 6.012 0 0 1-2.03-.341 6.155 6.155 0 1 1 8.189-5.807z" class="cls-14" data-name="Path 18466" transform="translate(-684.189 -277.314)"/>
            <path id="Path_18467" d="M892.685 497.361c-.552.1-1.234.286-1.234.572 0 .482-7.7 3.079-7.7 3.079s.288.671-.481 1.826-7.027 7.789-7.027 7.789l.02.2.08.765.382 3.655a12.694 12.694 0 0 0-3.177-.77 1.056 1.056 0 0 1-.769-.357 3.724 3.724 0 0 1 .511-1.23s.624-.49 1.565-1.139v-12.265l16.35-3.966 1.481 1.473a2.691 2.691 0 0 1-.001.368z" class="cls-7" data-name="Path 18467" transform="translate(-761.027 -435.16)"/>
            <path id="Path_18468" d="M857.3 380.081s-1.926.191-1.926.673-7.7 3.079-7.7 3.079.288.671-.48 1.826-7.027 7.791-7.027 7.791l.482 4.615a12.691 12.691 0 0 0-3.177-.77c-.341.043-.724-.274-1.04-.644a6.7 6.7 0 0 1-.694-.989s.867-3.656-.288-4.521 1.251-7.212 1.251-7.212 1.087-4.513.767-6.449a2.29 2.29 0 0 0-.092-.381.136.136 0 0 0-.013-.043c-.682-1.849-8.072-17.37-8.072-17.37a11.092 11.092 0 0 1 .092-1.316c.015-.121.036-.247.058-.375a6.4 6.4 0 0 1 .15-.681 4.252 4.252 0 0 1 .14-.424c.228-.586.578-1.037 1.1-1.047a3.231 3.231 0 0 1 1.933-.812 8.414 8.414 0 0 1 4.326.812c4.522 1.921 5.582 2.02 5.582 2.02l2.272 2.98.467.611a58.929 58.929 0 0 1 4.638 7.033 12.517 12.517 0 0 0 3.114 3.9c2.596 1.924 4.137 7.694 4.137 7.694z" class="cls-8" data-name="Path 18468" transform="translate(-724.95 -318.558)"/>
            <path id="Path_18469" d="M894.65 437.05s6.425 1.587 8.916 5.589z" class="cls-7" data-name="Path 18469" transform="translate(-779.17 -386.647)"/>
            <path id="Path_18470" d="M906.3 478.34s1.215 8.152.878 8.765-.878-8.765-.878-8.765z" class="cls-7" data-name="Path 18470" transform="translate(-788.834 -420.905)"/>
            <path id="Path_18471" d="M876.739 492.871c-.467.611-2.364 5.337-2.364 5.337l.547 7.936.482 4.615a12.671 12.671 0 0 0-3.175-.77c-.341.043-.726-.274-1.039-.644.5-2.7 1.568-8.358 1.761-8.467a26.43 26.43 0 0 0 1.622-5.96c.068-1.272 1.875-4.108 1.875-4.108s.762 1.449.291 2.061z" class="cls-7" data-name="Path 18471" transform="translate(-759.709 -431.252)"/>
            <path id="Path_18472" d="M840.165 382.959c-.119.359-.3 2.452-.3 2.452a2.832 2.832 0 0 1-2.395 2.64 2.288 2.288 0 0 0-.092-.381c-.578-1.633-8.085-17.406-8.085-17.406a10.344 10.344 0 0 1 .3-2.374 9.591 9.591 0 0 1 4.222.259c.748-.1 3.189 4.75 3.189 4.75s1.626 3.713 1.8 4.218a8.941 8.941 0 0 1 .071 1.625c.072.29.832.538.939.937s.038 1.192.109 1.333a5.9 5.9 0 0 1 .242 1.947z" class="cls-7" data-name="Path 18472" transform="translate(-724.95 -329.13)"/>
            <path id="Path_18473" d="M831.912 381.246c-.12.361-.3 2.452-.3 2.452a2.724 2.724 0 0 1-1.922 2.505 4.034 4.034 0 0 1-1.156.23l-1.161 1.008-5.36 3.942s-2-3.69-1.455-3.711 3.668-2.643 3.668-2.643c.956-.511 1.914-2.214 2.359-3.089a2.736 2.736 0 0 1-.058-.317c-.193-1.633-4.235-7.886-4.235-7.886a11.808 11.808 0 0 1-2.171-5.242c-.017-.078-.029-.158-.044-.24a2.415 2.415 0 0 1-.031-.32c-.073-1.31.881-1.786 2.013-1.9a8.079 8.079 0 0 1 1.772.054 12.847 12.847 0 0 1 1.734.341c.484-.065 1.677 1.946 2.459 3.372.421.773.724 1.376.724 1.376s1.626 3.714 1.805 4.218a8.932 8.932 0 0 1 .071 1.625c.072.288.832.54.939.938s.038 1.192.109 1.333a5.923 5.923 0 0 1 .24 1.954z" class="cls-8" data-name="Path 18473" transform="translate(-717.273 -327.706)"/>
            <path id="Path_18474" d="M805 322.546a3.675 3.675 0 0 1-4 .511 26.845 26.845 0 0 1-3.678-2.244c-.8-.487-1.643-.886-2.429-1.388a13.48 13.48 0 0 1-.341-.228c-.907-.64-1.693-1.463-2.631-2.044a4.094 4.094 0 0 0-2.114-.681 2.406 2.406 0 0 0-1.007.211 1.362 1.362 0 0 0-.17.083 4.339 4.339 0 0 0-.852.639c-.266.238-.52.492-.8.715-.017-.078-.029-.158-.044-.24a2.428 2.428 0 0 1-.031-.32 6.458 6.458 0 0 1-.641.032 6.013 6.013 0 0 1-2.03-.341.138.138 0 0 0-.015-.077A4.847 4.847 0 0 0 782.6 314a11.309 11.309 0 0 0-2.253-.851 6.158 6.158 0 1 1 11.607.666 8.415 8.415 0 0 1 4.326.812c4.522 1.921 5.582 2.02 5.582 2.02l2.272 2.98a2.548 2.548 0 0 0-.549 1.182c-.048.798.734 1.359 1.415 1.737z" class="cls-7" data-name="Path 18474" transform="translate(-684.146 -277.327)"/>
            <path id="Path_18475" d="M776.366 292.608a4.853 4.853 0 0 1 1.624 3.174 2.478 2.478 0 0 0 .371 1.076c.511.671 1.561.482 2.238 0a13.13 13.13 0 0 1 1.965-1.553 3.388 3.388 0 0 1 3.121.465c.939.588 1.725 1.41 2.632 2.044.878.618 1.856 1.059 2.77 1.616a26.35 26.35 0 0 0 3.678 2.245 3.687 3.687 0 0 0 4-.511c-.682-.378-1.464-.937-1.411-1.747s1-1.415.934-2.246-1.041-1.156-1.744-1.565c-1.466-.851-2.091-2.725-2.4-4.453-.244-1.352-.445-2.863-1.456-3.731-.653-.559-1.534-.741-2.192-1.294a6.731 6.731 0 0 1-1.364-2.056 8.177 8.177 0 0 0-2.644-3.087 4.242 4.242 0 0 0-3.819-.521c-.477.189-.912.482-1.382.681-1.173.511-2.514.438-3.674.971a8.352 8.352 0 0 0-3.213 3.484c-.719 1.18-2.146 3.261-1.742 4.794.4 1.558 2.648 1.475 3.708 2.214z" class="cls-18" data-name="Path 18475" transform="translate(-677.909 -256.519)"/>
            <g id="Group_6757" class="cls-16" data-name="Group 6757" transform="translate(94.672 31.781)">
                <path id="Path_18476" d="M920.224 378.327a1.065 1.065 0 0 0-.032-.187 2.883 2.883 0 0 0-.612 1.279 1.162 1.162 0 0 0 .027.329 2.476 2.476 0 0 0 .617-1.421z" data-name="Path 18476" transform="translate(-894.521 -369.55)"/>
                <path id="Path_18477" d="M795.032 339.832a26.337 26.337 0 0 1-3.676-2.245c-.915-.557-1.894-1-2.771-1.616-.907-.64-1.693-1.463-2.632-2.043a3.413 3.413 0 0 0-3.121-.467 12.7 12.7 0 0 0-1.965 1.555c-.678.49-1.718.681-2.238 0a2.474 2.474 0 0 1-.371-1.076 4.852 4.852 0 0 0-1.623-3.174c-1.062-.741-3.31-.657-3.717-2.214a2.414 2.414 0 0 1-.053-.851 3.4 3.4 0 0 0-.237 2c.409 1.563 2.657 1.48 3.717 2.214a4.858 4.858 0 0 1 1.624 3.176 2.5 2.5 0 0 0 .37 1.076c.511.671 1.561.482 2.239-.009a12.612 12.612 0 0 1 1.965-1.553 3.394 3.394 0 0 1 3.121.467c.939.587 1.725 1.41 2.632 2.043.878.62 1.856 1.059 2.77 1.616a26.215 26.215 0 0 0 3.678 2.246 3.69 3.69 0 0 0 4-.511 4.888 4.888 0 0 1-.745-.492 4.251 4.251 0 0 1-2.967-.142z" data-name="Path 18477" transform="translate(-772.561 -327.7)"/>
            </g>
            <path id="Path_18478" d="M717.615 442.147l13.635-5.089a1.3 1.3 0 0 1 1.669.76 1.3 1.3 0 0 1-.762 1.667l-13.635 5.09-2.921-.293z" class="cls-19" data-name="Path 18478" transform="translate(-630.636 -386.586)"/>
            <path id="Path_18479" d="M732.487 438.383a1.3 1.3 0 0 1-.762 1.669l-13.635 5.088-2.2-.22-.315.341 2.921.293 13.635-5.09a1.3 1.3 0 0 0 .762-1.667 1.291 1.291 0 0 0-.53-.647 1.411 1.411 0 0 1 .124.233z" class="cls-20" data-name="Path 18479" transform="translate(-630.62 -387.56)"/>
            <path id="Path_18480" d="M695.315 415.58l.908 2.428-2.4-.24-.525-.053.717-.76z" class="cls-21" data-name="Path 18480" transform="translate(-608.336 -360.019)"/>
            <path id="Path_18481" d="M716.332 475.42a.52.52 0 0 1 .14.153.22.22 0 0 1 0 .237.536.536 0 0 1-.133.094.433.433 0 0 0-.194.329l-.525-.053z" class="cls-22" data-name="Path 18481" transform="translate(-630.653 -418.483)"/>
            <path id="Path_18482" d="M645.64 289.266l-2.3-1.121a.277.277 0 0 1-.128-.371l.244-.5a.276.276 0 0 1 .372-.128l1.549.754 1.617-3.314a.28.28 0 0 1 .372-.129l.5.245a.275.275 0 0 1 .128.371l-1.984 4.065a.278.278 0 0 1-.37.128z" class="cls-1" data-name="Path 18482" transform="translate(-570.563 -260.018)"/>
            <path id="Path_18483" d="M675.11 373.42l-2.3-1.121a.277.277 0 0 1-.128-.371l.244-.5a.279.279 0 0 1 .373-.128l1.547.754 1.616-3.317a.28.28 0 0 1 .372-.129l.5.245a.278.278 0 0 1 .129.371l-1.984 4.065a.281.281 0 0 1-.373.128z" class="cls-1" data-name="Path 18483" transform="translate(-595.01 -329.837)"/>
            <path id="Path_18484" d="M661.876 331.925l-2.3-1.121a.279.279 0 0 1-.129-.371l.245-.5a.276.276 0 0 1 .372-.128l1.549.754 1.617-3.319a.278.278 0 0 1 .372-.128l.5.244a.281.281 0 0 1 .128.373l-1.986 4.068a.278.278 0 0 1-.371.128z" class="cls-1" data-name="Path 18484" transform="translate(-584.031 -295.408)"/>
            <path id="Path_18485" d="M687.91 411.436l-2.3-1.121a.277.277 0 0 1-.128-.371l.244-.5a.278.278 0 0 1 .372-.128l1.549.754 1.617-3.314a.281.281 0 0 1 .373-.129l.5.245a.276.276 0 0 1 .128.371l-1.982 4.065a.281.281 0 0 1-.373.128z" class="cls-1" data-name="Path 18485" transform="translate(-605.629 -361.382)"/>
        </g>
    </g>
</svg>
