<svg xmlns="http://www.w3.org/2000/svg" width="160" height="65" viewBox="0 0 160 65">
    <defs>
        <style>
            .cls-1{fill:none}.cls-2{fill:#068675}.cls-3{fill:#096d5c}.cls-4{fill:#e6c125}
        </style>
    </defs>
    <g id="ic-splash-koin" transform="translate(-100 -240)">
        <path id="Rectangle_5706" d="M0 0h160v65H0z" class="cls-1" data-name="Rectangle 5706" transform="translate(100 240)"/>
        <g id="ic-splash-koin-2" data-name="ic-splash-koin" transform="translate(104 242)">
            <path id="Rectangle_5705" d="M0 0h153v61H0z" class="cls-1" data-name="Rectangle 5705"/>
            <g id="Group_6087" data-name="Group 6087" transform="translate(3.05 3.05)">
                <path id="Path_17083" d="M3.549 63.513H0V42.8h3.549v8.686h2.418a5.721 5.721 0 0 0 4.424-2.21 7.74 7.74 0 0 0 1.955-5.294V42.8h3.6v1.182a11.029 11.029 0 0 1-2.829 7.658 5.3 5.3 0 0 1-2.057 1.491 5.445 5.445 0 0 1 2.057 1.49 11.5 11.5 0 0 1 2.829 7.71v1.182h-3.6v-1.182a7.74 7.74 0 0 0-1.955-5.294 5.8 5.8 0 0 0-4.424-2.21H3.549z" class="cls-2" data-name="Path 17083" transform="translate(0 -20.802)"/>
                <path id="Path_17084" d="M156.349 42.9v20.661H152.8V42.9z" class="cls-2" data-name="Path 17084" transform="translate(-74.205 -20.851)"/>
                <path id="Path_17085" d="M168.3 63.567V45.784a2.919 2.919 0 0 1 .566-1.7 2.952 2.952 0 0 1 3.343-.977 2.422 2.422 0 0 1 1.492 1.336l6.327 13.312v-14.8h3.549V60.74a2.918 2.918 0 0 1-.566 1.7 2.557 2.557 0 0 1-1.492 1.028 2.857 2.857 0 0 1-1.852 0 2.565 2.565 0 0 1-1.492-1.336l-6.327-13.312v14.8H168.3z" class="cls-2" data-name="Path 17085" transform="translate(-81.732 -20.856)"/>
                <path id="Path_17086" d="M223.437 47.677h-11.11a3.366 3.366 0 0 0 0 6.733h5.5a7.936 7.936 0 0 1 5.761 2.416 7.76 7.76 0 0 1 2.366 5.705 8.076 8.076 0 0 1-8.127 8.121h-12.855v-4.78h12.859a3.341 3.341 0 1 0 0-6.682h-5.5a7.886 7.886 0 0 1-5.761-2.364A8.1 8.1 0 0 1 212.327 43h11.11z" class="cls-3" data-name="Path 17086" transform="translate(-99.167 -20.9)"/>
                <path id="Path_17087" d="M248.964 87.5v4.78H243.1a13.4 13.4 0 0 0 .926-.822 9.8 9.8 0 0 0 2.109-3.032c.154-.308.257-.617.36-.874h2.469z" class="cls-3" data-name="Path 17087" transform="translate(-118.058 -42.528)"/>
                <path id="Path_17088" d="M264.425 55.646a5.386 5.386 0 0 0 2.932-5.14A7.549 7.549 0 0 0 259.8 42.9h-6.738a3.652 3.652 0 0 0-2.726 1.131 3.727 3.727 0 0 0-1.132 2.724v11.513a10.478 10.478 0 0 1 .874 4.215 10.106 10.106 0 0 1-.514 3.341 4.451 4.451 0 0 1-.36.874V70.6h10.6a8.6 8.6 0 0 0 8.641-8.635 6.5 6.5 0 0 0-4.02-6.319zm-10.545-8.018h5.864a2.809 2.809 0 0 1 2.829 2.827 2.83 2.83 0 0 1-.823 2.056 2.637 2.637 0 0 1-2.006.925h-5.864zm8.59 17.064a3.734 3.734 0 0 1-2.726 1.131h-5.864v-7.915h5.864a3.7 3.7 0 0 1 2.726 1.182 3.959 3.959 0 0 1 1.132 2.827 3.76 3.76 0 0 1-1.131 2.775z" class="cls-3" data-name="Path 17088" transform="translate(-121.021 -20.851)"/>
                <g id="Group_6087-2" data-name="Group 6087" transform="translate(18.517)">
                    <path id="Path_17089" d="M64.393 0a28.32 28.32 0 1 0 28.29 28.32A28.362 28.362 0 0 0 64.393 0zm0 50.677a22.306 22.306 0 1 1 22.323-22.306 22.327 22.327 0 0 1-22.323 22.306z" class="cls-4" data-name="Path 17089" transform="translate(-36)"/>
                    <ellipse id="Ellipse_5035" cx="17.488" cy="17.475" class="cls-4" data-name="Ellipse 5035" rx="17.488" ry="17.475" transform="translate(10.905 10.845)"/>
                </g>
                <g id="Group_6088" data-name="Group 6088" transform="translate(0 44.972)">
                    <path id="Path_17090" d="M20.986 87.5H2.418A2.414 2.414 0 0 0 0 89.916a2.414 2.414 0 0 0 2.418 2.416h22.374a33.4 33.4 0 0 1-3.806-4.832z" class="cls-3" data-name="Path 17090" transform="translate(0 -87.5)"/>
                    <path id="Path_17091" d="M137.906 87.5a31.068 31.068 0 0 1-3.806 4.78h37.188V87.5z" class="cls-3" data-name="Path 17091" transform="translate(-65.124 -87.5)"/>
                </g>
            </g>
        </g>
    </g>
</svg>
