<svg id="Layer_1" data-name="Layer 1" xmlns="http://www.w3.org/2000/svg" viewBox="0 0 25.01 25.01"><title>ic-jelita-white</title><path d="M22,21.2c.11-.11.35-.23.46-.35a2.22,2.22,0,0,0,.69-1.61c0-4-.92-9.1-3.23-12h.35a1.38,1.38,0,0,0,0-2.76h0a5,5,0,0,0,1.38-3.34c0-.12,0-.12-.11-.23A2.9,2.9,0,0,0,19.48,0a2.63,2.63,0,0,0-2.07,1A1.78,1.78,0,0,1,16,1.73,2.06,2.06,0,0,1,14.53,1a2.41,2.41,0,0,0-2-1h0A2.6,2.6,0,0,0,10.5,1,1.85,1.85,0,0,1,9,1.73,2.06,2.06,0,0,1,7.5,1a2.3,2.3,0,0,0-2-1,2.25,2.25,0,0,0-2,1c-.12,0-.12.12-.12.23A5,5,0,0,0,4.84,4.61H4.73A1.28,1.28,0,0,0,3.46,5.88,1.38,1.38,0,0,0,4.73,7.26h.35c-2.3,2.88-3.23,8-3.23,12a1.93,1.93,0,0,0,.69,1.61c.12.12.35.23.46.35a3.5,3.5,0,0,0-3,3.46A.31.31,0,0,0,.26,25h24.4a.31.31,0,0,0,.35-.26v-.09A3.5,3.5,0,0,0,22,21.2ZM4.15,1.38A1.83,1.83,0,0,1,5.54.81,2,2,0,0,1,7,1.5a2.63,2.63,0,0,0,2.07,1,2.6,2.6,0,0,0,2.07-1A1.78,1.78,0,0,1,12.56.82h0a2,2,0,0,1,1.5.69,2.63,2.63,0,0,0,2.07,1,2.6,2.6,0,0,0,2.07-1A1.33,1.33,0,0,1,19.47.83a2.08,2.08,0,0,1,1.38.58,4.66,4.66,0,0,1-1.61,3.23H5.88A4.9,4.9,0,0,1,4.15,1.38Zm0,4.5a.56.56,0,0,1,.52-.58H20.29a.55.55,0,0,1,.58.51v.07a.55.55,0,0,1-.51.58H4.73A.55.55,0,0,1,4.15,6Zm2,1.38H19c2.53,2.65,3.46,7.83,3.46,12A1.51,1.51,0,0,1,22,20.39a6.19,6.19,0,0,1-3,.81H6a5.32,5.32,0,0,1-2.88-.81,1.34,1.34,0,0,1-.46-1.15C2.66,15.09,3.58,9.91,6.11,7.26Zm-5.3,17A2.72,2.72,0,0,1,3.46,22h18.2a2.71,2.71,0,0,1,2.65,2.3Z" transform="translate(0 0)" fill="#fff"/><path d="M12.56,19a4.66,4.66,0,0,0,4.72-4.6v-.12A4.66,4.66,0,0,0,12.7,9.56h-.14a4.67,4.67,0,0,0-4.72,4.62h0v.1A4.68,4.68,0,0,0,12.46,19Zm0-8.76a4,4,0,1,1-4,4,4,4,0,0,1,3.84-4Z" transform="translate(0 0)" fill="#fff"/><path d="M12.06,14.51a.89.89,0,0,0,.61-.89v0a1.12,1.12,0,0,0-.11-.47.89.89,0,0,0-.28-.3,1.13,1.13,0,0,0-.41-.16,2.73,2.73,0,0,0-.5-.05l-.47,0c-.14,0-.28,0-.39,0a.11.11,0,0,0-.11,0,.19.19,0,0,0,0,.1v3a.08.08,0,0,0,.09.08h.46A.08.08,0,0,0,11,15.8h0V14.6l.19,0h.27l.65,1.16s0,0,0,.06l0,0h.58s0,0,0,0l0,0Zm-.69-.42H11v-1h.4a.86.86,0,0,1,.52.11.42.42,0,0,1,.16.36h0a.48.48,0,0,1-.17.4A1,1,0,0,1,11.37,14.09Z" transform="translate(0 0)" fill="#fff"/><path d="M15.33,14.51a1.16,1.16,0,0,0-.26-.82,1.11,1.11,0,0,0-.82-.28,2.26,2.26,0,0,0-.45,0,1.46,1.46,0,0,0-.45.1l-.1.05a.19.19,0,0,0,0,.07v3a.08.08,0,0,0,.09.08h.43a.08.08,0,0,0,.08-.08h0v-.78l.23,0h.19a1,1,0,0,0,.82-.28,1.16,1.16,0,0,0,.26-.82Zm-.58.31a.71.71,0,0,1,0,.25.48.48,0,0,1-.07.2.29.29,0,0,1-.15.14.59.59,0,0,1-.23.05l-.21,0a.82.82,0,0,1-.22,0V13.9l.19,0a1.06,1.06,0,0,1,.25,0,.59.59,0,0,1,.23.05.44.44,0,0,1,.15.12.48.48,0,0,1,.07.2.65.65,0,0,1,0,.24Z" transform="translate(0 0)" fill="#fff"/></svg>