<svg id="Layer_1" data-name="Layer 1" xmlns="http://www.w3.org/2000/svg" viewBox="0 0 25 25"><title>ic-sbsp-white</title><path d="M22.59,0H2.29A2.3,2.3,0,0,0,0,2.29V20.41a2.3,2.3,0,0,0,2.29,2.3h.92A2.3,2.3,0,0,0,5.5,25h.11a2.3,2.3,0,0,0,2.3-2.29h9.17A2.3,2.3,0,0,0,19.38,25h.12a2.29,2.29,0,0,0,2.29-2.29h.92A2.3,2.3,0,0,0,25,20.41V2.29A2.49,2.49,0,0,0,22.59,0Zm-17,24.2h0A1.56,1.56,0,0,1,4,22.72h3.1A1.51,1.51,0,0,1,5.62,24.2Zm13.76,0h0a1.56,1.56,0,0,1-1.61-1.48h3.1a1.44,1.44,0,0,1-1.4,1.49Zm4.82-3.79a1.52,1.52,0,0,1-1.49,1.49H2.29A1.52,1.52,0,0,1,.8,20.41V2.29A1.51,1.51,0,0,1,2.29.8H22.71A1.51,1.51,0,0,1,24.2,2.29Z" transform="translate(0 0)" fill="#fff"/><path d="M21.1,2.64H3.78A1.14,1.14,0,0,0,2.64,3.79v2a.29.29,0,0,0,.25.34h1.7V8.37H3a.3.3,0,0,0-.34.25.17.17,0,0,0,0,.1V14a.3.3,0,0,0,.25.35h1.7v2.29H3a.29.29,0,0,0-.34.25.14.14,0,0,0,0,.09v1.84A1.15,1.15,0,0,0,3.78,20H21.1a1.16,1.16,0,0,0,1.15-1.15v-15a1.09,1.09,0,0,0-1-1.15Zm.46,16.17a.29.29,0,0,1-.25.34.14.14,0,0,1-.09,0H3.78a.29.29,0,0,1-.34-.25V17.43H4.93a.3.3,0,0,0,.35-.25V14A.31.31,0,0,0,5,13.64H3.44V9.06H4.93a.37.37,0,0,0,.35-.34v-3A.31.31,0,0,0,5,5.39H3.44V3.79a.31.31,0,0,1,.25-.35H21.1a.31.31,0,0,1,.35.25V18.81Z" transform="translate(0 0)" fill="#fff"/><path d="M13.18,6.77a4.9,4.9,0,1,0,4.91,4.91A4.89,4.89,0,0,0,13.18,6.77Zm0,9a4.13,4.13,0,1,1,4.13-4.12,4.12,4.12,0,0,1-4.13,4.12Z" transform="translate(0 0)" fill="#fff"/><path d="M13.14,13.05s0,0,0,0h-.58l0,0s0,0,0-.06l-.64-1.16h-.28l-.19,0V13a.08.08,0,0,1-.08.09h-.47A.09.09,0,0,1,10.7,13V10a.19.19,0,0,1,0-.1.11.11,0,0,1,.11,0c.11,0,.26,0,.4,0l.47,0a2.73,2.73,0,0,1,.5.05,1.28,1.28,0,0,1,.42.17.81.81,0,0,1,.28.3,1,1,0,0,1,.11.47v0a.87.87,0,0,1-.61.89L13.12,13Zm-.73-2.23a.41.41,0,0,0-.16-.36.82.82,0,0,0-.51-.11h-.4v1h.39a1,1,0,0,0,.52-.12.53.53,0,0,0,.17-.4Zm3.3,1.23a1.26,1.26,0,0,1-.26.82,1,1,0,0,1-.82.28h-.2l-.23,0v.78a.09.09,0,0,1-.08.09h-.43a.11.11,0,0,1-.1-.08v-3s0-.05,0-.07l.11-.05a1.34,1.34,0,0,1,.44-.1,2.2,2.2,0,0,1,.44,0,1.1,1.1,0,0,1,.82.28,1.12,1.12,0,0,1,.27.82Zm-.6-.34a.65.65,0,0,0,0-.24.48.48,0,0,0-.07-.2.44.44,0,0,0-.15-.12.59.59,0,0,0-.23-.05,1.14,1.14,0,0,0-.26,0l-.19,0v1.52a.57.57,0,0,0,.22,0l.22,0a.59.59,0,0,0,.23,0,.34.34,0,0,0,.15-.14.48.48,0,0,0,.07-.2.71.71,0,0,0,0-.25Z" transform="translate(0 0)" fill="#fff"/></svg>