<svg id="Layer_1" data-name="Layer 1" xmlns="http://www.w3.org/2000/svg" viewBox="0 0 25 25"><title>ic-sbmax-white</title><path d="M24.75,24.3a21.44,21.44,0,0,0-5.87-1.73v-1.4a1.66,1.66,0,0,0,.8.24h.47c1.38-.34,2.06-2.43,2.06-2.43v-.34c0-.12-.12-.12-.23-.24a3.07,3.07,0,0,0-3.11.24v-2.9a4.57,4.57,0,0,0-.35-9.13,1.4,1.4,0,0,0-.7.12,4.53,4.53,0,0,0,.12-1.16A5.41,5.41,0,0,0,12.69,0h-.14A5.54,5.54,0,0,0,7,5.55H7A5.44,5.44,0,0,0,12.1,11v5.2C12,16.08,12,16,11.86,16A3.83,3.83,0,0,0,9.33,15a4.45,4.45,0,0,0,.12-1.15A4.53,4.53,0,0,0,4.9,9.37H4.84a4.6,4.6,0,0,0-4.6,4.51,4.44,4.44,0,0,0,4.14,4.51v1a.1.1,0,0,1-.11-.1h0c-1.16-.81-3.11-.12-3.23-.12a.25.25,0,0,0-.23.24v.34c.92,1.5,1.72,2.2,2.64,2.43h.34c.35,0,.58-.12.8-.12v.82A21.58,21.58,0,0,0,.22,24.29a.52.52,0,0,0-.22.47A.49.49,0,0,0,.46,25c6.57-3,17.39-3,24,0h.12c.12,0,.24-.12.34-.24S25,24.42,24.75,24.3ZM12.9,19.1a2.53,2.53,0,0,0,1.26.34,1.48,1.48,0,0,0,.69-.11,4.56,4.56,0,0,0,2.3-2.2v-.35c0-.12-.12-.12-.24-.23-1.72-.46-3-.46-3.8.23a.4.4,0,0,0-.23.12V11A3.74,3.74,0,0,0,14,10.76v.47a4.43,4.43,0,0,0,4.15,4.5v6.6a40.89,40.89,0,0,0-5.3-.34Zm0-.81a1.55,1.55,0,0,1,.7-.92,3.25,3.25,0,0,1,2.64-.24,2.85,2.85,0,0,1-1.6,1.39,1.89,1.89,0,0,1-1.74-.24Zm6.45.93a2.31,2.31,0,0,1,2-.34c-.24.7-.7,1.5-1.39,1.61a1.15,1.15,0,0,1-1-.23h0c.12-.24.12-.7.46-1.05ZM18.54,7.4a3.82,3.82,0,1,1-3.8,3.84h0v0a1.4,1.4,0,0,1,.12-.7,5.37,5.37,0,0,0,2.76-3C18,7.52,18.2,7.4,18.54,7.4ZM7.71,5.56a4.73,4.73,0,0,1,9.45,0h0a4.69,4.69,0,0,1-4.62,4.74h-.1A4.85,4.85,0,0,1,7.71,5.56Zm4.38,12.72a2.66,2.66,0,0,1-2,.12,4.25,4.25,0,0,1-2.06-2.66,4.63,4.63,0,0,1,3.34.7,2.43,2.43,0,0,1,.68,1.85ZM.82,13.89a3.85,3.85,0,0,1,3.86-3.83H5a3.83,3.83,0,0,1,3.8,3.82,3.06,3.06,0,0,1-.12,1,5.45,5.45,0,0,0-1.14.12.37.37,0,0,0-.24.12c0,.11-.12.23,0,.34a2.86,2.86,0,0,0,.46,1,4.65,4.65,0,0,1-2.88,1.28,3.85,3.85,0,0,1-4-3.67A1.22,1.22,0,0,1,.82,13.89Zm2.76,7.52A2.53,2.53,0,0,1,2,19.91,3.2,3.2,0,0,1,4,20a1.58,1.58,0,0,1,.58,1.15A1.43,1.43,0,0,1,3.58,21.41Zm1.72.12a3.47,3.47,0,0,0,1,.23,2.23,2.23,0,0,0,.92-.23,3,3,0,0,0,1.73-2v-.35c0-.11-.12-.11-.24-.23a4.18,4.18,0,0,0-3.45.34h0V18.4A4.2,4.2,0,0,0,8,17.24a3.88,3.88,0,0,0,2,1.74,3.34,3.34,0,0,0,1,.23A3,3,0,0,0,12.09,19v3a32.34,32.34,0,0,0-6.79.7V21.53Zm0-.82a.85.85,0,0,1,.47-.7c.46-.46,1.26-.46,2.3-.34a2.82,2.82,0,0,1-1.16,1.16c-.34.23-.92.12-1.61-.12Z" transform="translate(0 0)" fill="#fff"/><path d="M12.61,7.23a.08.08,0,0,1,0,.07h-.62l-.06,0a.3.3,0,0,1,0-.08l-.73-1.34H11l-.23,0h-.22V7.18a.11.11,0,0,1,0,.08s0,0-.05,0H10a.1.1,0,0,1-.11-.11V3.73a.15.15,0,0,1,0-.11.19.19,0,0,1,.12,0l.46-.05.54,0a3.68,3.68,0,0,1,.56.06,1.32,1.32,0,0,1,.46.19.9.9,0,0,1,.32.35,1.25,1.25,0,0,1,.12.54v0a1.08,1.08,0,0,1-.19.65,1.09,1.09,0,0,1-.49.38l.78,1.47Zm-.82-2.58a.45.45,0,0,0-.19-.42A1.11,1.11,0,0,0,11,4.1h-.35a.18.18,0,0,0-.1,0V5.26H11a1,1,0,0,0,.58-.11.53.53,0,0,0,.18-.46Zm3.69,1.42a1.4,1.4,0,0,1-.3.94,1.14,1.14,0,0,1-.91.33h-.21l-.27,0v.89a.19.19,0,0,1,0,.08.11.11,0,0,1-.08,0h-.46a.06.06,0,0,1-.06,0,.09.09,0,0,1,0-.08V4.69a.19.19,0,0,1,0-.08.3.3,0,0,1,.11-.06,4.42,4.42,0,0,1,.5-.1,4.19,4.19,0,0,1,.5,0,1.14,1.14,0,0,1,.91.33,1.32,1.32,0,0,1,.3.93Zm-.66-.4c0-.09,0-.19,0-.29a.58.58,0,0,0-.08-.22A.46.46,0,0,0,14.55,5a.52.52,0,0,0-.27,0A1.31,1.31,0,0,0,14,5a.75.75,0,0,0-.21,0V6.75l.24,0h.24a.86.86,0,0,0,.27,0,.57.57,0,0,0,.16-.15.63.63,0,0,0,.08-.23,2.85,2.85,0,0,0,0-.29Z" transform="translate(0 0)" fill="#fff"/><path d="M18.62,12.62s0,0,0,0H18.1a.05.05,0,0,1,0,0l0-.06-.55-1h-.41v1a.08.08,0,0,1-.07.08H16.6s-.07,0-.08-.08h0V10a.12.12,0,0,1,.14-.11l.34,0h.41a1.51,1.51,0,0,1,.42.05,1.11,1.11,0,0,1,.36.13.85.85,0,0,1,.24.26.75.75,0,0,1,.09.41v0a.75.75,0,0,1-.14.48.79.79,0,0,1-.39.28l.61,1.09ZM18,10.69a.31.31,0,0,0-.14-.31.77.77,0,0,0-.44-.1h-.34v.84h.35a.77.77,0,0,0,.44-.1.42.42,0,0,0,.13-.34Zm2.83,1.06a1,1,0,0,1-.22.7.87.87,0,0,1-.7.24h-.37v.67a.07.07,0,0,1-.07.07h-.36a.08.08,0,0,1-.08-.07h0v-2.6a.14.14,0,0,1,0-.07l.09,0,.39-.07a2.34,2.34,0,0,1,.38,0,.91.91,0,0,1,.7.25,1,1,0,0,1,.23.7Zm-.5-.29a.49.49,0,0,0,0-.21.55.55,0,0,0-.06-.18.41.41,0,0,0-.13-.1.46.46,0,0,0-.2-.05l-.22,0a.47.47,0,0,0-.16,0v1.3l.2,0h.18a.34.34,0,0,0,.2,0,.25.25,0,0,0,.13-.12.49.49,0,0,0,.06-.17,1.49,1.49,0,0,0,0-.21Z" transform="translate(0 0)" fill="#fff"/><path d="M4.73,15.11a0,0,0,0,1,0,0H4.21a0,0,0,0,1,0,0l0-.05-.56-1h-.4v1s0,.07-.07.07h-.4a.08.08,0,0,1-.08-.07h0V12.51a.12.12,0,0,1,0-.09.15.15,0,0,1,.1,0l.34,0h.41a2,2,0,0,1,.42,0,.93.93,0,0,1,.36.14.75.75,0,0,1,.24.26.79.79,0,0,1,.1.4v0a.75.75,0,0,1-.14.48.88.88,0,0,1-.38.28l.61,1.09ZM4.1,13.19A.37.37,0,0,0,4,12.88a.86.86,0,0,0-.44-.1H3.18v.85h.34a.84.84,0,0,0,.44-.1.41.41,0,0,0,.14-.34Zm2.83,1.06a1,1,0,0,1-.22.7.84.84,0,0,1-.7.25H5.64v.66a.08.08,0,0,1-.07.08H5.2a.08.08,0,0,1-.08-.07h0v-2.6a.14.14,0,0,1,0-.06.18.18,0,0,1,.09,0,1.24,1.24,0,0,1,.39-.09A2.36,2.36,0,0,1,6,13a.91.91,0,0,1,.7.25.93.93,0,0,1,.23.7ZM6.42,14a1.5,1.5,0,0,0,0-.22.36.36,0,0,0-.07-.17.28.28,0,0,0-.13-.11.45.45,0,0,0-.2,0H5.79l-.16,0v1.31l.19,0H6a.45.45,0,0,0,.2,0,.3.3,0,0,0,.13-.12.36.36,0,0,0,.07-.17,1.5,1.5,0,0,0,0-.22Z" transform="translate(0 0)" fill="#fff"/></svg>