<svg id="Layer_1" data-name="Layer 1" xmlns="http://www.w3.org/2000/svg" viewBox="0 0 25 25"><title>ic-sbauto-white</title><rect width="25" height="25" fill="none"/><path d="M5.42,20.19H3.59a1.64,1.64,0,0,1-1.68-1.6V16.16a.51.51,0,0,1,.51-.51.51.51,0,0,1,.51.51v2.4a.63.63,0,0,0,.65.61H5.42A.55.55,0,0,0,6,18.62v-.39a.51.51,0,1,1,1,0v.33a1.53,1.53,0,0,1-1.45,1.62Z" transform="translate(0 0)" fill="#fff"/><path d="M21.49,20.19H19.66A1.61,1.61,0,0,1,18,18.62v-.39a.51.51,0,0,1,1,0v.33a.58.58,0,0,0,.56.61h1.88a.55.55,0,0,0,.55-.55V16.26a.51.51,0,0,1,1,0v2.3a1.54,1.54,0,0,1-1.46,1.62Z" transform="translate(0 0)" fill="#fff"/><path d="M19.43,18.41H5.68a4,4,0,0,1-1.86-.55h0l-.44-.26a4.25,4.25,0,0,1-2.22-3.71V12.66a3.27,3.27,0,0,1,.77-2.07h0l.7-.82H1.43A1.43,1.43,0,0,1,0,8.33V7.86A1.31,1.31,0,0,1,1.31,6.55H2.9A1.1,1.1,0,0,1,4,7.37l0,.09,0-.1h0A6.28,6.28,0,0,1,9.6,4h5.91a6.32,6.32,0,0,1,5.55,3.35h0l.07.14,0-.13h0a1.07,1.07,0,0,1,1.08-.81h1.59A1.16,1.16,0,0,1,25,7.7h0v.8a1.25,1.25,0,0,1-1.25,1.25H22.47l.66.81a3.24,3.24,0,0,1,.72,2.09v1.22a4.24,4.24,0,0,1-2.16,3.72l-.39.24,0,0A4,4,0,0,1,19.43,18.41ZM4.32,17a2.85,2.85,0,0,0,1.36.42H19.43A2.75,2.75,0,0,0,20.77,17l.39-.24h0a3.24,3.24,0,0,0,1.64-2.84V12.66a2.23,2.23,0,0,0-.49-1.45L21.28,9.93l-.06-.1-.17-.36a.51.51,0,0,1,.23-.68.54.54,0,0,1,.22,0h2.24A.24.24,0,0,0,24,8.5h0V7.7a.14.14,0,0,0-.14-.14H22.25s-.08,0-.09,0l0,.16h0a1,1,0,0,1-.92.75h-.37a.5.5,0,0,1-.45-.28l-.21-.41A5.3,5.3,0,0,0,15.52,5H9.6A5.29,5.29,0,0,0,5,7.82l-.21.41a.5.5,0,0,1-.45.28H4A1,1,0,0,1,3,7.75l0-.11v0s-.07,0-.09,0H1.31A.29.29,0,0,0,1,7.86v.47a.41.41,0,0,0,.41.41H3.6a.51.51,0,0,1,.51.51.46.46,0,0,1-.06.23l-.17.35a.61.61,0,0,1-.07.1l-1.1,1.31a2.3,2.3,0,0,0-.55,1.42v1.22A3.26,3.26,0,0,0,3.87,16.7h0Z" transform="translate(0 0)" fill="#fff"/><path d="M16.48,16.37a.51.51,0,0,1,0-1A9.72,9.72,0,0,0,18,15h0a15,15,0,0,0-2.49-.41H9.64A14.35,14.35,0,0,0,7.11,15h0l.06,0h0a11.47,11.47,0,0,0,1.5.32.5.5,0,0,1,.51.51.51.51,0,0,1-.51.51A11.54,11.54,0,0,1,6.92,16a1.07,1.07,0,0,1-.84-.95,1,1,0,0,1,.69-1l.07,0a16.35,16.35,0,0,1,2.8-.45h5.87a16.36,16.36,0,0,1,2.8.46l.07,0a1,1,0,0,1,.69,1,1.05,1.05,0,0,1-.83.93A9.51,9.51,0,0,1,16.48,16.37ZM4.38,14.12a.92.92,0,0,1-.29,0l-1.37-.39a2.1,2.1,0,0,1-1.29-1.08.51.51,0,0,1,.92-.46h0a1,1,0,0,0,.66.55l1.36.39s0,0,.06,0l.21-.29s0,0,0,0,0,0,0,0L2.45,11.17a.51.51,0,0,1-.17-.7A.51.51,0,0,1,3,10.3l0,0,2.19,1.55a1.07,1.07,0,0,1,.25,1.49v0l-.22.29a1.07,1.07,0,0,1-.86.43Zm16.25,0a1.11,1.11,0,0,1-.86-.44l-.22-.29a1.08,1.08,0,0,1,.22-1.5h0L22,10.3a.5.5,0,0,1,.71.12.51.51,0,0,1-.12.71l-2.18,1.54,0,0s0,0,0,0l.21.3.06,0L22,12.67a1.07,1.07,0,0,0,.66-.55.51.51,0,1,1,.92.43h0a2.06,2.06,0,0,1-1.29,1.09L20.92,14a1.43,1.43,0,0,1-.29,0ZM12.55,10a19.83,19.83,0,0,1-6.67-.84h0a.51.51,0,0,1-.32-.63,4.48,4.48,0,0,1,1.53-2.2.51.51,0,0,1,.72,0,.52.52,0,0,1,0,.72l-.06,0a3.48,3.48,0,0,0-1,1.23A22.49,22.49,0,0,0,12.56,9a22.19,22.19,0,0,0,5.85-.63,3.26,3.26,0,0,0-1.08-1.28.52.52,0,0,1-.11-.71.51.51,0,0,1,.71-.12h0a4.22,4.22,0,0,1,1.63,2.3.51.51,0,0,1-.33.62h0a19.85,19.85,0,0,1-6.68.84Zm6.59-.82Z" transform="translate(0 0)" fill="#fff"/></svg>