<svg id="Layer_1" data-name="Layer 1" xmlns="http://www.w3.org/2000/svg" viewBox="0 0 25 25"><title>ic-saving-list</title><rect width="25" height="25" fill="none"/><path d="M16.37,15.11H5.68a.4.4,0,0,1-.11-.79h10.8a.4.4,0,0,1,.45.34.4.4,0,0,1-.34.45Z" transform="translate(0 0)" fill="#096d5c"/><path d="M16.37,17H5.68a.4.4,0,0,1-.45-.34.41.41,0,0,1,.34-.46h10.8a.4.4,0,0,1,.45.34.41.41,0,0,1-.34.46Z" transform="translate(0 0)" fill="#096d5c"/><path d="M12.22,19.07H5.68a.4.4,0,0,1-.11-.79.21.21,0,0,1,.11,0h6.54a.4.4,0,1,1,.11.79Z" transform="translate(0 0)" fill="#096d5c"/><path d="M10.08,21.16H5.68a.4.4,0,0,1-.11-.79.21.21,0,0,1,.11,0h4.4a.4.4,0,1,1,.11.79Z" transform="translate(0 0)" fill="#096d5c"/><path d="M4,2H18a2,2,0,0,1,2,2V23a2,2,0,0,1-2,2H4a2,2,0,0,1-2-2V4A2,2,0,0,1,4,2Z" transform="translate(0 0)" fill="none"/><path d="M18,25H4a2,2,0,0,1-2-2V4A2,2,0,0,1,4,2H18a2,2,0,0,1,2,2V23A2,2,0,0,1,18,25ZM4,3A1,1,0,0,0,3,4V23a1,1,0,0,0,1,1H18a1,1,0,0,0,1-1V4a1,1,0,0,0-1-1Z" transform="translate(0 0)" fill="#096d5c"/><path d="M21.92,20.72a.4.4,0,0,1-.4-.4V2.06A1.25,1.25,0,0,0,20.26.8H6.1a.4.4,0,0,1,0-.8H20.26a2.05,2.05,0,0,1,2.06,2.05h0V20.32A.4.4,0,0,1,21.92,20.72Z" transform="translate(0 0)" fill="#096d5c"/><path d="M11.46,10.9s0,.08-.05.08h-.92a.11.11,0,0,1-.08,0,.16.16,0,0,1-.05-.1L9.31,9H8.88L8.57,9v1.87a.15.15,0,0,1-.13.15H7.69a.15.15,0,0,1-.15-.13V6.1a.22.22,0,0,1,0-.17.19.19,0,0,1,.18,0c.18,0,.4,0,.63-.05s.5,0,.77,0a3.56,3.56,0,0,1,.8.08,1.82,1.82,0,0,1,.67.25,1.48,1.48,0,0,1,.45.48,1.63,1.63,0,0,1,.18.75v0a1.4,1.4,0,0,1-1,1.42l1.13,2ZM10.3,7.36A.69.69,0,0,0,10,6.78,1.34,1.34,0,0,0,9.2,6.6H8.56V8.17h.63A1.71,1.71,0,0,0,10,8a.79.79,0,0,0,.28-.63Zm5.3,2a1.87,1.87,0,0,1-.42,1.3,1.64,1.64,0,0,1-1.32.45h-.32c-.11,0-.24,0-.38,0v1.23a.14.14,0,0,1-.13.15h-.7a.13.13,0,0,1-.13-.14V7.46a.23.23,0,0,1,0-.11l.17-.08a2.22,2.22,0,0,1,.72-.16,2.9,2.9,0,0,1,.72,0,1.74,1.74,0,0,1,1.32.45,1.72,1.72,0,0,1,.41,1.3Zm-1-.55a1.29,1.29,0,0,0,0-.39,1.19,1.19,0,0,0-.1-.32.58.58,0,0,0-.24-.2,1,1,0,0,0-.38-.08,1.39,1.39,0,0,0-.41,0,1.63,1.63,0,0,0-.31,0v2.42a1.1,1.1,0,0,0,.36,0c.11,0,.23,0,.34,0a1,1,0,0,0,.38-.07.59.59,0,0,0,.24-.23.94.94,0,0,0,.11-.32,2.69,2.69,0,0,0,0-.4l0-.53Z" transform="translate(0 0)" fill="#096d5c"/></svg>