<svg id="Layer_1" data-name="Layer 1" xmlns="http://www.w3.org/2000/svg" viewBox="0 0 25 24.97"><title>ic-tps-white</title><path d="M24.65,12.1h-.8a11.29,11.29,0,0,0-3.34-7.6,10.94,10.94,0,0,0-7.6-3.34V.35A.37.37,0,0,0,12.56,0c-.12,0-.46.12-.46.35v.8A11,11,0,0,0,4.5,4.49a11.26,11.26,0,0,0-3.34,7.6H.35c-.23,0-.35.23-.35.46a.37.37,0,0,0,.35.35h.8a11.29,11.29,0,0,0,3.34,7.6,11.51,11.51,0,0,0,7.72,3.34v.81a.35.35,0,0,0,.69,0v-.81a10.9,10.9,0,0,0,7.6-3.34,11.24,11.24,0,0,0,3.34-7.6h.81a.31.31,0,0,0,.35-.25v-.09C25,12.33,24.89,12.1,24.65,12.1ZM20.05,5a11.28,11.28,0,0,1,3.11,7.15H20.39a7.15,7.15,0,0,0-2.3-5.18,7.15,7.15,0,0,0-5.18-2.3V2A10.24,10.24,0,0,1,20.05,5ZM17.63,17.63a8,8,0,0,1-2.77,1.73V17.51H15c.8,0,1.84-.11,2-.92a10,10,0,0,0,0-1.73l.69-.34a1.2,1.2,0,0,0,.46-.58.59.59,0,0,0-.12-.58c-.92-1.38-1-1.72-1-1.84a4.38,4.38,0,0,0-4.5-4.15H12.1c-.46,0-4.61.12-4.61,4.27,0,2.42.69,3.34,1.27,3.91a6.48,6.48,0,0,1,.46.81,8.93,8.93,0,0,1,.35,2.77,15.13,15.13,0,0,1-2.19-1.5A7.17,7.17,0,1,1,17.51,7.49a7.13,7.13,0,0,1,.18,10.08Zm-7.38,1.73A13.47,13.47,0,0,0,9.91,16a2.09,2.09,0,0,0-.58-.8,5.2,5.2,0,0,1-1-3.57c0-3.34,3.22-3.46,3.91-3.46h.35a3.6,3.6,0,0,1,3.79,3.39v.07a5.63,5.63,0,0,0,1.15,2.19h0c-.58.34-1,.57-1,.57-.23,0-.34.12-.23.35a8.34,8.34,0,0,1,0,1.73c0,.11-.46.23-1.15.23h-.23c-.58,0-.8.34-.8.57v2.3a8.61,8.61,0,0,1-3.81-.22ZM5,5A10.66,10.66,0,0,1,12.1,1.84V4.61a7.15,7.15,0,0,0-5.18,2.3,7.15,7.15,0,0,0-2.3,5.18H2A10.61,10.61,0,0,1,5,5ZM5,20.05A10.58,10.58,0,0,1,2,12.9H4.6a7.25,7.25,0,0,0,2.3,5.19,8,8,0,0,0,5.3,2.3V23a10.56,10.56,0,0,1-7.25-3Zm15.1,0a10.3,10.3,0,0,1-7.15,3V20.4a7.88,7.88,0,0,0,7.6-7.6h2.65a11.31,11.31,0,0,1-3.1,7.25Z" transform="translate(0 0)" fill="#fff"/></svg>