<svg id="Layer_1" data-name="Layer 1" xmlns="http://www.w3.org/2000/svg" viewBox="0 0 25 24.96"><title>ic-tawis-white</title><path d="M25,11c0-.12-.11-.23-.35-.23l-7.83-1.5V8.46A8.41,8.41,0,1,0,0,8.45H0A8.52,8.52,0,0,0,7.6,16.9l3.46,7.87a.24.24,0,0,0,.23.23h.11c.12,0,.23,0,.23-.11l4.15-4.17,5-.12h.12a.11.11,0,0,0,.11-.11h0v-.23h0l-.23-4.63,4.15-4.17A.76.76,0,0,0,25,11ZM.81,8.45A7.74,7.74,0,0,1,8.52.69h0a7.65,7.65,0,0,1,7.61,7.68v.77L3.92,6.83A.41.41,0,0,0,3.57,7a.22.22,0,0,0,0,.3l0,0L7.37,16A7.49,7.49,0,0,1,.81,8.45Zm19.47,6.6L7.83,8.8c-.23-.12-.46,0-.46.12s0,.46.12.46l12.56,6.25.23,3.7L9.56,11.11C9.33,11,9.1,11,9,11.23a.28.28,0,0,0,0,.4.18.18,0,0,0,.09.06l10.6,8.1-3.92.12L6.57,9.72a.51.51,0,0,0-.58,0,.51.51,0,0,0,0,.58l9,10.07L11.52,24,4.38,7.76l19.47,3.7Z" transform="translate(0 -0.04)" fill="#fff"/></svg>