<svg id="Layer_1" data-name="Layer 1" xmlns="http://www.w3.org/2000/svg" viewBox="0 0 25 24.98"><title>ic-trs-white</title><path d="M24.72,12.1h-.46A11.63,11.63,0,0,0,12.94.81V.35A.51.51,0,0,0,12.59,0a.52.52,0,0,0-.46.35V.69A11.82,11.82,0,0,0,.81,12.1H.35c-.23,0-.35.23-.35.46a.37.37,0,0,0,.35.35H.69a11.85,11.85,0,0,0,11.44,11.4v.35a.35.35,0,0,0,.69,0v-.35A11.76,11.76,0,0,0,24.26,12.9h.35a.3.3,0,0,0,.34-.26.14.14,0,0,0,0-.09A.28.28,0,0,0,24.72,12.1Zm-1.15,0h-1.5A9.61,9.61,0,0,0,12.94,3V1.5A11.06,11.06,0,0,1,23.57,12.1Zm-7.4-3.69a2.27,2.27,0,0,0-.23.92h-.11a.44.44,0,0,0-.23.46c.11.12.23.23.34.23h0a4.63,4.63,0,0,0,.47.81,5.81,5.81,0,0,1,1.73,4c0,2.42-2,3.69-5.66,3.69s-5.66-1.27-5.66-3.69a6.26,6.26,0,0,1,1.73-4A1.33,1.33,0,0,0,9.13,10h0c.11,0,.23-.11.34-.23s0-.46-.23-.46H9.13a1.54,1.54,0,0,0-.35-.92,3.34,3.34,0,0,1-.23-1,.65.65,0,0,1,.92,0,.44.44,0,0,1,.12.15,1.81,1.81,0,0,0,1.15.57,1.62,1.62,0,0,0,1.16-.57.65.65,0,0,1,.58-.35h0a.65.65,0,0,1,.58.35,1.83,1.83,0,0,0,1.27.57,1.6,1.6,0,0,0,1.15-.57.65.65,0,0,1,.89-.24l.15.12A1.83,1.83,0,0,1,16.17,8.41Zm-4-2a1.74,1.74,0,0,0-.81.58.76.76,0,0,1-1.09.06L10.17,7A1.6,1.6,0,0,0,9,6.45,1.56,1.56,0,0,0,7.86,7c0,.11-.12.11-.12.23a2.36,2.36,0,0,0,.46,1.5,1.21,1.21,0,0,1-.11,1.5A5.83,5.83,0,0,0,6.82,12.1h-3a8.66,8.66,0,0,1,8.31-8.3V6.45ZM6.47,12.9a6.52,6.52,0,0,0-.35,2c0,2.76,2.2,4.26,6.13,4.38v2a8.69,8.69,0,0,1-8.44-8.3Zm6.47,6.34c3.93-.12,6.12-1.62,6.12-4.38a5.43,5.43,0,0,0-.34-2h2.65a8.86,8.86,0,0,1-8.43,8.3Zm5.31-7.14A5.72,5.72,0,0,0,17,10.26a1.21,1.21,0,0,1-.11-1.5,3.8,3.8,0,0,0,.46-1.5c0-.12,0-.12-.12-.23a1.44,1.44,0,0,0-2-.29A1.33,1.33,0,0,0,14.9,7a.77.77,0,0,1-1.09.06L13.75,7a1.74,1.74,0,0,0-.81-.58V3.8a8.67,8.67,0,0,1,8.32,8.3h-3ZM12.13,1.5V3A9.61,9.61,0,0,0,3,12.1H1.5A11,11,0,0,1,12.13,1.5ZM1.5,12.9H3A9.53,9.53,0,0,0,12.13,22v1.5A11,11,0,0,1,1.5,12.9ZM12.94,23.5V22a9.54,9.54,0,0,0,9.13-9.1h1.5A11.07,11.07,0,0,1,12.94,23.5Z" transform="translate(0 0)" fill="#fff"/><path d="M12.25,10.71h.46a.37.37,0,0,0,.35-.34.38.38,0,0,0-.35-.35h-.46a.31.31,0,0,0-.35.26v.09a.3.3,0,0,0,.26.34Z" transform="translate(0 0)" fill="#fff"/><path d="M14.56,9.79c-.12,0-.35.11-.46.11s-.35.23-.35.46a.37.37,0,0,0,.35.35h.11c.23,0,.35-.11.58-.11s.35-.23.23-.47S14.79,9.68,14.56,9.79Z" transform="translate(0 0)" fill="#fff"/><path d="M11.32,10.37c0-.23-.11-.46-.35-.46s-.34-.12-.46-.12-.46.12-.46.23.12.46.23.46.35.12.58.12H11C11.09,10.6,11.21,10.48,11.32,10.37Z" transform="translate(0 0)" fill="#fff"/><path d="M12.14,16s0,.05,0,.05h-.58l0,0s0,0,0-.06l-.64-1.16h-.28l-.19,0v1.18a.08.08,0,0,1-.08.09H9.79a.09.09,0,0,1-.09-.08v-3a.19.19,0,0,1,0-.1.11.11,0,0,1,.11,0c.11,0,.26,0,.4,0l.47,0a2.73,2.73,0,0,1,.5.05,1.52,1.52,0,0,1,.42.16,1,1,0,0,1,.28.3,1.13,1.13,0,0,1,.11.48v0a.87.87,0,0,1-.6.89l.7,1.27Zm-.73-2.23a.41.41,0,0,0-.16-.36.76.76,0,0,0-.51-.11h-.4v1h.39a1,1,0,0,0,.52-.11.53.53,0,0,0,.17-.4ZM14.71,15a1.26,1.26,0,0,1-.26.82,1,1,0,0,1-.82.28h-.2l-.23,0v.78a.09.09,0,0,1-.08.09h-.43a.11.11,0,0,1-.1-.08v-3s0,0,0-.07l.11-.05a1.34,1.34,0,0,1,.44-.1,2.2,2.2,0,0,1,.44,0,1.1,1.1,0,0,1,.82.28,1.12,1.12,0,0,1,.27.82Zm-.6-.34a.65.65,0,0,0,0-.24.48.48,0,0,0-.07-.2.35.35,0,0,0-.15-.12.59.59,0,0,0-.23-.05,1.14,1.14,0,0,0-.26,0l-.19,0v1.52a.57.57,0,0,0,.22,0l.22,0a.59.59,0,0,0,.23,0,.34.34,0,0,0,.15-.14.48.48,0,0,0,.07-.2.71.71,0,0,0,0-.25Z" transform="translate(0 0)" fill="#fff"/></svg>