<svg id="Layer_1" data-name="Layer 1" xmlns="http://www.w3.org/2000/svg" viewBox="0 0 328 273"><title>ic-onboard-1</title><ellipse cx="162.66" cy="139.45" rx="124.12" ry="123.7" fill="#71ab3c"/><path d="M162.11,40.79H82.83A12.15,12.15,0,0,1,70.69,28.65h0A12.15,12.15,0,0,1,82.83,16.51h79.28a12.15,12.15,0,0,1,12.14,12.14h0a12.15,12.15,0,0,1-12.14,12.14Z" transform="translate(0 0)" fill="#71ab3c"/><path d="M63,211h50.95a9.52,9.52,0,0,1,9.51,9.51h0a9.51,9.51,0,0,1-9.51,9.51H63a9.51,9.51,0,0,1-9.51-9.51h0A9.51,9.51,0,0,1,63,211Z" transform="translate(0 0)" fill="#71ab3c"/><path d="M52.92,248.14H128.4a6.17,6.17,0,0,1,6.17,6.17h0a6.16,6.16,0,0,1-6.16,6.16H52.92a6.16,6.16,0,0,1-6.16-6.16h0a6.18,6.18,0,0,1,6.16-6.17Z" transform="translate(0 0)" fill="#71ab3c"/><rect x="211.48" y="260.68" width="23.84" height="12.33" rx="3.15" fill="#71ab3c"/><path d="M154.35,224.21H268a10.11,10.11,0,0,1,10.11,10.11h0A10.11,10.11,0,0,1,268,244.43H154.35a10.11,10.11,0,0,1-10.11-10.11h0A10.11,10.11,0,0,1,154.35,224.21Z" transform="translate(0 0)" fill="#71ab3c"/><path d="M73.83,229.73h35.5a9.59,9.59,0,0,0-6.73,2.86A8.69,8.69,0,0,0,99.81,239a9.23,9.23,0,0,0,9.29,9.17H73.83a8.88,8.88,0,0,0,9.48-8.25,6.43,6.43,0,0,0,0-.76,9.4,9.4,0,0,0-9.4-9.4Z" transform="translate(0 0)" fill="#71ab3c"/><path d="M219.42,121.57h91.5A17.07,17.07,0,0,1,328,138.64h0a17.08,17.08,0,0,1-17.08,17.08h-91.5a17.08,17.08,0,0,1-17.08-17.07h0A17.07,17.07,0,0,1,219.42,121.57Z" transform="translate(0 0)" fill="#71ab3c"/><path d="M180.39,188.7H316A11.07,11.07,0,0,1,327,199.77h0A11.07,11.07,0,0,1,316,210.84H180.39a11.07,11.07,0,0,1-11.07-11.07h0A11.07,11.07,0,0,1,180.39,188.7Z" transform="translate(0 0)" fill="#71ab3c"/><path d="M240,155.73h63.75a16.94,16.94,0,0,0-12.07,4.94,15.6,15.6,0,0,0-5,11.47c0,9.43,7.66,16.45,17.09,16.45H240c4.71,0,9-1.33,12.07-4.4a16.18,16.18,0,0,0,5-11.73,16.76,16.76,0,0,0-16.8-16.73Z" transform="translate(0 0)" fill="#71ab3c"/><path d="M136.49,106.89H29.27A18.13,18.13,0,0,1,11.14,88.76h0A18.13,18.13,0,0,1,29.27,70.63H136.49a18.12,18.12,0,0,1,18.14,18.13h0a18.13,18.13,0,0,1-18.14,18.13Z" transform="translate(0 0)" fill="#71ab3c"/><path d="M181.15,208.77H26.21A26.2,26.2,0,0,1,0,182.57H0a26.21,26.21,0,0,1,26.21-26.21H181.15a26.21,26.21,0,0,1,26.2,26.21h0a26.18,26.18,0,0,1-26.19,26.2Z" transform="translate(0 0)" fill="#71ab3c"/><path d="M268.82,65.81H183.28a14.46,14.46,0,0,1-14.46-14.47h0a14.46,14.46,0,0,1,14.46-14.47h85.54a14.47,14.47,0,0,1,14.47,14.47h0a14.47,14.47,0,0,1-14.47,14.47Z" transform="translate(0 0)" fill="#71ab3c"/><path d="M242.51,15.74H222.2a7.87,7.87,0,0,1-7.88-7.87h0A7.87,7.87,0,0,1,222.2,0h20.31a7.87,7.87,0,0,1,7.88,7.87h0A7.87,7.87,0,0,1,242.51,15.74Z" transform="translate(0 0)" fill="#71ab3c"/><path d="M210.54,116.49a1.38,1.38,0,0,1-1.23-2l9.07-18.83A5.11,5.11,0,0,0,216,88.9l-33.25-16a5.1,5.1,0,0,0-6.8,2.38h0L161,106a1.37,1.37,0,0,1-1.81.68,1.38,1.38,0,0,1-.68-1.82l0-.06,15-30.68a7.83,7.83,0,0,1,10.44-3.66l33.26,16a7.83,7.83,0,0,1,3.66,10.44l-9.07,18.84A1.38,1.38,0,0,1,210.54,116.49Z" transform="translate(0 0)" fill="#f5fffd"/><path d="M176.23,178.94a7.78,7.78,0,0,1-3.38-.77l-16.69-8a1.37,1.37,0,0,1,1.15-2.48l0,0,16.69,8a5.09,5.09,0,0,0,6.79-2.38l7.92-16.4a1.37,1.37,0,0,1,1.83-.63,1.35,1.35,0,0,1,.63,1.82l-7.91,16.4A7.84,7.84,0,0,1,176.23,178.94Z" transform="translate(0 0)" fill="#f5fffd"/><path d="M184.87,168.18a1.35,1.35,0,0,1-.59-.14l-24.34-11.71a1.37,1.37,0,1,1,1.15-2.48h0l24.35,11.71a1.37,1.37,0,0,1-.6,2.6Z" transform="translate(0 0)" fill="#f5fffd"/><path d="M218.46,98.78a1.34,1.34,0,0,1-.59-.13l-43.1-20.73A1.37,1.37,0,1,1,176,75.45l43.1,20.73a1.37,1.37,0,0,1-.6,2.6Z" transform="translate(0 0)" fill="#f5fffd"/><path d="M164.17,165.31a1.38,1.38,0,0,1-.59-.14L159,163a1.37,1.37,0,1,1,1.19-2.47l4.61,2.21a1.37,1.37,0,0,1-.6,2.6Z" transform="translate(0 0)" fill="#f5fffd"/><path d="M110.56,192.67a1.37,1.37,0,0,1-1.37-1.37,1.31,1.31,0,0,1,.14-.59l13-27.07,5.23-29.12a16,16,0,0,1,6.8-12.69L162,102.66a7.93,7.93,0,0,1,9.27,12.86l-20,14.91A42.28,42.28,0,0,1,159,143.06a31.78,31.78,0,0,1,2.05,14.7,34.09,34.09,0,0,1-7.46,17.44,1.37,1.37,0,0,1-2.16-1.68,31.44,31.44,0,0,0,6.9-16.05A29,29,0,0,0,156.47,144a38.85,38.85,0,0,0-8.13-12.8,1.37,1.37,0,0,1,0-1.94l.16-.15,21.2-15.83a5.19,5.19,0,0,0-6.08-8.42l-27.65,19.18a13.26,13.26,0,0,0-5.63,10.6.86.86,0,0,1,0,.22L125,164.31a1.42,1.42,0,0,1-.11.35l-13.1,27.23A1.37,1.37,0,0,1,110.56,192.67Z" transform="translate(0 0)" fill="#f5fffd"/><path d="M203.26,131.59a7.36,7.36,0,0,1-7.08-5.39h0a7.37,7.37,0,0,1,5.13-9.06l12.1-3.37a7.36,7.36,0,0,1,4.07,14.15l-.13,0-12.1,3.36A7.46,7.46,0,0,1,203.26,131.59Zm12.13-15.35a4.83,4.83,0,0,0-1.25.17L202,119.78a4.62,4.62,0,0,0-3.22,5.69h0a4.63,4.63,0,0,0,5.7,3.21l12.1-3.36a4.63,4.63,0,0,0-1.23-9.08Z" transform="translate(0 0)" fill="#f5fffd"/><path d="M200.59,145a7.36,7.36,0,0,1-2-14.45l12.1-3.37a7.36,7.36,0,0,1,3.94,14.19l-12.1,3.36A7.26,7.26,0,0,1,200.59,145Zm12.1-15.35a4.62,4.62,0,0,0-1.23.17l-12.1,3.36a4.62,4.62,0,0,0,2.47,8.91l12.1-3.36a4.62,4.62,0,0,0-1.24-9.08Z" transform="translate(0 0)" fill="#f5fffd"/><path d="M193.64,159.39a7.36,7.36,0,0,1-2-14.46l12.1-3.36a7.36,7.36,0,0,1,3.94,14.18l-12.1,3.37A7.39,7.39,0,0,1,193.64,159.39ZM205.75,144a4.32,4.32,0,0,0-1.24.17l-12.1,3.36a4.62,4.62,0,0,0-3.22,5.69h0a4.63,4.63,0,0,0,5.69,3.22l12.1-3.37a4.62,4.62,0,0,0-1.23-9.07Z" transform="translate(0 0)" fill="#f5fffd"/><path d="M141.11,213.06a1.37,1.37,0,0,1-1.37-1.37,1.54,1.54,0,0,1,.13-.6l12.28-25.51a1.36,1.36,0,0,1,1.26-.78,23.19,23.19,0,0,0,14.29-4.2,19.1,19.1,0,0,0,4.59-4.47,1.37,1.37,0,0,1,2.3,1.5h0a21.8,21.8,0,0,1-5.19,5.13,26,26,0,0,1-15.16,4.79l-11.9,24.73A1.37,1.37,0,0,1,141.11,213.06Z" transform="translate(0 0)" fill="#f5fffd"/><path d="M84.3,167.08A1.36,1.36,0,0,1,83,166a85,85,0,0,1-1.57-30,1.37,1.37,0,0,1,2.72.34,82.35,82.35,0,0,0,1.51,29,1.36,1.36,0,0,1-1,1.65A1.65,1.65,0,0,1,84.3,167.08Z" transform="translate(0 0)" fill="#f5fffd" style="isolation:isolate"/><path d="M164.89,230.84a83.25,83.25,0,0,1-37.92-9,84.89,84.89,0,0,1-29-24.1,1.37,1.37,0,1,1,2.17-1.66h0a82.13,82.13,0,0,0,28,23.32,81.62,81.62,0,0,0,51.38,7.39,1.37,1.37,0,0,1,.55,2.69h0A85.12,85.12,0,0,1,164.89,230.84Z" transform="translate(0 0)" fill="#f5fffd" style="isolation:isolate"/><path d="M244.17,172.24a1.37,1.37,0,0,1-1.37-1.37,1.49,1.49,0,0,1,0-.36c.68-2.47,1.25-5,1.69-7.52a1.37,1.37,0,0,1,2.7.47h0c-.46,2.61-1,5.22-1.74,7.78A1.38,1.38,0,0,1,244.17,172.24Z" transform="translate(0 0)" fill="#f5fffd" style="isolation:isolate"/><path d="M245.86,130.74a1.37,1.37,0,0,1-1.34-1.08A80.46,80.46,0,0,0,230.74,98.8,1.37,1.37,0,0,1,233,97.19a83.18,83.18,0,0,1,14.25,31.9,1.36,1.36,0,0,1-1,1.62,1.43,1.43,0,0,1-.29,0Z" transform="translate(0 0)" fill="#f5fffd" style="isolation:isolate"/><path d="M86.71,182.39H83.79a1.37,1.37,0,0,1,0-2.74h2.92a1.37,1.37,0,1,1,0,2.74Z" transform="translate(0 0)" fill="#f5fffd"/><path d="M98,182.39H94.75a1.37,1.37,0,0,1,0-2.74H98a1.37,1.37,0,1,1,0,2.74Z" transform="translate(0 0)" fill="#f5fffd"/><path d="M90.82,189.6a1.37,1.37,0,0,1-1.37-1.37v-2.92a1.37,1.37,0,1,1,2.74,0v2.92a1.37,1.37,0,0,1-1.37,1.37Z" transform="translate(0 0)" fill="#f5fffd"/><path d="M90.82,178.65a1.37,1.37,0,0,1-1.37-1.37h0V174a1.37,1.37,0,1,1,2.74,0v3.28a1.38,1.38,0,0,1-1.36,1.38Z" transform="translate(0 0)" fill="#f5fffd"/><path d="M242.24,147.16h-2.92a1.37,1.37,0,0,1,0-2.74h2.92a1.37,1.37,0,0,1,0,2.74Z" transform="translate(0 0)" fill="#f5fffd"/><path d="M253.55,147.16h-3.28a1.37,1.37,0,0,1,0-2.74h3.28a1.37,1.37,0,0,1,0,2.74Z" transform="translate(0 0)" fill="#f5fffd"/><path d="M246.34,154.37A1.37,1.37,0,0,1,245,153v-2.92a1.37,1.37,0,0,1,2.74,0V153a1.37,1.37,0,0,1-1.37,1.37Z" transform="translate(0 0)" fill="#f5fffd"/><path d="M246.34,143.42a1.38,1.38,0,0,1-1.37-1.37h0v-3.28a1.37,1.37,0,0,1,2.74,0V142a1.38,1.38,0,0,1-1.36,1.38Z" transform="translate(0 0)" fill="#f5fffd"/><path d="M142.39,45.3h-2.92a1.37,1.37,0,1,1,0-2.73h2.92a1.37,1.37,0,1,1,0,2.73Z" transform="translate(0 0)" fill="#f5fffd"/><path d="M153.7,45.3h-3.28a1.37,1.37,0,1,1,0-2.73h3.28a1.37,1.37,0,1,1,0,2.73Z" transform="translate(0 0)" fill="#f5fffd"/><path d="M146.49,52.51a1.36,1.36,0,0,1-1.36-1.37V48.22a1.37,1.37,0,1,1,2.73,0v2.92a1.36,1.36,0,0,1-1.36,1.37Z" transform="translate(0 0)" fill="#f5fffd"/><path d="M146.49,41.56a1.36,1.36,0,0,1-1.36-1.37h0V36.9a1.37,1.37,0,1,1,2.73,0v3.29a1.36,1.36,0,0,1-1.36,1.37Z" transform="translate(0 0)" fill="#f5fffd"/><path d="M238,192.79h-2.92a1.37,1.37,0,1,1,0-2.73H238a1.37,1.37,0,1,1,0,2.73Z" transform="translate(0 0)" fill="#f5fffd"/><path d="M249.35,192.79h-3.28a1.37,1.37,0,1,1,0-2.73h3.28a1.37,1.37,0,1,1,0,2.73Z" transform="translate(0 0)" fill="#f5fffd"/><path d="M242.14,200a1.36,1.36,0,0,1-1.36-1.37v-2.92a1.37,1.37,0,0,1,2.73,0v2.92a1.36,1.36,0,0,1-1.36,1.37Z" transform="translate(0 0)" fill="#f5fffd"/><path d="M242.14,189.05a1.36,1.36,0,0,1-1.36-1.37h0v-3.29a1.37,1.37,0,1,1,2.73,0v3.29a1.36,1.36,0,0,1-1.36,1.37Z" transform="translate(0 0)" fill="#f5fffd"/><path d="M103.69,156.34a4.44,4.44,0,1,1,4.44-4.44A4.43,4.43,0,0,1,103.69,156.34Zm0-6.13a1.7,1.7,0,1,0,1.7,1.7h0A1.7,1.7,0,0,0,103.69,150.21Z" transform="translate(0 0)" fill="#f5fffd" style="isolation:isolate"/><path d="M161.42,67.54a4.44,4.44,0,1,1,4.44-4.44A4.43,4.43,0,0,1,161.42,67.54Zm0-6.14a1.7,1.7,0,1,0,1.7,1.7h0A1.7,1.7,0,0,0,161.42,61.4Z" transform="translate(0 0)" fill="#f5fffd" style="isolation:isolate"/><path d="M224.58,182.54A4.44,4.44,0,1,1,229,178.1,4.44,4.44,0,0,1,224.58,182.54Zm0-6.14a1.7,1.7,0,1,0,1.7,1.7h0A1.7,1.7,0,0,0,224.58,176.4Z" transform="translate(0 0)" fill="#f5fffd" style="isolation:isolate"/><path d="M207.36,235.54a22.06,22.06,0,1,1,22.06-22.06h0A22.08,22.08,0,0,1,207.36,235.54Zm0-41.38a19.32,19.32,0,1,0,19.32,19.32A19.32,19.32,0,0,0,207.36,194.16Z" transform="translate(0 0)" fill="#f5fffd"/><path d="M141.12,96a1.37,1.37,0,0,1-1.37-1.37,1.36,1.36,0,0,1,0-.29l4.74-21.44-49.72-11-5,23.38a1.37,1.37,0,0,1-2.69-.54v0L92.41,60A1.38,1.38,0,0,1,94,58.93h0l52.4,11.57a1.37,1.37,0,0,1,1.05,1.63h0l-5,22.77A1.38,1.38,0,0,1,141.12,96Z" transform="translate(0 0)" fill="#f5fffd"/><path d="M137.21,91a1.37,1.37,0,0,1-1.38-1.37,1.35,1.35,0,0,1,0-.29l2-9a5.5,5.5,0,0,1-2.93-4.64l-31.89-7a5.36,5.36,0,0,1-2,2.14,5.54,5.54,0,0,1-2.77.83L96.6,79.4a5.43,5.43,0,0,1,2.16,1.9,5.36,5.36,0,0,1,.75,4.13,1.37,1.37,0,0,1-2.67-.59h0a2.63,2.63,0,0,0-.37-2,2.86,2.86,0,0,0-1.76-1.19,1.36,1.36,0,0,1-1-1.63h0l2.22-10.06a1.37,1.37,0,0,1,1.63-1,2.76,2.76,0,0,0,2.1-.35,2.62,2.62,0,0,0,1.2-1.7,1.39,1.39,0,0,1,1.64-1h0l34.22,7.56a1.38,1.38,0,0,1,1,1.63h0a2.7,2.7,0,0,0,2,3.22,1.37,1.37,0,0,1,1,1.63h0L138.55,90A1.36,1.36,0,0,1,137.21,91Z" transform="translate(0 0)" fill="#f5fffd"/><path d="M116.89,84.32a4.39,4.39,0,1,1,4.39-4.39,5,5,0,0,1-.1.95h0A4.4,4.4,0,0,1,116.89,84.32Zm0-6a1.61,1.61,0,1,0,.35,0,2,2,0,0,0-.35,0Zm3,2.3Z" transform="translate(0 0)" fill="#f5fffd"/><path d="M96.37,113.4h0a4.71,4.71,0,0,1,0-9.41h0a4.71,4.71,0,0,1,0,9.41Zm0-6.68a2,2,0,0,0-2,2h0a2,2,0,0,0,1.95,2h0a2,2,0,0,0,0-3.94Zm-3.34,2Z" transform="translate(0 0)" fill="#f5fffd"/><path d="M123.86,127.26H68.37A1.37,1.37,0,0,1,67,125.89h0V89.57a1.37,1.37,0,0,1,1.37-1.37h55.49a1.37,1.37,0,0,1,1.37,1.37h0v36.32a1.37,1.37,0,0,1-1.37,1.37Zm-54.12-2.74h52.75V90.94H69.74Z" transform="translate(0 0)" fill="#f5fffd"/><path d="M114.82,122.15H77.05a1.38,1.38,0,0,1-1.32-1,5,5,0,0,0-2.65-3.1,1.36,1.36,0,0,1-.78-1.23V98.26A1.37,1.37,0,0,1,73.08,97a5,5,0,0,0,2.56-2.81,1.37,1.37,0,0,1,1.29-.9h38a1.36,1.36,0,0,1,1.28.9,5,5,0,0,0,2.85,2.94,1.37,1.37,0,0,1,.86,1.27v18.26a1.37,1.37,0,0,1-.86,1.27,5,5,0,0,0-2.94,3.22A1.37,1.37,0,0,1,114.82,122.15ZM78,119.41h35.88a7.93,7.93,0,0,1,3.32-3.6V99.28a7.76,7.76,0,0,1-3.14-3.23H77.82a7.91,7.91,0,0,1-2.78,3v17A7.8,7.8,0,0,1,78,119.41Z" transform="translate(0 0)" fill="#f5fffd"/><path d="M207.37,219a1,1,0,0,1-.09,1.19,1.1,1.1,0,0,1-.92.36,1.79,1.79,0,0,1-.87-.22c-1-.54-1.43-1.65-1.43-3.32a1.44,1.44,0,0,0-.47-1.13,2,2,0,0,0-1.34-.42h-3.71v3.86a1.29,1.29,0,0,1-.29.87.94.94,0,0,1-.77.34,1.53,1.53,0,0,1-1-.35,1,1,0,0,1-.42-.86V207.87a1.18,1.18,0,0,1,1.16-1.21H203a3.65,3.65,0,0,1,1.95.56,4.12,4.12,0,0,1,1.46,1.53,4.38,4.38,0,0,1,.54,2.18,3.87,3.87,0,0,1-.53,1.94,4.35,4.35,0,0,1-1.39,1.5,3.08,3.08,0,0,1,1.37,2.35,4.2,4.2,0,0,1,.06.61,6.61,6.61,0,0,0,.15.89.65.65,0,0,0,.36.4A1.27,1.27,0,0,1,207.37,219Zm-3.79-5.92a2.48,2.48,0,0,0,.56-.9,3.38,3.38,0,0,0,.22-1.22,2.45,2.45,0,0,0-.22-1,2.14,2.14,0,0,0-.56-.74,1.12,1.12,0,0,0-.7-.28h-4.35v4.51h4.35a1,1,0,0,0,.71-.34Z" transform="translate(0 0)" fill="#f5fffd"/><path d="M217.49,210.45a4.94,4.94,0,0,1,1.76,2,6.62,6.62,0,0,1,0,5.7,4.84,4.84,0,0,1-1.74,2,4.37,4.37,0,0,1-2.43.71,4.29,4.29,0,0,1-1.8-.39,4.78,4.78,0,0,1-1.4-.94v3.89a1.2,1.2,0,0,1-.34.86,1.1,1.1,0,0,1-.85.35,1.16,1.16,0,0,1-1.2-1.21V211.15a1.2,1.2,0,0,1,.34-.86,1.21,1.21,0,0,1,1.71,0,1.2,1.2,0,0,1,.34.86v.08a4,4,0,0,1,1.33-1,3.72,3.72,0,0,1,1.79-.45A4.53,4.53,0,0,1,217.49,210.45Zm-.7,7.18a3.9,3.9,0,0,0,0-4.76,2.82,2.82,0,0,0-4.2,0,3.86,3.86,0,0,0,0,4.76,2.77,2.77,0,0,0,3.92.27l.27-.27Z" transform="translate(0 0)" fill="#f5fffd"/><path d="M206.24,78.08a1.37,1.37,0,0,1-1.49-1.23,1.48,1.48,0,0,1,.14-.75l3-5.9a1.38,1.38,0,0,1,1.84-.63,1.36,1.36,0,0,1,.62,1.83v0l-3,5.9A1.37,1.37,0,0,1,206.24,78.08Z" transform="translate(0 0)" fill="#f5fffd"/><path d="M216.41,57.68a1.37,1.37,0,0,1-1.49-1.23,1.48,1.48,0,0,1,.14-.75l3-5.9A1.37,1.37,0,1,1,220.51,51v0l-3,5.9A1.37,1.37,0,0,1,216.41,57.68Z" transform="translate(0 0)" fill="#f5fffd"/><path d="M221.88,47a1.19,1.19,0,0,1-.42,0l-.08,0a1.37,1.37,0,0,1,.58-2.68l.08,0a1.37,1.37,0,0,1-.16,2.7Z" transform="translate(0 0)" fill="#f5fffd"/><path d="M191.93,65.49a1.36,1.36,0,0,1-1.35-2l7-13.82a1.37,1.37,0,0,1,2.44,1.25l-7,13.81A1.37,1.37,0,0,1,191.93,65.49Z" transform="translate(0 0)" fill="#f5fffd"/><path d="M216.54,79.48a1.36,1.36,0,0,1-1.49-1.24,1.33,1.33,0,0,1,.14-.75l10.9-21.33a1.37,1.37,0,1,1,2.45,1.23v0l-10.9,21.33A1.36,1.36,0,0,1,216.54,79.48Z" transform="translate(0 0)" fill="#f5fffd"/><path d="M229.66,53.48a1.37,1.37,0,0,1-1.49-1.23,1.3,1.3,0,0,1,.14-.75l3.16-6.3a1.37,1.37,0,0,1,2.46,1.21l0,0-3.16,6.3A1.35,1.35,0,0,1,229.66,53.48Z" transform="translate(0 0)" fill="#f5fffd"/><path d="M213.25,68.07a4.32,4.32,0,1,1,3.42-2.29A4.32,4.32,0,0,1,213.25,68.07Zm-.55-5.87a1.8,1.8,0,0,0-.32.06,1.6,1.6,0,1,0,.32-.06Z" transform="translate(0 0)" fill="#f5fffd"/><path d="M234.84,43.32a1.37,1.37,0,0,1-1.42-.9l0-.07a1.37,1.37,0,1,1,2.58-.92l0,.07a1.37,1.37,0,0,1-.83,1.75,1.32,1.32,0,0,1-.33.08Z" transform="translate(0 0)" fill="#f5fffd"/></svg>