<svg id="Layer_1" data-name="Layer 1" xmlns="http://www.w3.org/2000/svg" viewBox="0 0 328 273"><title>ic-onboard-2</title><ellipse cx="162.66" cy="139.45" rx="124.12" ry="123.7" fill="#71ab3c"/><path d="M162.11,40.79H82.83A12.15,12.15,0,0,1,70.69,28.65h0A12.15,12.15,0,0,1,82.83,16.51h79.28a12.15,12.15,0,0,1,12.14,12.14h0a12.15,12.15,0,0,1-12.14,12.14Z" transform="translate(0 0)" fill="#71ab3c"/><path d="M63,211h50.95a9.52,9.52,0,0,1,9.51,9.51h0a9.51,9.51,0,0,1-9.51,9.51H63a9.51,9.51,0,0,1-9.51-9.51h0A9.51,9.51,0,0,1,63,211Z" transform="translate(0 0)" fill="#71ab3c"/><path d="M52.92,248.14H128.4a6.17,6.17,0,0,1,6.17,6.17h0a6.16,6.16,0,0,1-6.16,6.16H52.92a6.16,6.16,0,0,1-6.16-6.16h0a6.18,6.18,0,0,1,6.16-6.17Z" transform="translate(0 0)" fill="#71ab3c"/><rect x="211.48" y="260.68" width="23.84" height="12.33" rx="3.15" fill="#71ab3c"/><path d="M154.35,224.21H268a10.11,10.11,0,0,1,10.11,10.11h0A10.11,10.11,0,0,1,268,244.43H154.35a10.11,10.11,0,0,1-10.11-10.11h0A10.11,10.11,0,0,1,154.35,224.21Z" transform="translate(0 0)" fill="#71ab3c"/><path d="M73.83,229.73h35.5a9.59,9.59,0,0,0-6.73,2.86A8.69,8.69,0,0,0,99.81,239a9.23,9.23,0,0,0,9.29,9.17H73.83a8.88,8.88,0,0,0,9.48-8.25,6.43,6.43,0,0,0,0-.76,9.4,9.4,0,0,0-9.4-9.4Z" transform="translate(0 0)" fill="#71ab3c"/><path d="M219.42,121.57h91.5A17.07,17.07,0,0,1,328,138.64h0a17.08,17.08,0,0,1-17.08,17.08h-91.5a17.08,17.08,0,0,1-17.08-17.07h0A17.07,17.07,0,0,1,219.42,121.57Z" transform="translate(0 0)" fill="#71ab3c"/><path d="M180.39,188.7H316A11.07,11.07,0,0,1,327,199.77h0A11.07,11.07,0,0,1,316,210.84H180.39a11.07,11.07,0,0,1-11.07-11.07h0A11.07,11.07,0,0,1,180.39,188.7Z" transform="translate(0 0)" fill="#71ab3c"/><path d="M240,155.73h63.75a16.94,16.94,0,0,0-12.07,4.94,15.6,15.6,0,0,0-5,11.47c0,9.43,7.66,16.45,17.09,16.45H240c4.71,0,9-1.33,12.07-4.4a16.18,16.18,0,0,0,5-11.73,16.76,16.76,0,0,0-16.8-16.73Z" transform="translate(0 0)" fill="#71ab3c"/><path d="M136.49,106.89H29.27A18.13,18.13,0,0,1,11.14,88.76h0A18.13,18.13,0,0,1,29.27,70.63H136.49a18.12,18.12,0,0,1,18.14,18.13h0a18.13,18.13,0,0,1-18.14,18.13Z" transform="translate(0 0)" fill="#71ab3c"/><path d="M181.15,208.77H26.21A26.2,26.2,0,0,1,0,182.57H0a26.21,26.21,0,0,1,26.21-26.21H181.15a26.21,26.21,0,0,1,26.2,26.21h0a26.18,26.18,0,0,1-26.19,26.2Z" transform="translate(0 0)" fill="#71ab3c"/><path d="M268.82,65.81H183.28a14.46,14.46,0,0,1-14.46-14.47h0a14.46,14.46,0,0,1,14.46-14.47h85.54a14.47,14.47,0,0,1,14.47,14.47h0a14.47,14.47,0,0,1-14.47,14.47Z" transform="translate(0 0)" fill="#71ab3c"/><path d="M242.51,15.74H222.2a7.87,7.87,0,0,1-7.88-7.87h0A7.87,7.87,0,0,1,222.2,0h20.31a7.87,7.87,0,0,1,7.88,7.87h0A7.87,7.87,0,0,1,242.51,15.74Z" transform="translate(0 0)" fill="#71ab3c"/><path d="M84.58,122.22H81.37a1.51,1.51,0,1,1,0-3h3.21a1.51,1.51,0,1,1,0,3Z" transform="translate(0 0)" fill="#fff"/><path d="M97,122.22H93.42a1.51,1.51,0,1,1,0-3H97a1.51,1.51,0,1,1,0,3Z" transform="translate(0 0)" fill="#fff"/><path d="M89.1,130.15a1.51,1.51,0,0,1-1.5-1.51h0v-3.21a1.51,1.51,0,1,1,3,0h0v3.21a1.52,1.52,0,0,1-1.51,1.51Z" transform="translate(0 0)" fill="#fff"/><path d="M89.1,118.1a1.5,1.5,0,0,1-1.5-1.51h0V113a1.51,1.51,0,1,1,3,0h0v3.61a1.51,1.51,0,0,1-1.51,1.51Z" transform="translate(0 0)" fill="#fff"/><path d="M184.78,213.58h-3.21a1.51,1.51,0,0,1,0-3h3.23a1.51,1.51,0,0,1,0,3Z" transform="translate(0 0)" fill="#fff"/><path d="M197.23,213.58h-3.61a1.51,1.51,0,1,1,0-3h3.63a1.51,1.51,0,0,1,0,3Z" transform="translate(0 0)" fill="#fff"/><path d="M189.3,221.51a1.51,1.51,0,0,1-1.51-1.51v-3.21a1.51,1.51,0,0,1,3,0h0V220A1.51,1.51,0,0,1,189.3,221.51Z" transform="translate(0 0)" fill="#fff"/><path d="M189.3,209.46a1.51,1.51,0,0,1-1.51-1.5v-3.62a1.51,1.51,0,0,1,3,0h0V208A1.51,1.51,0,0,1,189.3,209.46Z" transform="translate(0 0)" fill="#fff"/><path d="M198.64,44.71h-3.22a1.51,1.51,0,1,1,0-3h3.22a1.51,1.51,0,0,1,0,3Z" transform="translate(0 0)" fill="#fff"/><path d="M211.09,44.71h-3.62a1.51,1.51,0,0,1,0-3h3.62a1.51,1.51,0,1,1,0,3Z" transform="translate(0 0)" fill="#fff"/><path d="M203.15,52.64a1.5,1.5,0,0,1-1.5-1.51V47.92a1.51,1.51,0,0,1,3,0h0v3.21A1.5,1.5,0,0,1,203.15,52.64Z" transform="translate(0 0)" fill="#fff"/><path d="M203.15,40.59a1.5,1.5,0,0,1-1.5-1.5V35.47a1.51,1.51,0,0,1,3,0v3.62A1.5,1.5,0,0,1,203.15,40.59Z" transform="translate(0 0)" fill="#fff"/><path d="M55.88,169.4a4.88,4.88,0,1,1,4.88-4.88h0A4.87,4.87,0,0,1,55.88,169.4Zm0-6.75a1.87,1.87,0,1,0,1.87,1.87,1.87,1.87,0,0,0-1.87-1.87Z" transform="translate(0 0)" fill="#fff"/><path d="M133,50.79a1.52,1.52,0,0,1-1.51-1.51,1.49,1.49,0,0,1,1.06-1.43,95.83,95.83,0,0,1,50.65-1.65,1.51,1.51,0,1,1-.61,2.95l-.09,0a92.83,92.83,0,0,0-49,1.59A1.37,1.37,0,0,1,133,50.79Z" transform="translate(0 0)" fill="#fff"/><path d="M96.59,72.13a1.51,1.51,0,0,1-1-2.6c1.49-1.4,3-2.78,4.62-4.09a1.51,1.51,0,0,1,1.94,2.31h0c-1.53,1.27-3,2.6-4.47,4A1.48,1.48,0,0,1,96.59,72.13Z" transform="translate(0 0)" fill="#fff"/><path d="M68,152.19a1.5,1.5,0,0,1-1.49-1.32,96.15,96.15,0,0,1,0-24.15A94,94,0,0,1,78,91.87a1.5,1.5,0,1,1,2.62,1.48h0a91,91,0,0,0-11.21,33.74,93.49,93.49,0,0,0,0,23.4,1.49,1.49,0,0,1-1.3,1.68Z" transform="translate(0 0)" fill="#fff"/><path d="M114.1,221.46a1.53,1.53,0,0,1-.75-.2,95.47,95.47,0,0,1-10.54-7.07,1.5,1.5,0,0,1,1.84-2.38,93.19,93.19,0,0,0,10.21,6.84,1.51,1.51,0,0,1-.76,2.81Z" transform="translate(0 0)" fill="#fff"/><path d="M160.9,234a95.69,95.69,0,0,1-25-3.33,1.5,1.5,0,1,1,.79-2.9,93.06,93.06,0,0,0,44,1.1,1.5,1.5,0,0,1,1.79,1.15,1.51,1.51,0,0,1-1.15,1.79A96.09,96.09,0,0,1,160.9,234Z" transform="translate(0 0)" fill="#fff"/><path d="M206.83,222a1.51,1.51,0,0,1-.74-2.82c2.25-1.27,4.48-2.65,6.62-4.11a1.5,1.5,0,1,1,1.69,2.49c-2.21,1.5-4.51,2.93-6.83,4.24A1.49,1.49,0,0,1,206.83,222Z" transform="translate(0 0)" fill="#fff"/><path d="M230.42,203.09a1.51,1.51,0,0,1-1.51-1.51,1.48,1.48,0,0,1,.39-1,92.24,92.24,0,0,0,21.2-40,1.51,1.51,0,0,1,2.93.71,95.33,95.33,0,0,1-21.9,41.35A1.51,1.51,0,0,1,230.42,203.09Z" transform="translate(0 0)" fill="#fff"/><path d="M254.6,140.27a1.51,1.51,0,0,1-1.51-1.51c0-2.77-.12-5.57-.37-8.31-.2-2.25-.49-4.52-.85-6.74a1.5,1.5,0,0,1,1.22-1.74,1.52,1.52,0,0,1,1.75,1.22v0c.38,2.29.67,4.63.88,7,.26,2.83.38,5.72.38,8.58A1.5,1.5,0,0,1,254.6,140.27Z" transform="translate(0 0)" fill="#fff"/><path d="M162.34,197A50.39,50.39,0,1,1,198,182.19,50.4,50.4,0,0,1,162.34,197Zm0-97.78a47.37,47.37,0,1,0,33.5,13.88A47.39,47.39,0,0,0,162.34,99.17Z" transform="translate(0 0)" fill="#fff"/><path d="M162.59,158a2.68,2.68,0,0,1,.37,1.32,2.52,2.52,0,0,1-.59,1.62,2.75,2.75,0,0,1-2.26.88,4.43,4.43,0,0,1-2.16-.53q-3.52-2-3.53-8.2a3.59,3.59,0,0,0-1.15-2.8,4.83,4.83,0,0,0-3.31-1h-9.17v9.52a3.25,3.25,0,0,1-.71,2.16,2.37,2.37,0,0,1-1.89.83,3.8,3.8,0,0,1-2.48-.86,2.62,2.62,0,0,1-1.05-2.13V130.39a2.92,2.92,0,0,1,2.87-3h14.25a9.07,9.07,0,0,1,4.8,1.37,10.23,10.23,0,0,1,3.61,3.78,10.93,10.93,0,0,1,1.35,5.4,9.59,9.59,0,0,1-1.33,4.78,10.58,10.58,0,0,1-3.43,3.7,7.54,7.54,0,0,1,3.38,5.79,7.76,7.76,0,0,1,.15,1.52,15.78,15.78,0,0,0,.39,2.18,1.61,1.61,0,0,0,.89,1A2.93,2.93,0,0,1,162.59,158Zm-9.35-14.62a6.37,6.37,0,0,0,1.38-2.23,8.4,8.4,0,0,0,.54-3,5.92,5.92,0,0,0-.54-2.52,5.22,5.22,0,0,0-1.38-1.84,2.66,2.66,0,0,0-1.71-.69H140.79v11.13h10.74a2.44,2.44,0,0,0,1.72-.83Z" transform="translate(0 0)" fill="#fff"/><path d="M186,136.74a12.17,12.17,0,0,1,4.34,4.83,15.15,15.15,0,0,1,1.6,7,15.46,15.46,0,0,1-1.57,7,12,12,0,0,1-4.29,4.85,10.86,10.86,0,0,1-6,1.74,10.46,10.46,0,0,1-4.44-.95,12.11,12.11,0,0,1-3.46-2.33v9.61a3,3,0,0,1-.83,2.14,2.79,2.79,0,0,1-2.11.85,2.82,2.82,0,0,1-2.11-.83,2.88,2.88,0,0,1-.83-2.16V138.49a2.89,2.89,0,0,1,.83-2.14,3,3,0,0,1,4.22,0,3,3,0,0,1,.83,2.14v.2a10.19,10.19,0,0,1,3.29-2.58,9.42,9.42,0,0,1,4.41-1.1A11.24,11.24,0,0,1,186,136.74Zm-1.71,17.73a9.62,9.62,0,0,0,0-11.74,6.93,6.93,0,0,0-10.37,0,8.58,8.58,0,0,0-2,5.86,8.7,8.7,0,0,0,2,5.88,6.86,6.86,0,0,0,9.68.67,7.06,7.06,0,0,0,.67-.67Z" transform="translate(0 0)" fill="#fff"/><path d="M74.67,214.39a1.51,1.51,0,0,1-1.51-1.51,1.56,1.56,0,0,1,.38-1l22.53-25.34a1.51,1.51,0,0,1,2.07-.18l14,11.19L128,181.35a1.51,1.51,0,1,1,2.14,2.12h0l-16.9,17.16a1.5,1.5,0,0,1-2,.12L97.38,189.61,75.8,213.89A1.52,1.52,0,0,1,74.67,214.39Z" transform="translate(0 0)" fill="#fff"/><path d="M199.59,116.41a1.51,1.51,0,0,1-1.5-1.51,1.53,1.53,0,0,1,.41-1L214,97.6a1.51,1.51,0,0,1,2.07-.1l12.67,10.86,25.88-25.89a1.51,1.51,0,0,1,2.13,2.13l-26.86,26.88a1.52,1.52,0,0,1-2,.08l-12.65-10.84-14.54,15.22A1.5,1.5,0,0,1,199.59,116.41Z" transform="translate(0 0)" fill="#fff"/><path d="M256.27,95.61a1.51,1.51,0,0,1-1.51-1.51V84.53h-9.18a1.51,1.51,0,0,1,0-3h10.69a1.5,1.5,0,0,1,1.5,1.5V94.1a1.51,1.51,0,0,1-1.5,1.51Z" transform="translate(0 0)" fill="#fff"/><path d="M74.82,199.35a1.52,1.52,0,0,1-1.51-1.51V164.43a1.51,1.51,0,1,1,3,0h0v33.41A1.51,1.51,0,0,1,74.82,199.35Z" transform="translate(0 0)" fill="#fff"/><path d="M86.08,188.47a1.51,1.51,0,0,1-1.5-1.51V153.55a1.51,1.51,0,1,1,3,0V187A1.51,1.51,0,0,1,86.08,188.47Z" transform="translate(0 0)" fill="#fff"/><path d="M97,178a1.51,1.51,0,0,1-1.5-1.51V143.06a1.51,1.51,0,1,1,3,0v33.41A1.51,1.51,0,0,1,97,178Z" transform="translate(0 0)" fill="#fff"/><path d="M199.15,101.82a1.51,1.51,0,0,1-1.51-1.51v-21a1.51,1.51,0,0,1,3,0v21A1.51,1.51,0,0,1,199.15,101.82Z" transform="translate(0 0)" fill="#fff"/><path d="M187.49,95.22a1.51,1.51,0,0,1-1.5-1.51V84a1.51,1.51,0,1,1,3,0v9.73A1.51,1.51,0,0,1,187.49,95.22Z" transform="translate(0 0)" fill="#fff"/><path d="M210,92.5A1.52,1.52,0,0,1,208.52,91V67.68a1.51,1.51,0,1,1,3,0V91A1.52,1.52,0,0,1,210,92.5Z" transform="translate(0 0)" fill="#fff"/><path d="M220.91,92.5A1.52,1.52,0,0,1,219.4,91V61.07a1.51,1.51,0,0,1,3,0V91A1.51,1.51,0,0,1,220.91,92.5Z" transform="translate(0 0)" fill="#fff"/><path d="M231.79,95.22a1.52,1.52,0,0,1-1.51-1.51v-19a1.51,1.51,0,0,1,3,0v19A1.51,1.51,0,0,1,231.79,95.22Z" transform="translate(0 0)" fill="#fff"/><path d="M108.23,182.64a1.51,1.51,0,0,1-1.5-1.51V164.42a1.51,1.51,0,0,1,3,0h0v16.71a1.52,1.52,0,0,1-1.51,1.51Z" transform="translate(0 0)" fill="#fff"/></svg>