<svg id="Layer_1" data-name="Layer 1" xmlns="http://www.w3.org/2000/svg" viewBox="0 0 160 65"><title>ic-splash-koin</title><rect width="160" height="65" fill="none"/><rect x="4" y="2" width="153" height="61" fill="none"/><path d="M10.6,47.76H7.05V27.05H10.6v8.68H13a5.68,5.68,0,0,0,4.42-2.21,7.73,7.73,0,0,0,2-5.29h0V27.05H23v1.18a11.08,11.08,0,0,1-2.83,7.66,5.36,5.36,0,0,1-2.06,1.49,5.54,5.54,0,0,1,2.06,1.49A11.53,11.53,0,0,1,23,46.58v1.18H19.4V46.58a7.73,7.73,0,0,0-2-5.29A5.76,5.76,0,0,0,13,39.08H10.6Z" transform="translate(0 0)" fill="#068675"/><path d="M89.19,27.1V47.76H85.65V27.1Z" transform="translate(0 0)" fill="#068675"/><path d="M93.62,47.76V30a2.89,2.89,0,0,1,.56-1.7,3,3,0,0,1,3.35-1A2.44,2.44,0,0,1,99,28.64L105.35,42V27.15h3.54V44.93a2.86,2.86,0,0,1-.56,1.7,2.56,2.56,0,0,1-1.49,1,2.82,2.82,0,0,1-1.86,0,2.57,2.57,0,0,1-1.49-1.33L97.17,33v14.8H93.62Z" transform="translate(0 0)" fill="#068675"/><path d="M131.32,31.83H120.21a3.37,3.37,0,1,0,0,6.73h5.5A7.92,7.92,0,0,1,131.47,41a7.74,7.74,0,0,1,2.37,5.7,8.07,8.07,0,0,1-8,8.12h-13V50h12.85a3.34,3.34,0,1,0,0-6.68h-5.51A7.9,7.9,0,0,1,114.45,41a8.11,8.11,0,0,1,5.76-13.83h11.11Z" transform="translate(0 0)" fill="#096d5c"/><path d="M138,50V54.8h-5.87A11.39,11.39,0,0,0,133,54a10,10,0,0,0,2.11-3c.15-.31.25-.62.36-.88H138Z" transform="translate(0 0)" fill="#096d5c"/><path d="M150.45,39.85a5.4,5.4,0,0,0,2.94-5.14,7.56,7.56,0,0,0-7.5-7.61h-6.8a3.68,3.68,0,0,0-2.73,1.13A3.75,3.75,0,0,0,135.23,31V42.47a10.52,10.52,0,0,1,.88,4.21,10.19,10.19,0,0,1-.52,3.34,4.52,4.52,0,0,1-.36.88v3.9h10.6a8.6,8.6,0,0,0,8.64-8.56v-.08A6.49,6.49,0,0,0,150.45,39.85Zm-10.54-8h5.86a2.81,2.81,0,0,1,2.83,2.79v0a2.84,2.84,0,0,1-.82,2.06,2.64,2.64,0,0,1-2,.93h-5.86Zm8.59,17.06A3.7,3.7,0,0,1,145.77,50h-5.86V42.11h5.86a3.66,3.66,0,0,1,2.73,1.18,3.93,3.93,0,0,1,1.13,2.83,3.75,3.75,0,0,1-1.13,2.77Z" transform="translate(0 0)" fill="#096d5c"/><path d="M54,5.05A28.32,28.32,0,1,0,82.25,33.4v0A28.36,28.36,0,0,0,54,5.05Zm0,50.68A22.31,22.31,0,1,1,76.28,33.42,22.31,22.31,0,0,1,54,55.73Z" transform="translate(0 0)" fill="#e6c125"/><ellipse cx="53.96" cy="33.37" rx="17.49" ry="17.48" fill="#e6c125"/><path d="M28,50H9.47a2.41,2.41,0,0,0-2.42,2.41h0a2.41,2.41,0,0,0,2.41,2.41H31.84A32.84,32.84,0,0,1,28,50Z" transform="translate(0 0)" fill="#096d5c"/><path d="M79.83,50A30.81,30.81,0,0,1,76,54.8h37.18V50Z" transform="translate(0 0)" fill="#096d5c"/></svg>