<svg id="Layer_1" data-name="Layer 1" xmlns="http://www.w3.org/2000/svg" viewBox="0 0 132 54"><title>ic-welcome-page-koin</title><rect width="132" height="54" fill="none"/><path d="M5.19,40.32H2.09V22.24h3.1v7.58H7.3a5,5,0,0,0,3.86-1.93,6.71,6.71,0,0,0,1.7-4.62h0v-1H16v1A9.64,9.64,0,0,1,13.54,30a4.73,4.73,0,0,1-1.8,1.3,4.73,4.73,0,0,1,1.8,1.3A10.07,10.07,0,0,1,16,39.29v1H12.86v-1a6.71,6.71,0,0,0-1.7-4.62A5,5,0,0,0,7.3,32.74H5.19Z" transform="translate(0 0)" fill="#068675"/><path d="M73.81,22.28v18h-3.1v-18Z" transform="translate(0 0)" fill="#068675"/><path d="M77.67,40.33V24.8a2.53,2.53,0,0,1,.5-1.48,2.58,2.58,0,0,1,2.92-.86,2.15,2.15,0,0,1,1.3,1.17l5.52,11.62V22.33H91V37.86a2.62,2.62,0,0,1-.49,1.48,2.25,2.25,0,0,1-1.3.9,2.5,2.5,0,0,1-1.62,0,2.24,2.24,0,0,1-1.3-1.17L80.77,27.45V40.37h-3.1Z" transform="translate(0 0)" fill="#068675"/><path d="M110.6,26.41h-9.7a2.94,2.94,0,0,0,0,5.88h4.8a7,7,0,0,1,5,2.11,6.8,6.8,0,0,1,2.06,5,7,7,0,0,1-7,7.09H94.47V42.3H105.7a2.92,2.92,0,0,0,0-5.83h-4.8a6.89,6.89,0,0,1-5-2.07,7.07,7.07,0,0,1,5-12.07h9.7Z" transform="translate(0 0)" fill="#096d5c"/><path d="M116.39,42.3v4.17h-5.12c.26-.22.54-.45.8-.71a8.73,8.73,0,0,0,1.85-2.65c.13-.27.22-.54.31-.77h2.16Z" transform="translate(0 0)" fill="#096d5c"/><path d="M127.3,33.41a4.69,4.69,0,0,0,2.56-4.48,6.6,6.6,0,0,0-6.54-6.65h-5.95a3.2,3.2,0,0,0-2.38,1,3.25,3.25,0,0,0-1,2.38V35.7a9.33,9.33,0,0,1,.76,3.68,8.78,8.78,0,0,1-.45,2.92,4.18,4.18,0,0,1-.31.76v3.41h9.25A7.49,7.49,0,0,0,130.8,39a.17.17,0,0,0,0-.07A5.69,5.69,0,0,0,127.3,33.41Zm-9.21-7h5.12a2.45,2.45,0,0,1,2.47,2.44v0a2.44,2.44,0,0,1-.72,1.8,2.26,2.26,0,0,1-1.75.81h-5.12Zm7.5,14.9a3.22,3.22,0,0,1-2.38,1h-5.12V35.38h5.12a3.22,3.22,0,0,1,2.38,1,3.42,3.42,0,0,1,1,2.46,3.3,3.3,0,0,1-1,2.43Z" transform="translate(0 0)" fill="#096d5c"/><path d="M43,3a24.73,24.73,0,1,0,24.7,24.76v0A24.77,24.77,0,0,0,43,3Zm0,44.25A19.48,19.48,0,1,1,62.54,27.8,19.48,19.48,0,0,1,43,47.28Z" transform="translate(0 0)" fill="#e6c125"/><ellipse cx="43.04" cy="27.76" rx="15.27" ry="15.26" fill="#e6c125"/><path d="M20.41,42.3H4.2a2.1,2.1,0,0,0-2.11,2.1h0a2.1,2.1,0,0,0,2.1,2.11H23.73A29.36,29.36,0,0,1,20.41,42.3Z" transform="translate(0 0)" fill="#096d5c"/><path d="M65.64,42.3a27.32,27.32,0,0,1-3.33,4.17H94.78V42.3Z" transform="translate(0 0)" fill="#096d5c"/></svg>