<svg id="Layer_1" data-name="Layer 1" xmlns="http://www.w3.org/2000/svg" viewBox="0 0 20 16.67"><title>ic-profile</title><path d="M17.71,16.67H2.29A2.3,2.3,0,0,1,0,14.38V4A2.29,2.29,0,0,1,2.29,1.67h5a.63.63,0,1,1,0,1.25h-5a1,1,0,0,0-1,1V14.38a1,1,0,0,0,1,1H17.71a1,1,0,0,0,1-1V4a1,1,0,0,0-1-1h-5a.63.63,0,1,1,0-1.25h5A2.29,2.29,0,0,1,20,4V14.38A2.3,2.3,0,0,1,17.71,16.67Z" transform="translate(0 0)"/><path d="M11.88,4.58H8.12A1.45,1.45,0,0,1,6.67,3.13V1.46A1.45,1.45,0,0,1,8.12,0h3.76a1.45,1.45,0,0,1,1.45,1.46V3.13A1.45,1.45,0,0,1,11.88,4.58ZM8.12,1.25a.2.2,0,0,0-.2.21V3.13a.2.2,0,0,0,.2.2h3.76a.2.2,0,0,0,.2-.2V1.46a.2.2,0,0,0-.2-.21Z" transform="translate(0 0)"/><path d="M6.25,10A2.08,2.08,0,1,1,8.33,7.92h0A2.08,2.08,0,0,1,6.25,10Zm0-2.92a.84.84,0,0,0-.83.84.83.83,0,1,0,1.66,0h0a.84.84,0,0,0-.83-.84Z" transform="translate(0 0)" fill="#27a08b"/><path d="M9.38,14.17a.63.63,0,0,1-.63-.63v-.42a1,1,0,0,0-1-1H4.79a1,1,0,0,0-1,1v.42a.63.63,0,1,1-1.25,0v-.42a2.3,2.3,0,0,1,2.29-2.29H7.71A2.3,2.3,0,0,1,10,13.12v.42a.63.63,0,0,1-.62.63Z" transform="translate(0 0)" fill="#27a08b"/><path d="M16.88,7.5H12.29a.63.63,0,0,1,0-1.25h4.59a.63.63,0,0,1,0,1.25Z" transform="translate(0 0)" fill="#27a08b"/><path d="M16.88,10.83H12.29a.63.63,0,0,1,0-1.25h4.59a.63.63,0,0,1,0,1.25Z" transform="translate(0 0)" fill="#27a08b"/><path d="M16.88,14.17H12.29a.63.63,0,0,1,0-1.25h4.59a.63.63,0,0,1,0,1.25Z" transform="translate(0 0)" fill="#27a08b"/></svg>