<svg id="Layer_1" data-name="Layer 1" xmlns="http://www.w3.org/2000/svg" viewBox="0 0 20 18.33"><title>ic-password</title><path d="M17.71,18.33H2.29A2.29,2.29,0,0,1,0,16V2.29A2.3,2.3,0,0,1,2.29,0H17.71A2.3,2.3,0,0,1,20,2.29V16A2.29,2.29,0,0,1,17.71,18.33ZM2.29,1.25a1,1,0,0,0-1,1V16a1,1,0,0,0,1,1H17.71a1,1,0,0,0,1-1V2.29a1,1,0,0,0-1-1Z" transform="translate(0 0)"/><path d="M19.38,4.58H.62a.63.63,0,0,1,0-1.25H19.38a.63.63,0,0,1,0,1.25Z" transform="translate(0 0)"/><path d="M4.58,13.54A.62.62,0,0,1,4,12.92V9.58a.63.63,0,0,1,1.25,0v3.34A.63.63,0,0,1,4.58,13.54Z" transform="translate(0 0)" fill="#27a08b"/><path d="M3.14,12.71a.63.63,0,0,1-.62-.63.61.61,0,0,1,.31-.54L5.71,9.87a.63.63,0,0,1,.86.21.62.62,0,0,1-.2.86l0,0L3.45,12.63A.65.65,0,0,1,3.14,12.71Z" transform="translate(0 0)" fill="#27a08b"/><path d="M6,12.71a.62.62,0,0,1-.32-.09L2.83,11a.62.62,0,0,1,.59-1.1h0l2.89,1.67A.63.63,0,0,1,6,12.71Z" transform="translate(0 0)" fill="#27a08b"/><path d="M10,13.54a.62.62,0,0,1-.62-.62V9.58a.62.62,0,1,1,1.24,0v3.34A.62.62,0,0,1,10,13.54Z" transform="translate(0 0)" fill="#27a08b"/><path d="M8.56,12.71a.63.63,0,0,1-.32-1.17l2.89-1.67A.63.63,0,0,1,11.76,11L8.87,12.63A.65.65,0,0,1,8.56,12.71Z" transform="translate(0 0)" fill="#27a08b"/><path d="M11.44,12.71a.59.59,0,0,1-.31-.09L8.24,11A.64.64,0,0,1,8,10.11a.63.63,0,0,1,.85-.25h0l2.89,1.67a.63.63,0,0,1,.22.86.62.62,0,0,1-.54.31Z" transform="translate(0 0)" fill="#27a08b"/><path d="M15.83,13.54a.62.62,0,0,1-.62-.62V9.58a.63.63,0,0,1,1.25,0v3.34A.63.63,0,0,1,15.83,13.54Z" transform="translate(0 0)" fill="#27a08b"/><path d="M14.39,12.71a.63.63,0,0,1-.62-.63.61.61,0,0,1,.31-.54L17,9.87a.63.63,0,0,1,.65,1.07l0,0L14.7,12.63A.65.65,0,0,1,14.39,12.71Z" transform="translate(0 0)" fill="#27a08b"/><path d="M17.28,12.71a.62.62,0,0,1-.32-.09L14.08,11a.62.62,0,0,1,.59-1.1h0l2.89,1.67a.63.63,0,0,1-.31,1.17Z" transform="translate(0 0)" fill="#27a08b"/></svg>