<svg id="Layer_1" data-name="Layer 1" xmlns="http://www.w3.org/2000/svg" viewBox="0 0 20 18.33"><title>ic-referral</title><path d="M10,10.83a2.08,2.08,0,1,1,2.08-2.08h0A2.08,2.08,0,0,1,10,10.83Zm0-2.91a.83.83,0,1,0,.83.83h0A.83.83,0,0,0,10,7.92Z" transform="translate(0 0)" fill="#27a08b"/><path d="M13.54,15.83a.62.62,0,0,1-.62-.62V14a1,1,0,0,0-1.05-1H8.12a1,1,0,0,0-1,1v1.25a.63.63,0,0,1-1.25,0V14a2.29,2.29,0,0,1,2.29-2.29h3.75A2.29,2.29,0,0,1,14.17,14v1.25A.63.63,0,0,1,13.54,15.83Z" transform="translate(0 0)" fill="#27a08b"/><path d="M17.71,18.33H2.29A2.29,2.29,0,0,1,0,16V2.29A2.3,2.3,0,0,1,2.29,0H17.71A2.3,2.3,0,0,1,20,2.29V16A2.29,2.29,0,0,1,17.71,18.33ZM2.29,1.25a1,1,0,0,0-1,1V16a1,1,0,0,0,1,1H17.71a1,1,0,0,0,1-1V2.29a1,1,0,0,0-1-1Z" transform="translate(0 0)"/><path d="M19.38,4.58H.62a.63.63,0,0,1,0-1.25H19.38a.63.63,0,0,1,0,1.25Z" transform="translate(0 0)"/></svg>