<svg id="Layer_1" data-name="Layer 1" xmlns="http://www.w3.org/2000/svg" viewBox="0 0 16.76 25.67"><title>ic-saving-inactive</title><path d="M14,17.32h2.44a5.7,5.7,0,0,1-5.7,5.7H8.31a5.7,5.7,0,0,1,5.7-5.7Z" transform="translate(0 0)" fill="#9aa3a9"/><path d="M10.75,23.33H8.31A.31.31,0,0,1,8,23a6,6,0,0,1,6-6h2.44a.3.3,0,0,1,.31.3A6,6,0,0,1,10.75,23.33Zm-2.13-.61h2.13a5.41,5.41,0,0,0,5.39-5.09H14A5.4,5.4,0,0,0,8.62,22.72Z" transform="translate(0 0)" fill="#9aa3a9"/><path d="M8.31,23.33A.31.31,0,0,1,8,23a.32.32,0,0,1,.07-.19,22.27,22.27,0,0,1,5.3-4.37.31.31,0,0,1,.42.1.32.32,0,0,1-.11.42,22.31,22.31,0,0,0-5.14,4.24A.3.3,0,0,1,8.31,23.33Z" transform="translate(0 0)" fill="#fff"/><path d="M.45,16.55s.16,3.32,2.18,4.52,5.88.27,5.88.27Z" transform="translate(0 0)" fill="#096d5c"/><path d="M2.73,16.55H.3A5.67,5.67,0,0,0,6,22.22H8.4a5.67,5.67,0,0,0-5.67-5.67Z" transform="translate(0 0)" fill="#9aa3a9"/><path d="M8.4,22.52H6a6,6,0,0,1-6-6,.31.31,0,0,1,.3-.3H2.73a6,6,0,0,1,6,6,.3.3,0,0,1-.3.3ZM.61,16.86A5.39,5.39,0,0,0,6,21.92H8.09a5.37,5.37,0,0,0-5.36-5.06Z" transform="translate(0 0)" fill="#9aa3a9"/><path d="M8.4,22.52a.32.32,0,0,1-.24-.11,21.77,21.77,0,0,0-5.1-4.21.31.31,0,0,1-.1-.42.29.29,0,0,1,.41-.1A21.79,21.79,0,0,1,8.63,22a.29.29,0,0,1,0,.42h0A.31.31,0,0,1,8.4,22.52Z" transform="translate(0 0)" fill="#fff"/><path d="M15.37,25.67h-14c-.29,0-.52-.33-.52-.72s.23-.72.52-.72h14c.28,0,.52.33.52.72S15.66,25.67,15.37,25.67Z" transform="translate(0 0)" fill="#9aa3a9"/><circle cx="10.1" cy="5.16" r="0.35" fill="#fff"/><path d="M12.72,3.22a.29.29,0,0,1-.28-.28V2.33a.29.29,0,1,1,.57,0v.61A.29.29,0,0,1,12.72,3.22Z" transform="translate(0 0)" fill="#fff"/><path d="M12.72,8.28A.3.3,0,0,1,12.44,8V7.38a.29.29,0,1,1,.57,0V8A.3.3,0,0,1,12.72,8.28Z" transform="translate(0 0)" fill="#fff"/><circle cx="8.36" cy="7.54" r="7.54" fill="#9aa3a9"/><path d="M8.31,25.67c-.37,0-.68-.16-.68-.35V12.69c0-.2.31-.36.68-.36s.67.16.67.36V25.32C9,25.51,8.68,25.67,8.31,25.67Z" transform="translate(0 0)" fill="#9aa3a9"/><path d="M8.36,9.33s0,.07-.06.07H7.54a.11.11,0,0,1-.08,0l0-.09L6.54,7.65H6.17l-.27,0V9.28a.16.16,0,0,1,0,.09.11.11,0,0,1-.08,0H5.17a.11.11,0,0,1-.08,0,.18.18,0,0,1,0-.09V5.07a.19.19,0,0,1,0-.13.3.3,0,0,1,.15-.05c.16,0,.34,0,.55-.06l.65,0a3.05,3.05,0,0,1,.67.07,1.62,1.62,0,0,1,.56.23,1.15,1.15,0,0,1,.39.43,1.34,1.34,0,0,1,.14.65v.06a1.35,1.35,0,0,1-.22.8,1.35,1.35,0,0,1-.6.45l1,1.79S8.36,9.32,8.36,9.33Zm-1-3.14a.56.56,0,0,0-.23-.5,1.19,1.19,0,0,0-.69-.15H5.9V6.94h.55a1.24,1.24,0,0,0,.7-.15.66.66,0,0,0,.22-.56Zm4.48,1.73A1.69,1.69,0,0,1,11.49,9a1.42,1.42,0,0,1-1.1.41h-.27l-.32,0v1.08a.12.12,0,0,1,0,.08.09.09,0,0,1-.08,0H9.11a.12.12,0,0,1-.09,0,.11.11,0,0,1,0-.08V6.23a.17.17,0,0,1,0-.1.33.33,0,0,1,.13-.07A4.48,4.48,0,0,1,9.77,6a4.17,4.17,0,0,1,.61,0,1.37,1.37,0,0,1,1.1.4,1.66,1.66,0,0,1,.37,1.13ZM11,7.44a2.07,2.07,0,0,0,0-.35.63.63,0,0,0-.1-.27.61.61,0,0,0-.2-.19.7.7,0,0,0-.32-.06h-.34a1.07,1.07,0,0,0-.25,0V8.75l.3,0h.28a.75.75,0,0,0,.33-.07.49.49,0,0,0,.2-.18.94.94,0,0,0,.1-.28,1.35,1.35,0,0,0,0-.35Z" transform="translate(0 0)" fill="#fff"/></svg>