<svg id="Layer_1" data-name="Layer 1" xmlns="http://www.w3.org/2000/svg" viewBox="0 0 316 100"><title>banner-sbmax</title><rect width="316" height="99.48" rx="10" fill="#ecfee6"/><rect x="216" y="5.02" width="77.85" height="77.85" fill="none"/><circle cx="255.14" cy="64.33" r="15.53" fill="#ffe451"/><circle cx="275.33" cy="41.05" r="15.53" fill="#ffce51"/><circle cx="234.96" cy="41.05" r="15.53" fill="#ffce51"/><path d="M269.12,64.33a14,14,0,1,1-28,0v-3.1h-3.11v3.1a17.08,17.08,0,0,0,34.16,0v-3.1h-3.1Z" transform="translate(0 0)" fill="#096d5c"/><path d="M275.33,24v3.1a14,14,0,1,1-14,14h0V26.65c2.09-.79,6.21-2.91,6.21-7.34V12.19l3.56,3.56,2.2-2.2-6.21-6.21a1.56,1.56,0,0,0-2.2,0h0l-6.21,6.21,2.2,2.2,3.56-3.56v7.12c0,3.38-5,4.7-5,4.7a1.56,1.56,0,0,0-1.17,1.51V41.05A17.08,17.08,0,1,0,275.33,24Z" transform="translate(0 0)" fill="#096d5c"/><path d="M252,41.05V25.52A1.57,1.57,0,0,0,250.87,24c-.06,0-5-1.32-5-4.7V12.19l3.56,3.56,2.2-2.2-6.22-6.21a1.55,1.55,0,0,0-2.19,0h0L237,13.55l2.2,2.2,3.56-3.56v7.12c0,4.43,4.12,6.55,6.21,7.34v14.4a14,14,0,1,1-14-14V24A17.08,17.08,0,1,0,252,41.05Z" transform="translate(0 0)" fill="#096d5c"/><path d="M234.9,44.77a.14.14,0,0,1-.12.16h-1.67a.21.21,0,0,1-.16-.08l-.11-.19-1.92-3.57h-.19l-.62,0-.57,0v3.63a.32.32,0,0,1-.07.19.27.27,0,0,1-.19.08H228a.27.27,0,0,1-.27-.27v-9.2a.33.33,0,0,1,.12-.29.59.59,0,0,1,.31-.12q.52-.07,1.2-.12c.45,0,.92,0,1.42,0a7.26,7.26,0,0,1,1.47.15,3.67,3.67,0,0,1,1.23.5,2.68,2.68,0,0,1,.84.93,3,3,0,0,1,.31,1.44V38a2.89,2.89,0,0,1-.48,1.74,2.93,2.93,0,0,1-1.32,1l2.1,3.91A.14.14,0,0,1,234.9,44.77Zm-2.16-6.87a1.22,1.22,0,0,0-.5-1.1,2.74,2.74,0,0,0-1.51-.33h-.94l-.25,0v3h.25l.34,0h.6a2.82,2.82,0,0,0,1.53-.34,1.41,1.41,0,0,0,.48-1.22Zm9.79,3.78a3.63,3.63,0,0,1-.79,2.47,3.07,3.07,0,0,1-2.41.89l-.57,0c-.22,0-.46,0-.71-.08v2.37a.27.27,0,0,1-.27.27h-1.23a.27.27,0,0,1-.27-.27V38a.34.34,0,0,1,.07-.22.71.71,0,0,1,.29-.14,10.51,10.51,0,0,1,1.34-.25,8.76,8.76,0,0,1,1.35-.1,3.07,3.07,0,0,1,2.41.89,3.63,3.63,0,0,1,.79,2.47Zm-1.77-1a3.34,3.34,0,0,0-.06-.77,1.51,1.51,0,0,0-.22-.6,1.13,1.13,0,0,0-.44-.4,1.56,1.56,0,0,0-.71-.14l-.73,0a5.17,5.17,0,0,0-.55.07V43.5l.66.07c.25,0,.46,0,.62,0a1.56,1.56,0,0,0,.71-.14,1.13,1.13,0,0,0,.44-.4,1.51,1.51,0,0,0,.22-.6,3.34,3.34,0,0,0,.06-.77Z" transform="translate(0 0)" fill="#096d5c"/><path d="M275.15,44.77a.14.14,0,0,1-.12.16h-1.67a.21.21,0,0,1-.17-.08c0-.06-.07-.12-.1-.19l-1.93-3.57H271l-.61,0-.58,0v3.63a.26.26,0,0,1-.07.19.25.25,0,0,1-.18.08h-1.34a.27.27,0,0,1-.27-.27v-9.2a.35.35,0,0,1,.12-.29.59.59,0,0,1,.31-.12q.52-.07,1.2-.12c.45,0,.93,0,1.42,0a7.36,7.36,0,0,1,1.48.15,3.62,3.62,0,0,1,1.22.5,2.68,2.68,0,0,1,.84.93,3,3,0,0,1,.32,1.44V38a2.89,2.89,0,0,1-.49,1.74,2.83,2.83,0,0,1-1.32,1l2.1,3.91A.2.2,0,0,1,275.15,44.77ZM273,37.9a1.22,1.22,0,0,0-.5-1.1,2.73,2.73,0,0,0-1.51-.33H270l-.25,0v3H270l.35,0H271a2.78,2.78,0,0,0,1.53-.34A1.36,1.36,0,0,0,273,38Zm9.79,3.78a3.53,3.53,0,0,1-.79,2.47,3.06,3.06,0,0,1-2.4.89L279,45c-.22,0-.46,0-.71-.08v2.37a.27.27,0,0,1-.08.19.25.25,0,0,1-.18.08h-1.24a.25.25,0,0,1-.18-.08.27.27,0,0,1-.08-.19V38a.33.33,0,0,1,.06-.22.69.69,0,0,1,.3-.14,10.2,10.2,0,0,1,1.34-.25,8.67,8.67,0,0,1,1.35-.1,3.1,3.1,0,0,1,2.41.89,3.57,3.57,0,0,1,.78,2.47Zm-1.76-1a5,5,0,0,0-.06-.77,1.89,1.89,0,0,0-.22-.6,1.09,1.09,0,0,0-.45-.4,1.54,1.54,0,0,0-.7-.14l-.73,0a5.35,5.35,0,0,0-.56.07V43.5l.66.07c.26,0,.47,0,.63,0a1.54,1.54,0,0,0,.7-.14,1.09,1.09,0,0,0,.45-.4,1.89,1.89,0,0,0,.22-.6,5,5,0,0,0,.06-.77Z" transform="translate(0 0)" fill="#096d5c"/><path d="M255,67.87a.15.15,0,0,1-.12.16h-1.68a.21.21,0,0,1-.16-.08,1.14,1.14,0,0,1-.1-.19L251,64.19h-.19l-.61,0-.58,0v3.62a.26.26,0,0,1-.07.19.25.25,0,0,1-.18.08h-1.34a.27.27,0,0,1-.27-.27v-9.2a.33.33,0,0,1,.12-.29.68.68,0,0,1,.31-.11,11.93,11.93,0,0,1,1.2-.13c.45,0,.93-.05,1.42-.05a6.56,6.56,0,0,1,1.47.16,3.67,3.67,0,0,1,1.23.5,2.51,2.51,0,0,1,.84.93A3,3,0,0,1,254.7,61v.12a2.67,2.67,0,0,1-1.8,2.73l2.1,3.91A.2.2,0,0,1,255,67.87ZM252.86,61a1.21,1.21,0,0,0-.5-1.1,2.73,2.73,0,0,0-1.51-.34h-.61l-.33,0-.25,0v3h1.19a2.73,2.73,0,0,0,1.53-.34,1.39,1.39,0,0,0,.48-1.21Zm9.79,3.77a3.58,3.58,0,0,1-.79,2.47,3.07,3.07,0,0,1-2.41.89l-.57,0c-.22,0-.46,0-.71-.08v2.38a.25.25,0,0,1-.08.18.27.27,0,0,1-.19.08h-1.23a.23.23,0,0,1-.18-.08.22.22,0,0,1-.08-.18V61.1a.29.29,0,0,1,.06-.22.69.69,0,0,1,.3-.14,12,12,0,0,1,1.33-.25,12.26,12.26,0,0,1,1.36-.1,3.06,3.06,0,0,1,2.4.89,3.53,3.53,0,0,1,.79,2.47Zm-1.76-1a4.77,4.77,0,0,0-.06-.76,1.56,1.56,0,0,0-.23-.6,1.06,1.06,0,0,0-.44-.4,1.44,1.44,0,0,0-.71-.15l-.73,0a5.14,5.14,0,0,0-.55.06V66.6l.66.07.62,0a1.44,1.44,0,0,0,.71-.15,1.06,1.06,0,0,0,.44-.4,1.63,1.63,0,0,0,.23-.6,4.87,4.87,0,0,0,.06-.76Z" transform="translate(0 0)" fill="#096d5c"/><path d="M65,0A43,43,0,0,1,22,43,43.06,43.06,0,0,1,0,37V10A10,10,0,0,1,10,0Z" transform="translate(0 0)" fill="#068675" opacity="0.05" style="isolation:isolate"/><path d="M33.56,29.89c0-1.65-1.05-2.46-3.17-3.74l-1.15-.7c-1.6-1-2.43-1.62-2.43-2.9s1-2,3.38-2c.77,0,2.29.12,2.45.14.36,0,.56,0,.56-.29v-.09c0-.23-.13-.32-.49-.36a23.14,23.14,0,0,0-2.5-.16c-2.11,0-4.21.58-4.21,2.79,0,1.75,1.19,2.59,2.82,3.6l1.14.7c2,1.24,2.77,1.71,2.77,3s-.63,2.68-3.35,2.68a24.48,24.48,0,0,1-2.7-.18c-.2,0-.41,0-.41.31v.07c0,.26.16.33.48.38a16.53,16.53,0,0,0,2.63.18C32.86,33.33,33.56,31.53,33.56,29.89Zm3.4,3V20.19a.32.32,0,0,0-.31-.34h-.18a.32.32,0,0,0-.31.34h0V32.88a.32.32,0,0,0,.31.34h.19a.32.32,0,0,0,.3-.34Zm13.32,0V20.64a.82.82,0,0,0-.74-.88.54.54,0,0,0-.18,0,.88.88,0,0,0-.83.56l-3.14,6.6c-.08.17-.13.24-.24.24s-.16-.07-.23-.24l-3.15-6.6a.88.88,0,0,0-.83-.56.81.81,0,0,0-.91.7,1.09,1.09,0,0,0,0,.18V32.88a.32.32,0,0,0,.31.34h.18a.32.32,0,0,0,.3-.34h0V20.64a.11.11,0,0,1,.1-.12h0c.09,0,.11,0,.18.16l3.11,6.57a1,1,0,0,0,1.84,0l3.11-6.57c.08-.13.09-.16.18-.16a.11.11,0,0,1,.13.1V32.88a.32.32,0,0,0,.31.34H50a.32.32,0,0,0,.3-.34Zm10.53-9.16v-.31c0-2.59-1.83-3.65-4.9-3.65-.77,0-1.82,0-2.45.09a.36.36,0,0,0-.3.34V32.88a.32.32,0,0,0,.3.34h.19a.33.33,0,0,0,.31-.34h0V27.5c.5,0,1.26.07,2,.07C59,27.57,60.81,26.55,60.81,23.72Zm-.79,0c0,2.29-1.31,3.15-4.1,3.15-.61,0-1.4,0-2-.07V20.52c.52,0,1.2-.05,2-.05,2.68,0,4.1.72,4.1,3Zm10.58,9.1-3.69-12.2a1.14,1.14,0,0,0-1.15-.86,1.17,1.17,0,0,0-1.17.88L60.9,32.82c-.07.26,0,.45.25.45h.24a.34.34,0,0,0,.29-.23l1.48-4.87h5.18L69.85,33a.31.31,0,0,0,.29.24h.22C70.6,33.28,70.68,33.08,70.6,32.82Zm-2.46-5.45H63.37l2-6.55a.39.39,0,0,1,.41-.34.45.45,0,0,1,.42.36Zm13.46,5V20.19a.31.31,0,0,0-.28-.34h-.24a.31.31,0,0,0-.29.33h0V32.41c0,.08,0,.17-.09.17s-.11-.06-.14-.13l-6-12.13a.81.81,0,0,0-.86-.56.84.84,0,0,0-.89.78V32.88a.32.32,0,0,0,.31.34h.18a.32.32,0,0,0,.31-.34h0V20.64c0-.09,0-.12.09-.12s.1.05.14.12l6.07,12.15a1.46,1.46,0,0,0,.32.42.93.93,0,0,0,.61.12.83.83,0,0,0,.82-.84S81.6,32.44,81.6,32.41Zm11.86.41-3.69-12.2a1.14,1.14,0,0,0-1.15-.86,1.17,1.17,0,0,0-1.17.88L83.76,32.82c-.07.26,0,.45.25.45h.24a.34.34,0,0,0,.29-.23L86,28.17H91.2L92.71,33a.31.31,0,0,0,.29.24h.21C93.46,33.28,93.54,33.08,93.46,32.82ZM91,27.37H86.23l2-6.55a.37.37,0,0,1,.41-.34.44.44,0,0,1,.42.36Zm13.46,5V20.19a.31.31,0,0,0-.28-.34h-.24a.31.31,0,0,0-.29.33h0V32.41c0,.08,0,.17-.09.17s-.1-.06-.14-.13l-6-12.13a.81.81,0,0,0-.86-.56.84.84,0,0,0-.89.78V32.88a.32.32,0,0,0,.31.34h.18a.32.32,0,0,0,.31-.34h0V20.64c0-.09,0-.12.09-.12s.1.05.14.12l6.07,12.15a1.46,1.46,0,0,0,.32.42.94.94,0,0,0,.62.12.83.83,0,0,0,.81-.84S104.46,32.44,104.46,32.41Z" transform="translate(0 0)" fill="#096d5c"/><path d="M34.06,47.57v-.31a3,3,0,0,0-2.21-3.06,3,3,0,0,0,2.14-3V41c0-2.7-2.49-3.26-5-3.26-.92,0-2,.05-2.7.11a.35.35,0,0,0-.34.34V50.86c0,.22.1.33.34.35a27,27,0,0,0,2.7.14C31.31,51.35,34.06,50.76,34.06,47.57Zm-.86-6.35c0,1.35-.63,2.59-3.15,2.59H26.79V38.53c.61,0,1.46-.07,2.25-.07,2.11,0,4.16.36,4.16,2.56Zm.07,6.35c0,2.61-2.07,3.06-4.23,3.06-.88,0-1.47-.05-2.25-.11V44.58h3.26c2.53,0,3.22,1.3,3.22,2.68ZM43.6,50.92v-.15c0-.18-.14-.28-.34-.28H38.62c-.87,0-1.39-.17-1.39-1.28V44.6h6a.31.31,0,0,0,.34-.28v-.21c0-.18-.14-.28-.34-.28h-6v-4c0-1.12.52-1.28,1.39-1.28h4.64c.2,0,.34-.11.34-.29v-.14a.31.31,0,0,0-.31-.31H38.62c-1.37,0-2.18.5-2.18,2v9.34c0,1.51.81,2,2.18,2h4.64a.31.31,0,0,0,.34-.28Zm10.86-.22-3.64-5.6c2.13-.36,3.23-1.38,3.23-3.58v-.09c0-2.75-1.66-3.67-4.9-3.67-.78,0-2.18,0-2.81.07a.37.37,0,0,0-.31.35v12.7a.32.32,0,0,0,.31.34h.18a.32.32,0,0,0,.31-.34h0v-5.7h2.32c.3,0,.43,0,.77,0l3.84,5.87a.37.37,0,0,0,.27.16h.23C54.57,51.22,54.6,50.94,54.46,50.7Zm-1.21-9.18c0,2.3-1.31,2.92-4.1,2.92l-2.32,0V38.59c.54-.05,1.57-.07,2.32-.07,2.68,0,4.1.66,4.1,2.91ZM57.77,52.3V38.19a.32.32,0,0,0-.31-.34h-.18a.32.32,0,0,0-.3.34h0V52.3c0,1.43-.33,1.73-1.8,1.73h-.25c-.2,0-.36.07-.36.27v.18c0,.2.16.25.36.25h.25C57.16,54.73,57.77,54,57.77,52.3Zm12-1.48-3.69-12.2A1.14,1.14,0,0,0,65,37.76a1.16,1.16,0,0,0-1.17.88L60.11,50.82c-.07.26,0,.45.25.45h.24a.32.32,0,0,0,.28-.23l1.48-4.87h5.19L69.06,51a.31.31,0,0,0,.29.24h.21C69.81,51.28,69.88,51.08,69.81,50.82Zm-2.46-5.45H62.58l2-6.55a.39.39,0,0,1,.41-.34.43.43,0,0,1,.41.36Zm13.46,5V38.19a.31.31,0,0,0-.28-.34h-.24a.31.31,0,0,0-.29.33h0V50.41c0,.08,0,.17-.09.17s-.11-.06-.14-.13l-6-12.13a.83.83,0,0,0-.87-.56.84.84,0,0,0-.88.78V50.88a.32.32,0,0,0,.31.34h.18a.32.32,0,0,0,.3-.34h0V38.64c0-.09.06-.12.09-.12s.11,0,.15.12l6.06,12.15a1.34,1.34,0,0,0,.33.42.93.93,0,0,0,.61.12.81.81,0,0,0,.81-.84Zm10.58-12v-.19c0-.21-.14-.27-.3-.28a23.46,23.46,0,0,0-3.24-.18c-2.11,0-4.52,1.17-4.52,5.67v2.23c0,4,2,5.67,4.52,5.67a21.71,21.71,0,0,0,3.22-.24.35.35,0,0,0,.31-.34V44.69a.32.32,0,0,0-.29-.34h-.2a.31.31,0,0,0-.31.32v5.74a20.74,20.74,0,0,1-2.73.17c-2.29,0-3.73-1.52-3.73-4.92V43.43c0-3.92,1.93-4.93,3.73-4.93a23.92,23.92,0,0,1,3.16.18C91.29,38.71,91.39,38.64,91.39,38.41ZM102,38.08a.34.34,0,0,0-.35-.3.6.6,0,0,0-.41.2l-6.12,6V38.19a.37.37,0,0,0-.35-.34h-.1a.37.37,0,0,0-.35.34V50.88a.32.32,0,0,0,.31.34h.18a.32.32,0,0,0,.31-.34h0V44.64l6.22,6.48a.71.71,0,0,0,.42.14c.32,0,.47-.31.21-.58l-6.17-6.4,6-5.87A.52.52,0,0,0,102,38.08ZM113,50.82l-3.69-12.2a1.14,1.14,0,0,0-1.15-.86,1.16,1.16,0,0,0-1.17.88l-3.69,12.18c-.07.26,0,.45.25.45h.24a.32.32,0,0,0,.28-.23l1.48-4.88h5.19L112.26,51a.31.31,0,0,0,.29.24h.21C113,51.28,113.08,51.08,113,50.82Zm-2.46-5.45h-4.77l2-6.55a.39.39,0,0,1,.41-.34.43.43,0,0,1,.41.36Z" transform="translate(0 0)" fill="#096d5c"/><path d="M44.25,79.69V61a.91.91,0,0,0-.88-1H40.74a1.27,1.27,0,0,0-1.19.73l-4.13,7.7c-.1.22-.19.35-.3.35s-.19-.13-.3-.35l-4.13-7.7A1.25,1.25,0,0,0,29.5,60H27a.89.89,0,0,0-1,.82.34.34,0,0,0,0,.1V79.69c0,.3.25.37.46.37H30a.49.49,0,0,0,.43-.54V68.26c0-.18.08-.21.13-.21s.14,0,.22.19l2.43,4.45a.86.86,0,0,0,.81.46H36.2a.86.86,0,0,0,.81-.46l2.43-4.45c.08-.14.14-.19.22-.19s.13,0,.13.21V79.52a.49.49,0,0,0,.44.54H43.8C44,80.06,44.25,80,44.25,79.69Zm19.44-.06a.59.59,0,0,1,0-.13l-4-16.74c-.62-2.59-2.59-3-4.45-3s-3.86.4-4.48,3l-4,16.74a.59.59,0,0,1,0,.13.42.42,0,0,0,.4.44h3.83a.56.56,0,0,0,.54-.48l1-4.43h5.53l1,4.43a.57.57,0,0,0,.54.48h3.78a.41.41,0,0,0,.46-.37Zm-6.5-8.18h-4L54.81,64c0-.27.13-.41.38-.41s.3.14.35.41ZM81.81,60.3c0-.16-.14-.3-.43-.3H77.25a.63.63,0,0,0-.6.32L70.71,69.1V60.51a.52.52,0,0,0-.52-.51H66.63a.52.52,0,0,0-.54.5h0v19a.54.54,0,0,0,.54.54h3.54a.54.54,0,0,0,.54-.54V70.78l5.48,8.91a.63.63,0,0,0,.6.37h4.64c.24,0,.38-.1.38-.27a.48.48,0,0,0-.11-.3L75.25,69.8l6.42-9.12A.8.8,0,0,0,81.81,60.3ZM97.25,74.39c0-2.18-.83-4-3.64-5.48l-3.46-1.86c-1.46-.78-1.81-1.13-1.81-1.89,0-1,.57-1.43,2.11-1.43,1.84,0,5,.24,5.72.3h.06a.41.41,0,0,0,.46-.36V60.84a.46.46,0,0,0-.4-.48,29.88,29.88,0,0,0-5.73-.6c-5.24,0-6.91,2.3-6.91,5.27,0,2,.67,3.67,3.18,5.16l3.73,2.21c1.4.83,1.78,1.26,1.78,2,0,1.3-.54,1.89-2.4,1.89-1,0-4-.22-5.13-.33h-.08a.45.45,0,0,0-.49.41v2.75c0,.3.27.46.54.54a19.93,19.93,0,0,0,5.1.6C95.36,80.31,97.25,77.26,97.25,74.39Zm7.64,5.13v-19a.5.5,0,0,0-.48-.52h-3.65a.47.47,0,0,0-.48.47v19a.49.49,0,0,0,.46.54h3.64a.5.5,0,0,0,.51-.52Zm22,.17V61a.92.92,0,0,0-.88-1h-2.63a1.27,1.27,0,0,0-1.19.73l-4.13,7.7c-.11.22-.19.35-.3.35s-.19-.13-.3-.35l-4.13-7.7a1.25,1.25,0,0,0-1.19-.73h-2.53a.89.89,0,0,0-1,.82.34.34,0,0,0,0,.1V79.69c0,.3.25.37.46.37h3.57a.49.49,0,0,0,.43-.54V68.26c0-.18.08-.21.14-.21s.13,0,.21.19l2.43,4.45a.87.87,0,0,0,.81.46h2.16a.86.86,0,0,0,.81-.46l2.43-4.45c.08-.14.14-.19.22-.19s.13,0,.13.21V79.52a.5.5,0,0,0,.44.54h3.56C126.68,80.06,126.93,80,126.93,79.69Zm19.44-.06,0-.13-4-16.74c-.62-2.59-2.59-3-4.45-3s-3.86.4-4.49,3l-4,16.74,0,.13a.42.42,0,0,0,.4.44h3.84a.57.57,0,0,0,.54-.48l1-4.43h5.54l1,4.43a.57.57,0,0,0,.54.48h3.78a.42.42,0,0,0,.45-.38.07.07,0,0,0,0-.05Zm-6.51-8.18h-4L137.48,64c.06-.27.14-.41.38-.41s.3.14.35.41Zm19.9,7.94V76.88a.54.54,0,0,0-.54-.54h-4.65c-1.26,0-1.72-.43-1.72-1.84v-14a.56.56,0,0,0-.54-.54h-3.54a.54.54,0,0,0-.54.54v14c0,4.92,3.1,5.8,6.59,5.8a28.27,28.27,0,0,0,4.4-.35c.38-.07.54-.21.54-.56Z" transform="translate(0 0)" fill="#096d5c"/><circle cx="176.5" cy="34.52" r="26.5" fill="#ffce51"/><path d="M169.69,26.35V19.51a.19.19,0,0,0-.17-.18H169a.18.18,0,0,0-.17.18v6.84c0,.45-.1.63-.58.63h-.35a.16.16,0,0,0-.18.14v.35a.12.12,0,0,0,.05.1,1.59,1.59,0,0,0,.48.07C169.28,27.64,169.69,27.22,169.69,26.35Zm4.76-.51V22.7c0-1.06-.5-1.69-1.76-1.69a7.24,7.24,0,0,0-1.39.11c-.13,0-.19.07-.19.17v.32c0,.11.08.14.16.14h0a12.7,12.7,0,0,1,1.37-.07c.7,0,1,.26,1,1v.36H173c-1.6,0-2.17.48-2.17,1.45v.11A1.3,1.3,0,0,0,172,26.08a.91.91,0,0,0,.33,0,2.71,2.71,0,0,0,1.38-.44v.2a.18.18,0,0,0,.18.18h.42a.18.18,0,0,0,.18-.18Zm-.79-.76a2.62,2.62,0,0,1-1.22.36c-.52,0-.83-.17-.83-.82v-.11c0-.64.29-.88,1.38-.88h.67Zm5.14-.3c0-.53-.24-.92-1-1.36l-.89-.53c-.41-.24-.62-.41-.62-.68,0-.46.33-.53.84-.53s1.08.05,1.39.08h0a.15.15,0,0,0,.15-.13V21.3c0-.1-.05-.16-.17-.18a7.28,7.28,0,0,0-1.4-.11c-.93,0-1.63.26-1.63,1.2a1.54,1.54,0,0,0,.92,1.28l.91.54c.51.31.67.48.67.75,0,.49-.3.64-.89.64-.32,0-1-.05-1.41-.1h0a.15.15,0,0,0-.16.13h0v.32c0,.1.07.15.19.18a6.76,6.76,0,0,0,1.42.13c1,0,1.68-.38,1.68-1.3Zm4.51,1.06V22.7c0-1.06-.5-1.69-1.75-1.69a6.57,6.57,0,0,0-1.4.12c-.13,0-.19.07-.19.17v.31c0,.12.08.15.16.15h.05a12.44,12.44,0,0,1,1.37-.08c.7,0,1,.26,1,1v.36h-.67c-1.6,0-2.16.49-2.16,1.46v.11a1.29,1.29,0,0,0,1.14,1.45.86.86,0,0,0,.32,0,2.72,2.72,0,0,0,1.39-.44v.2a.18.18,0,0,0,.18.18h.41a.18.18,0,0,0,.18-.18Zm-.79-.76a2.58,2.58,0,0,1-1.21.36c-.53,0-.83-.17-.83-.82v-.11c0-.64.29-.88,1.37-.88h.67Z" transform="translate(0 0)" fill="#096d5c"/><path d="M173.08,30.64V29.1c0-.68-.34-1-.84-1a2,2,0,0,0-.71.14v-1a.09.09,0,0,0-.09-.09h-.23a.09.09,0,0,0-.09.09h0v3.32a.09.09,0,0,0,.09.09h.23a.09.09,0,0,0,.09-.09v-2a1.78,1.78,0,0,1,.64-.13c.3,0,.5.15.5.61v1.53a.11.11,0,0,0,.1.1H173S173.08,30.69,173.08,30.64Zm1.1-3v-.38a.09.09,0,0,0-.09-.09h-.24a.09.09,0,0,0-.09.09h0v.38a.09.09,0,0,0,.09.09h.24a.09.09,0,0,0,.09-.09Zm0,3V28.26a.09.09,0,0,0-.09-.09h-.22a.09.09,0,0,0-.1.09h0v2.38a.09.09,0,0,0,.1.09h.22a.11.11,0,0,0,.1-.09h0Zm2.65,0V29.1c0-.61-.25-1-.81-1a1.38,1.38,0,0,0-.74.21v-.09a.09.09,0,0,0-.08-.09H175a.09.09,0,0,0-.09.09h0v2.38a.09.09,0,0,0,.09.09h.23a.09.09,0,0,0,.09-.09v-2a1.43,1.43,0,0,1,.63-.18c.35,0,.51.14.51.61v1.54a.09.09,0,0,0,.09.09h.23a.11.11,0,0,0,.1-.09h0Zm2.76-2.25v-.12a.1.1,0,0,0-.11-.1h-1c-.8,0-1,.41-1,.82v0a.69.69,0,0,0,.21.54.39.39,0,0,0-.19.34h0a.38.38,0,0,0,.22.36h0a.76.76,0,0,0-.3.59v.05c0,.46.34.74,1.08.74s1.06-.27,1.06-.72v0c0-.43-.44-.56-.9-.68l-.69-.18c-.11,0-.14-.07-.14-.15a.17.17,0,0,1,.11-.16,1.44,1.44,0,0,0,.54.1c.72,0,1-.29,1-.8v0a.7.7,0,0,0-.16-.48l.17,0C179.55,28.47,179.58,28.45,179.58,28.39Zm-.5.64c0,.28-.13.47-.63.47s-.63-.27-.63-.47v0c0-.26.11-.5.63-.5s.63.22.63.5Zm0,1.91c0,.25-.13.4-.66.4s-.67-.16-.67-.42v0a.56.56,0,0,1,.23-.48l.53.14c.42.1.56.18.56.36Zm3.06-2.55v-.12a.1.1,0,0,0-.11-.1h-1c-.8,0-1,.41-1,.82v0a.72.72,0,0,0,.21.54.41.41,0,0,0-.19.34h0a.4.4,0,0,0,.22.36h0a.79.79,0,0,0-.29.6v0c0,.46.33.74,1.07.74s1.06-.27,1.06-.72v0c0-.43-.44-.56-.89-.68l-.7-.18c-.1,0-.14-.07-.14-.15a.18.18,0,0,1,.12-.16,1.4,1.4,0,0,0,.54.1c.71,0,1-.29,1-.8v0a.65.65,0,0,0-.16-.48l.17,0C182.15,28.47,182.18,28.45,182.18,28.39Zm-.5.64c0,.28-.12.47-.63.47s-.63-.27-.63-.47v0c0-.26.11-.5.63-.5s.63.22.63.5Zm0,1.91c0,.25-.12.4-.65.4s-.67-.16-.67-.42v0a.56.56,0,0,1,.23-.48l.52.14c.42.11.57.18.57.36Zm2.73-.3V29c0-.55-.26-.87-.91-.87a2.92,2.92,0,0,0-.72.06c-.07,0-.1,0-.1.08v.17c0,.06,0,.07.08.07h0a5.78,5.78,0,0,1,.72,0c.36,0,.5.13.5.52v.19h-.34c-.83,0-1.12.25-1.12.75V30a.67.67,0,0,0,.59.75h.17a1.39,1.39,0,0,0,.71-.23v.1a.09.09,0,0,0,.09.1h.22a.09.09,0,0,0,.09-.09Zm-.41-.4a1.28,1.28,0,0,1-.63.18c-.27,0-.43-.08-.43-.42v-.06c0-.33.15-.45.71-.45H184Z" transform="translate(0 0)" fill="#096d5c"/><path d="M158.07,44.32a.37.37,0,0,0-.38.35h0v2a.38.38,0,0,0,.38.38h8.29a.38.38,0,0,0,.38-.38v-2a.37.37,0,0,0-.37-.36h-2.54v-11a.35.35,0,0,0-.34-.37h-1.73a1.11,1.11,0,0,0-.44.08l-3.44,1.62a.27.27,0,0,0-.19.26V37c0,.15.08.24.21.24a.59.59,0,0,0,.23-.05l2.47-1.07v8.17Zm37.43-.45V42.44c0-2.2-1-3.27-2.79-3.27s-2.81,1.07-2.81,3.27v1.43c0,2.2,1,3.27,2.81,3.27S195.5,46.07,195.5,43.87Zm-1.95-10.81c0-.1-.06-.16-.19-.16h-2c-.21,0-.3.1-.48.38L183,46.62a.6.6,0,0,0-.06.19.19.19,0,0,0,.17.21h2c.21,0,.28-.13.44-.4l7.9-13.34A.35.35,0,0,0,193.55,33.06Zm-6.92,4.42V36.06c0-2.2-1-3.25-2.81-3.25s-2.81,1-2.81,3.25v1.42c0,2.2,1,3.27,2.81,3.27S186.63,39.69,186.63,37.48Zm7,6.39c0,1.29-.34,1.61-.89,1.61s-.91-.32-.91-1.61V42.44c0-1.29.36-1.61.91-1.61s.89.32.89,1.61Zm-8.89-6.39c0,1.3-.34,1.64-.89,1.64s-.91-.34-.91-1.64V36.06c0-1.29.36-1.62.91-1.62s.89.33.89,1.62Z" transform="translate(0 0)" fill="#096d5c"/><path d="M177.84,36.41c0-2.41-1.34-3.6-4.81-3.6a15.21,15.21,0,0,0-4,.59c-.19.06-.36.17-.36.36v1.47a.35.35,0,0,0,.32.37H169c1.15-.12,2.57-.25,3.72-.25,1.53,0,2,.32,2,1.13s-.28,1-1.93,2.19l-1.73,1.23a5.89,5.89,0,0,0-2.57,4.79v1.92a.38.38,0,0,0,.38.38h8.4a.38.38,0,0,0,.38-.38V44.68a.37.37,0,0,0-.37-.36h-6v-.07c0-1.32,1.13-2.13,2.74-3.21l1.6-1.07A4.15,4.15,0,0,0,177.84,36.41Z" transform="translate(0 0)" fill="#096d5c"/><path d="M232.31,100H176.69a30.53,30.53,0,0,1,10.86-13.68,29.66,29.66,0,0,1,33.9,0A30.53,30.53,0,0,1,232.31,100Z" transform="translate(0 0)" fill="#068675" opacity="0.15" style="isolation:isolate"/></svg>