<svg id="Layer_1" data-name="Layer 1" xmlns="http://www.w3.org/2000/svg" viewBox="0 0 30 30"><title>ic-beli-bayar</title><path d="M15,0A15,15,0,1,0,30,15,15,15,0,0,0,15,0Zm0,28.1A13.1,13.1,0,0,1,15,1.9h0a13.1,13.1,0,0,1,0,26.2Z" transform="translate(0 0)" fill="#fff"/><path d="M15,24.68A9.69,9.69,0,1,1,24.69,15,9.68,9.68,0,0,1,15,24.68Zm0-18A8.32,8.32,0,1,0,23.31,15h0A8.32,8.32,0,0,0,15,6.68Z" transform="translate(0 0)" fill="#fff"/><path d="M15,19.45a27,27,0,0,1-8.92-1.37,1,1,0,0,1-.43-.43A9.88,9.88,0,0,1,5.31,15a13.94,13.94,0,0,1,.35-2.66.68.68,0,0,1,.43-.43A26.18,26.18,0,0,1,15,10.54a26.68,26.68,0,0,1,8.91,1.37,1,1,0,0,1,.43.43A9.53,9.53,0,0,1,24.69,15a14.16,14.16,0,0,1-.35,2.66.69.69,0,0,1-.43.42A26.68,26.68,0,0,1,15,19.45ZM6.94,17A27.81,27.81,0,0,0,15,18.08,26.83,26.83,0,0,0,23.06,17a7.74,7.74,0,0,0,0-3.94A27.49,27.49,0,0,0,15,11.91,27.16,27.16,0,0,0,6.94,13,7.74,7.74,0,0,0,6.94,17Z" transform="translate(0 0)" fill="#fff"/><path d="M15,24.68a14.14,14.14,0,0,1-2.66-.34.7.7,0,0,1-.43-.43A26.47,26.47,0,0,1,10.54,15a26.74,26.74,0,0,1,1.37-8.92,1.11,1.11,0,0,1,.43-.43,9.72,9.72,0,0,1,5.4,0,.7.7,0,0,1,.43.43A26.24,26.24,0,0,1,19.54,15a26.78,26.78,0,0,1-1.37,8.92,1,1,0,0,1-.43.43A15.78,15.78,0,0,1,15,24.68Zm-2-1.63a7.52,7.52,0,0,0,3.94,0,27.76,27.76,0,0,0,1.12-8A27.44,27.44,0,0,0,17,6.94a7.74,7.74,0,0,0-3.94,0A27.78,27.78,0,0,0,11.91,15,27.42,27.42,0,0,0,13,23.05Z" transform="translate(0 0)" fill="#fff"/></svg>