<svg id="Layer_1" data-name="Layer 1" xmlns="http://www.w3.org/2000/svg" viewBox="0 0 25 25"><title>ic-griya-white</title><rect width="25" height="25" fill="none"/><path d="M15,20.63H2.74a.37.37,0,0,1-.38-.37V10.15a.38.38,0,0,1,.38-.38.37.37,0,0,1,.37.38v9.73H15a.38.38,0,0,1,.38.38.37.37,0,0,1-.38.37Z" transform="translate(0 0)" fill="#fff"/><path d="M12.35,20.63a.37.37,0,0,1-.38-.37V10.15a.38.38,0,1,1,.75,0V20.26A.37.37,0,0,1,12.35,20.63Z" transform="translate(0 0)" fill="#fff"/><path d="M13.88,11.72a.38.38,0,0,1-.24-.09l-6.06-5-6.07,5a.38.38,0,0,1-.5,0l-.9-.89a.38.38,0,0,1,0-.54l0,0,7.2-6.07a.38.38,0,0,1,.49,0L15,10.16a.37.37,0,0,1,0,.53l0,0-.9.9A.36.36,0,0,1,13.88,11.72ZM.93,10.47l.36.37,6.05-5a.38.38,0,0,1,.47,0l6.05,5,.36-.37L7.58,4.87Z" transform="translate(0 0)" fill="#fff"/><path d="M23.55,11.28a.37.37,0,0,1-.38-.37V9.46a.38.38,0,0,1,.37-.38L18,4.75H7.58a.38.38,0,1,1,0-.75H18.12a.36.36,0,0,1,.23.08l6.5,5.08a.38.38,0,0,1,.07.53.37.37,0,0,1-.3.14h-.7v1.08A.38.38,0,0,1,23.55,11.28Z" transform="translate(0 0)" fill="#fff"/><path d="M9,20.63a.36.36,0,0,1-.37-.37V15.07H6.4v5.19a.36.36,0,0,1-.37.37.37.37,0,0,1-.38-.37V14.69A.38.38,0,0,1,6,14.32H9a.38.38,0,0,1,.38.37v5.56a.37.37,0,0,1-.37.38Z" transform="translate(0 0)" fill="#fff"/><path d="M18.8,15a1.55,1.55,0,0,0,1.07-1.58v-.05a1.77,1.77,0,0,0-.2-.85,1.49,1.49,0,0,0-.5-.53,1.93,1.93,0,0,0-.73-.29,5.25,5.25,0,0,0-.88-.09,7.58,7.58,0,0,0-.85,0c-.25,0-.5,0-.7,0a.24.24,0,0,0-.2,0,.26.26,0,0,0-.05.19v5.33a.16.16,0,0,0,.16.14h.83a.17.17,0,0,0,.15-.16v-2.1l.33,0h.48l1.15,2.06a.14.14,0,0,0,.14.14h1s.05-.06.05-.09l0,0Zm0-1.67h0a.88.88,0,0,1-.3.71,1.92,1.92,0,0,1-.91.2h-.7V12.49h.71a1.51,1.51,0,0,1,.91.2.77.77,0,0,1,.3.64Z" transform="translate(0 0)" fill="#fff"/><path d="M24.65,15.77l0-.56a2.09,2.09,0,0,0-.48-1.53,2,2,0,0,0-1.53-.52,2.89,2.89,0,0,0-.83,0,2.46,2.46,0,0,0-.83.2.48.48,0,0,0-.19.09.25.25,0,0,0,0,.12v5.65a.16.16,0,0,0,.15.16h.81a.17.17,0,0,0,.15-.17V17.79c.16,0,.31,0,.43,0h.38a1.9,1.9,0,0,0,1.53-.53A2.22,2.22,0,0,0,24.65,15.77Zm-1.11-.64,0,.62a1.52,1.52,0,0,1,0,.47.89.89,0,0,1-.12.38.64.64,0,0,1-.28.26,1,1,0,0,1-.43.09c-.13,0-.27,0-.39,0a1.2,1.2,0,0,1-.42,0V14.05a1.47,1.47,0,0,1,.36,0,1.83,1.83,0,0,1,.47,0,1.12,1.12,0,0,1,.44.09.67.67,0,0,1,.27.23,1.63,1.63,0,0,1,.16.83Z" transform="translate(0 0)" fill="#fff"/></svg>