<svg id="Layer_1" data-name="Layer 1" xmlns="http://www.w3.org/2000/svg" viewBox="0 0 25 25"><title>ic-komersial-white</title><rect width="25" height="25" fill="none"/><path d="M16.24,5.58a1.33,1.33,0,0,0-.32-2.19A3.55,3.55,0,0,0,17,.89.48.48,0,0,0,17,.66,1.54,1.54,0,0,0,15.76,0a1.52,1.52,0,0,0-1.21.68.67.67,0,0,1-.92.25.88.88,0,0,1-.26-.25A1.46,1.46,0,0,0,12.17,0h0A1.44,1.44,0,0,0,11,.68a.68.68,0,0,1-.92.25A.75.75,0,0,1,9.8.68,1.52,1.52,0,0,0,8.59,0,1.49,1.49,0,0,0,7.38.68a.42.42,0,0,0-.07.23,3.51,3.51,0,0,0,1.12,2.5A1.26,1.26,0,0,0,7.67,4.6a1.29,1.29,0,0,0,.45,1C6.06,7-.4,11.93,1.27,18.53S12.1,25,12.15,25h.2c1.35,0,9.16-.29,10.73-6.47C24.75,11.93,18.29,7,16.24,5.58ZM8.07,1A.67.67,0,0,1,9,.92a.79.79,0,0,1,.17.2,1.5,1.5,0,0,0,1.21.66,1.46,1.46,0,0,0,1.2-.66.77.77,0,0,1,.59-.36h0a.75.75,0,0,1,.59.36,1.44,1.44,0,0,0,2,.44,1.42,1.42,0,0,0,.44-.44.66.66,0,0,1,.88-.29.67.67,0,0,1,.22.19,3.1,3.1,0,0,1-1.35,2.24H9.42A3.13,3.13,0,0,1,8.07,1ZM9,4h6.37a.57.57,0,0,1,.56.57h0a.58.58,0,0,1-.56.56H9A.57.57,0,0,1,9,4ZM22.35,18.36c-1.56,6.15-10.07,5.89-10.18,5.88S3.57,24.52,2,18.36C.34,11.7,7.93,6.6,9,5.91h6.4C16.44,6.6,24,11.7,22.35,18.36Z" transform="translate(0 0)" fill="#fff"/><path d="M12.23,18.77c0,.05-.05.12-.08.12H10.82a.16.16,0,0,1-.12,0,.26.26,0,0,1-.07-.15L9.12,16H8.5l-.44,0v2.75a.21.21,0,0,1-.19.21H6.78a.23.23,0,0,1-.22-.18v-7a.43.43,0,0,1,.07-.25.28.28,0,0,1,.26-.05c.26,0,.59,0,.92-.07s.72-.05,1.11-.05a5.54,5.54,0,0,1,1.15.12,2.74,2.74,0,0,1,1,.37,2,2,0,0,1,.66.7A2.38,2.38,0,0,1,12,13.63v.07a2,2,0,0,1-1.41,2.07l1.64,3Zm-1.69-5.18a1,1,0,0,0-.38-.85A1.87,1.87,0,0,0,9,12.48H8v2.3H9a2.35,2.35,0,0,0,1.19-.26,1.15,1.15,0,0,0,.4-.93Zm7.67,2.87a2.8,2.8,0,0,1-.6,1.91,2.35,2.35,0,0,1-1.92.66h-.46c-.16,0-.34,0-.54,0V20.8a.22.22,0,0,1-.19.22h-1a.21.21,0,0,1-.19-.2V13.75a.3.3,0,0,1,0-.16.66.66,0,0,1,.24-.11,3.11,3.11,0,0,1,1-.25,4,4,0,0,1,1,0,2.49,2.49,0,0,1,1.91.66,2.56,2.56,0,0,1,.6,1.91Zm-1.4-.8a2.73,2.73,0,0,0,0-.57,1.63,1.63,0,0,0-.16-.47.79.79,0,0,0-.34-.29,1.5,1.5,0,0,0-.55-.11,1.94,1.94,0,0,0-.59,0,2.12,2.12,0,0,0-.44,0v3.55a1.45,1.45,0,0,0,.51,0,4,4,0,0,0,.49,0,1.46,1.46,0,0,0,.55-.11.75.75,0,0,0,.34-.34,1,1,0,0,0,.16-.47,1.94,1.94,0,0,0,0-.59l0-.77Z" transform="translate(0 0)" fill="#fff"/></svg>