<svg id="Layer_1" data-name="Layer 1" xmlns="http://www.w3.org/2000/svg" viewBox="0 0 100.93 38.97"><title>ic-koin-dashboard</title><path d="M2.43,29.39H0V15.14H2.43v6H4.09a3.9,3.9,0,0,0,3-1.52A5.3,5.3,0,0,0,8.45,16h0v-.81h2.47V16A7.64,7.64,0,0,1,9,21.22a3.58,3.58,0,0,1-1.41,1,3.79,3.79,0,0,1,1.41,1,8,8,0,0,1,1.94,5.3v.81H8.45v-.81a5.32,5.32,0,0,0-1.34-3.63,4,4,0,0,0-3-1.53H2.43Z" transform="translate(0 0)" fill="#068675"/><path d="M56.23,15.17V29.39H53.8V15.17Z" transform="translate(0 0)" fill="#068675"/><path d="M59.26,29.39V17.15A2.05,2.05,0,0,1,59.65,16a2,2,0,0,1,2.29-.67,1.69,1.69,0,0,1,1,.92l4.33,9.16V15.21h2.43V27.44a2.05,2.05,0,0,1-.39,1.17,1.71,1.71,0,0,1-1,.7,1.85,1.85,0,0,1-1.27,0,1.73,1.73,0,0,1-1-.91l-4.33-9.16V29.42H59.26Z" transform="translate(0 0)" fill="#068675"/><path d="M85.07,18.42H77.46a2.14,2.14,0,0,0-1.61.68,2.19,2.19,0,0,0-.67,1.66,2.29,2.29,0,0,0,2.27,2.3h3.78a5.43,5.43,0,0,1,4,1.66,5.36,5.36,0,0,1,1.62,3.92,5.43,5.43,0,0,1-1.62,4,5.33,5.33,0,0,1-4,1.63h-8.8V30.94h8.8a2.3,2.3,0,0,0,0-4.6H77.46a5.58,5.58,0,0,1-3.94-9.51,5.28,5.28,0,0,1,3.94-1.62h7.61Z" transform="translate(0 0)" fill="#096d5c"/><path d="M89.61,30.94v3.29h-4a8.11,8.11,0,0,0,.63-.57,6.72,6.72,0,0,0,1.45-2.08c.1-.21.17-.43.24-.6h1.69Z" transform="translate(0 0)" fill="#096d5c"/><path d="M98.17,23.94a3.72,3.72,0,0,0,2-3.54,5,5,0,0,0-1.52-3.71A5,5,0,0,0,95,15.17H90.39a2.51,2.51,0,0,0-1.87.78,2.58,2.58,0,0,0-.77,1.87v7.92a7.28,7.28,0,0,1,.6,2.9,7.17,7.17,0,0,1-.35,2.3,3.16,3.16,0,0,1-.25.6v2.69H95a5.9,5.9,0,0,0,5.92-5.88v-.06A4.47,4.47,0,0,0,98.17,23.94ZM91,18.42h4a1.94,1.94,0,0,1,1.94,1.92v0a1.94,1.94,0,0,1-.56,1.41,1.81,1.81,0,0,1-1.38.64H91Zm5.88,11.74a2.55,2.55,0,0,1-1.87.78H91V25.5h4a2.5,2.5,0,0,1,1.87.81,2.75,2.75,0,0,1,.77,1.94,2.57,2.57,0,0,1-.77,1.91Z" transform="translate(0 0)" fill="#096d5c"/><path d="M32.11,0A19.49,19.49,0,1,0,51.48,19.6v-.12A19.47,19.47,0,0,0,32.11,0Zm0,34.87A15.35,15.35,0,1,1,47.39,19.45v.07A15.33,15.33,0,0,1,32.11,34.87Z" transform="translate(0 0)" fill="#e6c125"/><ellipse cx="32.11" cy="19.48" rx="11.97" ry="12.02" fill="#e6c125"/><path d="M14.37,30.94H1.65A1.65,1.65,0,0,0,0,32.6H0a1.67,1.67,0,0,0,1.65,1.67H17A22.59,22.59,0,0,1,14.37,30.94Z" transform="translate(0 0)" fill="#096d5c"/><path d="M49.82,30.94a21.14,21.14,0,0,1-2.6,3.29H72.68V30.94Z" transform="translate(0 0)" fill="#096d5c"/></svg>