<svg id="Layer_1" data-name="Layer 1" xmlns="http://www.w3.org/2000/svg" viewBox="0 0 25 25"><title>ic-pickmi-white</title><rect width="25" height="25" fill="none"/><path d="M3.89,20.82a.37.37,0,0,0,.37.38h11a.38.38,0,0,0,0-.75h-11A.38.38,0,0,0,3.89,20.82Z" transform="translate(0 0)" fill="#fff"/><path d="M4.27,4.55h11a.38.38,0,0,0,.38-.37h0a.36.36,0,0,0-.36-.37h-11a.37.37,0,0,0-.38.36h0a.37.37,0,0,0,.37.38Z" transform="translate(0 0)" fill="#fff"/><path d="M8.44,2.65h2.65a.38.38,0,0,0,0-.75H8.44a.38.38,0,1,0,0,.75Z" transform="translate(0 0)" fill="#fff"/><path d="M11.09,22.34H8.44a.38.38,0,0,0-.38.37h0a.38.38,0,0,0,.38.38h2.65a.38.38,0,0,0,.37-.38.38.38,0,0,0-.36-.38Z" transform="translate(0 0)" fill="#fff"/><path d="M22.5,6.2h-5V3a3,3,0,0,0-3-3H5A3,3,0,0,0,2,3V22a3,3,0,0,0,3,3H14.5a3,3,0,0,0,3-3V16.54h5a.8.8,0,0,0,.8-.8V7a.79.79,0,0,0-.77-.8Zm-.41,7.21h0l-.38.16s-.05,0-.07,0a1.38,1.38,0,0,0-.33.2l-.07,0a1.93,1.93,0,0,0-.3.27h0a2.08,2.08,0,0,0-.27.32l0,.06a3.79,3.79,0,0,0-.2.34l0,.06a2.05,2.05,0,0,0-.16.38h0a3.24,3.24,0,0,0-.09.4.05.05,0,0,1,0,0H10.84a.49.49,0,0,0-.23.08L7.76,18V16.15a2.64,2.64,0,0,0,0-.28.14.14,0,0,0,0-.09.57.57,0,0,0,0-.18.5.5,0,0,0,0-.12.57.57,0,0,1,0-.15.56.56,0,0,1,0-.12L7.52,15a.83.83,0,0,0-.07-.13l0-.12a.5.5,0,0,0-.08-.12l-.07-.1-.09-.11a.36.36,0,0,0-.07-.1L7,14.18l-.08-.08L6.79,14l-.08-.07a1,1,0,0,0-.15-.1l-.07-.06-.18-.11,0,0L6,13.51l-.07,0-.19-.07-.1,0-.16,0-.11,0-.11,0V9.42h0a1.43,1.43,0,0,0,.41-.09h0a1.68,1.68,0,0,0,.39-.16l.06,0a2.43,2.43,0,0,0,.35-.2l.06,0a2.58,2.58,0,0,0,.59-.6l0-.06c.07-.11.14-.22.2-.33l0-.07a3.2,3.2,0,0,0,.16-.39v0c0-.12.06-.26.09-.4s0,0,0,0H20.12s0,0,0,0a2.71,2.71,0,0,0,.09.41h0a2.54,2.54,0,0,0,.16.38.16.16,0,0,0,0,.07,4,4,0,0,0,.2.35l0,.06a2.9,2.9,0,0,0,.58.58.1.1,0,0,0,.05,0l.34.22.06,0a3.2,3.2,0,0,0,.39.16h0a2.86,2.86,0,0,0,.42.1h0v3.9h0a2.71,2.71,0,0,0-.43.1ZM7,7a2.86,2.86,0,0,1-.07.28.14.14,0,0,0,0,.06,1.6,1.6,0,0,1-.1.23,0,0,0,0,0,0,0l-.15.24,0,0a2.16,2.16,0,0,1-.4.4l-.05,0-.23.15h0l-.24.1-.06,0-.28.08h0V7a0,0,0,0,1,0,0H7Zm-1.7,7.1h0l.28.08,0,0,.24.1s0,0,0,0a2.55,2.55,0,0,1,.24.14.1.1,0,0,0,0,0,2.52,2.52,0,0,1,.4.4s0,0,0,.05a1.58,1.58,0,0,1,.15.24v0a2.44,2.44,0,0,1,.1.24.14.14,0,0,1,0,.06c0,.1.05.19.08.28H5.32a0,0,0,0,1,0,0h0V14.07ZM22.54,7V8.64h0a1.38,1.38,0,0,1-.27-.08l-.06,0L22,8.44h0a1.34,1.34,0,0,1-.23-.16l-.07,0a1.07,1.07,0,0,1-.19-.18h0l-.16-.2-.05-.06c-.05-.08-.1-.14-.14-.22a.06.06,0,0,1,0,0A1.47,1.47,0,0,1,21,7.3l0-.06A2.3,2.3,0,0,1,20.89,7H22.5S22.54,7,22.54,7ZM16.77,22a2.29,2.29,0,0,1-2.27,2.27H5A2.27,2.27,0,0,1,2.76,22h0V3A2.27,2.27,0,0,1,5,.77H14.5A2.28,2.28,0,0,1,16.77,3V6.21H5.32a.79.79,0,0,0-.8.78h0v8.74a.8.8,0,0,0,.8.8H7v2.28a.39.39,0,0,0,.21.35.51.51,0,0,0,.17,0,.38.38,0,0,0,.23-.08L11,16.54h5.79V22Zm5.73-6.19H20.89a2.29,2.29,0,0,1,.07-.28s0,0,0-.05a1.6,1.6,0,0,1,.1-.23,0,0,0,0,0,0,0,1,1,0,0,1,.15-.24l0-.06a1.63,1.63,0,0,0,.17-.2h0l.21-.19s0,0,.05,0l.23-.16h0l.23-.11.06,0a1.2,1.2,0,0,1,.27-.08h0v1.65S22.53,15.77,22.5,15.77Z" transform="translate(0 0)" fill="#fff"/><path d="M14,13s0,.07,0,.07h-.81a.08.08,0,0,1-.07,0,.41.41,0,0,1,0-.09l-.94-1.68h-.39l-.27,0v1.7a.15.15,0,0,1-.13.13h-.67a.13.13,0,0,1-.13-.12V8.63a.27.27,0,0,1,.05-.15.34.34,0,0,1,.17-.05l.57,0,.68,0a3.51,3.51,0,0,1,.72.07,2,2,0,0,1,.59.23,1.24,1.24,0,0,1,.41.44,1.45,1.45,0,0,1,.16.68v.05a1.24,1.24,0,0,1-.23.81,1.51,1.51,0,0,1-.64.47l1,1.83ZM13,9.78a.63.63,0,0,0-.23-.53A1.26,1.26,0,0,0,12,9.09h-.58v1.42H12a1.34,1.34,0,0,0,.74-.16A.68.68,0,0,0,13,9.77Zm4.74,1.78a1.77,1.77,0,0,1-.38,1.17,1.49,1.49,0,0,1-1.17.41H15.9c-.11,0-.22,0-.34,0v1.12a.15.15,0,0,1-.12.13h-.63a.15.15,0,0,1-.13-.13V9.87a.15.15,0,0,1,0-.11.37.37,0,0,1,.14-.07,2.1,2.1,0,0,1,.65-.14,4.58,4.58,0,0,1,.64,0,1.56,1.56,0,0,1,1.17.41,1.62,1.62,0,0,1,.38,1.17Zm-.86-.49a1.47,1.47,0,0,0,0-.36.69.69,0,0,0-.11-.28.45.45,0,0,0-.21-.18.81.81,0,0,0-.34-.08l-.36,0-.27,0v2.19l.32,0,.3,0a.8.8,0,0,0,.34-.07.45.45,0,0,0,.21-.2.65.65,0,0,0,.11-.29c0-.12,0-.24,0-.36v-.49Z" transform="translate(0 0)" fill="#fff"/></svg>