<svg id="Layer_1" data-name="Layer 1" xmlns="http://www.w3.org/2000/svg" viewBox="0 0 30 30"><title>ic-paket-data</title><rect width="30" height="30" fill="none"/><path d="M15,23.16a1.92,1.92,0,1,0,1.88,2v0A1.91,1.91,0,0,0,15,23.16ZM29.49,8.76A20.8,20.8,0,0,0,15,3,20.8,20.8,0,0,0,.51,8.76a1.64,1.64,0,0,0-.07,2.3l.07.07a1.8,1.8,0,0,0,2.48,0A17.07,17.07,0,0,1,15,6.54a17.07,17.07,0,0,1,12,4.59,1.8,1.8,0,0,0,2.48,0,1.64,1.64,0,0,0,.06-2.31ZM15,9.71A14.92,14.92,0,0,0,4.28,14.22a1.89,1.89,0,0,0,0,2.63,1.8,1.8,0,0,0,2.54,0l0,0A11.4,11.4,0,0,1,15,13.31a11.47,11.47,0,0,1,8.13,3.54,1.8,1.8,0,0,0,2.55,0l0,0a1.89,1.89,0,0,0,0-2.63A14.92,14.92,0,0,0,15,9.71Zm0,6.72a8.27,8.27,0,0,0-6.06,2.65,1.88,1.88,0,0,0,0,2.56,1.66,1.66,0,0,0,2.34.08l.09-.08A5,5,0,0,1,15,20a5.07,5.07,0,0,1,3.63,1.64,1.66,1.66,0,0,0,2.34.09.38.38,0,0,0,.09-.09,1.89,1.89,0,0,0,0-2.55A8.27,8.27,0,0,0,15,16.43Z" transform="translate(0 0)" fill="#27a08b"/></svg>