<svg id="Layer_1" data-name="Layer 1" xmlns="http://www.w3.org/2000/svg" viewBox="0 0 30 30"><title>ic-pulsa</title><rect width="30" height="30" fill="none"/><path d="M16.78,1.51h-12A2.08,2.08,0,0,0,2.73,3.59V27.92A2.08,2.08,0,0,0,4.81,30h12a2.08,2.08,0,0,0,2.08-2.08V3.59A2.1,2.1,0,0,0,16.78,1.51Zm-9,1.27h5.9c.16,0,.26.24.26.5s-.13.49-.26.49H7.83c-.16,0-.26-.23-.26-.49S7.67,2.78,7.83,2.78Zm3,25.14a1.33,1.33,0,1,1,1.33-1.33h0A1.34,1.34,0,0,1,10.79,27.92Zm6.5-4.53h-13V5h13Z" transform="translate(0 0)" fill="#27a08b"/><circle cx="18.83" cy="7.78" r="7.78" fill="#068675"/><path d="M14.83,4.58a7.9,7.9,0,0,1,1.45-.13A2.42,2.42,0,0,1,18,4.92,1.47,1.47,0,0,1,18.44,6a1.55,1.55,0,0,1-1.12,1.51v0a1.42,1.42,0,0,1,.86,1.2,11.7,11.7,0,0,0,.45,1.61h-.78A5.79,5.79,0,0,1,17.46,9c-.19-.8-.5-1.12-1.18-1.14h-.72v2.55H14.8V4.59Zm.75,2.68h.78c.81,0,1.33-.44,1.33-1.12s-.55-1.09-1.35-1.09a2.17,2.17,0,0,0-.76.08Z" transform="translate(0 0)" fill="#fffdfd"/><path d="M19.56,7.55c0-.55,0-1,0-1.38h.7l0,.73h0a1.67,1.67,0,0,1,1.51-.84,1.92,1.92,0,0,1,1.81,2s0,.09,0,.13a2,2,0,0,1-1.73,2.25l-.2,0a1.52,1.52,0,0,1-1.3-.65h0v2.29h-.76V7.55Zm.78,1.11c0,.1,0,.21,0,.32a1.21,1.21,0,0,0,1.14.91c.81,0,1.28-.65,1.28-1.64s-.44-1.56-1.25-1.56a1.22,1.22,0,0,0-1.17,1,1.12,1.12,0,0,0-.05.31v.7Z" transform="translate(0 0)" fill="#fffdfd"/></svg>