<svg id="Layer_1" data-name="Layer 1" xmlns="http://www.w3.org/2000/svg" viewBox="0 0 30 30"><title>ic-pln</title><rect width="30" height="30" fill="none"/><path d="M8.44,12a7.06,7.06,0,1,1,12.69,4.24,11.09,11.09,0,0,0-2.25,5.8c0,.27,0,.54,0,.82v1.66h-6.7V23a9.1,9.1,0,0,0,0-.91,10.82,10.82,0,0,0-2.2-5.76A7,7,0,0,1,8.44,12Z" transform="translate(0 0)" fill="#d3fdf6"/><path d="M12,22.93H19a.51.51,0,0,1,.52.51.3.3,0,0,1,0,.13l-.17.67-1,4-.24.94a.52.52,0,0,1-.5.38H13.44a.52.52,0,0,1-.5-.38l-.24-.94-1-4-.17-.67a.51.51,0,0,1,.36-.63Z" transform="translate(0 0)" fill="#27a08b"/><path d="M11.6,25.1h7.82a.56.56,0,0,1,.56.56h0v1.17a.56.56,0,0,1-.56.56H11.6a.56.56,0,0,1-.56-.56h0V25.66a.56.56,0,0,1,.56-.56Z" transform="translate(0 0)" fill="#27a08b"/><path d="M22.32,13.87a.42.42,0,0,0-.55.27,6.79,6.79,0,0,1-1,1.86,11.24,11.24,0,0,0-2.36,6.49h-.83V16.23a.44.44,0,0,0-.44-.44.45.45,0,0,0-.45.44v1.38a.79.79,0,0,1-.89-.05.44.44,0,0,0-.58,0,.9.9,0,0,1-.92.14V16.23a.44.44,0,0,0-.44-.44.44.44,0,0,0-.44.44v1.64h0v4.62h-.85A11.34,11.34,0,0,0,10.26,16a6.54,6.54,0,0,1-1.11-5.88.45.45,0,0,0-.3-.55h0a.44.44,0,0,0-.55.3h0A7.52,7.52,0,0,0,8,12a7.32,7.32,0,0,0,1.56,4.56,10.48,10.48,0,0,1,2.14,6,.94.94,0,0,0-.64,1.14l.26,1a1,1,0,0,0-.72,1v1.17a1,1,0,0,0,1,1h.53l.39,1.46a1,1,0,0,0,.92.71h4.14a1,1,0,0,0,.93-.71l.37-1.46h.54a1,1,0,0,0,1-1V25.66a1,1,0,0,0-.72-1l.26-1a.94.94,0,0,0-.66-1.15,10.38,10.38,0,0,1,2.18-6,7.64,7.64,0,0,0,1.12-2.11.43.43,0,0,0-.27-.55ZM19,23.37a.06.06,0,0,1,.06,0,.07.07,0,0,1,0,.06l-.32,1.2H17.57a.36.36,0,0,0,0-.11V23.37Zm-4.72,0H16.7v1.18s0,.07,0,.11H14.3a.45.45,0,0,0,0-.11V23.37Zm0-4.77a1.86,1.86,0,0,0,1.16-.2,1.6,1.6,0,0,0,1.23.14v3.95H14.31Zm-.86,6.06H12.23l-.32-1.2a.07.07,0,0,1,0-.06.05.05,0,0,1,.05,0h1.45v1.18a.52.52,0,0,0,0,.11Zm6.09,2.17a.12.12,0,0,1-.12.12H15.35a.44.44,0,0,0-.44.44.44.44,0,0,0,.44.44H18l-.32,1.24a.08.08,0,0,1-.07.05H13.44a.08.08,0,0,1-.07-.05l-.32-1.24h.6a.44.44,0,0,0,.44-.44.44.44,0,0,0-.44-.44H11.6a.12.12,0,0,1-.12-.12V25.66a.12.12,0,0,1,.12-.12h7.82a.12.12,0,0,1,.12.12v1.17Z" transform="translate(0 0)" fill="#068675"/><path d="M15.61,4.54H15.5A7.5,7.5,0,0,0,9,8.23a.44.44,0,0,0,.18.6.46.46,0,0,0,.58-.15A6.62,6.62,0,0,1,15.5,5.42h.1a6.65,6.65,0,0,1,6.52,6.52c0,.21,0,.42,0,.64a.44.44,0,0,0,.88.07q0-.36,0-.72A7.5,7.5,0,0,0,15.61,4.54Z" transform="translate(0 0)" fill="#068675"/><path d="M17,8a4.1,4.1,0,0,1,2.77,3.09.44.44,0,0,0,.87-.15,5,5,0,0,0-3.4-3.78.43.43,0,0,0-.55.28A.42.42,0,0,0,17,8Z" transform="translate(0 0)" fill="#068675"/><path d="M15.5,3.4A.44.44,0,0,0,15.94,3h0V.44a.44.44,0,1,0-.88,0V3a.44.44,0,0,0,.44.44Z" transform="translate(0 0)" fill="#068675"/><path d="M20.94,4.44l1.79-1.78A.44.44,0,1,0,22.11,2L20.32,3.82a.44.44,0,0,0,0,.62A.43.43,0,0,0,20.94,4.44Z" transform="translate(0 0)" fill="#068675"/><path d="M10.05,4.44a.43.43,0,0,0,.63,0,.44.44,0,0,0,0-.62L8.89,2a.44.44,0,0,0-.62.62Z" transform="translate(0 0)" fill="#068675"/></svg>