<svg id="Layer_1" data-name="Layer 1" xmlns="http://www.w3.org/2000/svg" viewBox="0 0 30 30"><title>ic-rekening</title><path d="M15,30A15,15,0,1,1,30,15,15,15,0,0,1,15,30ZM15,1.93A13.07,13.07,0,1,0,28.07,15,13.07,13.07,0,0,0,15,1.93Z" transform="translate(0 0)" fill="#fff"/><path d="M15.23,17.77c0,.05-.05.12-.08.12H13.82a.16.16,0,0,1-.12,0,.26.26,0,0,1-.07-.15L12.12,15H11.5l-.44,0v2.75a.21.21,0,0,1-.19.21H9.78a.23.23,0,0,1-.22-.18v-7a.43.43,0,0,1,.07-.25.28.28,0,0,1,.26-.05,8,8,0,0,1,.92-.07c.33,0,.72-.05,1.11-.05a5.54,5.54,0,0,1,1.15.12,2.56,2.56,0,0,1,1,.37,2,2,0,0,1,.66.7A2.36,2.36,0,0,1,15,12.63v.07a2,2,0,0,1-1.41,2.07l1.64,3Zm-1.69-5.19a1,1,0,0,0-.38-.84,1.87,1.87,0,0,0-1.2-.26H11v2.3H12a2.58,2.58,0,0,0,1.19-.26,1.15,1.15,0,0,0,.4-.94Zm7.67,2.88a2.8,2.8,0,0,1-.6,1.91,2.35,2.35,0,0,1-1.92.66h-.46c-.16,0-.34,0-.54,0V19.8a.22.22,0,0,1-.19.22h-1a.21.21,0,0,1-.19-.2V12.75a.3.3,0,0,1,.05-.16.9.9,0,0,1,.24-.12,3.35,3.35,0,0,1,1-.24,4,4,0,0,1,1,0,2.49,2.49,0,0,1,1.91.66,2.56,2.56,0,0,1,.6,1.91Zm-1.4-.81a2.69,2.69,0,0,0,0-.56,1.63,1.63,0,0,0-.16-.47.79.79,0,0,0-.34-.29,1.5,1.5,0,0,0-.55-.11,1.94,1.94,0,0,0-.59,0,2.28,2.28,0,0,0-.45,0v3.55a1.53,1.53,0,0,0,.52,0,4,4,0,0,0,.49,0,1.3,1.3,0,0,0,.55-.12.68.68,0,0,0,.34-.33,1,1,0,0,0,.16-.47,1.94,1.94,0,0,0,0-.59l0-.78Z" transform="translate(0 0)" fill="#fff"/></svg>