<svg id="Layer_1" data-name="Layer 1" xmlns="http://www.w3.org/2000/svg" viewBox="0 0 25 25"><title>ic-savet-whte</title><rect width="25" height="25" fill="none"/><path d="M24.63,22.28H23.42L17.51,11.11A.39.39,0,0,0,17,11a.4.4,0,0,0-.13.13l-1.75,3.31-4.3-8.14V1.37A.38.38,0,0,0,10.42,1H4.32A.35.35,0,0,0,4,1.21a.34.34,0,0,0,.06.4L5,2.72,4,3.84a.35.35,0,0,0-.06.4.38.38,0,0,0,.35.21h5.72V6.28L9.18,7.91A1.71,1.71,0,0,0,6,7.56l-.27,0A1.13,1.13,0,0,0,4.56,8.65v.14a1.27,1.27,0,0,0,.65,2.35H7.49L1.6,22.28H.37a.38.38,0,0,0-.37.37A.39.39,0,0,0,.37,23H24.61a.4.4,0,0,0,.39-.39A.38.38,0,0,0,24.63,22.28ZM17.17,12.11l1.64,3.07a1.55,1.55,0,0,0-.37,0,2.2,2.2,0,0,0-1.53.63,1.38,1.38,0,0,1-1.75.18Zm-12-8.39L5.75,3a.4.4,0,0,0,0-.49l-.61-.74H10v2ZM4.7,9.88a.51.51,0,0,1,.4-.49.39.39,0,0,0,.29-.45.36.36,0,0,0,0-.11.39.39,0,0,1,0-.18.38.38,0,0,1,.37-.37.42.42,0,0,1,.24.09.36.36,0,0,0,.39.09.38.38,0,0,0,.25-.32.92.92,0,0,1,.94-.82,1,1,0,0,1,1,1,1.1,1.1,0,0,1,0,.18.36.36,0,0,0,.29.42.33.33,0,0,0,.17,0,.74.74,0,0,1,.88.57.75.75,0,0,1-.58.89h-4a.47.47,0,0,1-.49-.46Zm4.35,1.26a1.5,1.5,0,0,0,.76-2.81l.6-1.14,1.91,3.62a2.36,2.36,0,0,0-2.16.63,1.62,1.62,0,0,1-2.07.17l.26-.49h.7ZM7.72,12.3a2.4,2.4,0,0,0,3-.32,1.62,1.62,0,0,1,2.25,0l1.74,3.28-3.72,7H2.46Zm9.82,10H11.81l3-5.66a2.13,2.13,0,0,0,2.65-.3,1.42,1.42,0,0,1,1.95,0l3.15,6h-5Z" transform="translate(0 0)" fill="#fff"/><path d="M14.28,8H18a1.23,1.23,0,0,0,1.23-1.23,1.33,1.33,0,0,0,0-.28h2.6a1.23,1.23,0,0,0,1.23-1.23,1.24,1.24,0,0,0-.62-1.07V4.05A1.09,1.09,0,0,0,21.35,3h0l-.25,0a1.69,1.69,0,0,0-3.21.54A1.67,1.67,0,0,0,17,4a1.66,1.66,0,0,0-1.19-.5,1.7,1.7,0,0,0-1.68,1.55A1.47,1.47,0,0,0,14.28,8Zm3.79-3.72.14,0a.33.33,0,0,0,.33-.09.38.38,0,0,0,.11-.33.55.55,0,0,1,0-.18.93.93,0,0,1,1.86-.12.34.34,0,0,0,.25.3.37.37,0,0,0,.38-.07.41.41,0,0,1,.23-.09.35.35,0,0,1,.35.35.41.41,0,0,1-.05.18.35.35,0,0,0,0,.33.45.45,0,0,0,.26.23.45.45,0,0,1,.39.46.49.49,0,0,1-.47.49H18.07A.74.74,0,0,1,17.35,5h0a.74.74,0,0,1,.72-.74ZM14.28,5.81a.22.22,0,0,1,.14,0,.4.4,0,0,0,.46-.31.38.38,0,0,0,0-.15V5.21a.93.93,0,0,1,.92-.93.94.94,0,0,1,.83.51.39.39,0,0,0,0,.21,1.48,1.48,0,0,0,1.47,1.49h.34a.42.42,0,0,1,.1.28.48.48,0,0,1-.47.48H14.28a.72.72,0,1,1,0-1.44Z" transform="translate(0 0)" fill="#fff"/></svg>