<svg id="Layer_1" data-name="Layer 1" xmlns="http://www.w3.org/2000/svg" viewBox="0 0 25 25"><title>ic-taka-white</title><rect width="25" height="25" fill="none"/><path d="M10.88,14.81a.41.41,0,0,0,.38-.39v-7a3.08,3.08,0,0,0-6.16,0,.39.39,0,0,0,.37.39h0a.38.38,0,0,0,.38-.39,2.32,2.32,0,0,1,4.64,0v7.05A.4.4,0,0,0,10.88,14.81Z" transform="translate(0 0)" fill="#fff"/><path d="M12.79,14.43h0a.38.38,0,0,0,.37-.38h0V8.5h0a5,5,0,0,1,10.09,0v1.55a.38.38,0,1,0,.76,0V8.5a5.8,5.8,0,0,0-11.59,0h0V14a.36.36,0,0,0,.36.38Z" transform="translate(0 0)" fill="#fff"/><path d="M1.37,9.1a.38.38,0,0,0,.37-.38h0V7.07a5.34,5.34,0,0,1,10-2.67.4.4,0,0,0,.52.15A.39.39,0,0,0,12.35,4,6.1,6.1,0,0,0,1,7.07V8.72a.38.38,0,0,0,.38.38Z" transform="translate(0 0)" fill="#fff"/><path d="M14.32,8.5v5.93a.38.38,0,0,0,.76,0V8.5a1.71,1.71,0,1,1,3.41,0,.38.38,0,0,0,.75,0,2.46,2.46,0,1,0-4.92,0Z" transform="translate(0 0)" fill="#fff"/><path d="M20.24,11a1.37,1.37,0,1,0-1.37,1.36A1.36,1.36,0,0,0,20.24,11Zm-1.36.6a.61.61,0,1,1,0-1.21.61.61,0,0,1,.62.6h0a.59.59,0,0,1-.58.6h0Z" transform="translate(0 0)" fill="#fff"/><path d="M5.48,8.54A1.36,1.36,0,1,0,6.85,9.89,1.36,1.36,0,0,0,5.48,8.54Zm0,2a.61.61,0,0,1-.61-.61.61.61,0,0,1,.61-.61h0a.61.61,0,0,1,.61.59v0a.62.62,0,0,1-.6.61Z" transform="translate(0 0)" fill="#fff"/><path d="M1.36,9.87a1.36,1.36,0,1,0,1.37,1.36A1.35,1.35,0,0,0,1.36,9.87Zm0,2a.59.59,0,0,1-.6-.59h0a.61.61,0,0,1,.64-.58.59.59,0,0,1,.58.58.6.6,0,0,1-.6.6Z" transform="translate(0 0)" fill="#fff"/><path d="M4.43,12.55a1.36,1.36,0,0,0,0,2.71,1.37,1.37,0,0,0,1.35-1.37h0A1.35,1.35,0,0,0,4.43,12.55Zm0,1.94a.58.58,0,0,1-.59-.6.6.6,0,0,1,.6-.6.62.62,0,0,1,.6.6.6.6,0,0,1-.6.6Z" transform="translate(0 0)" fill="#fff"/><path d="M23.64,11.2A1.37,1.37,0,1,0,25,12.56a1.36,1.36,0,0,0-1.36-1.36Zm0,2a.61.61,0,0,1-.61-.61.59.59,0,0,1,.59-.6h0a.61.61,0,0,1,0,1.21Z" transform="translate(0 0)" fill="#fff"/><path d="M20.58,13.1a1.37,1.37,0,0,0,0,2.74,1.37,1.37,0,0,0,0-2.74Zm0,2a.6.6,0,0,1-.61-.59v0a.61.61,0,0,1,.61-.61.61.61,0,1,1,0,1.22Z" transform="translate(0 0)" fill="#fff"/><path d="M12.8,15.47a4.77,4.77,0,1,0,4.77,4.77A4.77,4.77,0,0,0,12.8,15.47Zm0,8.78a4,4,0,1,1,4-4h0A4,4,0,0,1,12.8,24.25Z" transform="translate(0 0)" fill="#fff"/><path d="M12.76,21.57s0,.05,0,.05h-.56l-.05,0s0,0,0-.06l-.62-1.12H11.2l-.18,0v1.14a.09.09,0,0,1-.08.09h-.46a.08.08,0,0,1-.08-.08v-2.9a.11.11,0,0,1,0-.1.11.11,0,0,1,.11,0c.11,0,.25,0,.39,0l.46,0a2,2,0,0,1,.48.05,1.49,1.49,0,0,1,.4.15,1,1,0,0,1,.27.3,1,1,0,0,1,.11.46v0a.85.85,0,0,1-.59.86l.69,1.23Zm-.71-2.16a.41.41,0,0,0-.15-.35.8.8,0,0,0-.5-.11H11v1h.39a1,1,0,0,0,.5-.11.52.52,0,0,0,.17-.39Zm3.2,1.19a1.16,1.16,0,0,1-.25.8,1,1,0,0,1-.8.27H14l-.22,0v.76a.09.09,0,0,1-.08.08h-.42a.08.08,0,0,1-.09-.07V19.48a.14.14,0,0,1,0-.07l.1-.05a1.28,1.28,0,0,1,.43-.1,2.07,2.07,0,0,1,.43,0,.94.94,0,0,1,1.06,1.07Zm-.57-.33a1.64,1.64,0,0,0,0-.23,1.18,1.18,0,0,0-.07-.2.29.29,0,0,0-.15-.12.59.59,0,0,0-.23,0,1,1,0,0,0-.24,0l-.19,0v1.48a.82.82,0,0,0,.22,0l.2,0a.59.59,0,0,0,.23-.05.4.4,0,0,0,.15-.14.68.68,0,0,0,.07-.2,1.94,1.94,0,0,0,0-.24v-.34Z" transform="translate(0 0)" fill="#fff"/></svg>