<svg id="Layer_1" data-name="Layer 1" xmlns="http://www.w3.org/2000/svg" viewBox="0 0 48.21 30.01"><title>ic-transfer</title><path d="M24.3,0a13.43,13.43,0,0,0-9.73,3.69c-1.27,1,.12,2.62,1.4,1.4A11.77,11.77,0,0,1,24.3,2h0A13.08,13.08,0,0,1,37.4,15.06v0a11.86,11.86,0,0,1-.49,3.79c-.24,1.21,1.38,1.7,2,.2a13.12,13.12,0,0,0,.49-4A15.21,15.21,0,0,0,24.3,0Zm0,28.1A13.15,13.15,0,0,1,11.2,15a7.86,7.86,0,0,1,.62-3.35,1,1,0,1,0-2,0A9.55,9.55,0,0,0,9.3,15a14.94,14.94,0,0,0,25,11.1c.4-.4,0-2.1-1.5-1.2A13,13,0,0,1,24.3,28.1Z" transform="translate(0 0.01)" fill="#fff"/><path d="M17.4,7H3.8l.8-.9h0a1.11,1.11,0,0,0-.07-1.58l0,0-.1-.1A1,1,0,0,0,3,4.41L2.9,4.5.3,7.3A1.07,1.07,0,0,0,.1,8.5c.1.2.2.3.3.5l2.4,2.7a1.87,1.87,0,0,0,.9.5c.43,0,.5-.2.8-.4h0a1.11,1.11,0,0,0,.13-1.57l0,0-.9-1H17.5a1.1,1.1,0,0,0,1.1-1.1A1.2,1.2,0,0,0,17.4,7Z" transform="translate(0 0.01)" fill="#fff"/><path d="M48.1,22.7a1,1,0,0,0-.2-1.2l-2.6-2.8a1.22,1.22,0,0,0-1.6-.1l-.1.1a1.12,1.12,0,0,0-.12,1.57l0,0h0l.8.9H30.7a1.1,1.1,0,0,0,0,2.2H44.5l-.9,1A1.12,1.12,0,0,0,43.68,26l0,0h0a1.07,1.07,0,0,0,.8.1,1.33,1.33,0,0,0,.8-.4l2.42-2.46A4,4,0,0,0,48.1,22.7Z" transform="translate(0 0.01)" fill="#fff"/><path d="M24.23,18.77c0,.05-.05.12-.08.12H22.82a.16.16,0,0,1-.12,0,.26.26,0,0,1-.07-.15L21.12,16H20.5l-.44,0v2.75a.21.21,0,0,1-.19.21H18.78a.23.23,0,0,1-.22-.18v-7a.43.43,0,0,1,.07-.25.28.28,0,0,1,.26-.05,8,8,0,0,1,.92-.07c.33,0,.72-.05,1.11-.05a5.54,5.54,0,0,1,1.15.12,2.56,2.56,0,0,1,1,.37,2,2,0,0,1,.66.7A2.36,2.36,0,0,1,24,13.63v.07a2,2,0,0,1-1.41,2.07l1.64,3Zm-1.69-5.19a1,1,0,0,0-.38-.84,1.87,1.87,0,0,0-1.2-.26H20v2.3H21a2.58,2.58,0,0,0,1.19-.26,1.15,1.15,0,0,0,.4-.94Zm7.67,2.88a2.8,2.8,0,0,1-.6,1.91,2.35,2.35,0,0,1-1.92.66h-.46c-.16,0-.34,0-.54,0V20.8a.22.22,0,0,1-.19.22h-1a.21.21,0,0,1-.19-.2V13.75a.3.3,0,0,1,.05-.16.9.9,0,0,1,.24-.12,3.35,3.35,0,0,1,1-.24,4,4,0,0,1,1,0,2.49,2.49,0,0,1,1.91.66,2.56,2.56,0,0,1,.6,1.91Zm-1.4-.81a2.69,2.69,0,0,0,0-.56,1.63,1.63,0,0,0-.16-.47.79.79,0,0,0-.34-.29,1.5,1.5,0,0,0-.55-.11,1.94,1.94,0,0,0-.59,0,2.28,2.28,0,0,0-.45,0v3.55a1.53,1.53,0,0,0,.52,0,4,4,0,0,0,.49,0,1.3,1.3,0,0,0,.55-.12.68.68,0,0,0,.34-.33,1,1,0,0,0,.16-.47,1.94,1.94,0,0,0,0-.59l0-.78Z" transform="translate(0 0.01)" fill="#fff"/></svg>