<svg id="Layer_1" data-name="Layer 1" xmlns="http://www.w3.org/2000/svg" viewBox="0 0 24 24"><title>ic-chat</title><rect width="24" height="24" fill="none"/><path d="M17.45,2.4H1.35A1.36,1.36,0,0,0,0,3.75v9.66a1.34,1.34,0,0,0,1.35,1.35h1v3.6a.57.57,0,0,0,.57.57.56.56,0,0,0,.4-.17l4-4h.8a.57.57,0,0,0,0-1.13H7.09a.62.62,0,0,0-.36.16L3.53,17V14.15A.57.57,0,0,0,3,13.63H1.35a.22.22,0,0,1-.22-.22h0V3.75a.22.22,0,0,1,.22-.22h16.1a.22.22,0,0,1,.22.22h0V7.46a.57.57,0,0,0,1.13,0V3.75A1.35,1.35,0,0,0,17.45,2.4Z" transform="translate(0 0)" fill="#fff"/><path d="M22.65,9.33H11.38A1.34,1.34,0,0,0,10,10.68v6.59a1.36,1.36,0,0,0,1.35,1.35h7l2.86,2.85a.57.57,0,0,0,.8,0,.54.54,0,0,0,.17-.4V18.62h.39A1.36,1.36,0,0,0,24,17.27V10.68A1.35,1.35,0,0,0,22.65,9.33Zm.22,7.94a.21.21,0,0,1-.22.21h-1a.57.57,0,0,0-.56.53v1.7l-2.06-2.06h0l0,0a.55.55,0,0,0-.37-.14H11.38a.22.22,0,0,1-.22-.22V10.68a.22.22,0,0,1,.22-.22H22.65a.22.22,0,0,1,.22.22Z" transform="translate(0 0)" fill="#fff"/><path d="M17,13.41a.56.56,0,0,0-.56.56.57.57,0,1,0,1.13,0,.56.56,0,0,0-.57-.56Z" transform="translate(0 0)" fill="#fff"/><path d="M14.55,6.14H4.25a.57.57,0,0,0,0,1.14h10.3a.57.57,0,0,0,0-1.14Z" transform="translate(0 0)" fill="#fff"/><path d="M8.16,9.89H4.25a.57.57,0,0,0-.57.56.58.58,0,0,0,.57.57H8.16a.58.58,0,0,0,.57-.57A.57.57,0,0,0,8.16,9.89Z" transform="translate(0 0)" fill="#fff"/><path d="M14.38,13.41a.56.56,0,0,0-.56.56A.57.57,0,1,0,15,14a.56.56,0,0,0-.57-.56Z" transform="translate(0 0)" fill="#fff"/><path d="M19.64,13.41a.56.56,0,0,0-.56.56.57.57,0,1,0,1.13,0,.56.56,0,0,0-.57-.56Z" transform="translate(0 0)" fill="#fff"/></svg>