<svg id="Layer_1" data-name="Layer 1" xmlns="http://www.w3.org/2000/svg" viewBox="0 0 20.42 25"><title>ic-help-active</title><path d="M17.08,20.13h-1.9l-5,4.58-5-4.58H3.34a3,3,0,0,1-3-3.05h0V3.34a3,3,0,0,1,3.05-3H17.08a3.05,3.05,0,0,1,3.06,3.05h0V17.08a3,3,0,0,1-3.05,3.05Z" transform="translate(0 0)" fill="#096d5c"/><path d="M10.21,25a.27.27,0,0,1-.19-.08l-4.88-4.5H3.34A3.33,3.33,0,0,1,0,17.08V3.34A3.34,3.34,0,0,1,3.34,0H17.08a3.35,3.35,0,0,1,3.34,3.34V17.08a3.35,3.35,0,0,1-3.34,3.34h-1.8l-4.88,4.5A.27.27,0,0,1,10.21,25ZM3.34.57A2.77,2.77,0,0,0,.58,3.34V17.08a2.77,2.77,0,0,0,2.76,2.77H5.25a.31.31,0,0,1,.2.07l4.76,4.4L15,19.92a.27.27,0,0,1,.2-.07h1.9a2.77,2.77,0,0,0,2.77-2.77V3.34A2.77,2.77,0,0,0,17.08.57Z" transform="translate(0 0)" fill="#096d5c"/><path d="M18.61,12.4a.29.29,0,0,1-.28-.28V7.23A.28.28,0,0,1,18.61,7a.28.28,0,0,1,.29.28h0v4.89A.29.29,0,0,1,18.61,12.4Z" transform="translate(0 0)" fill="#096d5c"/><path d="M18.61,15.53a.28.28,0,0,1-.28-.28v-1.6a.29.29,0,0,1,.57,0h0v1.6a.28.28,0,0,1-.28.28Z" transform="translate(0 0)" fill="#096d5c"/><path d="M7.4,6.91A1.33,1.33,0,0,1,6.07,8.25l-.19,0a1.34,1.34,0,0,0,1.89,0,1.37,1.37,0,0,0,.4-1,2,2,0,0,1,2-2,1.68,1.68,0,0,1,.5.07,2,2,0,0,0-2.86.31A2.06,2.06,0,0,0,7.4,6.92Z" transform="translate(0 0)" fill="#bdc3d8"/><path d="M10.21,2.58A4.71,4.71,0,0,0,5.5,7.29a1.34,1.34,0,1,0,2.67,0,2,2,0,0,1,4.09,0c0,.73-.28,1-1.08,1.56a4.56,4.56,0,0,0-2.3,4v.52a1.34,1.34,0,0,0,2.67,0v-.52c0-.93.34-1.22,1.2-1.84a4.31,4.31,0,0,0,2.18-3.72A4.71,4.71,0,0,0,10.21,2.58Z" transform="translate(0 0)" fill="#fff"/><path d="M10.22,16.54a1.34,1.34,0,0,0-1.34,1.34h0V18a1.34,1.34,0,0,0,2.67,0v-.16A1.33,1.33,0,0,0,10.22,16.54Z" transform="translate(0 0)" fill="#fff"/></svg>