<svg id="Layer_1" data-name="Layer 1" xmlns="http://www.w3.org/2000/svg" viewBox="0 0 25 25"><title>ic-cendika-white</title><rect width="25" height="25" fill="none"/><path d="M11.08,10a.41.41,0,0,1-.16,0L.25,5.65A.39.39,0,0,1,0,5.13a.4.4,0,0,1,.22-.22L13.3,0a.37.37,0,0,1,.29,0L24.73,4A.4.4,0,0,1,25,4.5a.42.42,0,0,1-.23.24L11.23,10ZM1.51,5.3l9.57,3.9L23.44,4.38,13.45.83Z" transform="translate(0 0)" fill="#fff"/><path d="M8.52,19.08h0a10.78,10.78,0,0,1-3.6-1,.39.39,0,0,1-.21-.35V7.26a.41.41,0,0,1,.82,0V17.45a10,10,0,0,0,3.08.83.39.39,0,0,1,.36.43h0A.42.42,0,0,1,8.52,19.08Z" transform="translate(0 0)" fill="#fff"/><path d="M1.71,10.69a.41.41,0,0,1-.41-.4V6a.41.41,0,0,1,.82,0v4.32A.41.41,0,0,1,1.71,10.69Z" transform="translate(0 0)" fill="#fff"/><path d="M1.71,13.62C.92,13.62.3,12.8.3,11.75S.92,9.89,1.71,9.89s1.41.82,1.41,1.86S2.5,13.62,1.71,13.62Zm0-2.93c-.28,0-.59.45-.59,1.06s.31,1.07.59,1.07.59-.46.59-1.07S2,10.69,1.71,10.69Z" transform="translate(0 0)" fill="#fff"/><path d="M19.33,9.6a.42.42,0,0,1-.41-.4V6.41a.41.41,0,1,1,.82,0V9.2A.4.4,0,0,1,19.33,9.6Z" transform="translate(0 0)" fill="#fff"/><path d="M8,21.49a.44.44,0,0,1-.34-.16.41.41,0,0,1,.09-.55h0l9.75-6.7a.41.41,0,0,1,.57.1.39.39,0,0,1-.09.55h0l-9.74,6.7A.41.41,0,0,1,8,21.49Z" transform="translate(0 0)" fill="#fff"/><path d="M9.36,25a2.52,2.52,0,0,1-1.6-.54,2.57,2.57,0,0,1-.94-2,2,2,0,0,1,2-2,1.43,1.43,0,0,1,1.46,1.41.41.41,0,1,1-.82,0,.64.64,0,0,0-.64-.62,1.19,1.19,0,0,0-1.13,1.21,1.73,1.73,0,0,0,.64,1.39,1.9,1.9,0,0,0,1.57.31c.89-.17,1-.71.9-1.9,0-.17,0-.36,0-.53a.39.39,0,0,1,.16-.32l4.24-3.1a.42.42,0,0,1,.58.08.4.4,0,0,1-.07.55h0l-4.06,3c0,.1,0,.2,0,.3a4.15,4.15,0,0,1-.13,1.57A1.73,1.73,0,0,1,10,24.94,3.49,3.49,0,0,1,9.36,25Z" transform="translate(0 0)" fill="#fff"/><path d="M10.78,24.53a.4.4,0,0,1-.26-.71h0l6.16-4.53a2.5,2.5,0,0,0-2.46-2h0a.39.39,0,0,1-.4-.4.4.4,0,0,1,.4-.4,4,4,0,0,1,1.51.34,3.09,3.09,0,0,1,1.81,2.55.38.38,0,0,1-.16.37L11,24.45A.44.44,0,0,1,10.78,24.53Z" transform="translate(0 0)" fill="#fff"/><path d="M18.18,17.31a.39.39,0,0,1-.35-.2A2.51,2.51,0,0,0,15.94,16a.4.4,0,0,1,0-.8,3.32,3.32,0,0,1,2.56,1.51.39.39,0,0,1-.14.54h0A.46.46,0,0,1,18.18,17.31Z" transform="translate(0 0)" fill="#fff"/><path d="M12,16.66A18.93,18.93,0,0,1,4.9,15.28a.4.4,0,0,1-.2-.53h0a.42.42,0,0,1,.55-.2,18.44,18.44,0,0,0,7,1.31h0a.39.39,0,0,1,.4.39.4.4,0,0,1-.4.41H12Z" transform="translate(0 0)" fill="#fff"/><path d="M21.71,13.39a1.37,1.37,0,0,0,1-1.41v-.05a1.63,1.63,0,0,0-.18-.75,1.32,1.32,0,0,0-.46-.48,1.86,1.86,0,0,0-.68-.25,4.26,4.26,0,0,0-.8-.08c-.28,0-.55,0-.78,0s-.47,0-.65,0a.17.17,0,0,0-.17,0,.22.22,0,0,0-.05.17v4.76a.15.15,0,0,0,.15.13h.76a.16.16,0,0,0,.13-.15V13.52l.31,0h.44l1.05,1.84.05.1.09,0h.93s.05,0,.05-.08l0,0Zm0-1.49h0a.74.74,0,0,1-.28.63,1.74,1.74,0,0,1-.84.18H20V11.15h.66a1.38,1.38,0,0,1,.84.17.72.72,0,0,1,.26.58Z" transform="translate(0 0)" fill="#fff"/><path d="M22.89,18.53l0-.54a1.93,1.93,0,0,0-.47-1.45,2,2,0,0,0-1.5-.5,3.66,3.66,0,0,0-.81,0,2.52,2.52,0,0,0-.81.19.42.42,0,0,0-.19.09.16.16,0,0,0,0,.12v5.38a.15.15,0,0,0,.15.15H20a.16.16,0,0,0,.14-.16V20.46c.16,0,.3,0,.43,0h.37a1.89,1.89,0,0,0,1.5-.5A2.14,2.14,0,0,0,22.89,18.53Zm-1.09-.62,0,.59a1.68,1.68,0,0,1,0,.45.85.85,0,0,1-.12.36.75.75,0,0,1-.27.26,1.26,1.26,0,0,1-.43.08c-.12,0-.26,0-.38,0a1.39,1.39,0,0,1-.41,0V16.88a2.07,2.07,0,0,1,.35,0,1.78,1.78,0,0,1,.46,0,1,1,0,0,1,.43.09.64.64,0,0,1,.27.22,1.09,1.09,0,0,1,.12.36,2,2,0,0,1,0,.43Z" transform="translate(0 0)" fill="#fff"/></svg>