<svg id="Layer_1" data-name="Layer 1" xmlns="http://www.w3.org/2000/svg" viewBox="0 0 25 25"><title>ic-ezhajj-white</title><path d="M12.82,5.81l-.31,0h0l-.31,0V20.19a.37.37,0,0,0,.31.36l-.31,0v.58l.31,0h0a.32.32,0,0,1,.28.22.27.27,0,0,1,0,.12V5.81ZM24.7,1.41,12.55,0h0a.08.08,0,0,0-.07,0l-.06,0a.38.38,0,0,0-.21.35v24.2a.46.46,0,0,0,.11.29.29.29,0,0,0,.22.1h.11l4.25-.36,4.51-.4h0l3.3-.29a.38.38,0,0,0,.31-.39V1.8a.37.37,0,0,0-.3-.39Zm-.37,21.76-1,.09-.66,0-1,.1-.33,0-.34,0-3.8.32-.33,0-.33,0L15.11,24l-.67.06-1.59.14V.82L24.33,2.16Z" transform="translate(0 0)" fill="#fff"/><path d="M24.7,4l-.36,0-11.49-1h0l-.27,0h-.07a.37.37,0,0,0-.19.09.31.31,0,0,0-.1.24V4.62a.33.33,0,0,0,.3.33h0l.31,0h0l11.48.94.31,0h0A.34.34,0,0,0,25,5.62V4.32A.35.35,0,0,0,24.7,4Zm-.36,1.27-11.49-1V3.59l11.48,1Z" transform="translate(0 0)" fill="#fff"/><path d="M24.7,7.39l-.36,0-11.49-1h0l-.28,0h-.06a.37.37,0,0,0-.19.09.31.31,0,0,0-.1.25V8a.33.33,0,0,0,.28.33h0l.33,0h0l11.48.94.31,0h0A.34.34,0,0,0,25,9h0V7.72A.35.35,0,0,0,24.7,7.39Zm-.36,1.27L12.85,7.72V7L24.33,8Z" transform="translate(0 0)" fill="#fff"/><path d="M16.89,19.53l.33,0v.67l-.33,0-.33,0-1.45.1-.67.05-1.59.11h0l-.28,0h0a.34.34,0,0,1-.31-.31v0a.36.36,0,0,1,.31-.34h0l.28,0h0l3.71-.26Z" transform="translate(0 0)" fill="#fff"/><path d="M25,19.31v0a.33.33,0,0,1-.31.33l-.36,0-1,.07-.67.05-1,.07-.33,0-.34,0v-.66l.34,0,.33,0L24.33,19l.31,0A.34.34,0,0,1,25,19.31Z" transform="translate(0 0)" fill="#fff"/><path d="M16.89,21.39l.33,0V22l-.33,0-.33,0-.78.06-.67,0-.92.07-.67,0-.67.05h0l-.28,0h0a.34.34,0,0,1-.31-.31v0a.34.34,0,0,1,.31-.34h0l.28,0h0l1.59-.11.67,0,1.45-.1Z" transform="translate(0 0)" fill="#fff"/><path d="M25,21.17v0a.34.34,0,0,1-.31.33l-.36,0-.3,0-.67,0-.91.06-.67,0h-.09l-.33,0-.34,0v-.66l.34,0,.33,0,1-.07.67,0,1-.07.31,0a.32.32,0,0,1,.36.3Z" transform="translate(0 0)" fill="#fff"/><path d="M16.89,22.7l.33,0v.67l-.33,0-.33,0-1.45.09-.67.05-1.59.11h0l-.28,0h0a.36.36,0,0,1-.31-.31v0a.35.35,0,0,1,.31-.34h0l.28,0h0l.67-.05.67-.05.92-.06.67,0,.78-.06Z" transform="translate(0 0)" fill="#fff"/><path d="M25,22.48v0a.35.35,0,0,1-.31.34l-.36,0-1,.07-.67.05-1,.06-.33,0-.34,0v-.67l.34,0,.33,0h.09l.67-.05.91-.06.67-.05.3,0,.31,0A.34.34,0,0,1,25,22.48Z" transform="translate(0 0)" fill="#fff"/><path d="M19.22,16.59h-.11a2.23,2.23,0,0,0-2.22,2.13v5.6L21.36,24V18.82A2.23,2.23,0,0,0,19.22,16.59ZM21,23.68l-3.8.28V18.82a1.9,1.9,0,0,1,1.9-1.9h.09A1.89,1.89,0,0,1,21,18.82Z" transform="translate(0 0)" fill="#fff"/><path d="M16.89,21.38v.67l.33,0v-.67Zm2.28-5.08a2.55,2.55,0,0,0-2.61,2.51h0v5.5a.35.35,0,0,0,.1.25.4.4,0,0,0,.21.09h0s0,0,0,0l4.46-.34h0a.33.33,0,0,0,.3-.33V18.82A2.58,2.58,0,0,0,19.17,16.3ZM21,23.68l-3.8.28V18.82a1.9,1.9,0,0,1,1.9-1.9h.09A1.89,1.89,0,0,1,21,18.82Z" transform="translate(0 0)" fill="#fff"/><path d="M23,20.93a.32.32,0,0,1-.33-.32h0V19.53A.33.33,0,0,1,23,19.2h0a.33.33,0,0,1,.33.33v1.06A.34.34,0,0,1,23,20.93Z" transform="translate(0 0)" fill="#fff"/><path d="M23,23.85a.32.32,0,0,1-.33-.32h0V22.7a.32.32,0,0,1,.31-.33h0a.33.33,0,0,1,.33.33v.81a.33.33,0,0,1-.33.34Z" transform="translate(0 0)" fill="#fff"/><path d="M22.11,22.92a.34.34,0,0,1-.33-.34h0V21.52a.34.34,0,0,1,.67,0h0v1.06a.34.34,0,0,1-.33.34Z" transform="translate(0 0)" fill="#fff"/><path d="M23.69,22.81a.35.35,0,0,1-.33-.34h0V21.41a.34.34,0,1,1,.67,0h0v1.06a.33.33,0,0,1-.33.34Z" transform="translate(0 0)" fill="#fff"/><path d="M14.77,22.13a.35.35,0,0,1-.33-.34h0V20.73a.33.33,0,0,1,.66,0v1.06a.31.31,0,0,1-.3.33Z" transform="translate(0 0)" fill="#fff"/><path d="M14.77,24.55a.34.34,0,0,1-.33-.33v-.95a.33.33,0,1,1,.66,0v.94a.33.33,0,0,1-.3.34Z" transform="translate(0 0)" fill="#fff"/><path d="M13.86,23.49a.33.33,0,0,1-.33-.34h0V22.09a.32.32,0,0,1,.33-.34.34.34,0,0,1,.34.33h0v1.06A.35.35,0,0,1,13.86,23.49Z" transform="translate(0 0)" fill="#fff"/><path d="M15.45,23.38a.35.35,0,0,1-.34-.34h0V22a.32.32,0,0,1,.32-.35.33.33,0,0,1,.35.32v1.1a.35.35,0,0,1-.34.33Z" transform="translate(0 0)" fill="#fff"/><path d="M12.54,21.13h0l-.31,0v-.58l.31,0a.37.37,0,0,1-.31-.36V8.58h0v13.3h0l.31,0h0a.3.3,0,0,0,.28-.22v-.34A.31.31,0,0,0,12.54,21.13Zm.17-21A.33.33,0,0,0,12.45,0h-.06L.3,1.44a.37.37,0,0,0-.3.39V23.55a.36.36,0,0,0,.31.39L12.46,25h0l.13,0h0l.09-.06a.46.46,0,0,0,.11-.29V.41A.41.41,0,0,0,12.71.13ZM12.15,24.2l-1.56-.14L9.92,24l-1-.08-.67-.06-.9-.08-.67-.06-.92-.09-.67-.05-1-.08-.67-.06-1.1-.11-.66,0-1-.1v-21L12.15.83Z" transform="translate(0 0)" fill="#fff"/><path d="M12.51,20.5h0L.34,19.66A.32.32,0,0,1,0,19.32H0A.33.33,0,0,1,.38,19h0l12.15.83a.33.33,0,0,1,.31.35h0A.32.32,0,0,1,12.51,20.5Z" transform="translate(0 0)" fill="#fff"/><path d="M12.51,22.35h0L.34,21.51A.32.32,0,0,1,0,21.17H0a.33.33,0,0,1,.35-.31h0l12.15.83a.33.33,0,0,1,.32.34h0a.32.32,0,0,1-.33.32Z" transform="translate(0 0)" fill="#fff"/><path d="M12.51,23.67h0L.34,22.83A.33.33,0,0,1,0,22.48H0a.33.33,0,0,1,.35-.31h0L12.53,23a.34.34,0,0,1,.33.34A.34.34,0,0,1,12.51,23.67Z" transform="translate(0 0)" fill="#fff"/><path d="M2,20.93a.33.33,0,0,1-.33-.34h0V19.53A.33.33,0,0,1,2,19.2H2a.34.34,0,0,1,.34.33h0v1.06A.36.36,0,0,1,2,20.93Z" transform="translate(0 0)" fill="#fff"/><path d="M2,23.85a.33.33,0,0,1-.33-.34h0V22.7A.33.33,0,0,1,2,22.37a.35.35,0,0,1,.34.33v.81a.34.34,0,0,1-.33.34Z" transform="translate(0 0)" fill="#fff"/><path d="M2.91,22.92a.33.33,0,0,1-.33-.34h0V21.52a.33.33,0,0,1,.33-.33.35.35,0,0,1,.34.33v1.06a.34.34,0,0,1-.33.34Z" transform="translate(0 0)" fill="#fff"/><path d="M1.33,22.81A.33.33,0,0,1,1,22.47H1V21.41a.33.33,0,0,1,.33-.33.34.34,0,0,1,.34.33v1.06a.34.34,0,0,1-.34.34Z" transform="translate(0 0)" fill="#fff"/><path d="M6.18,23.12a.35.35,0,0,1-.33-.34h0V21.72a.34.34,0,0,1,.33-.33.33.33,0,0,1,.34.33v1.06A.35.35,0,0,1,6.18,23.12Z" transform="translate(0 0)" fill="#fff"/><path d="M7.76,23.18a.33.33,0,0,1-.33-.34h0V21.78a.34.34,0,0,1,.67,0v1.06A.35.35,0,0,1,7.76,23.18Z" transform="translate(0 0)" fill="#fff"/><path d="M4.6,23a.32.32,0,0,1-.33-.34h0V21.6a.33.33,0,0,1,.33-.33.35.35,0,0,1,.34.33v1.06A.34.34,0,0,1,4.6,23Z" transform="translate(0 0)" fill="#fff"/><path d="M3.76,21.07a.33.33,0,0,1-.33-.34h0V19.67a.33.33,0,0,1,.33-.33.35.35,0,0,1,.34.33v1.06a.34.34,0,0,1-.33.34Z" transform="translate(0 0)" fill="#fff"/><path d="M7,21.87a.34.34,0,0,1-.33-.34h0V20.47a.34.34,0,1,1,.67,0h0v1.06a.34.34,0,0,1-.33.34Z" transform="translate(0 0)" fill="#fff"/><path d="M8.6,22a.35.35,0,0,1-.33-.34h0V20.6a.33.33,0,0,1,.33-.33.32.32,0,0,1,.33.32h0v1.06a.32.32,0,0,1-.3.34Z" transform="translate(0 0)" fill="#fff"/><path d="M5.45,21.17a.33.33,0,0,1-.33-.34h0V19.77a.32.32,0,0,1,.33-.33.34.34,0,0,1,.34.33v1.06a.35.35,0,0,1-.34.34Z" transform="translate(0 0)" fill="#fff"/><path d="M3.76,24.22a.33.33,0,0,1-.33-.34h0V22.82a.33.33,0,0,1,.33-.33.35.35,0,0,1,.34.33h0v1.06a.34.34,0,0,1-.33.34Z" transform="translate(0 0)" fill="#fff"/><path d="M7,24.42a.34.34,0,0,1-.33-.34h0V23a.34.34,0,1,1,.67,0h0v1.06a.35.35,0,0,1-.33.34Z" transform="translate(0 0)" fill="#fff"/><path d="M8.6,24.55a.35.35,0,0,1-.33-.34h0V23.15a.33.33,0,0,1,.33-.33.32.32,0,0,1,.33.32h0v1.06a.32.32,0,0,1-.3.34Z" transform="translate(0 0)" fill="#fff"/><path d="M5.45,24.3A.32.32,0,0,1,5.12,24h0V22.9a.33.33,0,0,1,.33-.33.35.35,0,0,1,.34.33h0V24a.34.34,0,0,1-.34.34Z" transform="translate(0 0)" fill="#fff"/><path d="M10.39,22.21a.35.35,0,0,1-.33-.34h0V20.81a.34.34,0,1,1,.67,0h0v1.06a.33.33,0,0,1-.33.34Z" transform="translate(0 0)" fill="#fff"/><path d="M10.25,24.55a.34.34,0,0,1-.33-.33v-.95a.34.34,0,1,1,.67,0v.94a.35.35,0,0,1-.34.34Z" transform="translate(0 0)" fill="#fff"/><path d="M11.16,23.49a.34.34,0,0,1-.33-.34h0V22.09a.33.33,0,0,1,.33-.33h0a.33.33,0,0,1,.34.33h0v1.06A.34.34,0,0,1,11.16,23.49Z" transform="translate(0 0)" fill="#fff"/><path d="M9.57,23.37A.34.34,0,0,1,9.24,23h0V22a.34.34,0,0,1,.67,0V23a.32.32,0,0,1-.33.34Z" transform="translate(0 0)" fill="#fff"/><path d="M12.7,3a.46.46,0,0,0-.19-.08h-.06l-.27,0h0L.67,4,.3,4a.33.33,0,0,0-.3.33v1.3a.32.32,0,0,0,.11.24A.31.31,0,0,0,.33,6h0l.31,0L12.15,5h0l.31,0h0a.33.33,0,0,0,.3-.33V3.23A.36.36,0,0,0,12.7,3Zm-.55,1.33L.67,5.26V4.62l11.48-1Z" transform="translate(0 0)" fill="#fff"/><path d="M12.7,6.39a.34.34,0,0,0-.19-.09h-.06l-.27,0h0L.67,7.36l-.37,0a.33.33,0,0,0-.3.33V9a.33.33,0,0,0,.11.25.31.31,0,0,0,.22.09h0l.31,0,11.48-.94h0l.29,0h0a.33.33,0,0,0,.3-.33V6.63A.32.32,0,0,0,12.7,6.39Zm-.55,1.33L.67,8.66V8L12.15,7Z" transform="translate(0 0)" fill="#fff"/></svg>