<svg id="Layer_1" data-name="Layer 1" xmlns="http://www.w3.org/2000/svg" viewBox="0 0 25 25"><title>ic-loan-list</title><rect width="25" height="25" fill="none"/><path d="M18.45,18.35s-.05.13-.08.13H16.9a.18.18,0,0,1-.12-.05.28.28,0,0,1-.08-.15l-1.65-2.91h-.68l-.49,0v3a.25.25,0,0,1-.2.24H12.49a.25.25,0,0,1-.24-.2V10.78a.35.35,0,0,1,.08-.26.29.29,0,0,1,.28-.06c.28-.05.64-.05,1-.08s.79-.05,1.21-.05a7.47,7.47,0,0,1,1.26.13,2.84,2.84,0,0,1,1.06.4,2.24,2.24,0,0,1,.72.75,2.52,2.52,0,0,1,.28,1.2v.08a2.18,2.18,0,0,1-1.54,2.23l1.79,3.19ZM16.6,12.76a1.09,1.09,0,0,0-.42-.92,2.15,2.15,0,0,0-1.31-.27h-1v2.48h1a2.66,2.66,0,0,0,1.31-.27,1.24,1.24,0,0,0,.44-1h0ZM25,15.86a3,3,0,0,1-.66,2.06,2.56,2.56,0,0,1-2.09.71h-.51c-.17,0-.37,0-.6,0v1.95a.23.23,0,0,1-.2.23h-1.1a.21.21,0,0,1-.21-.21V12.93a.34.34,0,0,1,.05-.17.83.83,0,0,1,.27-.12,3.38,3.38,0,0,1,1.13-.26,4.27,4.27,0,0,1,1.13-.05,2.8,2.8,0,0,1,2.09.71A2.79,2.79,0,0,1,25,15.11ZM23.47,15a2.43,2.43,0,0,0,0-.6,1.91,1.91,0,0,0-.17-.51.93.93,0,0,0-.37-.31,1.57,1.57,0,0,0-.6-.12,2.35,2.35,0,0,0-.65,0,2.72,2.72,0,0,0-.49,0v3.83a1.83,1.83,0,0,0,.57,0c.17,0,.36,0,.53.05a1.74,1.74,0,0,0,.6-.13.88.88,0,0,0,.38-.36,1.28,1.28,0,0,0,.17-.51,2.24,2.24,0,0,0,.05-.63l0-.84Z" transform="translate(0 0)" fill="#096d5c"/><path d="M12.41,20.27a6.91,6.91,0,0,1-.81.24A8.39,8.39,0,0,1,1.51,14.42,8.24,8.24,0,0,1,7.63,4.51l.07,0a8.42,8.42,0,0,1,9.65,4.8c.18.74,1.44.44,1.26-.3A9.7,9.7,0,0,0,7.4,3.26,9.5,9.5,0,0,0,.25,14.64l0,.08a9.66,9.66,0,0,0,11.63,7c.28-.07.55-.15.82-.24C14,21.27,13.63,19.86,12.41,20.27Z" transform="translate(0 0)" fill="#096d5c"/><path d="M2.89,13.09H.58A.59.59,0,0,1,0,12.52H0a.58.58,0,0,1,.58-.58H2.89a.58.58,0,0,1,.58.57h0a.57.57,0,0,1-.57.58Z" transform="translate(0 0)" fill="#096d5c"/><path d="M9,5.86V3.59A.58.58,0,0,1,9.59,3h0a.58.58,0,0,1,.58.57h0V5.86a.57.57,0,0,1-.58.57h0A.57.57,0,0,1,9,5.86Z" transform="translate(0 0)" fill="#096d5c"/><path d="M9.73,8.27a.59.59,0,0,0-.59.57h0v3H7.38a.58.58,0,0,0,0,1.15H9.73a.57.57,0,0,0,.58-.57h0V8.85a.58.58,0,0,0-.58-.58Z" transform="translate(0 0)" fill="#096d5c"/><path d="M9.07,21.42V19.15a.58.58,0,0,1,.58-.58h0a.59.59,0,0,1,.59.57h0v2.27a.58.58,0,0,1-.58.57h0A.59.59,0,0,1,9.07,21.42Z" transform="translate(0 0)" fill="#096d5c"/></svg>