<svg id="Layer_1" data-name="Layer 1" xmlns="http://www.w3.org/2000/svg" viewBox="0 0 25 25"><title>ic-mikro-white</title><rect width="25" height="25" fill="none"/><path d="M12,20.29a6.74,6.74,0,0,1-3.55-1A10.29,10.29,0,0,1,5.6,16.6,12.84,12.84,0,0,1,3,9.18,9.09,9.09,0,0,1,12,0a9.09,9.09,0,0,1,9,9.18,12.84,12.84,0,0,1-2.6,7.42,10.25,10.25,0,0,1-2.85,2.64A6.66,6.66,0,0,1,12,20.29ZM12,.77A8.34,8.34,0,0,0,3.75,9.18a12.1,12.1,0,0,0,2.45,7,9.79,9.79,0,0,0,2.64,2.45,6.08,6.08,0,0,0,3.16.94,6.08,6.08,0,0,0,3.16-.94,9.79,9.79,0,0,0,2.64-2.45,12.1,12.1,0,0,0,2.45-7A8.34,8.34,0,0,0,12,.77Z" transform="translate(0 0)" fill="#fff"/><path d="M12,25a.38.38,0,0,1-.38-.38V19.91a.38.38,0,0,1,.76,0h0v4.71A.38.38,0,0,1,12,25Z" transform="translate(0 0)" fill="#fff"/><path d="M11.16,21.45a.37.37,0,0,1-.3-.61l.84-1.16a.38.38,0,0,1,.3-.15h0a.37.37,0,0,1,.3.15l.85,1.16a.39.39,0,0,1-.08.54.38.38,0,0,1-.52-.07h0L12,20.55l-.54.75A.38.38,0,0,1,11.16,21.45Z" transform="translate(0 0)" fill="#fff"/><path d="M18.55,9.74a.39.39,0,0,1-.38-.38,7.63,7.63,0,0,0-1-3.91A6.12,6.12,0,0,0,14.49,3a.39.39,0,0,1-.19-.51.38.38,0,0,1,.49-.19h0a6.8,6.8,0,0,1,3,2.76,8.44,8.44,0,0,1,1.14,4.3.38.38,0,0,1-.37.39Z" transform="translate(0 0)" fill="#fff"/><path d="M13,2.54h0a5.83,5.83,0,0,0-.59,0,.39.39,0,0,1,0-.77c.23,0,.45,0,.68,0a.39.39,0,0,1,.33.43.41.41,0,0,1-.38.34Z" transform="translate(0 0)" fill="#fff"/><path d="M10.56,10.5a1.58,1.58,0,0,0,1.07-1.61V8.83A1.81,1.81,0,0,0,11.44,8a1.68,1.68,0,0,0-.51-.55,2,2,0,0,0-.74-.29A4.31,4.31,0,0,0,9.31,7c-.3,0-.6,0-.85,0a6.55,6.55,0,0,0-.7.06.2.2,0,0,0-.2,0,.33.33,0,0,0-.06.19v5.45a.17.17,0,0,0,.17.14H8.5a.16.16,0,0,0,.15-.17V10.64l.34,0h.47l1.16,2.1a.16.16,0,0,0,.05.11.14.14,0,0,0,.09,0h1s.06-.06.06-.09l0,0Zm0-1.71h0a.9.9,0,0,1-.31.73,1.89,1.89,0,0,1-.91.2h-.7V7.93h.72a1.38,1.38,0,0,1,.91.2.77.77,0,0,1,.29.66Z" transform="translate(0 0)" fill="#fff"/><path d="M16.43,11.29l0-.57a2,2,0,0,0-.48-1.56,2,2,0,0,0-1.53-.54,2.88,2.88,0,0,0-.83,0,2.59,2.59,0,0,0-.83.2.72.72,0,0,0-.2.09.21.21,0,0,0,0,.13v5.78a.16.16,0,0,0,.15.16h.8a.18.18,0,0,0,.15-.18V13.35c.17,0,.31,0,.44,0h.37A1.9,1.9,0,0,0,16,12.85,2.25,2.25,0,0,0,16.43,11.29Zm-1.11-.66,0,.63a1.55,1.55,0,0,1,0,.48.9.9,0,0,1-.13.39.59.59,0,0,1-.27.27,1.12,1.12,0,0,1-.44.09c-.13,0-.27,0-.39,0a1.2,1.2,0,0,1-.42,0V9.52l.36,0a1.47,1.47,0,0,1,.47,0,1.34,1.34,0,0,1,.44.1.61.61,0,0,1,.27.23,1.2,1.2,0,0,1,.13.39,1.78,1.78,0,0,1,0,.46Z" transform="translate(0 0)" fill="#fff"/></svg>