<svg id="Layer_1" data-name="Layer 1" xmlns="http://www.w3.org/2000/svg" viewBox="0 0 25 25"><title>ic-oto-white</title><rect width="25" height="25" fill="none"/><path d="M6.47,22H4.22a1.86,1.86,0,0,1-1.88-1.83V17.11a.44.44,0,0,1,.42-.48.45.45,0,0,1,.48.42v3.08a.94.94,0,0,0,1,.94H6.46a.83.83,0,0,0,.85-.83.37.37,0,0,0,0-.11v-.41a.45.45,0,1,1,.9-.06v.47A1.75,1.75,0,0,1,6.58,22Z" transform="translate(0 0)" fill="#fff"/><path d="M18.59,19.77H6.79a4.72,4.72,0,0,1-2.2-.67h0L4,18.76A5.19,5.19,0,0,1,1.4,14.24V12.71a4,4,0,0,1,.91-2.49h0L3.41,8.89H1.58A1.6,1.6,0,0,1,0,7.27H0v-.6A1.45,1.45,0,0,1,1.43,5.2h2a1.18,1.18,0,0,1,1.15.9l0,.16h0a.2.2,0,0,0,.1.12H4.8l.14-.26h0A7.5,7.5,0,0,1,11.58,2h8a.46.46,0,0,1,.46.46h0a.45.45,0,0,1-.45.47h-8A6.62,6.62,0,0,0,5.74,6.55l-.26.52a.43.43,0,0,1-.4.25H4.67a1,1,0,0,1-1-.81l0-.16v0a.28.28,0,0,0-.28-.2H1.43a.55.55,0,0,0-.53.54v.6A.68.68,0,0,0,1.58,8H4.24a.43.43,0,0,1,.38.22.45.45,0,0,1,0,.45l-.21.43-.06.09L3,10.81a3,3,0,0,0-.7,1.9v1.53A4.25,4.25,0,0,0,4.48,18h0l.53.33a3.68,3.68,0,0,0,1.76.55h11.8a.47.47,0,1,1,0,.93Z" transform="translate(0 0)" fill="#fff"/><path d="M17.37,16.68H10.44A7.35,7.35,0,0,1,9,16.5l-.11,0h0l-.55-.13a1,1,0,0,1-.92-.91,1,1,0,0,1,.77-1h.21a11.58,11.58,0,0,1,3.2-.42h5.13a.47.47,0,1,1,0,.93H11.62a10.41,10.41,0,0,0-3,.39l-.1,0H8.39a.34.34,0,0,0,.14,0h0l.56.13.1,0a6.38,6.38,0,0,0,1.24.16h6.92a.47.47,0,0,1,0,.93ZM6.09,14.88a1.12,1.12,0,0,1-.31-.05l-1.67-.49a2.35,2.35,0,0,1-1.47-1.27.47.47,0,0,1,.21-.62.44.44,0,0,1,.59.21h0a1.47,1.47,0,0,0,.91.78L6,13.94a.23.23,0,0,0,.25-.09l.27-.36a.26.26,0,0,0,0-.19.23.23,0,0,0-.1-.16L3.82,11.2a.47.47,0,0,1-.11-.64.45.45,0,0,1,.62-.13h0l2.67,2a1.18,1.18,0,0,1,.47.77,1.2,1.2,0,0,1-.21.88L7,14.41a1.13,1.13,0,0,1-.91.47ZM14.59,9C9.07,9,6.87,8.11,6.33,7.84h0a.35.35,0,0,1-.2-.18.46.46,0,0,1,0-.38A5.9,5.9,0,0,1,8,4.39a.43.43,0,0,1,.62.06v0a.46.46,0,0,1-.08.65,4.94,4.94,0,0,0-1.51,2c.83.31,3,.9,7.52.9.82,0,1.62,0,2.38-.06a.46.46,0,0,1,.48.44.47.47,0,0,1-.43.49c-.78,0-1.6.06-2.44.06ZM6.44,7.88Z" transform="translate(0 0)" fill="#fff"/><path d="M23.46,7.72a1.92,1.92,0,0,0,1.29-1.95V5.7a2.47,2.47,0,0,0-.23-1A1.93,1.93,0,0,0,23.91,4,2.23,2.23,0,0,0,23,3.65,4.77,4.77,0,0,0,22,3.54c-.36,0-.71,0-1,0s-.61,0-.84.06a.26.26,0,0,0-.24.06.3.3,0,0,0-.06.23v6.58a.2.2,0,0,0,.2.18h1a.2.2,0,0,0,.17-.2V7.89l.41,0h.56l1.39,2.55a.26.26,0,0,0,.06.13.15.15,0,0,0,.11,0h1.23s.06-.07.06-.11l0,0Zm0-2.06h0a1.11,1.11,0,0,1-.37.88,2.17,2.17,0,0,1-1.1.24h-.83V4.61H22a1.77,1.77,0,0,1,1.1.24,1,1,0,0,1,.35.8Z" transform="translate(0 0)" fill="#fff"/><path d="M25,15.12l0-.69a2.56,2.56,0,0,0-.58-1.88,2.4,2.4,0,0,0-1.83-.66,4.17,4.17,0,0,0-1,0,3.06,3.06,0,0,0-1,.25.66.66,0,0,0-.24.11.42.42,0,0,0,0,.16v7a.19.19,0,0,0,.18.19h1a.23.23,0,0,0,.18-.22V17.62c.2,0,.37.05.52.05h.45A2.25,2.25,0,0,0,24.41,17,2.75,2.75,0,0,0,25,15.12Zm-1.34-.8,0,.77a2.27,2.27,0,0,1,0,.58,1.1,1.1,0,0,1-.16.47.78.78,0,0,1-.32.33,1.4,1.4,0,0,1-.53.11,3.73,3.73,0,0,1-.47,0,1.67,1.67,0,0,1-.5,0V13A2.09,2.09,0,0,1,22,13a1.84,1.84,0,0,1,.57,0,1.52,1.52,0,0,1,.52.12.81.81,0,0,1,.33.28,2,2,0,0,1,.15.47,2.12,2.12,0,0,1,0,.56Z" transform="translate(0 0)" fill="#fff"/></svg>