<svg id="Layer_1" data-name="Layer 1" xmlns="http://www.w3.org/2000/svg" viewBox="0 0 25 25"><title>ic-user-inactive</title><path d="M13.73,1h0a1.52,1.52,0,0,0,2,.4h0a1.53,1.53,0,0,1,2.1.5,1.85,1.85,0,0,1,.18.44h0a1.53,1.53,0,0,0,1.72,1.16h0A1.52,1.52,0,0,1,21.5,4.78a1.24,1.24,0,0,1,0,.47h0A1.54,1.54,0,0,0,22.65,7h0A1.52,1.52,0,0,1,23.78,8.8a1.34,1.34,0,0,1-.19.44h0a1.53,1.53,0,0,0,.4,2h0a1.52,1.52,0,0,1,.34,2.13,1.57,1.57,0,0,1-.34.34h0a1.53,1.53,0,0,0-.4,2h0a1.52,1.52,0,0,1-.5,2.09,1.34,1.34,0,0,1-.44.19h0a1.52,1.52,0,0,0-1.15,1.71h0a1.53,1.53,0,0,1-1.26,1.75,1.93,1.93,0,0,1-.48,0h0A1.51,1.51,0,0,0,18,22.66h0a1.53,1.53,0,0,1-2.28.94h0a1.52,1.52,0,0,0-2,.4h0a1.52,1.52,0,0,1-2.12.34,1.37,1.37,0,0,1-.34-.34h0a1.53,1.53,0,0,0-2-.4h0a1.53,1.53,0,0,1-2.1-.5A1.85,1.85,0,0,1,7,22.66H7a1.52,1.52,0,0,0-1.72-1.15h0A1.52,1.52,0,0,1,3.5,20.24a1.93,1.93,0,0,1,0-.48h0a1.5,1.5,0,0,0-1.15-1.71h0a1.53,1.53,0,0,1-1.12-1.84,1.7,1.7,0,0,1,.18-.44h0a1.52,1.52,0,0,0-.4-2H1a1.52,1.52,0,0,1-.34-2.12A1.57,1.57,0,0,1,1,11.28H1a1.53,1.53,0,0,0,.4-2h0a1.53,1.53,0,0,1,.5-2.1A1.77,1.77,0,0,1,2.36,7h0A1.51,1.51,0,0,0,3.5,5.25h0A1.52,1.52,0,0,1,4.77,3.51a1.85,1.85,0,0,1,.47,0h0A1.52,1.52,0,0,0,7,2.36H7A1.53,1.53,0,0,1,8.8,1.23a1.85,1.85,0,0,1,.44.18h0a1.51,1.51,0,0,0,2-.4h0A1.52,1.52,0,0,1,13.39.67,1.57,1.57,0,0,1,13.73,1Z" transform="translate(0 0)" fill="#9aa3a9"/><circle cx="12.5" cy="12.5" r="9.09" fill="#9aa3a9"/><path d="M12.5,22A9.47,9.47,0,1,1,22,12.5h0A9.48,9.48,0,0,1,12.5,22Zm0-18.18a8.71,8.71,0,1,0,8.71,8.71h0A8.72,8.72,0,0,0,12.5,3.79Z" transform="translate(0 0)" fill="#fff"/><path d="M17.56,15.13l-2.33-.62H12.51v7.08a9,9,0,0,0,6.56-2.81v-1.7A2,2,0,0,0,17.56,15.13Z" transform="translate(0 0)" fill="#9aa3a9"/><path d="M9.78,14.52l-2.34.61a2,2,0,0,0-1.5,2v1.7A9.08,9.08,0,0,0,12.5,21.6V14.52Z" transform="translate(0 0)" fill="#9aa3a9"/><path d="M12.5,22a.38.38,0,0,1-.38-.38V14.52a.38.38,0,0,1,.38-.38h2.82l2.34.61a2.39,2.39,0,0,1,1.78,2.33v1.7a.37.37,0,0,1-.1.26A9.39,9.39,0,0,1,12.5,22Zm.38-7.08v6.32a8.68,8.68,0,0,0,5.81-2.58V17.09a1.64,1.64,0,0,0-1.22-1.59h0l-2.3-.6H12.88Z" transform="translate(0 0)" fill="#fff"/><path d="M12.5,22A9.36,9.36,0,0,1,5.66,19a.41.41,0,0,1-.11-.26v-1.7a2.4,2.4,0,0,1,1.79-2.32l2.34-.62H12.5a.38.38,0,0,1,.38.38v7.08a.38.38,0,0,1-.36.38ZM6.31,18.63a8.64,8.64,0,0,0,5.81,2.58V14.9H9.83l-2.3.6a1.64,1.64,0,0,0-1.22,1.58Z" transform="translate(0 0)" fill="#fff"/><path d="M12.5,17.07s2.7-1.46,2.72-2.55a2.12,2.12,0,0,1-1.12-1.47c0-.1,0-.7,0-.79H11c0,.11,0,.72-.06.83a2,2,0,0,1-1.11,1.42C9.81,15.61,12.5,17.07,12.5,17.07Z" transform="translate(0 0)" fill="#9aa3a9"/><path d="M12.5,17.45a.53.53,0,0,1-.18,0c-.49-.27-2.89-1.64-2.92-2.89a.38.38,0,0,1,.22-.35,1.64,1.64,0,0,0,.9-1.15c0-.07,0-.29,0-.47s0-.29,0-.33a.38.38,0,0,1,.37-.34h3.12a.37.37,0,0,1,.37.33s0,.18,0,.33a4.33,4.33,0,0,0,0,.44,1.76,1.76,0,0,0,.92,1.2.37.37,0,0,1,.21.34c0,1.26-2.43,2.62-2.92,2.88A.26.26,0,0,1,12.5,17.45Zm-2.29-2.74a6.57,6.57,0,0,0,2.29,1.93,6.41,6.41,0,0,0,2.29-1.94,2.49,2.49,0,0,1-1.07-1.59,3.71,3.71,0,0,1,0-.47H11.3c0,.29,0,.44,0,.52a2.42,2.42,0,0,1-1.06,1.55Z" transform="translate(0 0)" fill="#fff"/><path d="M15.66,9.59a3.16,3.16,0,0,0-6.32-.26v.26c0,2.09,1.42,3.78,3.16,3.78S15.66,11.68,15.66,9.59Z" transform="translate(0 0)" fill="#9aa3a9"/><path d="M12.5,8.81a5.21,5.21,0,0,0-2.93-.54,3.94,3.94,0,0,0-.23,1.32c0,2.09,1.42,3.79,3.16,3.79s3.16-1.7,3.16-3.79a4.4,4.4,0,0,0-.06-.73A3.93,3.93,0,0,1,12.5,8.81Z" transform="translate(0 0)" fill="#9aa3a9"/><path d="M12.5,13.75C10.55,13.75,9,11.88,9,9.59a4,4,0,0,1,.24-1.46.37.37,0,0,1,.3-.24,5.63,5.63,0,0,1,3.15.57,3.46,3.46,0,0,0,2.8,0,.4.4,0,0,1,.32,0,.4.4,0,0,1,.19.27,5.29,5.29,0,0,1,.07.8C16,11.88,14.45,13.75,12.5,13.75ZM9.85,8.61a4.06,4.06,0,0,0-.13,1C9.72,11.47,11,13,12.5,13s2.78-1.53,2.78-3.41a1.77,1.77,0,0,0,0-.23,4.15,4.15,0,0,1-2.92-.2h0A5.17,5.17,0,0,0,9.85,8.61Z" transform="translate(0 0)" fill="#fff"/><path d="M12.5,13.75C10.55,13.75,9,11.88,9,9.59A3.54,3.54,0,0,1,16,9.32v.27C16,11.89,14.45,13.75,12.5,13.75Zm0-7.07a2.69,2.69,0,0,0-2.78,2.6,1.5,1.5,0,0,0,0,.3C9.72,11.46,11,13,12.5,13s2.78-1.53,2.78-3.41A2.7,2.7,0,0,0,12.8,6.69Z" transform="translate(0 0)" fill="#fff"/><path d="M12.5,25A1.91,1.91,0,0,1,11,24.22a1.16,1.16,0,0,0-1.53-.3,1.89,1.89,0,0,1-2.61-.63,2.06,2.06,0,0,1-.23-.55,1.14,1.14,0,0,0-1.29-.86,1.9,1.9,0,0,1-2.17-1.57,1.57,1.57,0,0,1,0-.61,1.15,1.15,0,0,0-.87-1.29,1.89,1.89,0,0,1-1.4-2.29,1.65,1.65,0,0,1,.23-.55A1.16,1.16,0,0,0,.79,14a1.9,1.9,0,0,1-.42-2.66A2.09,2.09,0,0,1,.79,11a1.14,1.14,0,0,0,.3-1.52,1.91,1.91,0,0,1,.62-2.62,2.21,2.21,0,0,1,.55-.23A1.15,1.15,0,0,0,3.13,5.3,1.89,1.89,0,0,1,4.69,3.13a2.08,2.08,0,0,1,.61,0,1.15,1.15,0,0,0,1.29-.86A1.89,1.89,0,0,1,9.43,1.09,1.16,1.16,0,0,0,11,.79,1.86,1.86,0,0,1,12.5,0h0A1.86,1.86,0,0,1,14,.79a1.14,1.14,0,0,0,1.52.3,1.9,1.9,0,0,1,2.61.62,1.62,1.62,0,0,1,.23.56,1.16,1.16,0,0,0,1.3.86,1.86,1.86,0,0,1,1.64.53,1.88,1.88,0,0,1,.53,1.64,1.15,1.15,0,0,0,.87,1.29,1.9,1.9,0,0,1,1.4,2.29,1.7,1.7,0,0,1-.23.56,1.14,1.14,0,0,0,.3,1.52,1.9,1.9,0,0,1,.43,2.65,2,2,0,0,1-.43.43,1.16,1.16,0,0,0-.3,1.53,1.89,1.89,0,0,1-.63,2.61,1.78,1.78,0,0,1-.55.23,1.14,1.14,0,0,0-.86,1.29,1.92,1.92,0,0,1-1.58,2.18,2,2,0,0,1-.6,0,1.14,1.14,0,0,0-1.29.86,1.91,1.91,0,0,1-2.29,1.41,2.28,2.28,0,0,1-.56-.23,1.13,1.13,0,0,0-1.52.3A1.85,1.85,0,0,1,12.5,25ZM10,23a1.93,1.93,0,0,1,1.55.78,1.12,1.12,0,0,0,.92.48h0a1.12,1.12,0,0,0,.92-.48,1.91,1.91,0,0,1,2.54-.5,1.14,1.14,0,0,0,1,.08,1.15,1.15,0,0,0,.68-.79,1.89,1.89,0,0,1,2.14-1.43,1.15,1.15,0,0,0,1.31-.95,1.09,1.09,0,0,0,0-.36,1.91,1.91,0,0,1,1.44-2.15,1.13,1.13,0,0,0,.84-1.37,1.2,1.2,0,0,0-.13-.33,1.91,1.91,0,0,1,.5-2.54A1.15,1.15,0,0,0,24,11.84a1.28,1.28,0,0,0-.26-.26,1.91,1.91,0,0,1-.51-2.53,1.13,1.13,0,0,0-.7-1.71,1.92,1.92,0,0,1-1.44-2.15,1.14,1.14,0,0,0-.95-1.31,1.45,1.45,0,0,0-.36,0,1.92,1.92,0,0,1-2.14-1.44,1.15,1.15,0,0,0-1.38-.84,1.2,1.2,0,0,0-.33.13,1.91,1.91,0,0,1-2.54-.5h0a1.12,1.12,0,0,0-.92-.48h0a1.15,1.15,0,0,0-.93.48,1.9,1.9,0,0,1-2.53.5,1.14,1.14,0,0,0-1.71.71A1.91,1.91,0,0,1,5.2,3.89a1.13,1.13,0,0,0-1.31,1.3A1.91,1.91,0,0,1,2.46,7.34a1.14,1.14,0,0,0-.85,1.38,1.56,1.56,0,0,0,.14.33,1.91,1.91,0,0,1-.51,2.53A1.15,1.15,0,0,0,1,13.18a1.18,1.18,0,0,0,.25.25A1.91,1.91,0,0,1,1.75,16a1.16,1.16,0,0,0-.08,1,1.1,1.1,0,0,0,.79.67,1.91,1.91,0,0,1,1.43,2.15A1.14,1.14,0,0,0,5.2,21.13a1.88,1.88,0,0,1,2.14,1.43,1.15,1.15,0,0,0,1.38.84,1.2,1.2,0,0,0,.33-.13A1.89,1.89,0,0,1,10,23Z" transform="translate(0 0)" fill="#9aa3a9"/></svg>